<?xml version="1.0" encoding="utf-8"?>
<!-- Generator: Adobe Illustrator 23.0.1, SVG Export Plug-In . SVG Version: 6.00 Build 0)  -->
<svg version="1.1" id="Layer_1" xmlns="http://www.w3.org/2000/svg" xmlns:xlink="http://www.w3.org/1999/xlink" x="0px" y="0px"
	 viewBox="0 0 100 55.7" style="enable-background:new 0 0 100 55.7;" xml:space="preserve">
<style type="text/css">
	.st0{fill:#FF6C5B;}
	.st1{fill:#221E1F;}
</style>
<g>
	<rect y="50.7" class="st0" width="100" height="4.9"/>
	<g>
		<g>
			<path class="st1" d="M89,38c0,3.5-2.8,6.7-7.2,6.7c-3.9,0-6.5-2.6-6.5-6.6c0-9.3,10-8.4,13.7-14.4V38z M71.1,23
				c0-6.3,4.8-10.3,10.1-10.3s8.1,2.7,8.1,7c0,12.5-19.2,6.4-19.2,18.8c0,5.1,4.1,7.9,8.8,7.9c5.2,0,9-3.4,10.3-6.3
				c0.4,4.3,2.1,6.3,5.5,6.3c3.8,0,5.4-3.3,5.5-5.2h-0.2c-0.2,1.8-1.4,3-3.1,3c-1.5,0-2.7-1-2.7-3V23.9c0-7.6-3.6-12.1-11.2-12.1
				c-6.8,0-11.9,4.8-11.9,11.2L71.1,23L71.1,23z"/>
		</g>
		<g>
			<path class="st1" d="M19.2,37.9c0,3.5-2.8,6.7-7.2,6.7c-3.9,0-6.5-2.6-6.5-6.6c0-9.3,10-8.4,13.7-14.4
				C19.2,23.6,19.2,37.9,19.2,37.9z M31.7,17.5c0,11.5-7.9,17.7-16.7,17.7c-8.3,0-13.6-4.8-13.6-12.2c0-6.3,4.8-10.3,10.1-10.3
				s8.1,2.7,8.1,7c0,12.5-19.2,6.4-19.2,18.8c0,5.1,4.1,7.9,8.8,7.9c5.2,0,9-3.4,10.3-6.3c0.3,4.3,2.1,6.3,5.5,6.3
				c3.8,0,5.4-3.3,5.5-5.2h-0.2c-0.2,1.8-1.4,3-3.1,3c-1.5,0-2.7-1-2.7-3V23.8c0-7.6-3.6-12.1-11.2-12.1c-6.8,0-11.9,4.8-11.9,11.2
				c0,7.4,5.4,12.3,13.8,12.3C23.8,35.2,31.8,29,31.7,17.5C31.8,7.4,24.5,1,14.8,1C3.4,1,0.2,8.8,0.2,8.8h0.1c0,0,3.1-7.7,14.4-7.7
				C24.5,1.1,31.7,7.5,31.7,17.5z M61.9,24.4c0-7.5-3.1-12.4-9.5-12.4c-5.4,0-9,3.7-10.1,6.9V0H33v0.2h4.1v45.4H33v0.2h13.2v-0.2
				h-4.1V22c0-4.4,3.2-9.1,8.1-9.1c4,0,6.5,2.4,6.5,6.8v19.4c0,4.6,2,7.3,5.4,7.3c3.9,0,5.5-3.3,5.6-5.2h-0.2c-0.1,1.8-1.4,3-2.9,3
				c-1.5,0-2.8-1-2.8-3V24.4L61.9,24.4z"/>
		</g>
	</g>
</g>
</svg>
