<?xml version="1.0" encoding="utf-8"?>
<!-- Generator: Adobe Illustrator 23.0.1, SVG Export Plug-In . SVG Version: 6.00 Build 0)  -->
<svg version="1.1" id="Layer_1" xmlns="http://www.w3.org/2000/svg" xmlns:xlink="http://www.w3.org/1999/xlink" x="0px" y="0px"
	 viewBox="0 0 100 43.59" style="enable-background:new 0 0 100 43.59;" xml:space="preserve">
<style type="text/css">
	.st0{fill:#231F20;}
	.st1{fill:#BE1F38;}
</style>
<path class="st0" d="M7.93,30.01c-0.73-0.26-1.32-0.62-1.76-1.08c-0.44-0.46-0.74-1.03-0.92-1.69c-0.18-0.66-0.31-1.65-0.31-3.07
	c0-1.41,0.15-2.78,0.31-3.39c0.18-0.67,0.48-1.23,0.92-1.69C6.61,18.62,7.2,18.26,7.93,18c0.72-0.26,1.62-0.38,2.71-0.39l0.64,0
	c3.77,0,5.4-4.01,5.4-4.01H9.95c-1.84,0-3.4,0.26-4.66,0.78c-1.26,0.52-2.29,1.27-3.08,2.25c-0.79,0.99-1.36,2.18-1.71,3.58
	C0.39,20.69,0,22.26,0,23.76c0,1.47,0.2,3.03,0.51,4.24c0.35,1.4,0.92,2.6,1.71,3.58c0.79,0.98,1.82,1.74,3.08,2.26
	c1.15,0.48,2.55,0.73,4.19,0.77h2.31l4.15-4.2l-5.09,0C9.78,30.4,8.65,30.27,7.93,30.01z"/>
<path class="st0" d="M92.17,13.59c-1.44,0-2.43,0.25-3.12,0.48c-0.95,0.33-1.73,0.8-2.33,1.39c-0.6,0.59-1.03,1.31-1.3,2.17
	c-0.26,0.85-0.39,1.8-0.39,2.84l0,14.12h4.92l0-14.18c0-1.68,0.82-3.06,2.46-3.06h3.54l4.05-3.77C100,13.59,92.81,13.59,92.17,13.59
	z"/>
<path class="st1" d="M79.04,39.22h0.59c0.2,0,0.37,0.04,0.5,0.11c0.13,0.07,0.24,0.17,0.32,0.31c0.08,0.14,0.14,0.3,0.17,0.49
	c0.03,0.2,0.05,0.42,0.05,0.67c0,0.25-0.02,0.47-0.05,0.67c-0.03,0.2-0.09,0.36-0.17,0.49c-0.08,0.13-0.19,0.23-0.32,0.31
	c-0.13,0.07-0.3,0.1-0.5,0.1h-0.59V39.22z M79.61,43.37c0.44,0,0.79-0.07,1.08-0.2c0.28-0.13,0.51-0.31,0.67-0.54
	c0.16-0.23,0.28-0.51,0.34-0.82c0.07-0.31,0.1-0.66,0.1-1.02c0-0.37-0.04-0.71-0.1-1.02c-0.07-0.32-0.18-0.59-0.34-0.82
	c-0.17-0.23-0.39-0.41-0.67-0.54c-0.29-0.13-0.64-0.2-1.08-0.2h-1.67v5.15H79.61z M75.67,39.51c0.15,0.26,0.22,0.69,0.22,1.29
	c0,0.6-0.07,1.03-0.22,1.29c-0.14,0.26-0.38,0.39-0.72,0.39c-0.34,0-0.58-0.13-0.73-0.39C74.08,41.83,74,41.4,74,40.8
	c0-0.6,0.07-1.03,0.21-1.29c0.15-0.26,0.39-0.39,0.73-0.39C75.29,39.12,75.53,39.25,75.67,39.51 M75.95,43.27
	c0.26-0.13,0.48-0.31,0.63-0.55c0.15-0.24,0.27-0.52,0.33-0.85C76.97,41.55,77,41.19,77,40.8c0-0.39-0.03-0.75-0.09-1.08
	c-0.06-0.33-0.17-0.61-0.33-0.85c-0.15-0.24-0.37-0.42-0.63-0.55c-0.27-0.13-0.6-0.2-1-0.2c-0.41,0-0.74,0.07-1.01,0.2
	c-0.26,0.13-0.47,0.31-0.63,0.55c-0.16,0.24-0.26,0.52-0.33,0.85c-0.06,0.33-0.09,0.69-0.09,1.08c0,0.39,0.03,0.75,0.09,1.08
	c0.06,0.33,0.17,0.61,0.33,0.85c0.16,0.23,0.36,0.42,0.63,0.55c0.26,0.13,0.6,0.2,1.01,0.2C75.35,43.47,75.68,43.41,75.95,43.27
	 M70.65,39.51c0.15,0.26,0.22,0.69,0.22,1.29c0,0.6-0.07,1.03-0.22,1.29c-0.14,0.26-0.39,0.39-0.72,0.39
	c-0.34,0-0.58-0.13-0.73-0.39c-0.14-0.26-0.21-0.69-0.21-1.29c0-0.6,0.07-1.03,0.21-1.29c0.15-0.26,0.39-0.39,0.73-0.39
	C70.27,39.12,70.51,39.25,70.65,39.51 M70.93,43.27c0.27-0.13,0.48-0.31,0.63-0.55c0.16-0.24,0.27-0.52,0.33-0.85
	c0.06-0.33,0.09-0.69,0.09-1.08c0-0.39-0.03-0.75-0.09-1.08c-0.06-0.33-0.17-0.61-0.33-0.85c-0.15-0.24-0.36-0.42-0.63-0.55
	c-0.26-0.13-0.6-0.2-1-0.2c-0.41,0-0.75,0.07-1.01,0.2c-0.26,0.13-0.47,0.31-0.63,0.55c-0.16,0.24-0.27,0.52-0.33,0.85
	c-0.06,0.33-0.09,0.69-0.09,1.08c0,0.39,0.03,0.75,0.09,1.08c0.06,0.33,0.17,0.61,0.33,0.85c0.16,0.23,0.36,0.42,0.63,0.55
	c0.26,0.13,0.6,0.2,1.01,0.2C70.33,43.47,70.67,43.41,70.93,43.27 M66.29,43.37c0.29-0.07,0.51-0.15,0.67-0.25v-2.73h-1.83v0.98
	h0.73v1.05c-0.04,0.01-0.08,0.01-0.15,0.02c-0.06,0-0.12,0-0.17,0c-0.24,0-0.44-0.03-0.61-0.08c-0.17-0.05-0.3-0.14-0.41-0.26
	c-0.1-0.13-0.18-0.29-0.23-0.5c-0.05-0.21-0.07-0.48-0.07-0.8c0-0.3,0.02-0.56,0.06-0.77c0.04-0.21,0.12-0.38,0.22-0.51
	c0.1-0.13,0.24-0.22,0.4-0.28c0.16-0.06,0.37-0.09,0.61-0.09c0.22,0,0.43,0.03,0.66,0.07c0.22,0.05,0.44,0.12,0.66,0.21v-1.07
	c-0.16-0.07-0.36-0.13-0.61-0.17c-0.25-0.05-0.55-0.07-0.91-0.07c-0.78,0-1.35,0.22-1.69,0.66c-0.35,0.44-0.52,1.11-0.52,2.01
	c0,0.9,0.17,1.57,0.52,2.01c0.34,0.44,0.9,0.67,1.67,0.67C65.68,43.47,66.01,43.44,66.29,43.37 M60.86,38.22H59.6l-0.93,2.15
	l-0.94-2.15h-1.26l1.63,3.15v2h1.11v-2L60.86,38.22z M53.61,39.22h0.75c0.12,0,0.22,0.02,0.29,0.05c0.07,0.04,0.13,0.08,0.16,0.15
	c0.04,0.06,0.07,0.13,0.08,0.2c0.02,0.07,0.02,0.14,0.02,0.21c0,0.07,0,0.14-0.02,0.21c-0.01,0.07-0.04,0.14-0.08,0.2
	c-0.04,0.06-0.09,0.11-0.16,0.14c-0.07,0.04-0.17,0.05-0.29,0.05h-0.75V39.22z M53.61,41.44h0.71l0.69,1.93h1.28l-0.91-2.15
	c0.27-0.13,0.46-0.32,0.56-0.55c0.11-0.23,0.16-0.51,0.16-0.83c0-0.25-0.03-0.47-0.1-0.66c-0.06-0.2-0.16-0.37-0.31-0.51
	c-0.15-0.14-0.33-0.25-0.57-0.33c-0.23-0.07-0.52-0.11-0.87-0.11h-1.75v5.15h1.1V41.44z M49.65,39.49l0.44,1.95h-0.88L49.65,39.49z
	 M48.75,43.37l0.24-1.06h1.31l0.24,1.06h1.17l-1.43-5.18h-1.27l-1.43,5.18H48.75z M43.73,42.03c0.09,0.34,0.23,0.62,0.41,0.83
	c0.18,0.21,0.41,0.37,0.69,0.46c0.28,0.1,0.61,0.15,0.98,0.15c0.15,0,0.28-0.01,0.39-0.02c0.11-0.01,0.21-0.03,0.29-0.05
	c0.09-0.02,0.16-0.04,0.22-0.06c0.06-0.02,0.12-0.05,0.17-0.07v-1.04c-0.16,0.07-0.3,0.12-0.44,0.15c-0.14,0.04-0.31,0.05-0.52,0.05
	c-0.21,0-0.39-0.03-0.55-0.07c-0.15-0.05-0.28-0.13-0.38-0.25c-0.1-0.13-0.17-0.29-0.22-0.51c-0.05-0.21-0.07-0.48-0.07-0.81
	c0-0.33,0.02-0.6,0.07-0.81c0.05-0.21,0.12-0.38,0.22-0.5c0.1-0.12,0.23-0.21,0.38-0.26c0.15-0.05,0.34-0.07,0.55-0.07
	c0.21,0,0.38,0.02,0.52,0.05c0.14,0.03,0.29,0.08,0.44,0.15v-1.04c-0.05-0.02-0.1-0.04-0.17-0.06c-0.06-0.02-0.13-0.05-0.22-0.07
	c-0.08-0.02-0.18-0.04-0.29-0.05c-0.11-0.01-0.24-0.02-0.39-0.02c-0.38,0-0.71,0.05-0.98,0.15c-0.28,0.09-0.51,0.25-0.69,0.46
	c-0.19,0.21-0.32,0.49-0.41,0.83c-0.09,0.34-0.14,0.75-0.14,1.24C43.6,41.28,43.64,41.69,43.73,42.03 M40.65,40.17
	c-0.09-0.03-0.17-0.06-0.23-0.1c-0.06-0.04-0.1-0.09-0.12-0.16c-0.03-0.06-0.04-0.14-0.04-0.23c0-0.17,0.08-0.29,0.23-0.38
	c0.15-0.09,0.37-0.13,0.66-0.13c0.13,0,0.26,0.01,0.4,0.02c0.14,0.02,0.27,0.04,0.38,0.06c0.12,0.03,0.24,0.05,0.34,0.09
	c0.1,0.03,0.19,0.07,0.26,0.1v-1.06c-0.12-0.07-0.3-0.12-0.56-0.18c-0.25-0.05-0.55-0.08-0.9-0.08c-0.34,0-0.63,0.04-0.88,0.11
	c-0.25,0.07-0.45,0.18-0.6,0.31c-0.16,0.14-0.27,0.3-0.34,0.49c-0.08,0.19-0.11,0.4-0.11,0.64c0,0.25,0.03,0.47,0.1,0.65
	c0.07,0.18,0.17,0.33,0.32,0.45c0.14,0.12,0.33,0.22,0.56,0.29c0.23,0.08,0.51,0.13,0.83,0.18c0.13,0.02,0.24,0.04,0.33,0.07
	c0.09,0.03,0.16,0.06,0.22,0.11c0.05,0.04,0.09,0.1,0.12,0.17c0.02,0.07,0.03,0.15,0.03,0.25c0,0.09-0.02,0.17-0.05,0.24
	c-0.03,0.07-0.09,0.14-0.16,0.18c-0.08,0.05-0.18,0.09-0.31,0.12c-0.13,0.03-0.29,0.05-0.48,0.05c-0.17,0-0.33-0.02-0.49-0.04
	c-0.15-0.03-0.3-0.06-0.43-0.1c-0.13-0.04-0.24-0.08-0.34-0.13c-0.1-0.05-0.18-0.09-0.24-0.12v1.13c0.09,0.06,0.2,0.1,0.33,0.14
	c0.13,0.04,0.26,0.07,0.4,0.1c0.14,0.02,0.29,0.04,0.44,0.06c0.15,0.01,0.29,0.02,0.43,0.02c0.3,0,0.58-0.03,0.83-0.09
	c0.25-0.06,0.46-0.17,0.64-0.3c0.18-0.14,0.31-0.32,0.41-0.54c0.1-0.22,0.15-0.49,0.15-0.81c0-0.27-0.04-0.5-0.12-0.67
	c-0.08-0.18-0.19-0.32-0.34-0.42c-0.15-0.11-0.33-0.19-0.55-0.25c-0.22-0.06-0.48-0.11-0.76-0.15
	C40.86,40.22,40.74,40.2,40.65,40.17"/>
<path class="st0" d="M35.82,19.92c0-2.33-0.89-5.37-4.13-6.18c-3.7-0.93-6.75,0.55-8.22,0.85L23.48,0l-4.91,4.83l-0.02,29.78h4.92
	l0.01-16.63c0.51-0.22,1.07-0.47,1.22-0.52c0.79-0.25,1.75-0.38,2.85-0.38c2.24,0,3.37,1.04,3.37,3.12v16.89
	c0,4.44,4.91,6.5,4.91,6.5V19.92z"/>
<path class="st0" d="M43.88,34.81c0,0-4.92-1.99-4.92-6.62l0-14.62h4.92L43.88,34.81z"/>
<path class="st0" d="M52.23,34.81c0,0-4.92-1.99-4.92-6.62l0-18.92l4.93-4.92L52.23,34.81z"/>
<path class="st0" d="M60.52,34.81c0,0-4.92-1.99-4.92-6.62l0-18.92l4.93-4.92L60.52,34.81z"/>
<polygon class="st1" points="43.88,4.34 43.88,9.27 38.96,9.27 "/>
<path class="st0" d="M81.98,19.74c-0.21-1.25-0.63-2.36-1.27-3.3c-0.64-0.94-1.55-1.69-2.72-2.25c-1.17-0.56-2.72-0.84-4.66-0.84
	c-1.79,0-3.3,0.25-4.55,0.76c-1.24,0.5-2.25,1.22-3.01,2.15c-0.76,0.93-1.32,2.06-1.67,3.38c-0.35,1.32-0.53,2.81-0.53,4.44
	c0,1.92,0.32,3.47,0.43,3.91c0.35,1.4,0.92,2.6,1.71,3.58c0.79,0.98,1.82,1.74,3.08,2.26c1.15,0.48,2.55,0.73,4.19,0.77h3.54
	l4.15-4.2l-6.32,0c-1.09-0.01-2.22-0.13-2.93-0.39c-0.73-0.26-1.32-0.62-1.76-1.08c-0.44-0.46-0.74-1.03-0.92-1.69
	c-0.06-0.22-0.11-0.49-0.16-0.79c-0.02-0.22-0.04-0.45-0.05-0.68H82.2c0.03-0.33,0.05-0.66,0.06-0.98c0.02-0.33,0.02-0.67,0.02-1.02
	C82.29,22.34,82.18,21,81.98,19.74z M68.53,22.57c0.03-0.76,0.13-1.47,0.31-2.11c0.18-0.64,0.45-1.19,0.81-1.66
	c0.37-0.46,0.84-0.83,1.43-1.09c0.59-0.26,1.33-0.39,2.24-0.39c0.97,0,1.71,0.15,2.24,0.43c0.53,0.29,0.92,0.67,1.19,1.15
	c0.26,0.48,0.42,1.04,0.48,1.68c0.06,0.64,0.09,1.3,0.09,1.99H68.53z"/>
</svg>
