<?xml version="1.0" encoding="utf-8"?>
<!-- Generator: Adobe Illustrator 23.0.1, SVG Export Plug-In . SVG Version: 6.00 Build 0)  -->
<svg version="1.1" id="Layer_1" xmlns="http://www.w3.org/2000/svg" xmlns:xlink="http://www.w3.org/1999/xlink" x="0px" y="0px"
	 viewBox="0 0 100 74.33" style="enable-background:new 0 0 100 74.33;" xml:space="preserve">
<style type="text/css">
	.st0{fill-rule:evenodd;clip-rule:evenodd;}
	.st1{fill:#FFFFFF;}
	.st2{fill-rule:evenodd;clip-rule:evenodd;fill:#231F20;}
</style>
<g>
	<path class="st0" d="M83.02,37.21c0,9.28-3.16,17.17-9.72,23.75c-6.56,6.57-14.43,9.82-23.69,9.82c-9.41,0-17.21-3.25-23.77-9.82
		c-6.56-6.58-9.8-14.46-9.8-23.75c0-9.36,3.24-17.25,9.8-23.82c6.56-6.58,14.35-9.82,23.77-9.82c9.26,0,17.13,3.25,23.69,9.82
		C79.86,19.96,83.02,27.85,83.02,37.21L83.02,37.21z M74.46,12.22C67.59,5.41,59.26,2.01,49.61,2.01c-9.8,0-18.13,3.4-24.92,10.21
		c-6.87,6.81-10.34,15.24-10.34,24.98c0,9.67,3.47,18.1,10.34,24.91c6.79,6.81,15.12,10.29,24.92,10.29
		c9.65,0,17.98-3.48,24.85-10.29c6.79-6.81,10.26-15.24,10.26-24.91C84.72,27.46,81.25,19.03,74.46,12.22L74.46,12.22z"/>
	<polygon class="st0" points="2.55,60.95 97.69,60.95 97.69,40.3 2.55,40.3 2.55,60.95 	"/>
	<path class="st0" d="M2.31,61.18h95.68V40.07H2.31V61.18L2.31,61.18z M2.78,40.61h94.68v20.11H2.78V40.61L2.78,40.61z"/>
	<path class="st0" d="M49.07,64.2l0.31,0.23l0.39-0.15L50,63.89c0,0.39,0.15,0.7,0.23,0.54l1.54-0.77c0.54-0.15,0.69,0,0.31,0.15
		l-0.31,0.62l0.69-0.15c-0.31,0.39-0.31,0.7-0.15,0.7l0.62-0.7l0.69-1.24l0.39-0.54l0.39-0.15l0.39,0.15l0.62-0.23l0.23,0.23
		c0,0.16,0.15,0.23,0.31,0.16h0.62c0.15,0,0.23,0.08,0.15,0.23l0.23,0.54l0.93,0.08l-0.39,0.31c-0.93,0-0.93,0.08-0.15,0.39l1,0.46
		h-0.62c0.15,0.31,0.15,0.39,0,0.39l-0.39,0l-0.23,0.15l0.08,0.62l0.77,0.54l1.08-0.23c0.23-0.54,0.08-0.7-0.31-0.39l-0.23,0.08
		h-0.23l0.39-0.46c0.23-0.15,0.39-0.31,0.23-0.39l-0.23-0.54l0.08-1.01c0.15-0.15,0.31-0.15,0.54,0l0.23-0.7
		c0.31-0.39,0.54-0.46,0.77-0.39l0.77,0.39c0.39,0.15,0.69,0.31,0.54,0.54l-0.54,0.15c-0.08-0.15-0.23,0-0.46,0.08
		c0,0.39,0.08,0.54,0.39,0.31l0.85-0.15l0.31,0.54l-0.77,0.08l-0.54,0.15l1,0.23c0.54-0.08,0.77-0.08,0.77,0.31l-0.08,0.46
		l-0.69,0.39l0.39,0.31l-0.08,0.39l0.77-0.15v-0.62l0.23-0.39l0.15-0.39l0.23,0.62c0.23-0.23,0.39-0.23,0.39-0.15
		c-0.15,0.7-0.15,0.93,0,0.93c0.15,0,0.23-0.23,0.23-0.62l0.31-0.54l0.39-0.39l0.23-0.15v0.54l0.15,0.15l0.62-0.39l0.54,0.08
		l0.46,0.15c-0.46,0.23-0.77,0.54-0.62,0.62c0.23,0.15,0.54,0.15,0.62,0l0.77-0.23c0.39,0.15,0.93-0.15,1.47-0.62l1.23-1.08h0.31
		l-0.15,0.54c-2.16,2.09-5.02,3.71-8.26,4.87l-5.79,1.55l-5.48,0.93c-2.85,0.15-6.71-0.39-11.57-1.78
		c-4.63-1.16-8.41-3.4-11.11-6.34c1.16,0.93,1.85,1.31,2.08,1.31l0.39,0.23l0.23-0.23l0.31-1.08c0.08,0.31,0.23,0.31,0.39-0.08
		l0.23-0.39l0.23-0.15l0.31,0.62l1-0.85l0.54-0.15l-0.15,0.39l-0.23,0.23l-0.39,0.93l1.23-0.54l0.15,0.54l0.15,0.15l0.62-0.15
		l0.54,0.23c0.39,0.15,0.46,0.31,0.39,0.39c-0.15,0.15-0.15,0.31,0,0.31l0.39,0.23l0.08-0.15c0.15-0.62,0.15-1.01,0-1.01
		c-0.39-0.15-0.46-0.23-0.23-0.54l0.15-0.39h-0.31l-0.39,0.31c0,0.62-0.08,0.77-0.23,0.39c-0.15-0.31-0.15-0.54,0-0.77l0.39-0.54
		l-0.39-0.23l0.54-0.39h0.46l0.39-0.54l0.39-0.23l-0.39,0.77l1.08-0.77h0.39v0.23l0.77,0.15l-0.69,0.39l0.77,0.39
		c0.69,0,0.77,0,0.69,0.08c-0.31,0.31-0.31,0.39,0,0.39l0.46,0.31l0.39-0.15l0.31-0.39l0.23,0.15c0.15,0.08,0.23,0,0.39-0.15
		l0.23-0.23l0.31-0.16v0.39h0.46l0.31,0.15h0.62l-0.39,0.46h0.77c-0.62,0.15-0.93,0.31-0.77,0.39l0.62,0l0.54,0.31l0.15,0.23h0.46
		c0.39-0.23,0.54-0.54,0.15-0.62V63.5l0.15-0.23l-0.69-0.54l0.31-0.23v-0.39l0.46,0.54l0.31,0.62l0.39,0.23l0.23-0.46l0.23-0.15
		c0.15,0,0.15,0,0.15-0.15l0.23-0.62l0.39-0.23l-0.08,0.46l0.23,0.15l0.23-0.15l0.15,0.77l0.39-0.39c0.15-0.39,0.39-0.46,0.54-0.46
		c0.23,0,0.39,0.08,0.23,0.23L49,62.73l-0.31,0.77l-0.23,0.39H49c0.23-0.39,0.39-0.39,0.39-0.08L49.07,64.2L49.07,64.2z
		 M49.38,65.36v-0.31h-0.31l-0.39,0.15L49,65.44L49.38,65.36L49.38,65.36z M49.38,66.13c0-0.15,0-0.31-0.15-0.31l-0.39,0.15
		L49,66.37l0.08-0.15L49.38,66.13L49.38,66.13z M51.93,65.59l0.54,0.15l0.23-0.15l-0.23-0.23h-0.54V65.59L51.93,65.59z M53.32,65.36
		l0.39,0.23l0.31,0.15l0.39-0.31l-0.15-0.23l-0.23-0.23l-0.31-0.15l-0.08,0.15h-0.31V65.36L53.32,65.36z M53.7,66.21l-0.39,0.31
		c-0.08,0.08-0.08,0.08,0,0.23c0.69,0.15,0.77,0.23,0.39,0.23l-0.23,0.15l0.23,0.16l0.54-0.54l-0.15-0.54H53.7L53.7,66.21z
		 M42.44,64.2l-0.15,0.23v0.23h0.23l0.31-0.23v-0.39L42.44,64.2L42.44,64.2z M42.44,65.59v0.15h0.23l0.15-0.15l-0.15-0.39v0.23
		L42.44,65.59L42.44,65.59z M43.6,65.44h-0.15l-0.15,0.31h0.31V65.44L43.6,65.44z M43.83,65.36l0.54,0.08l0.23-0.39l-0.23-0.39
		l-0.31-0.08l-0.23,0.39V65.36L43.83,65.36z M45.14,66.21l0.39-0.39c0.08-0.08,0-0.23-0.15-0.39h-0.23l-0.31,0.54L45.14,66.21
		L45.14,66.21z M47.07,65.75l0.39,0.23c0.39,0.15,0.46,0,0.46-0.23c0-0.31-0.08-0.39-0.39-0.31l-0.23-0.23l-0.15,0.15L47.07,65.75
		L47.07,65.75z M47.14,66.75l0.39-0.15l-0.08-0.23h-0.31V66.75L47.14,66.75z M54.63,67.14c-0.15,0.16-0.15,0.23,0,0.39l0.39,0
		c0.23,0,0.39,0,0.39-0.15l-0.15-0.39h-0.23l-0.23-0.23L54.63,67.14L54.63,67.14z M53.24,67.68l0.08,0.08l0.31-0.08l-0.31-0.15
		L53.24,67.68L53.24,67.68z M55.17,66.52l0.85,0.46h0.39l0.15-0.23l-0.23-0.39h-0.31l-0.08-0.15l-0.31,0.15l-0.08-0.23h-0.39
		C55.02,66.21,55.02,66.37,55.17,66.52L55.17,66.52z M55.79,65.44l0.15,0.39l0.08,0.15l0.15-0.23l0.15-0.39l-0.31-0.15L55.79,65.44
		L55.79,65.44z M59.64,62.89v0.39l0.23-0.23l-0.08-0.31L59.64,62.89L59.64,62.89z M59.41,65.59l0.08,0.23h0.39l0.31-0.23l-0.31-0.23
		h-0.23L59.41,65.59L59.41,65.59z M37.81,64.05l-0.15,0.15c0.23,0.08,0.39,0.08,0.39,0.23h0.23c0-0.39,0-0.54-0.08-0.39l-0.31-0.23
		L37.81,64.05L37.81,64.05z M36.11,65.83l-0.15,0.15l0.15,0.23l-0.23,0.15l-0.31,0.23l0.31,0.31l0.23,0.08l0.39-0.23l0.15-0.15
		c0.08-0.39,0.08-0.62,0-0.62L36.11,65.83L36.11,65.83z M37.42,65.83l0.39,0.39l0.77,0.15l0.46-0.15c0.31-0.08,0.39-0.08,0.39,0
		l0.15,0.39l0.54-0.08h0.23l0.23,0.23h0.39v-0.62l-0.46-0.39h-0.54v-0.31l0.23-0.39l-0.46-0.08l-0.39,0.39l-0.31-0.39
		c0.15-0.15,0.31-0.31,0.15-0.39l-0.39-0.31v0.39l-0.23,0.31l-0.15,0.23l-0.15,0.39l-0.23-0.15l-0.39-0.39l-0.39,0.31L37.42,65.83
		L37.42,65.83z M39.58,63.66c0.15,0.15,0.15,0.23,0,0.23v0.15l0.39,0.23l0.39-0.08l-0.15-0.39l-0.23-0.31L39.58,63.66L39.58,63.66z
		 M41.9,66.21l-0.15,0.15l-0.08,0.15c-0.15,0.08-0.15,0.23,0,0.39l0.39-0.15l0.08-0.15l0.15-0.23l-0.15-0.15H41.9L41.9,66.21z
		 M33.95,65.36l0.46,0.08l0.54-0.08v-0.31H34.8l-0.39,0.15L33.95,65.36L33.95,65.36z M33.18,65.83c0.23,0.39,0.39,0.39,0.39,0.31
		l0.08-0.39l-0.39-0.39L33.18,65.83L33.18,65.83z M34.8,65.98l-0.23,0.23l0.39,0.31c0.23,0.08,0.39,0.08,0.23-0.15l-0.23-0.54
		L34.8,65.98L34.8,65.98z"/>
	<path class="st0" d="M62.62,22.63c0.26,0.16-0.07,0.61-0.31,0.62C62.31,22.94,62.53,22.85,62.62,22.63L62.62,22.63z M66.12,30.96
		c-0.16,0.77-0.41,2.87-1.75,2.47C64.75,32.41,65.69,31.94,66.12,30.96L66.12,30.96z M62.52,29.93c-0.15,0.5-0.32,1.88-1.23,1.95
		C60.78,31.03,62.3,30.73,62.52,29.93L62.52,29.93z M65.4,24.28c0.01-0.53,1.21-0.29,0.82,0.1c-0.36,0.73-0.89,1.3-1.65,1.65
		C64.9,25.5,65.31,25.05,65.4,24.28L65.4,24.28z M65.63,24.12c-0.01,0-0.02,0.01-0.03,0.01C65.61,24.13,65.62,24.12,65.63,24.12
		L65.63,24.12z M57.88,33.39c0.07,0.08,0.14,0.16,0.22,0.25c-0.59-0.51-1.14-1.05-1.65-1.65l0,0l0,0c-2.08-1.51-6.05-2.66-7.61-4.52
		c-0.76-0.91-0.59-2.19-1.54-3.08c-0.22,0.7-0.24,1.61-0.62,2.16c0-0.79,0-1.58,0-2.36c-0.49-0.11-0.14,0.61-0.51,0.62
		c0.16-0.23,0.22-1.06-0.21-1.03c-0.4,1.17-0.19,2.96-0.82,3.91c0.11-0.6,0.28-1.84-0.21-2.16c-0.91,0.56-0.97,2.87-1.85,3.8
		c0.04-0.82,0.41-1.3,0.41-2.16c-0.68,0.59-1.06,1.48-1.13,2.67c-1.05,0.35-1.21,1.6-1.85,2.36c0.37-1.76,2.47-3.69,0.51-5.14
		c-0.41,1.82-0.68,3.78-1.75,4.94c-0.04-0.45,0.26-0.96,0.31-1.54c0.08-0.96,0.02-2.32-0.62-2.67c-0.26,0.01-0.2,0.34-0.21,0.62
		c-0.04,0.41,0.09,0.99-0.1,1.23c-0.33-0.02-0.44,0.18-0.82,0.1c-1.02,0.78-0.65,2.23,0,3.08c-0.33-0.04-0.59-0.49-0.93-0.21
		c0,0.38,0,0.75,0,1.13c0,0.34,0,0.69,0,1.03c0.19,0.87,0.87,1.26,1.65,1.54c0.21-0.61,0.32-1.33,1.03-1.44
		c0.27,0.18,0.28,0.61,0.62,0.72c1.08,0.46,1.96-0.28,2.47-0.51c0.75-0.35,1.93-0.37,2.06-1.13c-0.24-0.55-0.04-1.27,0.1-1.75
		c-1.34-1.7,2.25-3.31,3.6-1.85c-1.32-0.19-1.94,0.33-2.67,0.72c0.14,0.39-0.12,0.57,0.1,0.93c0.58,0.09,0.72-0.58,1.34-0.72
		c1.07-0.24,2.4,0.28,2.78,1.03c-0.52-0.34-1.27-0.44-2.16-0.41c-0.89,0.41-1.12,1.49-2.06,1.85c0.5,0.88,0.01,1.8-0.41,2.36
		c-1.68,0.23-2.63,0.58-4.32,0.72c-0.35,0.33-0.49,0.88-0.41,1.65c1.05-0.24,3.59,0.37,3.91-1.34c1.51-0.17,2.92-1.06,2.78-2.26
		c1.25-0.74,3.63,0.06,4.01,0.82c-0.69-0.51-2.48-0.65-2.88,0.21c0.62,0.19-0.35,0.34-0.1,0.82c0.94,0.27,1.22-0.66,2.16-0.51
		c1.06,0.17,1.92,1.71,1.65,2.98c-0.22-0.88-0.71-1.48-1.34-1.95c-1.96-0.35-2.44,1.72-4.11,0.72c-0.8,1.32-2.83,0.79-3.6,2.16H36.3
		c-0.21-0.55-0.67-0.83-1.34-0.93c0.06,0.32,0.08,0.67,0.21,0.93h-0.51c0.01-0.87-0.26-1.46-0.72-1.85
		c-1.14-0.09-1.42-1.04-2.36-1.34c-0.04,1.29,0.04,2.45,0.54,3.19h-0.85c-0.58-0.96-0.65-2.43-1.23-3.39
		c-0.38,0.45-1.07,0.58-1.44,1.03c0.02,1.02-0.12,1.56,0.1,2.36h-0.72c-0.41-0.75-0.28-2.05-0.62-2.88
		c-0.27,0.37-0.4,1.23-1.13,0.82c0.1,0.9,0.48,1.88,1.23,2.06h-1.63c0.04-0.03,0.07-0.06,0.09-0.1c-0.28-0.3-0.47-0.69-0.72-1.03
		c-0.32-0.44-0.97,0.34-0.93,0.93c0,0.07,0,0.14,0,0.21H15.9c-0.01-3.49-0.06-10.7,1.84-12.61c0.01-0.01,0.03-0.03,0.04-0.04l0,0
		c0.35-0.03,0.49-0.26,0.93-0.21c0.48,0.51,0.86,1.13,1.03,1.95c0.62-0.1,1.11-0.33,1.54-0.62c0.06-0.61-0.1-1-0.21-1.44
		c0.3-0.79,1.18-1.01,2.26-1.03c0.44,0.18,0.17,1.06,0.51,1.34c1.44-0.27-0.05-2.81,1.75-2.36c0.72,0.18,0.33,1.36,1.44,1.34
		c0.52-0.34-0.12-1.83,0.41-2.16c0.91,0.4,1.58,1.02,2.36,1.54c0.66-0.41,0.09-2.04,0.72-2.47c0.69,0.44,1.04,1.22,1.65,1.75
		c0.85-0.25,0.64-1.56,1.03-2.26c0.6,0.39,0.57,1.42,1.34,1.65c0.62-0.37-0.08-1.21,0.21-1.75c0.5,0.29,0.48,1.1,1.23,1.13
		c0.44-0.82-0.72-1.37-0.41-2.06c0.45,0.16,0.5,0.73,1.03,0.82c1.41-0.5,0.02-2.46,0.62-3.08c0.59,0.06,0.65,0.66,1.13,0.82
		c0.85-0.87-0.4-1.52-0.41-2.47c0.84,0.01,1.01,0.7,1.75,0.82c0.35-0.82-0.74-1.56-0.62-2.16c0.56-0.01,0.48,0.61,1.13,0.51
		c0.23-1.1-1.09-1.51-1.23-2.57c1.11-0.55,1.9,1.26,2.78,0.31c-0.29-1.18-0.78-2.17-1.44-2.98c1.23-0.97,2.72,1.65,4.22,0.41
		c-0.08-0.63-0.78-0.66-0.72-1.44c-0.34-0.34-1.04-0.33-1.23-0.82c1.16-1.91,2.53,0.9,3.91,0.62c0.03-0.64-0.48-0.75-0.31-1.54
		c-0.23-0.56-1.03-0.55-0.93-1.44c1,0.23,1.85,0.62,2.67,1.03c1.23-0.31,2.08-1,3.6-1.03c0.34-0.21,0.72-0.38,1.03-0.62
		c0.9-0.22,1.31,0.03,1.95-0.31c0.52-0.27,0.63-1.18,1.65-0.82c0.57,1.56,3.47,0.78,3.19,3.19c1.31-0.51,1.41,0.66,2.06,1.34
		c0.61,0.64,1.54,0.92,2.26,1.44c0.58,0.42,0.94,1.16,1.54,1.54c1.69,1.09,3.64,1.73,4.94,3.19c1.44,0.9,3.8,1.56,3.91,1.95
		c0.72,1.22,2.44,2.56,2.57,4.32c0.09,1.26-1.24,2.9-2.16,3.39c-0.45-0.44-0.62-1.16-1.03-1.65c-0.52,0.14-0.83,0.33-0.93-0.31
		c-0.46-0.12-0.11,0.57-0.62,0.41c-0.49,0.15-0.09-0.59-0.51-0.51c-0.14,0.1-0.2,0.28-0.41,0.31c-0.35,0.01-0.16-0.53-0.51-0.51
		c-3.33,0.76-6.07-1.47-8.84-2.26c-0.42-0.18-0.73-1-1.44-1.13c-0.35-0.07-0.82,0.24-1.34,0.21c-0.81-0.06-1.44-0.67-1.95-0.62
		c-0.55,0.06-1.01,0.76-1.54,0.82c-0.39,0.04-0.42-0.35-0.82-0.1c0.07,0.75,1.14,0.5,1.54,0.93v0c0.48,0.48,1.11,0.81,1.34,1.54v0h0
		c-0.06,0.71,0.61,1.24,0.41,1.75c-0.66,0.32-0.61-0.88-1.65-0.51c-0.07,0.72,0.16,1.15,0.51,1.44c0.07,2.31,1.45,3.26,2.67,4.42
		c1.44,1.37,2.79,2.96,4.63,3.7c0.84,0.34,1.86,0.22,2.16,1.34c-0.3,0.36-0.73,0.54-1.13,0.62c-3.17,0.62-5.5-0.82-6.89-2.47
		C58.02,33.55,57.95,33.47,57.88,33.39L57.88,33.39z M78.79,40.11c0.57,0,1.13,0,1.7,0l0,0H78.79L78.79,40.11z M37.02,38.88
		c0.37-0.11,0.41-0.55,0.82-0.62c-0.3-0.42-0.29-1.15-1.03-1.13c0,0.1,0,0.21,0,0.31C36.9,37.9,36.61,38.74,37.02,38.88L37.02,38.88
		z M34.55,35.08c-0.3,1.88,0.59,2.56,1.75,2.98C36.5,36.28,35.38,35.82,34.55,35.08L34.55,35.08z M33.83,35.9
		c0.03-0.71-0.06-1.31-0.31-1.75c-0.42,0.16-0.8,0.37-0.93,0.82C32.95,35.34,33.18,35.83,33.83,35.9L33.83,35.9z M35.68,33.74
		c0.14,0.03,0.2,0.15,0.41,0.1c-0.02-0.66-0.17-1.21-0.1-1.95c-0.33-0.09-0.21,0.27-0.41,0.31c-0.03-1.17-0.84-1.56-1.54-2.06
		c0.05,0.94,0.68,1.3,0.93,2.06c-0.38-0.16-0.46-0.64-0.93-0.72c-0.14,0.59,0.3,0.66,0.1,1.03c0.3-0.12,0.38-0.06,0.51,0.21
		C34.95,33.1,35.29,33.44,35.68,33.74L35.68,33.74z M35.58,29.73c-0.08-0.4-0.11-0.85-0.62-0.82
		C34.96,29.39,35.09,29.74,35.58,29.73L35.58,29.73z M35.99,28.5c-0.24,0.41-0.04,1.27-0.1,1.85C36.39,30.15,36.68,28.67,35.99,28.5
		L35.99,28.5z M42.57,26.23c-0.33,0.39-0.37,1.07-0.41,1.75C42.78,27.88,42.51,26.89,42.57,26.23L42.57,26.23z M65.5,19.86
		c0.46,0.81,1.8,0.73,3.08,0.72C69.43,18.93,65.82,18.11,65.5,19.86L65.5,19.86z M63.24,19.65c1.05,0.54,2.59-1.12,2.67-1.85
		c0.16-1.47-1.39-1.91-2.26-3.08c-0.73-0.99-1.1-2.11-2.06-1.75c-0.78,1.08,0.5,2.22,0.41,3.08c-0.07,0.68-0.62,0.48-0.82,1.23
		c0.08,0.61,0.81,0.56,0.93,1.13C62.5,18.82,62.78,19.33,63.24,19.65L63.24,19.65z M56.25,15.33c0,0.54,0.66,1.22,1.23,1.23
		c0.84,0.02,2.03-1.73,2.26-2.36c0.39-1.08-0.39-3.84-1.34-4.01c-0.55-0.1-1.23,0.36-1.34,0.72c-0.37,1.26,0.79,1.32,0.93,2.57
		C57.41,14.36,56.25,14.28,56.25,15.33L56.25,15.33z M66.94,33.12c0.09,0.4-0.13,1.38-0.62,1.54C66,34,66.78,33.63,66.94,33.12
		L66.94,33.12z M66.32,32.3c0.09,0.5-0.35,1.37-0.72,1.75C65.05,33.44,66.22,32.92,66.32,32.3L66.32,32.3z M64.47,31.99
		c0.01,0.35-0.79,1.66-1.44,1.03C63.22,32.39,64.21,32.55,64.47,31.99L64.47,31.99z M63.03,30.45c0.06,0.64-0.24,1.82-0.93,2.06
		C61.77,31.57,62.82,31.18,63.03,30.45L63.03,30.45z M61.28,29.52c0.4,0.26-0.25,2.02-0.93,1.23
		C60.49,30.17,61.15,30.11,61.28,29.52L61.28,29.52z M64.57,29.42c-0.03,1-0.39,2.55-1.44,2.88C63.04,31.17,64.3,30.52,64.57,29.42
		L64.57,29.42z M60.36,28.91c0.07,0.28-0.25,1.05-0.72,1.13C59.57,29.35,60.19,29.35,60.36,28.91L60.36,28.91z M60.05,27.67
		c0.05,0.54-0.61,1.77-1.23,1.65C58.66,28.6,59.85,28.37,60.05,27.67L60.05,27.67z M58.82,27.67c-0.22,0.24-0.4,0.91-0.82,0.62
		C58.04,27.86,58.46,27.79,58.82,27.67L58.82,27.67z M58.2,26.85c0.18,0.18-0.19,0.7-0.51,0.72C57.42,27.23,58.03,27.08,58.2,26.85
		L58.2,26.85z M73.83,26.23c0.28,0.85-0.85,1.04-1.44,1.34C72.91,27.16,73.09,26.42,73.83,26.23L73.83,26.23z M73.21,25.62
		c0.42,0.19-0.37,0.83-0.62,1.03C72.45,26.36,73,25.88,73.21,25.62L73.21,25.62z M72.59,25.41c-0.05,0.84-0.56,1.22-1.13,1.54
		C71.87,26.47,71.73,25.44,72.59,25.41L72.59,25.41z M70.33,25.2c0.39,0.48-0.46,1.45-0.93,1.75C69.71,26.37,70.04,25.8,70.33,25.2
		L70.33,25.2z M68.69,25.2c0.24,0.55-0.22,1.29-0.72,1.44C68.21,26.17,68.49,25.72,68.69,25.2L68.69,25.2z M71.77,25.31
		c-0.19,0.97-0.81,1.52-1.65,1.85C70.62,26.57,70.72,24.67,71.77,25.31L71.77,25.31z M68.69,27.26c0.18-0.51,0.41-1.85,0.82-2.47
		C70.38,25.3,69.17,26.8,68.69,27.26L68.69,27.26z M68.58,24.69c-0.37,0.62-0.87,1.12-1.44,1.54
		C67.56,25.71,67.55,24.26,68.58,24.69L68.58,24.69z M67.45,24.48c-0.28,0.89-1.06,1.27-1.54,1.95
		C66.07,25.91,66.38,24.11,67.45,24.48L67.45,24.48z M65.09,23.66c-0.06,1.11-0.78,1.55-1.23,2.26c-0.04-0.63,0.68-1.37,0.72-2.26
		C64.75,23.66,64.92,23.66,65.09,23.66L65.09,23.66z M63.75,23.35c0.1,0,0.21,0,0.31,0c0,0.79-0.54,1.03-0.82,1.54
		C63.09,24.47,63.7,23.92,63.75,23.35L63.75,23.35z M63.34,22.94c0.14,0.3-0.2,0.86-0.62,0.93C62.99,23.62,62.88,22.99,63.34,22.94
		L63.34,22.94z"/>
	<polygon class="st1" points="6.95,52.42 6.95,52.42 6.95,52.42 6.95,52.42 6.95,52.42 6.95,52.42 	"/>
	<polygon class="st1" points="6.71,47.05 6.71,47.05 6.71,47.05 6.71,47.05 	"/>
	<polygon class="st1" points="6.95,52.42 6.95,52.42 6.95,52.42 6.95,52.42 6.95,52.42 6.95,52.42 6.95,52.42 	"/>
	<path class="st1" d="M4.18,54.74L4.18,54.74c0.06,0.3,0.04,0.6,0.08,0.89c0,0.11-0.01,0.23,0.01,0.33
		c0.04,0.24,0.02,0.48,0.04,0.72c0.02,0.25,0.04,0.51,0.04,0.77c0,0.1,0.02,0.21,0.02,0.32c0,0.02,0.01,0.04,0.03,0.05
		c0.22,0.04,0.44,0.09,0.67,0.11c0.17,0.02,0.33,0.07,0.5,0.06c0.03,0,0.06,0,0.09,0c0.03,0.03,0.06,0.04,0.09,0v0
		c0.12,0.05,0.25,0.06,0.38,0.06c0.22,0.02,0.45,0.04,0.67,0.03c0.12,0,0.23,0,0.35,0c0.02,0,0.04,0,0.06,0
		c0.08-0.01,0.16,0.02,0.24-0.02c0.03,0,0.06-0.01,0.09-0.01l0.01,0l0.01,0v0c0.04,0,0.08,0.01,0.12-0.02
		c0.12,0,0.23-0.03,0.35-0.06c0.03,0,0.07,0,0.09-0.03c0.01,0,0.02,0,0.03-0.01c0.04,0.01,0.08-0.01,0.12-0.03
		c0.05-0.01,0.1-0.03,0.15-0.06c0.1-0.02,0.18-0.06,0.26-0.11l0,0c0.01,0,0.02-0.01,0.03-0.01c0.03-0.01,0.05-0.02,0.06-0.04
		c0.01,0,0.02,0,0.03-0.01c0.02,0,0.03,0,0.03-0.02c0.02,0,0.04-0.01,0.05-0.03c0.06-0.02,0.1-0.06,0.14-0.1
		c0.03-0.01,0.05-0.03,0.06-0.05h0c0.02,0,0.03-0.01,0.03-0.03c0.06-0.05,0.13-0.11,0.17-0.17c0.05-0.04,0.09-0.09,0.12-0.14
		c0.01-0.01,0.02-0.02,0.02-0.03c0.04-0.04,0.07-0.09,0.09-0.15c0.03-0.02,0.05-0.05,0.05-0.09c0.03-0.03,0.05-0.07,0.06-0.12
		c0.07-0.11,0.12-0.22,0.15-0.35c0.09-0.22,0.15-0.44,0.17-0.67c0-0.02,0-0.03,0.01-0.05c0.04-0.15,0.06-0.3,0.05-0.45
		c0.01-0.03,0.01-0.05,0-0.08c0.01-0.03,0.02-0.06,0.02-0.08c0.02-0.35,0.02-0.71,0.01-1.06c0.01-0.22,0.02-0.45,0-0.67
		c0.01-0.03,0.01-0.05,0-0.08c0-0.02,0.01-0.05,0.01-0.07c0.01-0.65,0.02-1.3,0.02-1.96c0-0.03,0-0.06-0.01-0.09
		c0.01-0.25,0.02-0.51,0.02-0.76c0.02-1.35,0.06-2.7,0.1-4.05c0.01-0.2,0.02-0.41,0.02-0.61c0.02-0.09,0.02-0.18,0.02-0.27
		c0.04-0.56,0.04-1.12,0.13-1.67c0.01-0.08,0.01-0.15,0.02-0.23c0.01-0.07-0.03-0.09-0.09-0.08c-0.04-0.01-0.08-0.02-0.13-0.03
		c-0.67-0.12-1.35-0.23-2.02-0.35C7.75,43,7.35,42.94,6.94,42.85c-0.04-0.06-0.12-0.04-0.17-0.05c-0.11-0.02-0.21-0.07-0.33-0.03
		c0.01,0.25,0.05,0.49,0.04,0.74c0,0.04,0.01,0.07,0.03,0.1c0,0.06,0,0.12,0,0.18c0.01,0.13-0.03,0.26,0.03,0.38
		c-0.02,0.3,0.04,0.6,0.03,0.9c0,0.03,0.01,0.05,0.03,0.07c0,0.36,0.02,0.72,0.06,1.08c0,0.13,0,0.27,0,0.4
		c0,0.04-0.01,0.09,0.03,0.12c0,0.01,0,0.02,0,0.03c0,0.06,0,0.13,0,0.19c0,0.06-0.02,0.14,0.03,0.19c0,0.18,0,0.35,0.03,0.52
		c0,0.03,0,0.06,0,0.09c-0.02,0.15,0.03,0.29,0.03,0.44c0,0.02,0,0.04,0,0.06c0.01,0.11-0.03,0.22,0.03,0.32c0,0.05,0,0.1,0,0.15
		c0.01,0.12-0.02,0.24,0.03,0.35c0,0.01,0,0.02,0,0.03c0,0.14,0,0.28,0,0.42c0,0.04-0.01,0.08,0.03,0.11c0,0.08,0,0.16,0,0.23
		c-0.02,0.22,0.04,0.43,0.03,0.64c0,0.06,0,0.11,0,0.17c0.01,0.09-0.02,0.18,0.03,0.27c0,0.11,0,0.21,0,0.32c0,0.3,0,0.61,0,0.91
		c0,0.09,0.04,0.17,0,0.26h0c0,0.22,0,0.45,0,0.67c0,0.02,0,0.04,0,0.06c0,0.01,0,0.02,0,0.03v0v0c0.01,0.13-0.04,0.25-0.03,0.38
		c0,0.05,0,0.1-0.01,0.14c-0.04,0.04-0.02,0.1-0.03,0.15c0,0.09-0.04,0.17-0.03,0.26c-0.04,0.08-0.06,0.17-0.06,0.26
		c-0.04,0.04-0.05,0.09-0.06,0.15c-0.03,0.05-0.06,0.1-0.08,0.15c-0.01,0.01-0.01,0.02-0.01,0.02c-0.02,0.02-0.04,0.04-0.06,0.06
		c-0.03,0.02-0.07,0.03-0.08,0.06c-0.04,0.01-0.09,0.02-0.12,0.05c0,0.01,0.01,0.01,0.02,0.02c0,0,0,0,0,0
		c0-0.01-0.01-0.01-0.01-0.02c-0.28,0.05-0.55,0.07-0.84,0.05c-0.38-0.03-0.75-0.08-1.12-0.16C4.34,54.71,4.26,54.72,4.18,54.74
		L4.18,54.74z"/>
	<path d="M8.62,53.73c-0.01,0.14-0.04,0.47-0.05,0.65c-0.01,0.19,0.05,0.44-0.01,0.61c-0.05,0.17-0.11,0.35-0.18,0.49
		c-0.08,0.14-0.2,0.33-0.32,0.42c-0.12,0.1-0.25,0.15-0.39,0.22c-0.08,0.04-0.24,0.13-0.24,0.13s-0.04-0.01-0.07,0.01
		c-0.03,0.01,0.01,0.01-0.07,0.02c-0.08,0.01-0.12,0.04-0.12,0.04L7.13,56.3l-0.02,0.02l-0.05,0.02l-0.04,0.04l-0.03-0.05H6.91
		l-0.05,0.02c0,0-0.18,0-0.21,0.01c-0.03,0.01-0.08,0.03-0.08,0.03s-0.25,0-0.48,0c-0.23,0-0.34,0.01-0.4-0.01
		c-0.07-0.01-0.1-0.06-0.08-0.12c0.02-0.06,0.05-0.12,0.12-0.11c0.08,0.01,0.26-0.01,0.48-0.01c0.21,0.01,0.28-0.01,0.33-0.01
		c0.05,0,0.08-0.02,0.08-0.02s0.02,0.03,0.07,0.03c0.05,0,0.14-0.01,0.2-0.01c0.06-0.01,0.14-0.03,0.14-0.03s0.07-0.01,0.1-0.04
		c0.04-0.02,0.06-0.04,0.06-0.04s0.23-0.01,0.33-0.07c0.11-0.06,0.28-0.15,0.28-0.17c0.01-0.02,0.05-0.04,0.06-0.05
		c0.01-0.01,0.13-0.15,0.16-0.19c0.03-0.03,0.09-0.08,0.17-0.31c0.08-0.23,0.2-0.88,0.21-1.19c0.01-0.3-0.03-4-0.04-4.24
		c-0.01-0.24-0.06-2.96-0.07-3.13c-0.01-0.17-0.05-2.04-0.07-2.15c-0.02-0.11-0.01-0.35-0.01-0.36v-0.01c0,0,0.04-0.05,0.13-0.05
		c0.09,0,0.16,0.02,0.19,0.03c0.02,0.01-0.03,0.07-0.02,0.14c0.01,0.07-0.03,0.4-0.02,0.45c0.01,0.05,0.02,0.27,0.02,0.39
		c0,0.13-0.01,0.43,0,0.48c0,0.05,0.01,0.21,0.02,0.32c0,0.1-0.01,0.48-0.01,0.6c0,0.12,0.03,0.94,0.02,1
		c0,0.05,0.01,0.01,0.01,0.13c0,0.12,0.02,0.3,0,0.4c-0.02,0.11,0.01,0.04,0.01,0.04v0.13c0,0.06,0,1.05,0,1.13
		c0,0.08,0.01,0.99,0.01,1.08c0,0.09-0.01,0.86,0,1c0,0.13,0.02,1.1,0.01,1.26C8.58,52.85,8.63,53.59,8.62,53.73L8.62,53.73z"/>
	<path class="st1" d="M18.2,44.35c-0.83-0.01-1.66-0.01-2.49-0.01c-0.05-0.02-0.07,0.01-0.06,0.06h0l0,0
		c0.01,0.1,0.02,0.19,0.03,0.29c0.01,0.21-0.03,0.43,0.03,0.64c0,0.13,0,0.25,0,0.38c0,0.11,0,0.22,0,0.32c0,0.15,0,0.3,0,0.45
		c0,0.04-0.01,0.08,0.03,0.11c0,0,0,0,0,0v0l0,0c0,0.01,0,0.02,0,0.03c0,0.05,0,0.1,0,0.15c0,0.05,0,0.1,0,0.15
		c0,0.09,0,0.17,0,0.26c0,0.03,0,0.06,0,0.09c0,0.07,0,0.14,0,0.2c0,0.02,0,0.04,0,0.06c0,1.21,0,2.42,0,3.62c0,0.02,0,0.04,0,0.06
		c0,0.22,0,0.45,0,0.67c0,0,0,0,0,0h0l0,0c-0.03,0.03-0.03,0.06-0.03,0.09c0,0.13,0,0.27,0,0.4c-0.01,0.13,0.01,0.25-0.03,0.38
		c0,0.05,0,0.1,0,0.15c0,0.02,0,0.04-0.01,0.06h0c-0.05,0.11,0,0.24-0.03,0.35c0,0.01,0,0.02,0,0.03c0,0.03,0,0.06,0,0.09
		c-0.03,0.02-0.02,0.06-0.03,0.09c-0.02,0.03-0.04,0.06-0.06,0.09c-0.07,0-0.14-0.01-0.2,0.01c-0.39-0.03-0.78-0.07-1.17-0.15
		c-0.16-0.03-0.31-0.07-0.46-0.13c-0.09-0.04-0.16-0.1-0.15-0.21c0-0.1-0.01-0.19-0.01-0.29c0.01-0.79,0.07-1.57,0.11-2.36
		c0.04-0.74,0.09-1.48,0.08-2.22c-0.03-1.26-0.11-2.53-0.18-3.79c-0.01-0.11-0.01-0.11-0.12-0.11c-0.26-0.01-0.52-0.01-0.79-0.02
		c-0.15,0-0.3-0.01-0.45-0.01c-0.04-0.05-0.09-0.03-0.14-0.03c-0.24,0-0.48-0.01-0.73-0.01c-0.14,0-0.28,0-0.42,0
		c-0.09,0-0.09,0.01-0.06,0.12c0,0.1,0.02,0.19,0.03,0.29c0,0.06,0,0.11,0,0.17c0.01,0.09-0.03,0.18,0.03,0.27c0,0.02,0,0.04,0,0.06
		c0,0.13,0.04,0.25,0.03,0.38h0l0,0c0,0.02,0,0.04,0,0.06c0,0.02,0,0.05,0.03,0.06c0.01,0.13-0.02,0.26,0.03,0.38
		c0,0.13-0.01,0.26,0.03,0.38c0,0.04,0,0.08,0,0.12c0.01,0.12-0.02,0.24,0.02,0.35c0.02,0.08-0.03,0.16,0.03,0.23
		c0,0.03,0,0.06,0,0.09c0,0.1-0.02,0.2,0.03,0.29c0,0.04,0,0.08,0,0.12c0,0.05-0.01,0.1,0,0.14c0.03,0.25,0.03,0.51,0.06,0.76
		c0.01,0.14-0.03,0.28,0.03,0.41c0,0.18,0,0.37,0,0.55c0,1.1,0,2.2,0,3.3c0,0.21,0,0.43,0,0.64v0.41c0,0.06-0.01,0.12,0,0.17
		c0.01,0.07-0.03,0.15,0.03,0.21c0,0.01,0,0.02,0,0.03c0,0.02,0,0.04,0,0.06h0c-0.01,0.08,0,0.16,0.03,0.23
		c0.01,0.24,0.1,0.44,0.32,0.56c0.03,0.05,0.08,0.07,0.12,0.11c0.02,0.03,0.06,0.04,0.09,0.06c0.36,0.27,0.75,0.49,1.14,0.7
		c0.01,0.01,0.02,0.02,0.03,0.03c0.01,0,0.02,0,0.03,0c0.16,0.1,0.33,0.18,0.5,0.26c0.14,0.08,0.29,0.15,0.44,0.2v0
		c0.01,0.01,0.02,0.02,0.03,0.03c0.05,0.02,0.1,0.03,0.15,0.05c0.08,0.03,0.15,0.07,0.23,0.06c0.12-0.01,0.22-0.07,0.32-0.14
		c0.03-0.01,0.06-0.03,0.08-0.06c0.13-0.06,0.24-0.14,0.35-0.23c0.08-0.04,0.15-0.09,0.21-0.14c0.05-0.03,0.09-0.06,0.14-0.09
		c0.02,0,0.04-0.01,0.06-0.03c0.05-0.02,0.1-0.04,0.15-0.06c0.04,0,0.06,0.02,0.06,0.06c0,0.02,0,0.04,0,0.06
		c-0.02,0.18,0.03,0.36,0.03,0.54c0,0.02-0.01,0.08,0.06,0.07c0.03,0,0.06,0.01,0.08,0c0.03,0,0.07,0.02,0.1-0.01
		c0.02,0,0.03-0.01,0.05-0.01l0.01,0l0.01,0c0.04-0.01,0.09,0.02,0.12-0.02l0,0c0.02,0,0.04,0,0.05-0.01c0.02,0,0.04,0,0.05,0
		c0.03,0,0.07,0.01,0.1-0.02c0.03,0,0.05,0,0.08-0.01c0.05,0,0.11,0.02,0.15-0.03l0,0c0.01,0,0.02,0,0.03,0
		c0.08,0.01,0.16-0.01,0.23-0.03c0.01,0,0.02,0,0.03,0c0.04-0.01,0.08,0.01,0.12-0.02c0.01,0,0.02,0,0.03-0.01c0.02,0,0.04,0,0.06,0
		c0.04-0.01,0.09,0.02,0.12-0.02c0.02,0,0.04,0,0.05-0.01l0.01,0l0.01-0.01c0.04,0,0.09,0.02,0.12-0.02c0.02,0,0.04,0,0.06-0.01
		c0.01,0,0.02,0,0.03,0c0.04,0,0.09,0.02,0.12-0.02c0.02,0,0.04-0.01,0.05-0.01l0.01,0l0.01,0c0.04,0,0.09,0.01,0.13-0.02
		c0.07-0.01,0.13-0.01,0.2-0.02c0.11-0.01,0.11-0.02,0.12-0.13c0-0.02,0-0.05,0-0.07c0-0.86-0.01-1.72-0.01-2.58
		c0-0.04,0.01-0.09-0.02-0.13c0-0.66,0-1.31,0-1.97c0-0.84,0-1.68,0.05-2.52c0.01-0.13,0.01-0.25,0.01-0.38
		c0.03-0.16,0.03-0.32,0.03-0.47c0.01-0.03,0.01-0.05,0-0.08c0.03-0.15,0.03-0.3,0.03-0.45c0.02-0.13,0.02-0.26,0.03-0.39
		c0.05-0.83,0.11-1.67,0.16-2.5C18.46,44.34,18.53,44.35,18.2,44.35L18.2,44.35z"/>
	<path class="st1" d="M10.86,44.39C10.86,44.39,10.86,44.39,10.86,44.39C10.86,44.38,10.86,44.38,10.86,44.39L10.86,44.39
		L10.86,44.39z"/>
	<polygon class="st1" points="12.52,55.34 12.53,55.34 12.53,55.34 12.52,55.34 	"/>
	<polygon class="st1" points="17.19,56.13 17.2,56.13 17.2,56.13 17.19,56.13 	"/>
	<path d="M17.16,55.1c-0.06,0.06-0.16,0.08-0.17,0.03c-0.01-0.05-0.06-0.52-0.05-0.82c0.01-0.3-0.01-0.47-0.04-0.47
		c-0.02,0-0.23,0.13-0.47,0.31c-0.24,0.19-1.37,0.97-1.46,1.02c-0.08,0.04-0.39,0.03-0.68-0.09c-0.28-0.12-1.01-0.47-1.25-0.62
		c-0.24-0.16-0.5-0.3-0.55-0.48c-0.04-0.17-0.11-3.56-0.1-4.08c0.01-0.52-0.1-4.6-0.09-4.68c0.01-0.09-0.01-0.17,0.03-0.18l0.01,0
		c0.04,0,0.2-0.07,0.27,0.1c0.01,0.03-0.01,0.4-0.01,0.51c0,0.11,0.03,4.95,0.04,5.2c0.01,0.24,0.03,1.61,0.04,1.73
		c0.01,0.12,0.02,0.84,0.02,0.92c0,0.08-0.01,0.31,0.04,0.41c0.04,0.1,0.15,0.19,0.3,0.28c0.16,0.1,0.4,0.25,0.68,0.41
		c0.27,0.16,0.84,0.34,0.93,0.37c0.09,0.03,0.31,0,0.39-0.07c0.08-0.07,0.61-0.43,0.84-0.59c0.23-0.16,0.56-0.46,0.76-0.57
		c0.2-0.11,0.25-0.07,0.28-0.2c0.03-0.13-0.02-5.88-0.03-6.21c-0.01-0.33-0.04-2.06-0.02-2.13c0.01-0.07,0.09-0.14,0.15-0.13
		c0.06,0.01,0.14,0.09,0.14,0.2s-0.04,0.73-0.04,0.9c0,0.1,0.02,2.29,0.01,2.67c-0.01,0.37-0.04,1.73-0.01,2
		c0.04,0.27,0.04,2.58,0.04,2.75c0,0.17-0.01,1.13,0.01,1.23C17.19,54.91,17.22,55.04,17.16,55.1L17.16,55.1z"/>
	<path class="st1" d="M43.98,44.43c-0.04,0-0.08-0.01-0.12-0.02c-0.17-0.02-0.35-0.02-0.52-0.03c-0.65-0.03-1.3-0.06-1.95-0.05
		c-0.12,0-0.13,0.01-0.1,0.1c0.01,0.04,0.04,0.09,0.04,0.14c-0.01,0.1,0.01,0.2,0.07,0.29c0.02,0.03,0.03,0.07,0.01,0.1
		c-0.05,0.07-0.03,0.15-0.02,0.22c0,0.02,0,0.04,0,0.06l0,0v0c0,0.01,0,0.02,0,0.03c0,0.06-0.02,0.12,0.02,0.18
		c0,0.03,0,0.06,0,0.09c0,0.09,0,0.18,0.03,0.26c0,0.07,0,0.14,0,0.2c-0.01,0.08,0,0.16,0.03,0.23c-0.01,0.09-0.01,0.18,0,0.26
		c-0.01,0.08,0,0.16,0.03,0.23c0,0.08-0.01,0.15,0,0.23c0.01,0.1-0.03,0.2,0.02,0.3c0,0.17,0.01,0.35,0.01,0.52
		c0.01,0.05,0.02,0.1,0.03,0.15v0v0c-0.01,0.07-0.01,0.14,0,0.2c0,0.13,0,0.25,0,0.38c0,0.01,0,0.02,0,0.03
		c0,0.07-0.02,0.15,0.02,0.22c0,0,0,0.01,0.01,0.01c-0.01,0.28,0.02,0.56,0.01,0.84c-0.01,0.23,0,0.46,0,0.7
		c0,0.1-0.02,0.2,0.02,0.3c-0.04,0.03-0.03,0.07-0.03,0.11c0,0.17,0,0.34,0,0.51c0,0.06,0,0.12,0,0.17v0v0c0,0.02,0,0.04,0,0.06
		c0,0.09,0,0.18,0,0.26c0,0.04,0,0.08,0,0.11c0,0.27-0.04,0.55-0.03,0.82c0,0.01,0,0.02,0,0.03c0,0.08,0,0.16,0,0.23
		c-0.01,0.15-0.04,0.29-0.03,0.44c0,0.01,0,0.02,0,0.03c0,0.06,0,0.12,0,0.17c-0.04,0.11-0.03,0.23-0.03,0.35c0,0.01,0,0.02,0,0.03
		c0,0.01,0,0.02,0,0.03c0,0.07,0,0.13,0,0.2h0c-0.04,0.11-0.01,0.22-0.02,0.32c-0.03,0.14-0.03,0.27-0.03,0.41
		c0.01,0.14-0.04,0.27-0.03,0.41c0,0.02,0,0.04,0,0.06c0,0.05,0,0.1-0.01,0.14c-0.04,0.07-0.02,0.14-0.02,0.21c0,0.02,0,0.04,0,0.06
		c0,0.01,0,0.02,0,0.03c-0.01,0.09-0.04,0.17-0.03,0.26c0,0.01,0,0.02,0,0.03c0,0.02,0,0.04,0,0.06c0,0.06-0.01,0.11-0.02,0.17
		c-0.03,0.12,0.01,0.15,0.14,0.14c0.01,0,0.01,0,0.02-0.01c0.19,0.02,0.38-0.01,0.56-0.01l0.01,0l0.01,0c0.01,0,0.02,0,0.03,0
		c0.07-0.02,0.16,0.06,0.19-0.06c0-0.02,0.02-0.02,0.03,0c0.05,0.09,0.12,0.04,0.19,0.04c0.01,0,0.02,0,0.03,0c0.07,0,0.14,0,0.2,0
		l0.01,0l0.01,0c0.21,0.02,0.41-0.03,0.62-0.03l0.01,0l0.01,0c0.16,0,0.32,0,0.48,0c0.04,0,0.09,0,0.08-0.05
		c-0.01-0.17,0.02-0.34-0.03-0.5c-0.03-0.93-0.06-1.86-0.08-2.8c-0.02-1.02-0.02-2.03-0.01-3.05c0-0.24,0-0.49,0-0.73
		c0.02-0.02,0.01-0.05,0.01-0.07c0.01-0.44,0.03-0.87,0.04-1.31c0.02-0.84,0.06-1.68,0.1-2.52c0.01-0.27,0.02-0.54,0.05-0.81
		C44.07,44.48,44.05,44.44,43.98,44.43L43.98,44.43z"/>
	<path d="M42.89,53.03c0.04,0.58,0,2.07,0.01,2.22c0.01,0.15,0.01,0.41-0.12,0.39c-0.14-0.03-0.17-0.15-0.16-0.56
		c0.01-0.41,0.12-6.53,0.11-6.91c-0.01-0.39-0.06-2.18-0.06-2.31c0-0.14-0.05-0.38,0.06-0.38l0.04-0.02
		c0.11,0.01,0.12-0.07,0.13,0.32c0.01,0.39-0.02,2.79-0.02,3.61C42.89,50.18,42.85,52.45,42.89,53.03L42.89,53.03z"/>
	<polygon class="st1" points="43.95,56.36 43.95,56.36 43.95,56.36 43.95,56.36 	"/>
	<rect x="39.43" y="47.89" transform="matrix(0.7356 -0.6774 0.6774 0.7356 -22.0187 39.3689)" class="st1" width="0" height="0"/>
	<path class="st1" d="M41.2,45.72c-0.66-0.54-1.32-1.08-1.99-1.62c-0.2-0.16-0.27-0.1-0.37,0.05c-0.06,0.04-0.11,0.09-0.14,0.15l0,0
		c-0.04,0.03-0.07,0.06-0.1,0.11c-0.05,0.04-0.1,0.09-0.14,0.15c-0.02,0-0.03,0.01-0.03,0.03c-0.1,0.07-0.16,0.17-0.24,0.26
		c-0.03,0.01-0.04,0.03-0.06,0.06h0c-0.06,0.07-0.14,0.12-0.18,0.21c-0.02,0.01-0.03,0.03-0.05,0.04c-0.03,0.02-0.05,0.05-0.06,0.08
		c-0.07,0.06-0.12,0.13-0.17,0.21c-0.04,0.05-0.08,0.1-0.12,0.14c-0.05,0.04-0.08,0.09-0.11,0.15c-0.01,0-0.02,0.01-0.02,0.03
		c-0.01,0.01-0.01,0.02-0.02,0.03c-0.04,0.02-0.05,0.06-0.08,0.09c-0.02,0.01-0.03,0.03-0.03,0.05c-0.02,0.02-0.04,0.04-0.05,0.07
		c0,0.01-0.01,0.02-0.01,0.03c-0.02,0-0.02,0.01-0.03,0.03c-0.03,0.04-0.06,0.08-0.09,0.12c-0.05,0.11-0.12,0.19-0.18,0.29
		c-0.06,0.11-0.12,0.22-0.18,0.32c-0.03,0.03-0.05,0.07-0.06,0.12c0,0.01,0,0.02-0.01,0.02c-0.05,0.06-0.05,0.14-0.09,0.21l0.01,0
		c0,0,0,0,0,0.01c0,0-0.01,0-0.01,0c-0.03,0.07-0.05,0.13-0.05,0.2c-0.04,0.08-0.04,0.17-0.05,0.26c0,0.13-0.03,0.26,0.02,0.39
		c0,0.02,0,0.04,0,0.05c0,0.01,0,0.02,0,0.03c0.01,0.17,0.05,0.33,0.09,0.5c0.02,0.09,0.04,0.18,0.08,0.26c0,0.03,0,0.07,0.03,0.09
		l0,0h0c0.05,0.09,0.04,0.19,0.11,0.27c0.01,0.04,0.02,0.09,0.06,0.12c0.02,0.06,0.04,0.13,0.09,0.17c0.03,0.1,0.09,0.18,0.14,0.27
		c0,0.02,0.01,0.04,0.03,0.05c0.04,0.07,0.06,0.16,0.14,0.21c0,0.01,0,0.02,0,0.03c0.01,0.01,0.02,0.02,0.02,0.03
		c0.01,0.02,0.02,0.04,0.03,0.05c0.03,0.04,0.05,0.08,0.08,0.12c0.01,0.01,0.02,0.02,0.03,0.03c0.04,0.08,0.08,0.17,0.15,0.23
		c0,0.04,0.02,0.07,0.06,0.09c0,0.01,0,0.02,0,0.03c0.01,0.01,0.02,0.02,0.03,0.03h0c0,0.02,0.01,0.04,0.03,0.06l0,0
		c0.01,0.01,0.02,0.02,0.03,0.03h0c0,0.02,0.01,0.05,0.03,0.06c0.01,0.01,0.02,0.02,0.03,0.03c0.04,0.06,0.08,0.12,0.12,0.18
		c0.11,0.25,0.24,0.49,0.3,0.76c0.04,0.03-0.02,0.09,0.03,0.12c0.03,0.2,0.05,0.41,0,0.61c0,0.01,0,0.02,0,0.03
		c-0.01,0.05-0.02,0.1-0.03,0.15c-0.02,0.05-0.04,0.09-0.04,0.14c-0.03,0.05-0.05,0.1-0.05,0.15c-0.04,0.08-0.08,0.16-0.11,0.23
		c-0.02,0.03-0.04,0.05-0.04,0.08c-0.03,0.05-0.06,0.1-0.09,0.15c-0.01,0.01-0.02,0.02-0.02,0.03c-0.03,0.02-0.04,0.05-0.06,0.08
		c-0.01,0.01-0.02,0.02-0.03,0.03c-0.01,0.01-0.02,0.02-0.03,0.03c-0.04,0.02-0.06,0.06-0.09,0.09c-0.01,0.01-0.02,0.02-0.03,0.03
		c-0.01,0.01-0.02,0.02-0.02,0.03c0,0,0.01,0.01,0.01,0.01c0,0-0.01,0.01-0.01,0.01c0-0.01,0-0.01,0-0.02
		c-0.01,0.01-0.02,0.02-0.03,0.03c-0.04,0.02-0.06,0.05-0.09,0.09c-0.03,0-0.04,0.01-0.05,0.03l0,0c-0.02,0-0.03,0.01-0.03,0.02
		c-0.05,0.03-0.1,0.07-0.15,0.11c-0.07,0.05-0.15,0.08-0.2,0.15l0,0c-0.03,0-0.04,0.01-0.05,0.03c-0.03,0.01-0.05,0.02-0.06,0.05
		c-0.27,0.17-0.54,0.33-0.79,0.53c-0.07,0.02-0.09,0.08-0.14,0.12C36,54.93,36,54.97,36.04,55c0.11,0.08,0.2,0.17,0.33,0.23
		c0.07,0.05,0.11,0.13,0.2,0.15c0.01,0.02,0.03,0.03,0.06,0.03c0,0.01,0,0.02,0,0.03c0.01,0.01,0.02,0.02,0.03,0.03
		c0.04,0.02,0.08,0.04,0.11,0.06c0.03,0.02,0.06,0.04,0.09,0.06c0.01,0.01,0.02,0.02,0.03,0.03c0.01,0.01,0.02,0.02,0.03,0.03
		c0.01,0,0.02,0,0.03,0c0.02,0.04,0.05,0.07,0.09,0.09c0.01,0.01,0.02,0.02,0.03,0.03c0.01,0,0.02,0,0.03,0
		c0.03,0.04,0.08,0.06,0.12,0.09h0c0.01,0.02,0.03,0.03,0.06,0.03c0.08,0.09,0.19,0.14,0.29,0.2c0.05,0.08,0.13,0.1,0.21,0.15
		c0.06,0.07,0.13,0.11,0.21,0.14c0.04,0.03,0.08,0.06,0.12,0.09c0.01,0.01,0.02,0.02,0.03,0.03c0.04,0.02,0.06,0.06,0.11,0.06
		c0.02,0.03,0.05,0.05,0.09,0.06c0.01,0.01,0.02,0.02,0.03,0.02c0.07-0.04,0.14-0.07,0.18-0.14c0.03-0.01,0.05-0.03,0.06-0.06
		c0.02-0.01,0.04-0.03,0.06-0.06c0.04-0.02,0.07-0.05,0.08-0.09c0.02,0,0.03-0.01,0.03-0.03c0.09-0.08,0.16-0.17,0.24-0.26
		c0.02,0,0.02-0.01,0.03-0.03c0.02-0.01,0.03-0.02,0.03-0.03c0.02,0,0.02-0.01,0.03-0.03c0,0,0,0,0,0v0
		c0.04-0.03,0.07-0.07,0.09-0.11c0.02-0.01,0.03-0.02,0.03-0.04c0.05-0.04,0.09-0.09,0.12-0.14c0.02,0,0.02-0.01,0.02-0.03
		c0.05-0.04,0.09-0.09,0.12-0.14c0.04-0.05,0.08-0.1,0.12-0.15c0.08-0.08,0.15-0.16,0.2-0.26c0.04-0.03,0.07-0.07,0.09-0.12h0
		c0.03-0.02,0.05-0.05,0.06-0.08c0.03-0.02,0.04-0.04,0.05-0.07c0.02-0.01,0.03-0.03,0.04-0.05c0.04-0.03,0.06-0.08,0.08-0.12
		c0.08-0.07,0.13-0.17,0.18-0.26c0.05-0.05,0.08-0.11,0.11-0.17c0.02-0.01,0.02-0.02,0.02-0.04l0,0c0.05-0.05,0.09-0.11,0.11-0.17
		c0.02-0.02,0.04-0.05,0.04-0.08c0.03-0.02,0.05-0.05,0.06-0.09c0.02-0.01,0.03-0.03,0.03-0.06c0.02-0.01,0.03-0.03,0.03-0.05
		l-0.01-0.01l0.01,0.01c0.02,0,0.02-0.02,0.02-0.04c0.04-0.05,0.07-0.11,0.09-0.17c0.01-0.01,0.02-0.02,0.02-0.03
		c0.02-0.01,0.03-0.03,0.03-0.06l0,0c0.07-0.11,0.1-0.23,0.15-0.35c0.02,0,0.02-0.02,0.02-0.03c0.02-0.03,0.04-0.07,0.04-0.11
		c0.06-0.13,0.11-0.27,0.12-0.42c0.08-0.28,0.07-0.56-0.03-0.83c-0.02-0.15-0.09-0.28-0.15-0.41c-0.16-0.33-0.37-0.64-0.58-0.94
		c-0.25-0.36-0.51-0.71-0.72-1.1c-0.19-0.35-0.33-0.72-0.27-1.13c0.03-0.07,0.04-0.14,0.05-0.21l0,0c0.04-0.05,0.04-0.12,0.06-0.17
		h0c0.02-0.01,0.03-0.04,0.03-0.06c0.02-0.01,0.03-0.03,0.03-0.06c0.02-0.01,0.03-0.03,0.03-0.06c0.03-0.03,0.05-0.07,0.06-0.11h0
		c0.03-0.02,0.05-0.05,0.06-0.09c0.02,0,0.02-0.02,0.03-0.03c0.03-0.02,0.05-0.05,0.06-0.09l0,0c0.02,0,0.03-0.01,0.03-0.03l0,0
		c0.02-0.01,0.04-0.03,0.03-0.05c0.02,0,0.03-0.01,0.03-0.03h0c0.1-0.11,0.19-0.22,0.29-0.33c0.02-0.01,0.04-0.02,0.04-0.05
		c0.06-0.02,0.1-0.08,0.14-0.13c0.04-0.02,0.07-0.04,0.09-0.08c0.01-0.01,0.02-0.02,0.03-0.03c0.04-0.02,0.07-0.04,0.09-0.08
		c0.05-0.04,0.11-0.07,0.15-0.12c0.02,0,0.03-0.01,0.04-0.03c0.01,0,0.02,0,0.02-0.01c0.05-0.04,0.09-0.08,0.14-0.11
		c0.01-0.01,0.02-0.02,0.04-0.03c0.02,0,0.03-0.01,0.03-0.02c0.02,0,0.04-0.01,0.06-0.03c0.07-0.03,0.12-0.09,0.18-0.14
		c0.03-0.01,0.07-0.01,0.04-0.05C41.26,45.77,41.23,45.75,41.2,45.72L41.2,45.72z"/>
	<path class="st1" d="M37.7,53.71c-0.01,0-0.01,0.01-0.02,0.01c0,0,0,0,0,0C37.69,53.71,37.69,53.71,37.7,53.71L37.7,53.71
		L37.7,53.71z"/>
	<polygon class="st1" points="40.09,53.91 40.09,53.91 40.09,53.91 40.09,53.91 	"/>
	<path d="M39.61,51.04c0.27,0.62,0.24,1.11,0.18,1.5c-0.05,0.38-0.14,0.71-0.39,1.07c-0.26,0.37-0.84,1.08-0.97,1.28
		c-0.13,0.2-0.22,0.21-0.27,0.15c-0.04-0.06-0.07-0.08,0.13-0.31c0.2-0.23,0.83-0.98,0.93-1.15c0.1-0.17,0.33-0.6,0.39-0.9
		c0.06-0.29,0.1-1.04-0.18-1.62c-0.28-0.57-1.18-1.92-1.27-2.23c-0.09-0.31-0.17-0.81-0.09-1.22c0.05-0.24,0.2-0.73,0.44-1.09
		c0.25-0.36,0.65-0.88,0.71-0.95c0.06-0.07,0.12-0.1,0.13-0.09c0.16,0.07,0.01,0.2-0.05,0.26c-0.49,0.51-0.9,1.35-0.97,1.6
		c-0.07,0.25-0.17,0.93,0.04,1.48C38.58,49.44,39.4,50.56,39.61,51.04L39.61,51.04z"/>
	<polygon class="st1" points="39.43,47.9 39.43,47.89 39.43,47.89 39.43,47.89 39.43,47.89 39.43,47.89 39.43,47.9 	"/>
	<path class="st1" d="M36.05,54.15c0.04-0.03,0.06-0.07,0.08-0.12c0,0,0-0.01-0.01-0.01c0-0.01,0.01-0.02,0.02-0.03
		c0.03-0.05,0.05-0.09,0.06-0.09c0,0,0.01-0.01,0.02-0.02c0,0,0,0,0,0.01c0.04-0.04,0.06-0.09,0.09-0.15
		c0.03-0.03,0.05-0.07,0.06-0.11c0.02-0.02,0.03-0.03,0.03-0.06c0.02-0.02,0.03-0.03,0.03-0.06c0.03-0.04,0.04-0.08,0.05-0.12
		c0.05-0.05,0.07-0.11,0.09-0.17c0.04-0.04,0.05-0.09,0.06-0.14c0.02-0.01,0.03-0.03,0.03-0.06c0.02-0.02,0.03-0.05,0.03-0.08
		c0.04-0.09,0.08-0.19,0.09-0.29v0c0.02-0.02,0.02-0.04,0.02-0.06c0.04-0.12,0.07-0.25,0.06-0.38c0.01-0.17,0.03-0.33-0.03-0.5
		c0-0.1-0.04-0.2-0.08-0.29c-0.1-0.24-0.23-0.46-0.37-0.68c-0.26-0.38-0.52-0.75-0.78-1.13c-0.19-0.28-0.37-0.57-0.5-0.89
		c-0.13-0.3-0.17-0.61-0.08-0.93c0.01-0.05,0.04-0.09,0.04-0.14c0.03-0.04,0.04-0.08,0.05-0.13c0.02-0.01,0.03-0.03,0.03-0.06
		c0.02-0.02,0.03-0.04,0.03-0.06c0.02-0.02,0.03-0.03,0.03-0.06l0,0c0.02-0.01,0.03-0.03,0.03-0.05c0.01-0.01,0.02-0.02,0.02-0.03
		l0,0c0.02,0,0.03-0.01,0.02-0.03c0.01-0.01,0.01-0.01,0.01-0.02c0.02-0.01,0.03-0.02,0.03-0.04c0.02-0.01,0.03-0.03,0.03-0.05
		c0,0-0.01-0.01-0.01-0.01c0,0,0,0,0,0v0c0,0,0.01,0.01,0.01,0.01c0.02,0,0.03-0.02,0.03-0.03l-0.01-0.01c0,0,0,0,0,0
		c0,0,0.01,0.01,0.01,0.01c0.02,0,0.02-0.02,0.03-0.03c-0.01,0-0.01,0-0.02,0c0,0,0-0.01,0-0.01c0,0,0.01,0.01,0.01,0.01
		c0.04-0.05,0.08-0.1,0.12-0.14h0c0.06-0.05,0.11-0.11,0.15-0.17c0.04-0.02,0.07-0.05,0.09-0.09c0.06-0.04,0.1-0.09,0.15-0.15
		c0.06-0.01,0.08-0.07,0.12-0.1c0.19-0.16,0.37-0.32,0.55-0.48c0.04-0.07,0.1-0.12,0.17-0.15c0.04-0.02,0.04-0.05,0.01-0.08
		c-0.09-0.07-0.18-0.15-0.27-0.22c-0.63-0.48-1.29-0.92-1.95-1.35c-0.1-0.06-0.1-0.06-0.18,0.02c-0.01,0.01-0.02,0.03-0.03,0.05
		c-0.11,0.06-0.17,0.17-0.23,0.27c-0.09,0.05-0.15,0.13-0.21,0.2c-0.04,0.02-0.06,0.06-0.08,0.1c-0.05,0.02-0.09,0.07-0.12,0.12
		c-0.02,0-0.03,0.01-0.03,0.03v0l0,0c-0.04,0.01-0.05,0.04-0.06,0.08c-0.02,0.01-0.04,0.02-0.05,0.04c0,0,0.01,0,0.01,0c0,0,0,0,0,0
		L33.53,45c-0.02,0.01-0.04,0.03-0.04,0.05c-0.03,0.03-0.06,0.06-0.08,0.09c-0.02,0-0.03,0.01-0.03,0.03
		c-0.04,0.02-0.05,0.05-0.06,0.08c-0.02,0-0.02,0.01-0.03,0.03c-0.03,0.01-0.04,0.04-0.06,0.06c-0.02,0-0.03,0.01-0.03,0.03v0
		c-0.03,0.01-0.04,0.04-0.06,0.06c-0.03,0.02-0.04,0.05-0.06,0.09c-0.03,0.02-0.05,0.05-0.06,0.08c-0.03,0.01-0.04,0.04-0.05,0.07
		c0.01,0,0.01,0,0.01,0.01c0,0,0,0,0,0c0,0-0.01,0-0.01-0.01l0,0c0,0,0,0.01,0,0.01c0,0,0,0,0,0c0,0,0,0,0-0.01
		c-0.04,0.01-0.04,0.05-0.06,0.07c-0.07,0.06-0.12,0.14-0.16,0.22c-0.01,0-0.01,0.01-0.01,0.02c-0.03,0.02-0.05,0.05-0.06,0.09
		c-0.09,0.11-0.2,0.22-0.17,0.38c-0.03-0.03-0.05-0.06-0.09,0c-0.07,0.13-0.15,0.25-0.2,0.39c-0.08,0.16-0.15,0.32-0.18,0.5
		c-0.03,0.03-0.03,0.08-0.03,0.12c-0.01,0.03-0.03,0.05-0.02,0.09c0,0.15-0.02,0.29,0.03,0.44c0,0.02,0,0.03,0,0.05
		c0,0,0,0.01,0,0.01c0.01,0.13,0.04,0.26,0.09,0.38c0.02,0.15,0.08,0.28,0.15,0.41c0,0.05,0.02,0.09,0.05,0.12
		c0.02,0.11,0.08,0.2,0.15,0.29c0,0.01,0,0.02,0.01,0.03c0.01,0.01,0.02,0.02,0.03,0.03c0,0.01,0,0.02,0.01,0.03
		c0.01,0.01,0.02,0.02,0.02,0.03c0.01,0.02,0.02,0.05,0.03,0.07c0.14,0.22,0.28,0.44,0.41,0.66v0c0.01,0.03,0.03,0.05,0.06,0.06
		c0,0.06,0.05,0.1,0.09,0.15l0,0c0.03,0.06,0.07,0.12,0.12,0.18c0.02,0.04,0.04,0.09,0.09,0.12c0.1,0.2,0.23,0.37,0.35,0.55
		c0,0.02,0.01,0.04,0.03,0.06c0,0.05,0.04,0.08,0.06,0.12c0.02,0.03,0.02,0.07,0.06,0.09c0,0.02,0,0.04,0.01,0.06
		c0.08,0.16,0.13,0.33,0.17,0.5c0,0.01,0,0.02,0,0.03c0,0.03,0,0.07,0.02,0.09c0,0,0,0,0,0c0,0.1,0,0.19-0.01,0.29
		c-0.04,0.07-0.03,0.16-0.05,0.24c-0.01,0.03-0.02,0.06-0.03,0.09c0,0.02,0,0.04-0.01,0.06c-0.04,0.05-0.04,0.12-0.06,0.18
		c-0.02,0.05-0.03,0.1-0.05,0.15c-0.04,0.09-0.09,0.17-0.13,0.26c-0.03,0.03-0.05,0.08-0.06,0.12c-0.09,0.11-0.17,0.21-0.26,0.32
		c0,0.01,0.01,0.01,0.02,0.02c0,0-0.01,0-0.01,0c0-0.01-0.01-0.01-0.01-0.02c-0.02,0.02-0.04,0.04-0.06,0.06
		c-0.02,0-0.03,0.01-0.03,0.03l0.01,0.01c0,0,0,0,0,0c0,0,0-0.01-0.01-0.01c-0.02,0-0.03,0.01-0.03,0.03l0.01,0.01c0,0,0,0,0,0
		c0,0,0-0.01,0-0.01c-0.02,0-0.03,0.01-0.03,0.03l0.01,0.01c0,0,0,0,0,0c0,0,0-0.01-0.01-0.01c-0.01,0.01-0.02,0.02-0.03,0.03
		c0,0,0.01,0,0.01,0.01c0,0,0,0,0,0l-0.01-0.01c-0.01,0.01-0.02,0.02-0.03,0.03c-0.02,0-0.04,0.01-0.05,0.04
		c-0.07,0.06-0.14,0.11-0.21,0.17c-0.05,0.02-0.09,0.04-0.12,0.09v0c-0.04,0.01-0.07,0.02-0.09,0.06c-0.08,0.02-0.12,0.12-0.22,0.09
		c-0.07-0.11-0.11-0.24-0.15-0.36c-0.2-0.72-0.33-1.46-0.46-2.2c-0.21-1.15-0.39-2.31-0.57-3.47c-0.2-1.26-0.37-2.52-0.55-3.78
		c-0.04-0.27-0.04-0.27-0.31-0.28c-0.64-0.01-1.28-0.02-1.93-0.03c-0.48-0.01-0.96-0.02-1.44-0.01C27.01,44.27,27,44.29,27,44.31
		c0.02,0.11-0.02,0.21-0.02,0.31c-0.03,0.04-0.03,0.09-0.03,0.15c-0.01,0.09-0.03,0.17-0.04,0.26c-0.01,0.01-0.02,0.02-0.01,0.03
		c0,0.03,0,0.06-0.01,0.09c-0.03,0.05-0.03,0.09-0.03,0.15c0,0.01,0,0.02,0,0.03c-0.04,0.07-0.02,0.16-0.05,0.24
		c-0.01,0.1-0.03,0.21-0.04,0.31c-0.01,0.02-0.02,0.03-0.02,0.05c-0.01,0.17-0.06,0.34-0.09,0.51c0,0.02,0,0.04,0,0.06
		c-0.01,0.05-0.02,0.1-0.03,0.15c-0.03,0.02-0.02,0.06-0.02,0.09c-0.01,0.01-0.01,0.02,0,0.03c0,0.02,0,0.04,0,0.06
		c-0.01,0.06-0.04,0.11-0.03,0.18c0,0.01,0,0.02,0,0.03c-0.05,0.11-0.06,0.23-0.06,0.35c-0.03,0.1-0.06,0.19-0.06,0.3
		c-0.03,0.05-0.03,0.11-0.04,0.17c-0.03,0.08-0.04,0.16-0.05,0.24c0,0.02,0,0.03,0,0.05c-0.03,0.03-0.02,0.06-0.02,0.09
		c-0.04,0.21-0.08,0.42-0.12,0.63c-0.01,0.01-0.01,0.02-0.02,0.04c0,0.01,0,0.02,0,0.03c-0.01,0.04-0.01,0.08,0,0.12l0,0
		c-0.03,0.01-0.03,0.04-0.02,0.06c0,0.02,0,0.04-0.01,0.06c-0.04,0.03-0.02,0.08-0.03,0.12c-0.06,0.24-0.12,0.48-0.15,0.73
		c-0.03,0.02-0.03,0.06-0.02,0.09c-0.01,0.05-0.04,0.09-0.03,0.15c-0.06,0.24-0.1,0.48-0.15,0.72c-0.03,0.03-0.02,0.06-0.03,0.09
		c0,0.01,0,0.01,0,0.02c-0.03,0.03-0.02,0.06-0.03,0.1c0,0.02,0,0.03,0,0.05c-0.03,0.03-0.02,0.06-0.03,0.1c0,0.01,0,0.01,0,0.02
		c-0.03,0.03-0.02,0.06-0.03,0.09c-0.01,0.05-0.03,0.09-0.03,0.15c0,0.01,0,0.02,0,0.02c-0.06,0.18-0.09,0.37-0.14,0.56
		c0,0.02-0.01,0.04-0.01,0.06c-0.04,0.1-0.06,0.22-0.08,0.32c-0.04,0.13-0.08,0.27-0.1,0.41c-0.06,0.18-0.1,0.37-0.14,0.56
		c-0.06,0.2-0.11,0.4-0.15,0.61c-0.05,0.07-0.06,0.15-0.06,0.24l0,0c0,0,0,0,0,0c-0.01,0.03-0.03,0.05-0.02,0.09
		c-0.04,0.05-0.03,0.13-0.12,0.14c-0.08-0.1-0.13-0.22-0.17-0.34c-0.32-0.82-0.57-1.65-0.78-2.5c-0.06-0.24-0.05-0.24,0.11-0.42
		c0.04-0.01,0.06-0.04,0.08-0.07c0.1-0.08,0.19-0.16,0.27-0.26c0.03-0.01,0.05-0.03,0.06-0.06c0.03-0.01,0.04-0.03,0.06-0.06
		c0.03-0.01,0.05-0.03,0.06-0.06c0.25-0.26,0.44-0.57,0.59-0.9c0.09-0.13,0.14-0.28,0.19-0.42c0.17-0.49,0.25-0.99,0.15-1.51
		c-0.06-0.34-0.18-0.67-0.34-0.98c-0.45-0.86-1.06-1.59-1.81-2.2c-0.22-0.18-0.46-0.32-0.75-0.36c-0.37-0.06-0.73-0.09-1.1-0.1
		c-0.61-0.02-1.23-0.02-1.84-0.03c-0.1,0-0.19-0.01-0.29-0.01c-0.12-0.07-0.25,0-0.37-0.01c-0.04,0-0.05,0.05-0.04,0.08
		c0.02,0.09,0.02,0.18,0.03,0.27c0,0.18,0,0.35,0,0.52c0,0.04,0,0.08,0,0.11c-0.04,0.04-0.03,0.09-0.03,0.14c0,0.18,0,0.37,0,0.55
		c0,0.89,0,1.78,0,2.67c0,0.02,0,0.04,0,0.06c0,0.05,0,0.1,0,0.15c0,0.11,0,0.21,0,0.32c0,0.02,0,0.04,0,0.06c0,0.2,0,0.39,0,0.59
		c0,0.06,0,0.12,0,0.17c0,0.05,0,0.1,0,0.15c0,0.18,0,0.37,0,0.55c0,0.02,0,0.04,0,0.06c0,0.42,0,0.84,0,1.26c0,0.04,0,0.08,0,0.12
		c0,0.21,0,0.43,0,0.64c0,0.02,0,0.04,0,0.06v0.12c0,0.17,0,0.33,0,0.5c0,0.12,0,0.23,0,0.35c0,0.19,0,0.39,0,0.58
		c0,0.02,0,0.04,0,0.06c0,0.08,0,0.16,0,0.23c0,0.19,0,0.37,0,0.56c0,0.02,0,0.04,0,0.06c0,0.24,0,0.49,0,0.73c0,0.11,0,0.22,0,0.33
		c0,0.17,0,0.17,0.18,0.16c0.71,0,1.42,0,2.13,0c0.06,0,0.09-0.01,0.09-0.08c0-0.13,0.02-0.26,0-0.39c0-0.15,0-0.3,0-0.45
		c0.01-0.69,0.02-1.39,0.03-2.08c0.05-0.08,0.14-0.06,0.2-0.12c0.01,0,0.02,0,0.03-0.01c0.02,0,0.03,0,0.04-0.02h0
		c0.02,0,0.03-0.01,0.05-0.01c0.02-0.01,0.04-0.01,0.06-0.02c0.04,0.09,0.08,0.18,0.12,0.26c0.01,0.01,0.02,0.02,0.03,0.03
		c0,0.02,0.01,0.05,0.03,0.06c0.17,0.4,0.34,0.8,0.53,1.2c0.08,0.18,0.16,0.37,0.24,0.55c0.03,0.06,0.05,0.12,0.08,0.18
		c0.01,0.02,0.02,0.04,0.03,0.06c0.02,0.03,0.02,0.07,0.06,0.1c0.05-0.05,0.01,0.1,0.06,0.16c0.06,0.14,0.11,0.28,0.19,0.42
		c0.05,0.09,0.06,0.2,0.14,0.28c0.03-0.01,0.06-0.02,0.08-0.03c0.03,0.01,0.05,0,0.06-0.02c0.01-0.01,0.02-0.02,0.03-0.03
		c0.04,0,0.08,0,0.12-0.03c0.11-0.03,0.22-0.07,0.32-0.11c0.01,0,0.02,0,0.02-0.01c0.05-0.01,0.1-0.02,0.15-0.05
		c0.01,0,0.02,0,0.03,0c0.02,0,0.04-0.01,0.06-0.02c0.05-0.01,0.11-0.02,0.15-0.06c0.04,0,0.08-0.02,0.11-0.04
		c0.02,0,0.04,0,0.06-0.02c0.01,0,0.02,0,0.03-0.01c0.02,0,0.05,0,0.06-0.02c0.03,0,0.06-0.01,0.08-0.03c0.01,0,0.02,0,0.03,0
		c0,0.03,0,0.06,0,0.09c-0.01,0.04-0.02,0.08-0.02,0.13c-0.01,0.04-0.02,0.08,0.02,0.1l0.01,0l0.01,0c0.06,0,0.12,0,0.18,0.01v0v0
		c0.04,0.02,0.08,0.03,0.12,0.03c0.12,0,0.25,0,0.37,0c0.21,0,0.43,0,0.64,0c0.02,0,0.04,0,0.06,0c0.17,0,0.33,0,0.5,0
		c0.04,0.01,0.08-0.02,0.12-0.02h0c0.04,0,0.08,0,0.12,0c0.02,0,0.04,0,0.06,0c0.05,0,0.1,0.02,0.15-0.02
		c0.04-0.01,0.08,0.01,0.11-0.03c0.07-0.25,0.1-0.5,0.12-0.76c0.01-0.03,0.02-0.05,0.02-0.08c0.03-0.28,0.06-0.56,0.1-0.84
		c0.03-0.28,0.06-0.57,0.12-0.85c0.02,0,0.03-0.01,0.03-0.03c0.04-0.02,0.08,0,0.11-0.03c0.02,0,0.04,0,0.06-0.01
		c0.01,0,0.02,0,0.03,0c0.22,0,0.45,0,0.67,0c0.06,0,0.12,0.01,0.17-0.02c0.05,0.04,0.1,0.02,0.15,0.02c0.07,0.01,0.14,0.01,0.2,0
		c0.09,0.05,0.19,0.02,0.29,0.03c0.06,0,0.11,0,0.17,0c0,0,0,0,0,0c0.07,0.05,0.16,0.02,0.24,0.03c0.03,0.01,0.06,0.01,0.09,0
		c0.06,0.05,0.14,0.03,0.21,0.03c0.02,0,0.04,0,0.06,0c0.01,0.01,0.02,0.02,0.03,0.03c0.07,0.14,0.09,0.29,0.11,0.44
		c0,0.02,0,0.04,0,0.06v0.03c0.03,0.09,0.03,0.19,0.03,0.28c0,0.05,0,0.11,0.03,0.15h0c0,0.09,0,0.18,0.01,0.26
		c-0.02,0.14,0.02,0.27,0.03,0.41c0,0.08,0,0.16,0,0.23c0,0.25,0,0.5,0,0.75c0,0.16,0,0.16,0.16,0.16c0.01,0,0.03,0,0.04,0
		c0.51,0,1.01,0,1.52,0c0.29,0,0.59,0,0.88,0c0.02,0,0.05,0,0.07,0c0.05-0.02,0.05-0.05,0.02-0.09c-0.05-0.27-0.1-0.54-0.15-0.81
		c0-0.03,0.01-0.07,0.01-0.1c0.04-0.01,0.07,0.03,0.11,0.04c0.1,0.07,0.19,0.14,0.29,0.21c0.02,0.04,0.05,0.06,0.09,0.06
		c0.04,0.03,0.08,0.06,0.12,0.09c0.01,0.01,0.02,0.02,0.03,0.03c0.01,0,0.02,0,0.03,0c0.06,0.04,0.12,0.08,0.18,0.11
		c0.07,0.06,0.15,0.11,0.23,0.15c0.02,0.03,0.05,0.03,0.09,0.03c0.01,0.01,0.02,0.02,0.03,0.03c0.1,0.07,0.21,0.12,0.33,0.17h0.01
		l0.01,0c0.02,0.01,0.03,0,0.03-0.02c0-0.01,0-0.02,0-0.02c0.1-0.09,0.18-0.19,0.26-0.3l0,0c0.02-0.01,0.03-0.03,0.04-0.05
		c0.02-0.01,0.03-0.02,0.03-0.03c0.03-0.03,0.05-0.06,0.08-0.09c0.09-0.09,0.15-0.2,0.23-0.29c0.03-0.01,0.04-0.03,0.04-0.06
		c0.01-0.01,0.02-0.02,0.02-0.03c0.03-0.01,0.04-0.03,0.05-0.06c0.05-0.04,0.09-0.09,0.12-0.15c0.03-0.03,0.06-0.07,0.08-0.12
		c0.02-0.01,0.04-0.03,0.04-0.05c0.02-0.02,0.04-0.04,0.05-0.07c0.02-0.01,0.03-0.03,0.03-0.05c0.04-0.03,0.07-0.07,0.09-0.11
		c0.04-0.03,0.07-0.07,0.09-0.12l0,0c0.03-0.01,0.04-0.04,0.05-0.06c0.09-0.13,0.18-0.25,0.26-0.38l0,0
		c0.02-0.01,0.03-0.03,0.03-0.06c0.02-0.01,0.02-0.02,0.02-0.03c0.02-0.01,0.03-0.03,0.03-0.05c0.05-0.05,0.09-0.11,0.12-0.17
		C36.04,54.19,36.04,54.17,36.05,54.15L36.05,54.15z"/>
	<path d="M23.94,55.48c-0.06,0.02-0.11-0.09-0.15-0.18c-0.04-0.08-0.33-0.82-0.37-1.01c-0.1-0.41-0.76-2.1-0.85-2.4
		c-0.09-0.3-0.13-0.29-0.16-0.31c-0.03-0.02-0.06,0.03-0.13,0.06c-0.1,0.06-0.5,0.27-1.04,0.4c-0.54,0.14-1.1,0.23-1.1,0.23
		s-0.01,2.65-0.03,2.98c-0.01,0.32,0.02,0.34-0.07,0.35c-0.09,0.01-0.05,0.02-0.12-0.04c-0.07-0.05-0.03-0.32-0.03-0.32
		c0-0.04,0.01-0.62,0.02-0.95c0.01-0.32,0.09-4.32,0.11-4.73c0.02-0.41,0.03-4.35,0.03-4.42c0-0.07,0.06-0.08,0.23-0.07
		c0.17,0.01,0.64-0.03,1.39,0.16c0.97,0.24,1.67,0.92,1.94,1.25c0.4,0.49,0.66,1.18,0.7,2.03c0.04,0.85-0.37,1.62-0.56,1.89
		c-0.1,0.14-0.63,0.71-0.81,0.84c-0.19,0.13-0.23,0.17-0.25,0.2c-0.01,0.03,0.25,0.84,0.3,0.97c0.05,0.13,0.99,2.82,1.03,2.92
		C24.04,55.43,24,55.47,23.94,55.48L23.94,55.48z"/>
	<path d="M31.51,55.84c-0.07,0.01-0.11-0.03-0.15-0.16c-0.03-0.13-0.32-1.88-0.4-2.54c-0.08-0.67-0.13-0.54-0.17-0.59
		c-0.06-0.07-0.06-0.01-0.18-0.02c-0.12-0.01-3.21,0.02-3.84-0.03c-0.08-0.01-0.17-0.03-0.19,0.06c-0.01,0.02-0.01,0.1-0.06,0.31
		c-0.04,0.21-0.21,1.01-0.27,1.34c-0.06,0.32-0.24,1.25-0.26,1.3c-0.02,0.05-0.07,0.06-0.14,0.04l-0.01,0
		c-0.02-0.04-0.02-0.09-0.02-0.12c0-0.03,0.13-0.55,0.17-0.71c0.04-0.15,0.47-2.35,0.54-2.65c0.07-0.3,0.54-2.37,0.6-2.74
		c0.06-0.36,0.61-2.94,0.65-3.15c0.04-0.2,0.23-0.83,0.26-0.87c0.03-0.04,0.88-0.07,1.04-0.07c0.16,0,0.43,0.04,0.55,0.07
		c0.12,0.03,0.14,0.11,0.15,0.18c0,0.07,0.13,0.57,0.16,0.75c0.03,0.18,0.63,2.95,0.74,3.6c0.13,0.75,0.39,2.18,0.42,2.36
		c0.03,0.23,0.49,3.29,0.5,3.39C31.6,55.71,31.58,55.82,31.51,55.84L31.51,55.84z"/>
	<polygon class="st1" points="34.58,55.84 34.58,55.84 34.58,55.84 34.58,55.84 	"/>
	<path d="M35.41,52.51c-0.04,0.39-0.11,0.71-0.36,1.09c-0.24,0.38-0.8,1.11-0.92,1.31c-0.12,0.2-0.22,0.22-0.26,0.16
		c-0.05-0.06-0.08-0.08,0.12-0.31c0.19-0.23,0.8-1,0.89-1.18c0.09-0.18,0.31-0.61,0.36-0.91c0.05-0.29,0.06-1.05-0.24-1.61
		c-0.3-0.56-1.24-1.93-1.32-2.23c-0.08-0.3-0.12-0.76-0.05-1.17c0.04-0.24,0.17-0.74,0.41-1.1c0.23-0.37,0.59-0.85,0.65-0.92
		c0.06-0.08,0.11-0.1,0.13-0.1c0.16,0.06,0.01,0.2-0.04,0.26c-0.47,0.53-0.85,1.33-0.91,1.58c-0.06,0.25-0.21,1.12,0.11,1.66
		c0.31,0.55,1,1.48,1.21,1.97C35.38,51.5,35.45,52.12,35.41,52.51L35.41,52.51z"/>
	<polygon class="st1" points="34.14,51.57 34.14,51.57 34.15,51.57 34.14,51.57 34.14,51.57 34.14,51.57 34.14,51.57 	"/>
	<path class="st1" d="M49.86,54.76c-0.05-0.04-0.11-0.06-0.17-0.08c-0.2-0.08-0.4-0.18-0.59-0.29c-1.17-0.68-1.93-1.67-2.21-3.01
		c-0.12-0.57-0.14-1.15-0.05-1.73c0.04-0.25,0.11-0.49,0.18-0.73c0.03-0.04,0.04-0.1,0.06-0.15c0.03-0.02,0.04-0.05,0.03-0.09l0,0
		c0.03-0.03,0.05-0.08,0.05-0.12v0c0.03-0.03,0.05-0.07,0.06-0.12l0,0c0.03-0.03,0.03-0.06,0.05-0.09c0.05-0.1,0.1-0.19,0.15-0.29
		c0.05-0.03,0.07-0.09,0.09-0.14c0.04-0.05,0.08-0.1,0.11-0.15c0.03-0.04,0.06-0.08,0.08-0.12c0.02-0.01,0.03-0.03,0.03-0.05
		c0.06-0.06,0.12-0.13,0.18-0.21c0.02,0,0.02-0.01,0.03-0.03c0.02,0,0.03-0.01,0.03-0.03c0.02,0,0.03-0.01,0.03-0.03
		c0.02-0.01,0.02-0.01,0.03-0.03c0.02,0,0.03-0.01,0.03-0.03c0.02,0,0.03-0.01,0.03-0.03c0.01-0.01,0.01-0.01,0.02-0.02
		c0,0,0.01-0.01,0.01-0.01c0.04-0.02,0.07-0.05,0.09-0.08c0.02,0,0.03-0.01,0.03-0.03c0.04-0.03,0.09-0.07,0.12-0.12
		c0.02,0,0.03-0.01,0.03-0.03c0.01,0,0.02,0,0.02-0.01c0.08-0.06,0.16-0.13,0.24-0.19l0,0c0.02,0,0.03-0.01,0.03-0.03h0
		c0.01,0,0.02,0,0.02-0.01c0.02,0,0.03-0.01,0.03-0.02c0.01-0.01,0.02-0.02,0.03-0.03c0.02-0.01,0.04-0.01,0.06-0.03
		c0.02,0,0.03-0.01,0.03-0.03c0.03-0.02,0.06-0.04,0.08-0.06c0.02,0,0.03-0.01,0.03-0.03l0,0c0.05-0.02,0.1-0.05,0.15-0.09
		c0.04-0.02,0.08-0.03,0.11-0.06l0,0c0.02,0,0.03-0.01,0.03-0.02c0.01,0,0.02,0,0.03-0.01c0.02,0,0.03,0,0.03-0.02l0,0
		c0.06-0.02,0.12-0.05,0.18-0.09c0.04-0.02,0.08-0.04,0.11-0.06c0.01,0,0.02,0,0.03-0.01c0.02,0,0.03,0,0.03-0.02l0-0.01
		c0.04,0,0.08-0.01,0.04-0.06c-0.02-0.03-0.06-0.05-0.08-0.08c-0.35-0.34-0.68-0.69-1.01-1.04c-0.21-0.22-0.43-0.43-0.64-0.64
		c-0.05-0.05-0.09-0.06-0.15-0.02c-0.07,0.04-0.14,0.08-0.2,0.14c-0.04,0.01-0.07,0.03-0.09,0.06c-0.09,0.04-0.16,0.11-0.24,0.18
		c-0.04,0.01-0.06,0.03-0.08,0.06c-0.02,0-0.03,0.01-0.03,0.03c-0.02,0-0.03,0.01-0.03,0.03c-0.02,0-0.04,0.01-0.05,0.04
		c-0.03,0.01-0.05,0.03-0.06,0.06c-0.02,0-0.03,0.01-0.03,0.02v0c-0.12,0.07-0.22,0.17-0.31,0.27l-0.01,0.01
		c-0.01,0-0.02,0.01-0.02,0.02c-0.05,0.03-0.1,0.06-0.13,0.12c-0.02,0-0.03,0.01-0.03,0.03c-0.04,0.02-0.06,0.05-0.09,0.09
		c-0.11,0.1-0.21,0.2-0.29,0.32c-0.02,0-0.03,0.01-0.03,0.03l0,0c-0.03,0.02-0.05,0.04-0.06,0.08c-0.02,0.02-0.05,0.04-0.05,0.07
		c-0.02,0.03-0.04,0.06-0.06,0.08c-0.02,0.02-0.04,0.04-0.06,0.06c-0.03,0.01-0.03,0.03-0.04,0.05c-0.03,0.01-0.04,0.04-0.05,0.07
		c-0.02,0.01-0.03,0.03-0.04,0.05c-0.01,0.01-0.02,0.02-0.02,0.03c-0.05,0.07-0.1,0.14-0.15,0.2c-0.03,0.03-0.04,0.06-0.05,0.09
		c-0.03,0.02-0.05,0.05-0.06,0.09c-0.04,0.03-0.05,0.07-0.07,0.11c-0.01,0.01-0.02,0.02-0.03,0.03c-0.03,0.05-0.06,0.1-0.09,0.15
		c-0.04,0.03-0.05,0.07-0.06,0.11c-0.1,0.16-0.16,0.33-0.23,0.5c-0.04,0.04-0.05,0.09-0.07,0.14c-0.03,0.04-0.05,0.08-0.05,0.12
		c0,0.01-0.01,0.02-0.01,0.02c-0.03,0.02-0.03,0.05-0.03,0.08c-0.09,0.21-0.16,0.42-0.2,0.65c-0.03,0.02-0.03,0.06-0.03,0.09
		c0,0.01,0,0.02,0,0.02c-0.02,0.02-0.02,0.04-0.02,0.07c0,0.01,0,0.02,0,0.03c0,0.1-0.07,0.19-0.06,0.29
		c-0.03,0.04-0.03,0.1-0.03,0.15c0,0.01,0,0.02,0,0.03c-0.04,0.03-0.02,0.08-0.03,0.12c0,0.01,0,0.02,0,0.03h0l0,0
		c-0.01,0.06-0.03,0.12-0.03,0.18c0,0.04,0,0.08,0,0.11c-0.03,0.09-0.02,0.18-0.03,0.26c0,0.03,0,0.06-0.01,0.09
		c-0.01,0.01-0.02,0.02-0.02,0.03c0,0.01,0,0.02,0,0.03c0,0.13,0,0.25,0,0.38c0,0.02,0,0.04,0,0.06c0,0.05,0.04,0.09,0.03,0.15h0
		c-0.03,0.02-0.03,0.06-0.03,0.09h0c0,0.01,0,0.02,0,0.03c0.01,0.11-0.03,0.22,0.02,0.33c0.01,0.14-0.01,0.27,0.03,0.41
		c0,0.03,0,0.06,0,0.09c0,0.18,0.05,0.35,0.06,0.52c0.05,0.07,0.01,0.16,0.06,0.24h0c0.01,0.09,0.03,0.18,0.06,0.26
		c0.03,0.18,0.09,0.35,0.15,0.53c0,0.02,0.01,0.05,0.03,0.06c0.07,0.27,0.18,0.52,0.32,0.76c0.01,0.04,0.02,0.09,0.06,0.12
		c0.08,0.17,0.17,0.34,0.29,0.49c0.08,0.1,0.12,0.24,0.24,0.31c0,0.06,0.04,0.09,0.09,0.12l0,0c0.01,0.03,0.03,0.05,0.06,0.06
		c0,0.04,0.02,0.07,0.06,0.09c0,0,0,0,0,0c0.01,0.01,0.02,0.02,0.03,0.03c0.03,0.05,0.07,0.09,0.12,0.12
		c0.01,0.01,0.02,0.02,0.03,0.03v0v0c0,0,0,0,0,0v0c0.08,0.12,0.17,0.22,0.29,0.29c0.01,0.03,0.03,0.05,0.06,0.06
		c0.02,0.04,0.05,0.07,0.09,0.08c0.03,0.02,0.06,0.04,0.09,0.06c0.01,0.03,0.03,0.05,0.06,0.06c0.22,0.19,0.46,0.36,0.7,0.52
		c0.01,0,0.02,0.01,0.03,0.01c0.03,0.02,0.06,0.04,0.09,0.06c0.02,0.04,0.05,0.06,0.09,0.06c0.08,0.05,0.15,0.1,0.23,0.15
		c0.02,0.02,0.04,0.01,0.06-0.01l0,0c0.02,0,0.03-0.01,0.03-0.02c0.01-0.01,0.02-0.02,0.03-0.03c0.02,0,0.03-0.01,0.03-0.03l0,0
		c0.07-0.04,0.14-0.09,0.2-0.15c0.05-0.02,0.09-0.04,0.11-0.09c0.05-0.04,0.1-0.08,0.15-0.12c0.06-0.03,0.11-0.06,0.15-0.12
		c0.02-0.02,0.04-0.04,0.06-0.06c0.05-0.01,0.08-0.05,0.12-0.09c0.06-0.05,0.12-0.09,0.17-0.15c0.02,0,0.03-0.01,0.03-0.03
		c0.03-0.01,0.05-0.03,0.06-0.06c0,0,0,0,0,0c0.02,0,0.03-0.01,0.04-0.03c0.06-0.04,0.12-0.09,0.17-0.15
		c0.06-0.05,0.13-0.09,0.17-0.15c0.06-0.04,0.11-0.09,0.15-0.14c0.09-0.08,0.17-0.16,0.26-0.24c0.02,0,0.03-0.01,0.03-0.03l0,0
		c0.07-0.04,0.13-0.1,0.17-0.18C49.95,54.79,49.91,54.76,49.86,54.76L49.86,54.76z"/>
	<path d="M48.18,55.25c-0.02,0.04-0.13,0.07-0.25-0.01c-0.12-0.09-1.09-1.04-1.29-1.31c-0.2-0.27-0.59-0.89-0.8-1.51
		c-0.2-0.62-0.28-1.29-0.29-1.77c-0.02-0.65,0.22-1.66,0.36-2.02c0.2-0.51,0.52-1.05,0.84-1.52c0.29-0.43,0.33-0.41,0.64-0.78
		c0.31-0.37,0.64-0.68,0.66-0.68c0.03-0.01,0.07-0.02,0.09,0c0.06,0.07-0.04,0.2-0.38,0.5c-0.33,0.29-1.19,1.46-1.35,1.77
		c-0.16,0.3-0.47,0.94-0.6,1.76c-0.08,0.49-0.09,1.16-0.03,1.59c0.06,0.44,0.22,1.25,0.43,1.6c0.2,0.36,0.56,0.97,0.81,1.24
		c0.25,0.26,0.76,0.72,0.9,0.82C48.07,55.03,48.25,55.12,48.18,55.25L48.18,55.25z"/>
	<path class="st1" d="M73.75,49.67c0-0.07,0-0.14-0.02-0.2c0-0.13,0.01-0.26-0.03-0.38c-0.01-0.23-0.04-0.47-0.09-0.7
		c0.01-0.04,0.01-0.09-0.02-0.13c0.01-0.01,0-0.01,0-0.02c0-0.05,0.01-0.11-0.03-0.15c0-0.03,0-0.06-0.01-0.09
		c-0.08-0.38-0.18-0.75-0.32-1.12c-0.29-0.76-0.68-1.45-1.27-2.02c-0.48-0.47-1.05-0.8-1.71-0.94c-0.63-0.13-1.25-0.12-1.88,0.04
		c-0.4,0.1-0.78,0.25-1.12,0.5c-0.06,0.01-0.1,0.06-0.14,0.09c-0.04,0-0.07,0.02-0.09,0.06c-0.01,0.01-0.02,0.02-0.03,0.02
		c-0.04,0-0.07,0.03-0.08,0.06c-0.01,0-0.01,0.01-0.01,0.02c-0.08,0.05-0.14,0.11-0.2,0.18c-0.01,0.01-0.02,0.02-0.03,0.03
		c-0.04,0.01-0.07,0.04-0.09,0.09c-0.05,0.04-0.1,0.08-0.12,0.14l0,0c-0.04,0.02-0.06,0.05-0.08,0.09l0,0
		c-0.03,0.02-0.05,0.05-0.06,0.08c-0.03,0.01-0.04,0.04-0.05,0.07c-0.04,0.03-0.06,0.07-0.09,0.11l0,0
		c-0.06,0.07-0.11,0.14-0.15,0.23c-0.08,0.09-0.13,0.18-0.17,0.29c-0.03,0.02-0.04,0.06-0.05,0.09c-0.02,0.02-0.03,0.05-0.04,0.08
		c-0.1,0.16-0.17,0.34-0.23,0.53c-0.07,0.17-0.15,0.34-0.18,0.53c-0.09,0.21-0.12,0.43-0.17,0.64c-0.02,0.12-0.06,0.23-0.06,0.35
		c-0.02,0.07-0.04,0.13-0.03,0.2c0,0.02,0,0.04-0.01,0.05h0c-0.03,0.04-0.02,0.08-0.03,0.12c0,0.01,0,0.02,0,0.03
		c-0.02,0.09-0.03,0.17-0.03,0.26c0,0.03,0,0.06,0,0.09l0,0C65.01,49.04,65,49.05,65,49.06c0,0.07,0,0.14-0.01,0.21
		c0,0.01,0,0.02,0,0.03c0,0.07,0,0.13-0.01,0.2c0,0,0,0,0,0c-0.03,0.03-0.02,0.06-0.02,0.09c0,0.24,0,0.48,0,0.73
		c-0.02,0.3,0.03,0.6,0.03,0.9c0,0.01,0.01,0.03,0.02,0.04c0,0.03,0,0.06,0.03,0.08c-0.03,0.15,0.01,0.29,0.03,0.44
		c0,0.11,0.01,0.22,0.06,0.33c0,0.04,0,0.07,0.01,0.11c0.01,0.03,0.02,0.06,0.03,0.09c0,0.02,0,0.04,0,0.06
		c0.03,0.09,0.05,0.19,0.06,0.29c0.03,0.11,0.06,0.23,0.09,0.34c0.04,0.15,0.08,0.31,0.15,0.45c0.01,0.1,0.05,0.18,0.09,0.26
		c0,0.02,0.01,0.05,0.03,0.06c0,0.01,0,0.02,0,0.03c0,0.02,0.01,0.05,0.03,0.06c0,0.01,0,0.02,0,0.03c0.02,0.04,0.04,0.08,0.06,0.12
		c0,0.02,0.01,0.05,0.03,0.06c0.01,0.04,0.02,0.08,0.03,0.12c0.01,0.01,0.02,0.02,0.03,0.03c0,0.01,0,0.02,0,0.03v0v0
		c0.03,0.07,0.06,0.15,0.11,0.21c0,0.02,0.01,0.05,0.03,0.06c0.01,0.07,0.04,0.13,0.09,0.17c0.11,0.21,0.23,0.41,0.38,0.59
		c0.01,0.01,0.02,0.02,0.03,0.03c0.03,0.07,0.08,0.13,0.14,0.18c0,0.02,0.01,0.04,0.03,0.06c0.01,0.03,0.03,0.05,0.06,0.06
		c0.14,0.17,0.3,0.33,0.47,0.47c0.02,0.03,0.06,0.04,0.09,0.06c0.18,0.14,0.36,0.27,0.57,0.36c0.09,0.04,0.17,0.11,0.28,0.11
		c0.01,0.02,0.04,0.02,0.06,0.03c0.01,0.02,0.04,0.03,0.06,0.03c0.19,0.08,0.4,0.12,0.61,0.15c0.23,0.04,0.47,0.04,0.7,0.03
		c0.02,0,0.04,0,0.06,0c0.06,0,0.12,0.02,0.18-0.02l0,0c0,0,0,0,0,0l0,0l0.01,0.01l0.01,0l0.01,0c0.03,0,0.06,0,0.09,0
		c0.05,0,0.1,0,0.15-0.03c0.02,0,0.04,0,0.06-0.01c0.03,0,0.07,0.01,0.09-0.02c0.09,0,0.18-0.03,0.26-0.06
		c0.04,0.01,0.08-0.01,0.12-0.03c0.02,0,0.05,0,0.06-0.02c0.06-0.01,0.12-0.03,0.17-0.06c0.01,0,0.02,0,0.03,0
		c0.04-0.02,0.09-0.02,0.12-0.05c0.02,0,0.04-0.01,0.06-0.03c0.05-0.01,0.09-0.04,0.14-0.06c0.02,0,0.05,0,0.06-0.03
		c0.01-0.01,0.02-0.02,0.03-0.03c0.04-0.01,0.08-0.03,0.11-0.06c0.03-0.01,0.06-0.03,0.09-0.06c0.05-0.02,0.09-0.04,0.12-0.08
		c0.08-0.03,0.14-0.09,0.2-0.15c0.02,0,0.03-0.01,0.03-0.03c0.07-0.04,0.13-0.1,0.2-0.15c0.04-0.02,0.07-0.05,0.09-0.09c0,0,0,0,0,0
		c0.02-0.02,0.04-0.04,0.06-0.06c0.09-0.1,0.19-0.18,0.26-0.29c0.07-0.07,0.13-0.15,0.18-0.24c0.06-0.07,0.12-0.14,0.15-0.23
		c0.04-0.04,0.06-0.09,0.09-0.14c0.02-0.01,0.02-0.02,0.02-0.03c0.02-0.01,0.03-0.03,0.03-0.05c0.02-0.02,0.03-0.03,0.03-0.06
		c0.03-0.03,0.05-0.07,0.06-0.11c0.03-0.02,0.04-0.06,0.05-0.1c0.04-0.06,0.07-0.13,0.09-0.2c0.02-0.01,0.03-0.04,0.03-0.06
		c0.08-0.14,0.13-0.28,0.18-0.44c0,0-0.01-0.01-0.01-0.01c0,0,0,0,0.01-0.01v0c0.01,0,0.01,0.01,0.01,0.01
		c0.04-0.06,0.05-0.13,0.06-0.2c0.05-0.08,0.07-0.17,0.08-0.26c0.01-0.01,0.01-0.03,0.02-0.04c0.17-0.61,0.27-1.23,0.32-1.87
		C73.76,50.78,73.77,50.23,73.75,49.67L73.75,49.67z"/>
	<path d="M72.04,53.04c-0.28,0.93-0.9,1.93-1.42,2.24c-0.52,0.31-1.17,0.34-1.53,0.32c-0.48-0.03-1.08-0.35-1.45-0.77
		c-0.57-0.66-0.99-1.91-1.11-2.79c-0.12-0.88-0.24-2.3-0.12-3.04c0.12-0.77,0.37-1.86,0.79-2.54c0.44-0.7,1.32-1.51,2.1-1.49h0.01
		c0.39,0,0.83,0.07,1.1,0.18c0.4,0.18,1.12,0.72,1.46,1.72c0.14,0.4,0.48,1.47,0.54,2.7C72.48,50.79,72.33,52.07,72.04,53.04
		L72.04,53.04z"/>
	<path class="st1" d="M80.74,48.09c0.01-0.06-0.01-0.13-0.02-0.19c-0.07-0.35-0.2-0.67-0.37-0.98c-0.38-0.69-0.87-1.29-1.43-1.83
		c-0.2-0.2-0.42-0.37-0.67-0.52c-0.11-0.07-0.23-0.11-0.35-0.13c-0.23-0.04-0.46-0.06-0.7-0.05c-0.02-0.03-0.05-0.02-0.08-0.02
		c-0.21,0-0.43-0.01-0.64-0.01c-0.7,0-1.4,0-2.1,0.03c-0.11,0-0.16-0.02-0.14,0.15c-0.01,0.03-0.01,0.06,0,0.09
		c-0.01,0.04,0.01,0.08,0.03,0.12c0,0.33,0,0.66,0,0.99c0,0.03,0,0.06,0,0.09c0,0.05,0,0.1,0,0.15c-0.06,0.62-0.02,1.25-0.03,1.87
		c0,0.23,0,0.47,0,0.7c0,0.02,0,0.04,0,0.06v0c0,0.09,0,0.17,0,0.26c0,0.05,0,0.1,0,0.15v0.44c0.01,0.12-0.04,0.23-0.03,0.35
		c0,0.52,0,1.03,0,1.55c0,0.12,0,0.23,0,0.35c0,0.24,0,0.49,0,0.73c0,0.25,0,0.51,0,0.76c0,0.17,0,0.33,0,0.5
		c-0.01,0.08,0,0.16-0.02,0.24c-0.01,0.04-0.02,0.1,0.02,0.14c0,0.03,0,0.06,0,0.08c0,0.04,0,0.08,0,0.12c0,0.01,0,0.02,0,0.02v0v0
		c-0.04,0.04-0.02,0.09-0.02,0.14c0,0.59,0,1.18,0,1.77c0,0.09-0.02,0.2,0.06,0.28c0.09,0,0.17,0,0.26,0.01c0.02,0,0.04,0,0.06,0
		c0.01,0,0.02,0,0.03,0c0.02,0,0.04,0,0.06,0c0.03,0.01,0.06,0.03,0.1,0.03c0.42,0,0.85,0,1.28,0c0.04,0,0.08,0,0.12,0
		c0.09,0,0.18,0,0.27,0c0.13,0.01,0.11-0.02,0.11-0.11c0-0.02-0.01-0.05-0.01-0.07c0.01-0.31,0.03-0.63,0.04-0.94
		c0-0.27,0.04-0.54,0.03-0.81c0.01-0.06,0.01-0.12,0-0.17c0.03-0.23,0.03-0.46,0.03-0.69c0.02-0.06,0.02-0.12,0.02-0.18
		c0-0.06,0.03-0.09,0.07-0.11c0.09-0.02,0.17-0.07,0.25-0.1c0.08,0.04,0.08,0.12,0.12,0.18c0.08,0.19,0.16,0.37,0.26,0.56
		c0,0.01,0,0.02,0,0.03c0,0.02,0.01,0.03,0.03,0.03h0h0c0.04,0.12,0.1,0.23,0.15,0.35c0.06,0.14,0.12,0.28,0.2,0.41
		c0.01,0.04,0.03,0.07,0.04,0.11c0.14,0.31,0.29,0.63,0.43,0.94c0.01,0.01,0.02,0.02,0.03,0.03c0,0.01,0,0.02,0,0.03
		c0.03,0.06,0.06,0.12,0.09,0.18c0.05,0.15,0.13,0.29,0.21,0.44c0.08-0.03,0.16-0.04,0.23-0.09c0.11-0.02,0.21-0.05,0.3-0.11
		c0.02,0,0.03,0,0.05-0.01c0.02,0,0.03-0.01,0.03-0.02l0,0c0.04-0.01,0.08,0.01,0.11-0.03c0.01,0,0.02,0,0.03-0.01
		c0.02,0,0.03-0.01,0.03-0.02l0,0c0.03,0,0.06,0,0.09-0.03c0.03,0,0.06,0,0.08-0.03c0.14-0.03,0.28-0.09,0.42-0.14
		c0.02,0,0.03-0.01,0.05-0.01c0.02,0,0.03,0,0.03-0.02c0.03,0,0.07,0.01,0.09-0.03l0,0c0.06-0.01,0.12-0.03,0.17-0.06
		c0.11-0.02,0.21-0.07,0.31-0.11c0.08-0.03,0.04-0.06,0.01-0.1c-0.12-0.28-0.24-0.55-0.35-0.83c-0.35-0.85-0.68-1.7-0.92-2.59
		c-0.05-0.18-0.09-0.37-0.13-0.55c0-0.14-0.04-0.27-0.03-0.41c0.05-0.05,0.11-0.09,0.16-0.14c0.04-0.01,0.06-0.04,0.07-0.07
		c0.1-0.07,0.18-0.17,0.26-0.26c0.04-0.03,0.08-0.06,0.1-0.11l0,0c0.02,0,0.03-0.02,0.03-0.03c0.02-0.01,0.04-0.03,0.05-0.06
		c0.03-0.01,0.05-0.03,0.05-0.06l0,0c0.02,0,0.02-0.01,0.02-0.02c0.01,0,0.01-0.01,0.01-0.02c0.02-0.01,0.03-0.02,0.02-0.04v0
		c0.09-0.09,0.16-0.18,0.21-0.29c0.14-0.2,0.26-0.41,0.34-0.65c0.05-0.06,0.07-0.13,0.09-0.2c0.04-0.1,0.08-0.21,0.09-0.32
		c0.03-0.04,0.03-0.08,0.03-0.12c0.07-0.24,0.08-0.48,0.08-0.73C80.76,48.21,80.76,48.15,80.74,48.09L80.74,48.09z"/>
	<path d="M78.94,50.36c-0.1,0.14-0.59,0.72-0.78,0.84c-0.19,0.13-0.2,0.19-0.22,0.22c-0.01,0.03,0.24,0.86,0.29,0.99
		c0.05,0.13,0.99,2.82,1.03,2.92c0.03,0.1-0.01,0.13-0.07,0.15c-0.06,0.02-0.11-0.09-0.15-0.18c-0.04-0.08-0.31-0.82-0.4-1
		c-0.08-0.18-0.73-2.11-0.81-2.41c-0.09-0.3-0.09-0.29-0.12-0.31c-0.03-0.02-0.12,0-0.18,0.03c-0.1,0.06-0.5,0.3-1.04,0.43
		c-0.41,0.1-0.87,0.13-1.05,0.17c-0.05,0.01-0.05,0.06-0.05,0.06s-0.01,2.65-0.03,2.98c-0.01,0.32-0.06,0.33-0.08,0.33
		c-0.05,0.01-0.07,0.01-0.11-0.02c-0.06-0.06-0.01-0.31-0.01-0.31c0-0.04,0-0.62,0.01-0.95c0.01-0.32,0.08-4.32,0.1-4.73
		c0.02-0.41,0.03-4.4,0.03-4.47c0-0.07,0.06-0.08,0.23-0.07c0.17,0.01,0.64-0.07,1.39,0.11c0.97,0.24,1.69,0.86,2.04,1.44
		c0.33,0.54,0.57,1.01,0.57,1.86C79.54,49.42,79.13,50.08,78.94,50.36L78.94,50.36z"/>
	<path class="st1" d="M65.29,43.42c-0.37-0.12-0.74-0.23-1.11-0.35c-0.57-0.17-1.13-0.34-1.7-0.51c-0.04-0.01-0.07-0.02-0.09-0.02
		c-0.04,0-0.04,0.03-0.07,0.11c-0.03,0.02-0.02,0.05-0.02,0.08c0.01,0.1,0,0.2,0,0.3c-0.04,0.07-0.05,0.15-0.03,0.24
		c-0.02,0.04-0.03,0.07-0.03,0.11c0,0,0,0,0,0c-0.01,0.01-0.02,0.02-0.02,0.03c0,0.03,0,0.06,0,0.09c-0.02,0.04-0.04,0.07-0.03,0.12
		c-0.05,0.05-0.02,0.12-0.03,0.18c-0.05,0.05-0.02,0.12-0.03,0.17c-0.04,0.22-0.09,0.43-0.11,0.65c0,0.02,0,0.04-0.01,0.06
		c-0.04,0.03-0.02,0.08-0.03,0.12c-0.01,0.03-0.02,0.06-0.03,0.08c0,0.02,0,0.04,0,0.06c-0.03,0.16-0.06,0.33-0.09,0.49
		c-0.03,0.16-0.06,0.33-0.08,0.5c0,0.01-0.01,0.02-0.01,0.03c-0.02,0.1-0.06,0.19-0.06,0.3c0,0.02,0,0.04-0.01,0.06
		c0,0.01-0.01,0.02,0,0.02l0,0c0,0,0,0.01,0,0.01c0,0,0,0,0,0c-0.04,0.1-0.05,0.2-0.05,0.31c-0.04,0.06-0.02,0.12-0.03,0.18
		c-0.03,0.04-0.02,0.08-0.02,0.12c-0.03,0.04-0.03,0.08-0.02,0.12c0,0.01,0,0.02-0.01,0.03c-0.01,0.02-0.01,0.04-0.02,0.06
		c0,0.01,0,0.02,0,0.03c0,0.02,0,0.04-0.01,0.06c0,0.02,0,0.04,0,0.05c-0.04,0.05-0.02,0.11-0.03,0.17
		c-0.03,0.03-0.02,0.06-0.02,0.1c0,0.01,0,0.02,0,0.03c-0.02,0.04-0.03,0.07-0.03,0.12c-0.01,0.06-0.04,0.11-0.03,0.18
		c0,0.03,0,0.05-0.01,0.08c-0.04,0.04-0.01,0.1-0.03,0.15c-0.02,0.02-0.02,0.04-0.02,0.06c-0.01,0.04-0.02,0.08-0.03,0.12
		c0,0.03-0.01,0.06-0.01,0.08c-0.02,0.01-0.02,0.02,0,0.03c0,0,0,0,0,0c-0.03,0.04-0.03,0.09-0.03,0.14c0,0.04-0.04,0.07-0.03,0.12
		c-0.01,0.07-0.02,0.14-0.04,0.2c0,0.02,0,0.04-0.01,0.06c-0.03,0.09-0.03,0.18-0.05,0.27c-0.01,0.01-0.01,0.02,0,0.03
		c-0.05,0.09-0.04,0.2-0.06,0.29c-0.02,0.02-0.04,0.04-0.06,0.06c-0.01-0.02-0.02-0.04-0.03-0.06c-0.17-0.52-0.34-1.04-0.51-1.57
		c-0.26-0.85-0.51-1.7-0.67-2.58c-0.02-0.11-0.08-0.15-0.17-0.17c-0.15-0.03-0.3-0.04-0.45-0.05c-0.45,0-0.9,0-1.36,0
		c-0.04,0-0.08,0-0.11,0.02c-0.08-0.02-0.16-0.01-0.24-0.01c-0.06,0-0.12-0.01-0.16,0.03c-0.01,0.02-0.03,0.03-0.03,0.05
		c0.01,0.19-0.04,0.38-0.06,0.57c-0.04,0.09-0.05,0.19-0.06,0.29l0,0c-0.07,0.24-0.13,0.48-0.17,0.73
		c-0.01,0.01-0.01,0.02-0.02,0.03c0,0.03-0.01,0.06-0.01,0.08c-0.03,0.03-0.03,0.06-0.03,0.09c-0.02,0.07-0.04,0.14-0.06,0.2
		c-0.01,0.05-0.02,0.1-0.03,0.15c-0.02,0.06-0.04,0.11-0.03,0.17c-0.04,0.04-0.04,0.1-0.06,0.15c-0.03,0.12-0.06,0.23-0.08,0.35
		c-0.02,0.06-0.04,0.11-0.04,0.17c-0.03,0.02-0.03,0.06-0.03,0.09c-0.01,0.03-0.03,0.06-0.02,0.09c-0.01,0.04-0.04,0.07-0.03,0.12
		c-0.05,0.1-0.06,0.21-0.09,0.32c0,0.01-0.01,0.01-0.01,0.02c-0.02,0.02-0.03,0.04-0.02,0.07c0,0.01-0.01,0.02,0,0.03
		c-0.03,0.02-0.03,0.06-0.03,0.09c-0.03,0.1-0.07,0.19-0.08,0.29l0,0c-0.02,0.01-0.03,0.03-0.02,0.06c-0.01,0.05-0.02,0.1-0.04,0.15
		c-0.03,0.05-0.03,0.11-0.09,0.14c-0.03-0.07-0.04-0.15-0.06-0.22c-0.12-0.61-0.22-1.23-0.32-1.85c-0.1-0.6-0.2-1.21-0.29-1.81
		c0-0.11-0.02-0.22-0.05-0.33c-0.01-0.12-0.03-0.23-0.06-0.35c-0.02-0.25-0.06-0.5-0.12-0.74c0.01,0,0.01-0.01,0-0.02
		c-0.02-0.2-0.05-0.39-0.09-0.58c0-0.06,0-0.12-0.03-0.18c0-0.06,0-0.12-0.03-0.18c0-0.06,0-0.12-0.02-0.18c0-0.01,0-0.02-0.01-0.03
		l0,0c0-0.14-0.03-0.27-0.06-0.41c0-0.05,0.01-0.11-0.02-0.15c0-0.04-0.01-0.07-0.06-0.07c-0.1,0-0.19,0-0.29,0.01
		c-0.56,0.07-1.12,0.16-1.68,0.25c-0.44,0.08-0.89,0.15-1.33,0.25c-0.09,0.01-0.09,0.02-0.05,0.12c-0.01,0.04,0.02,0.08,0.03,0.12
		c0.02,0.08,0.04,0.16,0.06,0.23c-0.01,0.05,0.02,0.1,0.03,0.15c0,0.03,0,0.07,0.03,0.09c0,0.02,0,0.03,0,0.05
		c0.01,0.05-0.01,0.11,0.03,0.15c0.01,0.07,0.02,0.13,0.04,0.2c0.01,0.01,0.02,0.02,0.02,0.03c0,0,0,0,0,0
		c0,0.06-0.01,0.12,0.06,0.15c-0.02,0.1-0.02,0.2,0.03,0.29c0.01,0.04,0.02,0.08,0.03,0.12c-0.01,0.07,0.03,0.13,0.03,0.2
		c0,0,0,0,0,0c0,0,0,0,0,0c0.01,0.01,0.02,0.02,0.02,0.03c0,0.01,0,0.02,0,0.03c0,0,0,0,0,0h0c-0.01,0.05,0.02,0.1,0.03,0.15
		c-0.01,0.04,0.02,0.08,0.02,0.12c0,0.02,0,0.04,0,0.06c0.01,0.05,0.02,0.1,0.05,0.15c0,0.12,0.08,0.23,0.07,0.35
		c0,0.01,0,0.02,0,0.03c0,0.03,0.01,0.06,0.03,0.09c0.01,0.11,0.05,0.22,0.08,0.33c0,0.06,0.02,0.11,0.03,0.17c0,0.01,0,0.02,0,0.03
		c0,0.04-0.01,0.09,0.03,0.12c0.02,0.06,0.05,0.13,0.06,0.19c0.05,0.27,0.13,0.53,0.18,0.8c0,0.03,0,0.07,0.03,0.09
		c0.01,0.12,0.03,0.24,0.07,0.34c0.05,0.13,0.01,0.29,0.14,0.38c0,0,0,0.02,0,0.03c-0.01,0.13,0,0.25,0.04,0.36
		c0.01,0.03,0.02,0.07,0.02,0.1c0.01,0.1,0.08,0.18,0.07,0.28c0.03,0.13,0.05,0.26,0.09,0.38c0,0.02,0,0.04,0,0.06
		c0,0.02,0,0.05,0.02,0.06c0,0.01,0,0.02,0,0.03c0,0.04-0.01,0.09,0.03,0.12v0c0.05,0.08,0.02,0.18,0.06,0.26
		c0.04,0.05,0.01,0.13,0.05,0.18c0,0.02,0,0.04,0.01,0.05c-0.01,0.09,0.06,0.15,0.06,0.24c0.03,0.2,0.1,0.39,0.14,0.58
		c0,0.01,0,0.02,0,0.03c0,0.03,0,0.07,0.03,0.09c0,0.02,0,0.04,0,0.06c0,0.02,0,0.05,0.03,0.06c0.02,0.09,0.04,0.18,0.06,0.26
		c0.03,0.14,0.06,0.27,0.09,0.41c0,0.02,0,0.05,0.03,0.06c0,0.08,0.02,0.16,0.06,0.23c-0.01,0.06,0.03,0.11,0.03,0.17
		c0,0.02,0.01,0.03,0.03,0.03l0,0c0,0.01,0,0.02,0,0.03c0,0.01,0,0.02,0,0.03c0,0.04-0.01,0.09,0.03,0.12
		c0.01,0.04-0.01,0.08,0.03,0.12c0,0.04-0.01,0.08,0.03,0.12c0,0.02,0,0.04,0.01,0.05c0.01,0.04,0.02,0.08,0.03,0.12
		c0,0.02,0.01,0.05,0.03,0.06l0,0c0.01,0.05-0.01,0.1,0.03,0.15c0.03,0.07,0.02,0.16,0.06,0.23c0.03,0.08,0.02,0.16,0.06,0.23
		c0.03,0.14,0.06,0.27,0.09,0.41c0.04,0.08,0,0.19,0.09,0.26c0.02,0,0.04,0,0.05,0.01c0.02,0.02-0.01,0.02-0.02,0.02
		c-0.06,0.04-0.05,0.09-0.01,0.14c0.02,0.1,0.04,0.19,0.06,0.29c0,0.03-0.01,0.07,0.03,0.09c0.02,0.14,0.08,0.27,0.09,0.41
		c0.01,0.05,0.02,0.11,0.06,0.15c0,0.03,0,0.06,0,0.09c0,0.02,0,0.05,0.03,0.06c0.01,0.05-0.02,0.1,0.03,0.15c0,0.01,0,0.02,0,0.03
		h0c0.01,0.03,0.02,0.06,0.03,0.1c0.03,0.11,0.04,0.22,0.09,0.31c0,0.01,0,0.02,0,0.03c0,0.03,0,0.07,0.03,0.09
		c0,0.11,0.04,0.21,0.06,0.31c0.05,0.2,0.09,0.4,0.15,0.6c0.03,0.12,0.03,0.26,0.12,0.36c0.11,0,0.21,0,0.32,0.01
		c0.02,0,0.04,0,0.06,0c0.02,0,0.04,0,0.06,0c0.01,0,0.02,0,0.03,0c0.02,0.02,0.05,0.02,0.08,0.02h0.59
		c0.04,0.03,0.09,0.03,0.14,0.03c0.1,0,0.2,0,0.3,0c0.04,0,0.08,0,0.12,0c0.02,0,0.04,0,0.06,0c0.04,0.01,0.09,0.01,0.13,0.02
		c0.09,0.01,0.19,0.03,0.28-0.02c0.02-0.04,0.04-0.07,0.03-0.12c0.01-0.06,0.04-0.11,0.04-0.17c0.02-0.04,0.03-0.08,0.03-0.12
		c0.03-0.07,0.06-0.13,0.05-0.21c0.03-0.03,0.04-0.07,0.03-0.11c0.03-0.07,0.05-0.15,0.06-0.23c0.06-0.14,0.09-0.29,0.12-0.45
		c0.04-0.07,0.06-0.15,0.06-0.23c0.03-0.07,0.05-0.13,0.05-0.21c0.05-0.11,0.06-0.23,0.09-0.35c0.03-0.03,0.03-0.07,0.03-0.11
		c0.06-0.18,0.11-0.37,0.15-0.55c0.03-0.04,0.03-0.08,0.03-0.13c0.02-0.03,0.03-0.06,0.02-0.09c0.01,0,0.01-0.01,0.01-0.02
		c0.01-0.02,0.02-0.05,0.02-0.07c0-0.01,0-0.02,0.01-0.03c0.03-0.03,0.03-0.07,0.03-0.12c0.03-0.03,0.03-0.07,0.03-0.12
		c0.04-0.14,0.09-0.27,0.11-0.41c0.01-0.01,0.01-0.01,0-0.02c0.04-0.1,0.06-0.2,0.08-0.3c0.04-0.11,0.07-0.23,0.09-0.35
		c0.04-0.1,0.07-0.21,0.09-0.32c0.05-0.08,0.05-0.18,0.09-0.26c0.08,0,0.05,0.08,0.09,0.12c0,0.04,0.01,0.08,0.03,0.12
		c0,0.05-0.01,0.1,0.03,0.15c0,0.04-0.01,0.08,0.03,0.12c0,0.02,0,0.05,0.03,0.06c0.01,0.05-0.02,0.1,0.03,0.14
		c0.02,0.11,0.04,0.21,0.06,0.32c0.01,0.01,0.02,0.02,0.02,0.03c0.01,0.05,0.02,0.1,0.03,0.14c0,0.08,0.01,0.15,0.06,0.21
		c0,0.02,0,0.04,0,0.06c0,0.02,0,0.05,0.02,0.06c0.02,0.09,0.04,0.17,0.06,0.26c0,0.02,0,0.05,0.03,0.06c0,0.01,0,0.02,0,0.03
		c0.02,0.08,0.02,0.16,0.06,0.24c0,0.02,0,0.04,0.01,0.05c0.04,0.13,0.06,0.26,0.11,0.38c0,0.09,0.04,0.17,0.06,0.26
		c0.02,0.06,0.02,0.12,0.05,0.18v0c0.01,0.17,0.09,0.33,0.12,0.49c0.03,0.08,0.01,0.16,0.06,0.23c0.07,0.26,0.14,0.53,0.21,0.79
		c0.01,0.05,0.02,0.1,0.03,0.15c0.05,0.17,0.07,0.34,0.15,0.5c0.01,0.04,0.03,0.06,0.08,0.05c0.03-0.01,0.07-0.01,0.1-0.02
		c0.01,0,0.02,0,0.03,0c0.05,0,0.1,0.01,0.15-0.02l0,0c0.04,0,0.08,0,0.11,0c0.04,0.01,0.08-0.01,0.12-0.03v0
		c0.02,0.03,0.04,0.03,0.06,0c0.03,0,0.06,0,0.08,0c0.01,0,0.02,0,0.03,0c0.05-0.01,0.1,0.01,0.15-0.02c0.03,0,0.06-0.01,0.08-0.01
		l0.01,0l0.01,0c0.08,0.01,0.16-0.02,0.23-0.03c0.01,0,0.02,0,0.03,0c0.07,0,0.14-0.01,0.21-0.03l0.01,0l0.01,0
		c0.05-0.01,0.1,0.01,0.15-0.03c0.02,0,0.04,0,0.06,0c0.05,0,0.1,0.01,0.15-0.02c0.1,0,0.21-0.01,0.3-0.05c0.01,0,0.01,0,0.02-0.01
		c0.04-0.07,0.05-0.15,0.06-0.23c0.05-0.11,0.07-0.23,0.09-0.35l0,0c0.07-0.19,0.11-0.39,0.15-0.59c0.03-0.07,0.05-0.15,0.06-0.23
		l0,0c0.03-0.03,0.03-0.08,0.03-0.12c0.04-0.1,0.07-0.21,0.08-0.32c0.04-0.12,0.07-0.25,0.09-0.38c0.04-0.07,0.05-0.15,0.06-0.23
		c0.05-0.1,0.06-0.21,0.08-0.32c0.02-0.05,0.04-0.09,0.03-0.14c0.03-0.06,0.05-0.13,0.05-0.21c0.05-0.2,0.12-0.4,0.15-0.61
		c0.01-0.01,0.01-0.03,0.01-0.04c0.03-0.1,0.06-0.2,0.08-0.31c0.01-0.01,0.01-0.02,0.01-0.02c0.03-0.08,0.05-0.16,0.06-0.24
		c0.03-0.03,0.03-0.06,0.02-0.09c0.03-0.04,0.03-0.09,0.03-0.13c0.05-0.15,0.09-0.31,0.12-0.47l0,0c0.03-0.03,0.03-0.08,0.03-0.12
		c0.03-0.03,0.03-0.08,0.03-0.12h0c0.03-0.07,0.05-0.15,0.06-0.23c0.08-0.32,0.17-0.64,0.25-0.97c0.05-0.22,0.13-0.44,0.16-0.66
		c0.03-0.07,0.05-0.14,0.05-0.21c0.03-0.04,0.03-0.09,0.04-0.14c0.04-0.07,0.05-0.14,0.05-0.21c0.04-0.12,0.07-0.25,0.09-0.37
		c0.01-0.01,0.01-0.02,0.01-0.02c0.04-0.11,0.07-0.22,0.08-0.33c0.03-0.03,0.03-0.07,0.03-0.12c0,0,0,0,0,0
		c0.03-0.03,0.04-0.07,0.03-0.12c0.04-0.08,0.06-0.17,0.06-0.26c0.03-0.06,0.05-0.13,0.06-0.2c0.01-0.01,0.01-0.02,0.01-0.04
		c0.07-0.23,0.13-0.46,0.17-0.7c0.03-0.07,0.05-0.15,0.06-0.23c0.04-0.11,0.07-0.22,0.08-0.33c0.03-0.08,0.05-0.17,0.06-0.26
		c0,0,0,0,0,0c0.04-0.1,0.07-0.21,0.08-0.32c0.01-0.01,0.01-0.01,0.01-0.02c0.03-0.08,0.05-0.16,0.06-0.24
		c0.04-0.06,0.05-0.13,0.05-0.21c0.01-0.03,0.02-0.05,0.03-0.08c0.18-0.72,0.35-1.44,0.53-2.16c0.03-0.12,0.05-0.24,0.07-0.35
		C65.54,43.5,65.41,43.46,65.29,43.42L65.29,43.42z"/>
	<path d="M63.57,46.05c-0.16,0.84-0.79,3.39-0.92,3.93c-0.13,0.54-0.74,3.09-0.88,3.76c-0.14,0.67-0.43,1.73-0.49,1.9
		c-0.06,0.17-0.07,0.37-0.14,0.37c-0.06,0-0.14-0.24-0.32-0.94c-0.09-0.33-0.37-1.56-0.79-3.17c-0.49-1.82-1.07-3.64-1.1-3.79
		c-0.06-0.27-0.18-0.58-0.21-0.57c-0.03,0.01-0.05,0.25-0.24,0.95c-0.19,0.7-1.18,4.04-1.36,4.66c-0.18,0.62-0.64,2.05-0.72,2.32
		c-0.08,0.27-0.12,0.43-0.18,0.44c-0.13,0.01-0.12,0.09-0.35-0.9c-0.22-0.99-1.23-5.6-1.42-6.54c-0.19-0.93-0.83-3.95-0.85-4.05
		c-0.02-0.1-0.02-0.27,0.07-0.3c0.07-0.02,0.14,0.07,0.21,0.39c0.07,0.31,0.85,4.11,0.97,4.7c0.12,0.59,0.82,4.14,0.95,4.51
		c0.13,0.37,0.25,1.07,0.3,1.26c0.05,0.18,0.05,0.35,0.1,0.36c0.06,0,0.06-0.15,0.13-0.36c0.07-0.2,1.1-3.92,1.27-4.54
		c0.17-0.62,0.92-3.23,0.97-3.36c0.05-0.13,0.07-0.15,0.12-0.15c0.05,0,0.13-0.04,0.25,0.46c0.12,0.5,1.3,4.34,1.43,4.92
		c0.09,0.41,0.51,2.09,0.53,2.18c0.07,0.39,0.18,0.89,0.22,0.89c0.08,0,0.25-0.84,0.42-1.58c0.16-0.73,1.26-5.36,1.44-6.19
		c0.18-0.83,0.63-2.7,0.68-2.87c0.05-0.17,0.06-0.5,0.15-0.49c0.09,0.01,0.17-0.01,0.18,0.12C64,44.5,63.73,45.21,63.57,46.05
		L63.57,46.05z"/>
	<path class="st1" d="M87.74,55.05c0.01-0.08,0.01-0.16,0-0.23c0-0.11,0.01-0.22-0.02-0.32c0-0.17-0.03-0.34-0.09-0.51
		c-0.01-0.07-0.03-0.13-0.06-0.19c-0.07-0.07-0.15-0.02-0.23-0.03c-0.02-0.01-0.03-0.01-0.05-0.01c-0.4,0.02-0.79,0.05-1.19,0.07
		c-0.33,0.01-0.66,0.03-0.99,0.05c-0.47,0.02-0.93,0.03-1.4,0.02c-0.15-0.01-0.15-0.01-0.19-0.14c0.01-0.04,0-0.08-0.01-0.11
		c0.01-0.28-0.02-0.55-0.03-0.83c0-0.18,0.01-0.37-0.02-0.55c0.01-0.02,0.01-0.04,0-0.05c0.01-0.07,0.01-0.14,0-0.2
		c0-0.38,0-0.76,0-1.15c0-0.31,0-0.62,0-0.93c0.02-0.26,0.03-0.52,0.03-0.79c0.02-0.49,0.05-0.98,0.07-1.47c0-0.03,0-0.07,0-0.1
		c0.01-0.01,0.01-0.03,0.01-0.04c0.02-0.08,0.01-0.16,0.01-0.23c0.01-0.22,0.04-0.44,0.03-0.67c0.01-0.01,0.01-0.01,0-0.02
		c0.04-0.14,0.02-0.28,0.02-0.42c0.01-0.04,0.01-0.07,0-0.11c0.02-0.03,0.02-0.06,0.02-0.1c0.02-0.44,0.05-0.88,0.04-1.32
		c0-0.08-0.01-0.16-0.01-0.25c0-0.06-0.04-0.07-0.09-0.07c-0.06-0.02-0.12-0.03-0.18-0.03c-0.21-0.04-0.41-0.04-0.62-0.04
		c-0.54-0.01-1.08,0.01-1.62,0.02c-0.16,0-0.32-0.01-0.48,0.02c-0.01,0-0.02,0-0.03,0c-0.05,0.07-0.03,0.14,0,0.2
		c0,0.02,0,0.05,0.02,0.07c0,0.02,0,0.03,0.01,0.05c0.01,0.08,0.02,0.15,0.03,0.23c0,0.21,0.04,0.43,0.03,0.64
		c0,0.07-0.02,0.14,0.02,0.21c0.01,0.11-0.01,0.22,0.03,0.32c0,0.07,0,0.14,0,0.21v0v0c-0.01,0.17,0.03,0.33,0.03,0.49
		c0,0.07-0.01,0.15,0,0.22c0.01,0.08-0.02,0.17,0.03,0.25c0,0.1,0,0.19,0.01,0.29c0,0.07-0.01,0.14,0.02,0.2c0,0.09,0,0.18,0,0.26
		c0,0.06,0,0.12,0,0.18c0,0.01,0,0.02,0,0.03c0,0.15-0.02,0.29,0.02,0.44c0,0.07,0,0.14,0,0.21c0,0.03,0,0.06,0,0.09
		c0,0.02,0,0.04,0,0.06c0,0.11,0,0.21,0,0.32c0,0.1,0,0.2,0,0.29c0,0.18,0,0.35,0,0.53c0,0.21,0,0.43,0,0.64c0,0.03,0,0.06,0,0.09
		c0,0.02,0,0.04,0,0.06c0,0.08,0,0.16,0,0.23c0,0.01,0,0.02,0,0.02v0c0,0,0,0,0,0c-0.05,0.11-0.02,0.22-0.03,0.33
		c0,0.01,0,0.02,0,0.03c0,0.15-0.04,0.29-0.03,0.44c0,0.07,0,0.13,0,0.2c-0.03,0.04-0.02,0.08-0.02,0.12c0,0.11-0.01,0.23-0.01,0.34
		c-0.04,0.08-0.01,0.16-0.02,0.24c0,0.02,0,0.04,0,0.06c-0.01,0.07,0.01,0.14-0.03,0.2c0,0.13,0,0.25,0,0.38
		c-0.03,0.03-0.03,0.06-0.02,0.09c0,0.1,0,0.19,0,0.29c0,0.07,0,0.13,0,0.2c-0.06,0.09-0.02,0.2-0.03,0.29c0,0.02,0,0.04,0,0.06
		c0,0.06,0,0.12,0,0.18v0.06l0,0c-0.01,0.01-0.02,0.02-0.03,0.03c0,0.01,0,0.02,0,0.03c0,0.11,0,0.21,0,0.32c0,0.01,0,0.02,0,0.03
		c0,0.07,0,0.14,0,0.2c0,0.05,0,0.1,0,0.15v0.03c-0.06,0.29,0,0.59,0.01,0.88c0,0.06,0.02,0.13,0.11,0.11c0.05,0,0.1,0,0.15,0
		c0.2,0.05,0.4,0.03,0.59,0.02c0.09,0,0.19,0.03,0.28-0.02c0.09,0,0.18,0,0.27-0.01c0.1-0.01,0.21,0.02,0.31-0.02
		c0.07,0,0.14-0.01,0.2-0.01l0.01,0l0.01,0c0.01,0,0.02,0,0.03,0c0.02,0,0.04,0,0.06,0c0.1,0.01,0.2,0.01,0.29-0.03
		c0.05,0,0.1,0,0.15,0c0.12-0.01,0.24,0.01,0.35-0.02c0.11,0,0.21,0,0.32-0.01c0.02,0,0.04,0,0.06,0c0.19,0,0.39,0,0.58,0
		c0.09,0,0.18,0.01,0.27-0.02c0.28,0.02,0.56,0.03,0.85,0.02c0.03,0,0.06,0,0.09,0c0.02,0,0.04,0,0.06,0v0c0.03,0,0.06,0,0.08,0
		c0.02,0,0.04,0,0.06,0c0.15-0.01,0.29,0.02,0.44,0.03c0.02,0,0.04,0,0.06,0v0c0.05,0,0.1,0,0.15,0c0.01,0,0.02,0,0.03,0
		c0.14,0.05,0.29,0.03,0.44,0.03v0c0.01,0.02,0.04,0.03,0.06,0.02v0c0,0,0,0,0,0c0.06,0,0.12,0,0.17,0c0.04,0,0.08,0,0.12,0
		c0.08,0.06,0.18,0.03,0.27,0.03c0.02,0,0.05,0,0.05-0.03c0-0.08,0.02-0.17,0.01-0.25c0.04-0.16,0.04-0.33,0.03-0.49c0,0,0,0,0,0
		c0.04-0.18,0.03-0.35,0.02-0.53C87.75,55.11,87.75,55.08,87.74,55.05L87.74,55.05z"/>
	<path d="M86.74,55.19c-0.18,0-3.92-0.07-4.15-0.05c-0.23,0.01-0.21,0.02-0.27-0.02c-0.06-0.04-0.05-0.12-0.06-0.26
		c-0.02-0.35-0.02-1.02-0.01-1.48c0.01-0.65-0.02-5.06,0-5.72c0.03-0.66-0.07-2.22-0.03-2.35c0,0,0.01-0.14,0.1-0.14
		c0.09,0,0.12,0.03,0.15,0.31c0.03,0.28,0.01,5.59,0.01,5.59s-0.02,3.49-0.01,3.53c0.01,0.04-0.04,0.33,0.03,0.35
		c0.07,0.03,0.07,0.03,0.45,0.03s3.75,0.01,3.83,0.02c0.08,0.01,0.14,0.03,0.14,0.11C86.91,55.19,86.91,55.19,86.74,55.19
		L86.74,55.19z"/>
	<path class="st1" d="M96.05,49.88v-0.07c0-0.11-0.01-0.22-0.02-0.33c-0.02-0.28-0.05-0.57-0.14-0.84c-0.01-0.1-0.04-0.19-0.07-0.28
		c0-0.01,0-0.02-0.01-0.04c-0.01-0.03-0.01-0.06-0.02-0.08c-0.24-0.73-0.61-1.38-1.13-1.96c-0.85-0.95-1.88-1.62-3.09-2
		c-0.38-0.12-0.77-0.2-1.17-0.23c-0.02-0.02-0.05-0.02-0.08-0.02c-0.31-0.02-0.63,0-0.94,0.01c-0.3,0.02-0.61,0.04-0.91,0.04
		c-0.12,0-0.13,0.02-0.13,0.14c0,0.02,0.01,0.05,0.02,0.07c-0.01,0.04,0.01,0.08,0.03,0.12c0,0.02,0,0.04,0,0.06
		c0,0.02,0,0.04,0,0.06c0,0.06-0.02,0.12,0.03,0.18c0,0.01,0,0.02,0,0.03c0,0.04,0,0.08,0,0.12c0,0.05,0,0.1,0,0.15
		c-0.01,0.13,0,0.25,0.03,0.38c0,0.08,0,0.15,0,0.23c0,0.15-0.01,0.29,0.03,0.44c0,0.09,0,0.18,0,0.26c0,0.1,0,0.19,0,0.29
		c0,0.15,0,0.31,0,0.46c0,0.04-0.01,0.09,0.03,0.12c0.01,0.28-0.02,0.57,0.03,0.85c0,0.04,0,0.08,0,0.12c0,0.01,0,0.02,0,0.03
		c0,0.17,0,0.33,0,0.5c0,0.11,0,0.21,0,0.32c0,0.64,0,1.28,0,1.93v0.06c0,0.26,0,0.52,0,0.79c0,0.04,0,0.08,0,0.12
		c-0.03,0.05-0.03,0.1-0.03,0.15c0,0.14,0,0.29,0,0.43v0.06c0,0.13,0,0.25-0.01,0.38c-0.05,0.13-0.01,0.27-0.02,0.41
		c0.01,0.25-0.04,0.51-0.03,0.76c0,0.01,0,0.02,0,0.03c-0.01,0.12,0.03,0.23-0.03,0.35c0,0.3-0.05,0.61-0.03,0.91
		c0,0.04,0,0.08,0,0.12c0,0.1,0,0.19,0,0.29c-0.05,0.11-0.02,0.23-0.02,0.35c0,0.09,0,0.17,0,0.26c0,0.03-0.01,0.07,0.03,0.09
		c0.03,0,0.06,0,0.08,0.01l0.01,0l0.01,0c0.04,0.01,0.08,0.03,0.13,0.03c0.15,0.01,0.3,0.02,0.44,0.03c0.08,0,0.17,0.02,0.25-0.02
		c0.07,0,0.13,0,0.2-0.01l0.01,0l0.01,0c0.06,0,0.12,0.01,0.18-0.02c0.04,0,0.07-0.01,0.11-0.01c0.01,0,0.02,0,0.03,0
		c0.04,0,0.09,0.01,0.12-0.02c0.03,0,0.05-0.01,0.08-0.01c0.07,0.01,0.14-0.02,0.21-0.03c0.04,0.01,0.08-0.01,0.12-0.03l0.01,0
		l0.01,0c0.03,0,0.07,0.01,0.1-0.02c0.01,0,0.02,0,0.02,0l0.01,0l0.01,0c0.04,0.01,0.08-0.03,0.12-0.03
		c0.18-0.03,0.36-0.07,0.53-0.14c0.01,0,0.02,0,0.03-0.01c0.03,0,0.06-0.01,0.09-0.03c0.06,0,0.1-0.03,0.15-0.05
		c0.12-0.02,0.22-0.07,0.33-0.11c0-0.01-0.01-0.01-0.02-0.01c0,0,0,0,0,0c0.01,0,0.01,0.01,0.02,0.01c0.06,0,0.12-0.03,0.17-0.07
		c0.01,0,0.02,0,0.03,0c0.02,0,0.03,0,0.04-0.02c0.03,0,0.06,0,0.08-0.03c0.11-0.03,0.2-0.09,0.3-0.14c0.02,0,0.04-0.01,0.05-0.03
		c0.13-0.04,0.24-0.11,0.35-0.18c0.05-0.03,0.1-0.06,0.15-0.09c0.01,0,0.02,0,0.02-0.01c0.06-0.04,0.12-0.06,0.17-0.12
		c0.05-0.04,0.1-0.07,0.15-0.11c0.02,0,0.04-0.02,0.06-0.04c0.12-0.08,0.24-0.16,0.35-0.27c0.02,0,0.03-0.01,0.03-0.02
		c0.03-0.01,0.04-0.03,0.06-0.05c0.07-0.04,0.13-0.09,0.18-0.15c0.01,0,0.03-0.01,0.03-0.03c0.02,0,0.03-0.01,0.03-0.03
		c0.04-0.02,0.07-0.04,0.1-0.09c0.01,0,0.02-0.01,0.03-0.03c0.04-0.02,0.07-0.05,0.09-0.09c0.01,0,0.02-0.01,0.03-0.03
		c0.02-0.02,0.04-0.04,0.05-0.07l0,0c0.09-0.06,0.15-0.14,0.21-0.23c0.04-0.02,0.06-0.06,0.08-0.09c0.02,0,0.03-0.01,0.03-0.03
		c0.05-0.05,0.1-0.1,0.13-0.17c0.08-0.09,0.15-0.19,0.2-0.29c0.03-0.02,0.05-0.05,0.05-0.09c0.07-0.08,0.11-0.17,0.16-0.26
		c0.02-0.01,0.02-0.02,0.02-0.03c0.04-0.05,0.07-0.11,0.09-0.17h0c0.09-0.14,0.15-0.29,0.2-0.44c0.08-0.18,0.15-0.36,0.2-0.56
		c0.01-0.01,0.01-0.02,0.01-0.02c0.04-0.09,0.07-0.19,0.08-0.3c0.01-0.01,0.01-0.01,0-0.02c0.06-0.16,0.09-0.33,0.11-0.5
		c0.02-0.07,0.04-0.15,0.03-0.23c0.03-0.07,0.03-0.14,0.03-0.21c0.03-0.05,0.02-0.1,0.02-0.15c0-0.01,0-0.02,0-0.03
		c0.01-0.03,0.01-0.06,0-0.09c0.04-0.1,0.02-0.19,0.03-0.29C96.04,50.04,96.05,49.96,96.05,49.88L96.05,49.88z"/>
	<path d="M94.64,51.65c-0.18,0.99-0.72,1.79-1.48,2.4c-0.75,0.6-2.23,0.87-2.78,0.93c-0.54,0.05-0.54-0.01-0.6-0.05
		c-0.05-0.04-0.03-0.16-0.03-0.27c0-0.11,0.04-3.07,0.03-3.65c-0.01-0.58,0-5.71-0.01-5.76c-0.01-0.05,0.07-0.09,0.07-0.09
		c0.18-0.03,0.46,0.01,0.82,0.03c0.35,0.01,0.87,0.08,1.75,0.51c0.85,0.41,1.36,0.87,2,2.12C94.9,48.75,94.9,50.25,94.64,51.65
		L94.64,51.65z"/>
	<polygon class="st2" points="20.83,46.16 20.95,50.94 23.38,49.13 23.04,47.96 22.37,46.92 20.83,46.16 	"/>
	<path class="st1" d="M22.76,48.62c-0.04,0.05-0.06,0.11-0.03,0.17c0.01,0.01,0.01,0.01,0.02,0.02c0,0.01,0,0.03,0,0.04
		c-0.01,0-0.01,0.01-0.03,0.01c-0.04,0.05-0.07,0.1-0.03,0.16c0,0-0.01,0-0.01,0c-0.06,0.06-0.08,0.12-0.09,0.2
		c0,0.01,0.01,0.01,0.01,0.02c-0.01,0.02-0.02,0.03-0.03,0.05c-0.02,0.01-0.03,0.03-0.03,0.06c-0.03,0.03-0.04,0.06-0.06,0.1
		c-0.01,0-0.01,0-0.02,0c-0.06,0.04-0.11,0.09-0.1,0.17c0,0,0,0,0,0c-0.05,0.05-0.1,0.1-0.12,0.16c-0.04,0.02-0.06,0.05-0.08,0.09
		c-0.01,0.01-0.02,0.02-0.03,0.02c-0.01,0-0.01,0-0.02-0.01c-0.07,0.03-0.15,0.06-0.12,0.16c0,0-0.01,0-0.01,0c0,0,0,0,0,0
		c-0.03,0.01-0.05,0.03-0.06,0.06c-0.03,0.02-0.06,0.03-0.08,0.06c-0.02,0.01-0.03,0.03-0.04,0.05c-0.13,0.08-0.25,0.17-0.37,0.27
		c-0.02,0.01-0.04,0.02-0.06,0.03c-0.16,0.09-0.17,0.09-0.22-0.05c0.01-0.01,0.01-0.02,0.02-0.03c0.04-0.19-0.02-0.38-0.02-0.57
		c0-0.8,0-1.6,0.03-2.39c0-0.08,0.02-0.17-0.04-0.24c0,0,0-0.01,0-0.01c0.09-0.02,0.07-0.09,0.07-0.15c0.01-0.19,0-0.38,0-0.58
		c0-0.02,0-0.03,0-0.05c0.07,0.01,0.12,0.06,0.19,0.08c0.13,0.09,0.25,0.18,0.38,0.27l0,0c0.01,0.03,0.03,0.04,0.06,0.06
		c0.1,0.09,0.19,0.18,0.29,0.26c0,0,0,0,0,0c0.01,0.05,0.05,0.09,0.09,0.12c0.01,0.03,0.03,0.04,0.06,0.06v0
		c0,0.01,0,0.02,0.01,0.03c0.01,0.01,0.02,0.02,0.03,0.03v0c0.14,0.17,0.24,0.37,0.35,0.56v0c0.04,0.09,0.04,0.2,0.09,0.29
		c0.02,0.13,0.03,0.26,0.03,0.39C22.77,48.61,22.77,48.62,22.76,48.62L22.76,48.62z M21.13,50.49L21.13,50.49L21.13,50.49
		C21.13,50.49,21.13,50.49,21.13,50.49C21.13,50.49,21.13,50.49,21.13,50.49C21.13,50.49,21.13,50.49,21.13,50.49L21.13,50.49z
		 M23.93,49.75c0.32-0.63,0.2-1.49,0.12-1.86c-0.08-0.37-0.31-1.01-0.68-1.4c-0.36-0.38-1-0.84-1.42-1.02
		c-0.34-0.15-1.51-0.21-1.59-0.22c-0.08-0.01-0.1,0.01-0.11,0.08c-0.01,0.05-0.01,1.43-0.03,1.91c-0.01,0.49-0.09,4.63-0.08,4.71
		c0.01,0.07,0.09,0.07,0.27,0.07c0.18,0,0.41-0.08,0.72-0.16c0.32-0.08,0.89-0.31,1.23-0.51C22.96,51,23.53,50.54,23.93,49.75
		L23.93,49.75z"/>
	<polygon class="st2" points="27.46,51.82 30.12,51.84 29.08,46.63 28.55,46.65 27.46,51.82 	"/>
	<path class="st1" d="M29.64,51.4c-0.03,0.02-0.06,0.04-0.09,0.06c-0.03,0-0.05,0.01-0.08,0.01c-0.3,0.02-0.59,0.01-0.89,0.01
		c-0.14,0-0.28-0.01-0.42-0.01c-0.05-0.01-0.11-0.02-0.16-0.02c-0.05,0-0.08-0.04-0.08-0.09c0-0.09-0.02-0.18,0.03-0.26
		c0.01-0.02,0.02-0.04,0.02-0.07c0.12-0.74,0.28-1.48,0.45-2.21c0.11-0.48,0.22-0.96,0.41-1.43c0-0.01,0.01-0.03,0.01-0.05v0
		c0,0,0.01-0.01,0.01-0.01c0.01,0,0.02,0,0.03,0.01l0,0c0,0,0,0,0,0c0,0.04,0,0.08,0.03,0.11c0.01,0.05,0.02,0.1,0.04,0.14
		c0,0.02,0,0.05,0.02,0.06c0.01,0.08,0.03,0.16,0.06,0.23c0,0.03-0.01,0.07,0.02,0.09v0c0.02,0.14,0.04,0.27,0.09,0.41
		c0.01,0.11,0.03,0.22,0.06,0.32c0.01,0.09,0.02,0.18,0.06,0.26v0c0,0.04-0.01,0.09,0.03,0.12c0,0.01,0,0.02,0,0.02
		c0.01,0.06,0.02,0.12,0.03,0.18c0.04,0.14,0.04,0.29,0.09,0.43v0c0,0.04-0.01,0.09,0.03,0.12c0,0.06,0.02,0.11,0.03,0.17
		c0,0.02,0,0.04,0.01,0.06c0,0.01,0,0.02,0,0.03c0.01,0.01,0.01,0.02,0.02,0.03h0c0.01,0.06-0.02,0.12,0.03,0.18
		c0,0.01,0,0.02,0,0.03c0,0.12,0.02,0.24,0.06,0.35c0.02,0.17,0.04,0.33,0.06,0.5C29.65,51.26,29.65,51.33,29.64,51.4L29.64,51.4z
		 M30.2,48.64c-0.21-1.19-0.66-3.09-0.68-3.16c-0.02-0.07-0.22-0.06-0.63-0.07c-0.41-0.01-0.5,0.03-0.58,0.04
		c-0.06,0.01-0.12-0.03-0.18,0.15c-0.06,0.18-0.35,1.5-0.43,1.9c-0.08,0.4-0.89,4.15-0.97,4.45c-0.08,0.29-0.03,0.33,0.06,0.37
		c0.09,0.03,0.94,0.01,1.61,0.02c0.67,0.01,2.17,0,2.29-0.02c0.12-0.02,0.1-0.05,0.08-0.13C30.76,52.1,30.42,49.83,30.2,48.64
		L30.2,48.64z"/>
	<polygon class="st2" points="68.31,54.28 69.05,54.81 70.32,54.71 70.94,53.28 71.07,48.44 70.28,46.12 69.03,46.14 68.16,46.59 
		67.72,50.58 68.31,54.28 	"/>
	<path class="st1" d="M70.56,50.25c-0.02-0.36-0.03-0.72-0.02-1.07c0-0.15,0-0.29-0.01-0.44c-0.02-0.02-0.03-0.04,0-0.06
		c-0.01-0.03-0.03-0.05-0.03-0.09c0-0.04,0-0.08,0-0.11c0-0.01,0-0.02,0-0.03c0.01-0.09-0.03-0.18-0.03-0.27
		c0-0.06,0.02-0.1,0.06-0.14c-0.05,0-0.08-0.02-0.09-0.07c-0.02-0.13-0.05-0.27-0.08-0.4c-0.05-0.16-0.1-0.32-0.18-0.47
		c-0.02-0.01-0.03-0.03-0.03-0.06c-0.02-0.01-0.03-0.04-0.03-0.06c-0.03-0.04-0.06-0.08-0.09-0.12c-0.08-0.07-0.16-0.14-0.24-0.2
		c-0.01,0-0.02,0-0.03-0.01c-0.01-0.01-0.02-0.01-0.03-0.02c0,0,0,0,0,0c-0.01,0.01-0.01,0.01-0.02,0.02
		c-0.09-0.01-0.19-0.02-0.25-0.1c-0.08,0.06-0.17,0.04-0.26,0.02c0,0-0.01-0.01-0.01-0.01c-0.2,0.05-0.39,0.11-0.54,0.26
		c-0.02,0.02-0.04,0.04-0.06,0.06c-0.02,0.05-0.05,0.08-0.09,0.12c0,0.02-0.01,0.03-0.03,0.03c0,0-0.01-0.01-0.01-0.01c0,0,0,0,0,0
		c0,0,0.01,0,0.01,0.01c0,0.02-0.01,0.04-0.03,0.06c-0.02,0.06-0.05,0.12-0.09,0.18c0,0.03-0.01,0.06-0.03,0.09
		c-0.03,0.09-0.06,0.18-0.08,0.27c-0.03,0.21-0.07,0.42-0.1,0.63c0.01,0.03,0.02,0.06,0.03,0.11c-0.02,0.41-0.03,0.82-0.07,1.23
		c-0.03,0.09-0.02,0.18-0.03,0.26c0,0.06,0,0.13,0,0.19c0.01,0.07,0.01,0.13-0.01,0.19c0,0.11-0.01,0.23-0.02,0.34
		c0.01,0.34,0.01,0.67,0.03,1.01c0.04,0.59,0.11,1.17,0.29,1.74c0.08,0.26,0.19,0.51,0.37,0.72c0.18,0.21,0.41,0.28,0.68,0.24
		c0.04-0.01,0.08-0.02,0.11-0.02c0.03-0.03,0.08-0.04,0.12-0.06c0,0,0,0,0,0c0.05-0.04,0.1-0.08,0.15-0.11
		c0.03-0.03,0.06-0.06,0.09-0.09c0.05-0.08,0.1-0.15,0.16-0.23c0.03-0.07,0.06-0.14,0.1-0.21c0.06-0.18,0.12-0.37,0.18-0.55
		c-0.01-0.04,0.01-0.08,0.03-0.12c-0.01-0.06,0.01-0.12,0.03-0.17c0-0.03-0.01-0.07,0.03-0.09l0,0c0-0.01,0-0.02,0-0.03
		c0-0.02,0-0.04,0.01-0.06c0.02-0.1,0.01-0.2,0.05-0.29c0.01-0.09-0.02-0.18,0.03-0.27c0-0.05,0-0.09,0-0.14c0-0.05,0-0.1,0.01-0.15
		c0-0.02,0-0.04,0-0.05h0c0.03-0.06,0.02-0.12,0.03-0.18c0-0.02,0-0.04-0.01-0.06c0-0.13,0-0.25,0.01-0.38c0-0.01,0-0.02,0-0.03
		C70.55,50.73,70.58,50.49,70.56,50.25L70.56,50.25z M72.19,49c0.05,0.48,0.05,0.95,0.03,1.49c-0.02,0.54-0.12,1.56-0.28,2.17
		c-0.16,0.61-0.42,1.36-0.87,1.9c-0.49,0.6-0.88,0.74-1.44,0.84c-0.43,0.08-1.04-0.03-1.54-0.44c-0.5-0.41-1.06-1.54-1.24-2.36
		c-0.18-0.82-0.36-2.33-0.26-3.22c0.1-0.89,0.27-1.79,0.53-2.3c0.26-0.52,0.48-0.92,0.68-1.11c0.22-0.2,0.7-0.72,1.31-0.83
		c0.31-0.06,0.86-0.01,1.11,0.11c0.25,0.12,0.72,0.39,0.94,0.7c0.22,0.3,0.4,0.49,0.6,1.11C71.95,47.68,72.14,48.52,72.19,49
		L72.19,49z"/>
	<path class="st2" d="M76.4,51.28c0,0,0.57-1.45,1.07-0.81c0.5,0.64,1.18-0.93,1.18-0.93l0.13-1.36l-0.64-1.32l-1.06-0.64
		l-1.11-0.13v5.02L76.4,51.28L76.4,51.28z"/>
	<path class="st1" d="M78.08,48.6c0,0.01,0,0.02,0,0.03c-0.01,0.09-0.02,0.17-0.04,0.26c-0.03,0.09-0.05,0.18-0.08,0.27h0
		c-0.02,0.03-0.03,0.05-0.03,0.09c-0.05,0.07-0.08,0.16-0.11,0.24l0,0c-0.02,0.01-0.03,0.03-0.03,0.06
		c-0.01,0.01-0.02,0.02-0.02,0.03c-0.01,0.01-0.01,0.02-0.01,0.03c-0.02,0-0.02,0.02-0.02,0.03c-0.02,0.01-0.03,0.03-0.03,0.05
		c-0.03,0.04-0.06,0.08-0.09,0.12c-0.05,0.04-0.1,0.1-0.14,0.15c-0.03,0.01-0.05,0.03-0.06,0.06c-0.07,0.05-0.15,0.11-0.21,0.18
		c-0.05,0.02-0.09,0.04-0.12,0.09c-0.13,0.07-0.26,0.15-0.4,0.22c-0.02,0.01-0.03,0.01-0.05,0.02c-0.01,0.01-0.02,0.01-0.04,0.01
		c-0.08,0.03-0.12,0-0.11-0.1c0.01-0.23-0.01-0.45,0.01-0.68c0-0.58,0-1.15,0-1.73c0-0.21,0.01-0.42-0.01-0.62
		c-0.02-0.07-0.02-0.13-0.02-0.2c0-0.19,0-0.38,0-0.57c0-0.03,0-0.05,0-0.08c0.04,0,0.07-0.01,0.11-0.01
		c0.15,0.05,0.3,0.13,0.44,0.2c0.13,0.1,0.25,0.2,0.38,0.29c0.04,0.06,0.09,0.11,0.15,0.14c0.02,0.04,0.05,0.07,0.09,0.09
		c0.01,0.03,0.03,0.05,0.05,0.06c0.02,0.07,0.08,0.12,0.12,0.17c0.06,0.11,0.12,0.21,0.18,0.32c0.02,0.11,0.08,0.21,0.09,0.32
		c0,0.03-0.01,0.07,0.02,0.09c0,0.03,0,0.06,0.01,0.08c0.02,0.08,0.03,0.17,0,0.25C78.07,48.57,78.08,48.58,78.08,48.6L78.08,48.6z
		 M77.21,45.38c-0.98-0.26-1.51-0.17-1.59-0.18c-0.08-0.01-0.12,0.04-0.13,0.11c0,0.05,0.01,1.45-0.01,1.94
		c-0.01,0.49-0.09,4.63-0.08,4.71C75.4,52.03,75.49,52,75.67,52c0.18,0,0.4-0.04,0.72-0.12c0.32-0.08,0.9-0.32,1.23-0.52
		c0.59-0.36,1.25-1.04,1.46-1.62c0.23-0.63,0.34-1.18,0.22-1.85c-0.07-0.37-0.33-0.94-0.62-1.39C78.37,46.05,77.64,45.5,77.21,45.38
		L77.21,45.38z"/>
	<polygon class="st2" points="90.9,53.88 92.81,53.2 93.74,51.5 93.83,48.82 92.94,47.2 91.75,46.57 90.68,46.48 90.9,53.88 	"/>
	<path class="st1" d="M93.29,50.23c-0.05,0.09,0,0.2-0.05,0.3c0,0.01,0,0.02,0,0.03c0,0.02,0,0.04,0,0.06c0,0.02,0,0.04,0,0.06
		c0,0.01,0,0.02-0.01,0.03c-0.02,0.01-0.03,0.04-0.02,0.06c0,0.01,0,0.02,0,0.03c0,0.01,0,0.02,0,0.03
		c-0.02,0.04-0.03,0.07-0.03,0.12c-0.01,0.02-0.01,0.04-0.02,0.06c-0.02,0.09-0.04,0.18-0.06,0.26c0,0.01-0.01,0.01-0.01,0.02
		c-0.07,0.18-0.15,0.36-0.22,0.53c-0.01,0.03-0.03,0.05-0.04,0.08c-0.02,0.03-0.04,0.06-0.05,0.09c-0.01,0.01-0.02,0.02-0.02,0.03
		c0,0.01-0.01,0.01-0.01,0.02c-0.01,0.01-0.01,0.03-0.03,0.04c-0.06,0.09-0.12,0.17-0.18,0.26c-0.02,0.02-0.04,0.04-0.05,0.06l0,0
		c-0.04,0.02-0.06,0.05-0.07,0.08c-0.04,0.03-0.08,0.07-0.11,0.12c-0.07,0.05-0.14,0.11-0.2,0.18c-0.05,0.04-0.11,0.06-0.15,0.12
		c-0.07,0.04-0.21,0.15-0.21,0.14c-0.07,0.03-0.15,0.06-0.21,0.12c-0.01,0-0.02,0-0.02,0.01c-0.02,0-0.03,0-0.03,0.02
		c-0.06,0.01-0.11,0.03-0.16,0.06c-0.06,0.02-0.11,0.04-0.15-0.04c-0.01-0.02-0.02-0.05-0.04-0.07c-0.01-0.02-0.02-0.03-0.03-0.05
		c-0.02-0.1-0.03-0.21-0.05-0.31c0-0.3-0.03-0.61-0.03-0.91c0-0.03,0-0.06,0-0.09c0.02-0.18,0-0.37,0.01-0.55
		c0.01-0.06,0.01-0.11-0.01-0.15c0-0.15,0.01-0.29,0.01-0.44c0.01-0.35,0.03-0.71,0.02-1.06c0-0.01,0.01-0.02,0.01-0.03
		c0.01-0.36,0.02-0.73,0.01-1.09c0-0.07,0.01-0.15,0.01-0.22c0.02-0.35,0-0.71,0.06-1.06c0.02-0.01,0.03-0.04,0.03-0.06l0,0l0.01,0
		l0.01-0.01c0.08,0,0.15,0,0.23,0c0.06,0.01,0.12,0.02,0.18,0.04c0.04,0.02,0.08,0.03,0.12,0.03c0.03,0.04,0.07,0.05,0.12,0.06
		c0.1,0.06,0.19,0.13,0.29,0.18c0.04,0.05,0.09,0.1,0.15,0.14c0.09,0.1,0.18,0.19,0.27,0.29c0.01,0.03,0.03,0.05,0.05,0.06
		c0.03,0.04,0.06,0.08,0.09,0.12c0.06,0.11,0.12,0.21,0.18,0.32c0.01,0.03,0.03,0.05,0.05,0.06c0.04,0.12,0.09,0.24,0.15,0.35
		c0.06,0.2,0.14,0.4,0.18,0.61c0.04,0.11,0.02,0.24,0.06,0.35c0,0.01,0,0.02,0,0.03C93.29,49.9,93.29,50.06,93.29,50.23L93.29,50.23
		z M91.99,45.72c-0.71-0.3-1.5-0.3-1.76-0.33c-0.25-0.03-0.21,0.01-0.22,0.05c0,0-0.01,2.9,0,3.39c0.01,0.49,0.01,2.93-0.01,3.6
		c-0.02,0.67,0.01,2.28,0.01,2.32c0,0.04,0.15,0.03,0.41,0.02c0.25-0.01,1.3-0.25,1.8-0.43c0.5-0.17,1.11-0.7,1.48-1.12
		c0.38-0.42,0.6-1,0.75-1.7c0.15-0.7,0.22-1.79,0.12-2.43c-0.09-0.64-0.5-1.66-0.8-2.01C93.38,46.67,93.06,46.16,91.99,45.72
		L91.99,45.72z"/>
</g>
</svg>
