<?xml version="1.0" encoding="utf-8"?>
<!-- Generator: Adobe Illustrator 23.0.1, SVG Export Plug-In . SVG Version: 6.00 Build 0)  -->
<svg version="1.1" id="Layer_1" xmlns="http://www.w3.org/2000/svg" xmlns:xlink="http://www.w3.org/1999/xlink" x="0px" y="0px"
	 viewBox="0 0 100 60.82" style="enable-background:new 0 0 100 60.82;" xml:space="preserve">
<style type="text/css">
	.st0{fill:#FFFFFF;}
</style>
<g>
	<path class="st0" d="M18.8,25.36c-1.21,1.95-2.48,3.82-3.76,5.77c-1.88,2.95-3.82,6.31-7.65,6.78c-4.76,0.54-7.65-4.43-7.38-8.59
		c0.34-4.16,2.08-8.25,3.42-12.21C4.78,13.15,5.85,8.86,8,5.23c1.21-1.95,4.43-1.21,4.43,1.21c-0.07,4.5-1.68,9.06-2.75,13.42
		C9.14,22.01,8.61,24.09,8,26.17c-0.27,1.01-0.67,2.15-0.81,3.22c0-0.07,0,0.67,0,0.87c0-0.2,0.13,0.4,0.2,0.54
		c0.07,0.27,0.34,0.67,0.4,0.81c0,0,0,0.07,0.07,0.13c0,0,0.07,0.07,0.13,0.07c0.07-0.07,0.2-0.2,0.2-0.2
		c1.21-1.01,2.01-2.28,2.95-3.62c1.27-1.68,2.48-3.49,3.76-5.17c1.34-1.81,2.55-4.03,4.29-5.43c1.21-0.94,3.29-0.2,3.09,1.41
		c0.13,0.2,0.2,0.4,0.27,0.67c0.74,3.09,1.54,8.32,4.97,9.66c1.41,0.47,2.68,0.47,3.96-0.07c0.87-0.4,1.54-1.21,1.95-2.15
		c0.6-1.61,0.74-3.35,1.07-4.9c0.27-1.61,0.13-3.35-0.13-4.97c-0.34-1.95-0.6-3.96-1.34-5.84c-0.34-0.94-0.81-1.74-1.07-2.75
		c-0.2-0.81-0.74-1.48-0.54-2.35c0.07-0.27,0.4-0.54,0.67-0.54c1.01,0.07,1.54,0.94,2.28,1.48c0.87,0.67,1.27,1.61,1.81,2.55
		c1.14,1.95,2.28,3.76,2.89,5.9c0.54,1.88,0.67,3.76,1.01,5.64c0.27,1.95,0.47,3.76-0.07,5.7c-0.87,3.35-3.15,7.05-6.78,7.85
		c-3.96,0.94-7.11-1.54-9.53-4.36c-1.81-2.08-2.75-4.63-3.42-7.25C19.74,23.82,19.27,24.56,18.8,25.36z"/>
	<path class="st0" d="M59.53,58.71c-3.29,2.35-7.78,2.75-11.47,1.14c-3.89-1.68-6.37-5.37-6.78-9.59
		c-0.34-4.16,1.95-7.78,4.76-10.67c2.95-3.09,6.37-5.84,9.73-8.52c1.74-1.41,3.56-2.75,5.37-4.09c0-0.54,0-1.07,0.07-1.61
		c-1.21,1.81-2.82,3.35-4.76,4.29c-5.5,2.75-11.67,0.07-13.75-5.57c-1.81-4.83-0.94-11,1.81-15.3c1.54-2.42,3.62-4.09,6.31-4.9
		c2.15-0.74,5.1-0.67,7.18,0.13c1.81,0.74,3.29,2.15,4.16,3.89c0.27-2.08,0.6-4.03,1.07-6.04c0.47-1.81,3.42-1.95,3.82,0
		c1.07,5.5,0.87,11,0.81,16.57c-0.07,1.27-0.07,2.62-0.07,3.89c1.41-0.94,2.82-1.88,4.29-2.75c1.88-1.14,3.69-2.42,5.9-2.48
		c0.94,0,1.54,1.07,1.07,1.88c-1.21,1.95-3.29,2.95-5.17,4.16c-1.88,1.21-3.69,2.42-5.5,3.69c-0.27,0.13-0.54,0.34-0.74,0.54
		c-0.07,2.42-0.13,4.9-0.2,7.31c-0.13,4.7-0.07,9.46-1.14,14.02C65.37,52.81,63.02,56.29,59.53,58.71z M58.79,50.86
		c1.34-2.89,1.81-6.64,1.95-10.06c0.07-2.82,0.13-5.64,0.27-8.45c-1.07,0.81-2.08,1.68-3.09,2.48c-2.95,2.48-5.9,5.03-8.59,7.78
		c-2.15,2.28-4.03,5.1-3.22,8.32c0.74,2.95,3.42,5.1,6.51,4.97C55.64,55.76,57.65,53.41,58.79,50.86z M60.6,16.1
		c0.34-0.54,0.67-1.01,1.07-1.34c0-0.13,0-0.27,0-0.4c-0.67,0.4-1.41,0.13-1.48-0.67c-0.07-0.87,0.13-1.74-0.07-2.62
		C60,10.27,59.6,9.53,59.06,8.86c-1.01-1.27-2.68-2.08-4.36-1.81c-1.61,0.2-2.89,1.48-3.82,2.62C49.67,11,49,12.48,48.66,14.23
		c-0.34,1.68-0.4,3.29-0.27,5.1c0,0.07,0,0.07,0,0.13c0,0,0,0,0,0.07c0.07,0.2,0.07,0.47,0.13,0.67c0.13,0.47,0.2,0.87,0.34,1.27
		c0.13,0.47,0,0,0.2,0.47c0.2,0.4,0.4,0.74,0.6,1.07c0.47,0.67,1.34,1.14,2.48,1.07c0.13,0,0.47-0.07,0.54-0.07
		c0.13,0,0.27-0.07,0.34-0.07c0.47-0.07,0.87-0.2,1.27-0.34c0.74-0.2,1.14-0.47,1.88-1.01c1.41-0.94,2.48-2.28,3.22-3.82
		C59.8,17.92,60.2,16.98,60.6,16.1z"/>
	<path class="st0" d="M99.92,6.84c0.34,1.81-0.4,4.29-2.55,4.63c-1.27,0.2-2.55-0.13-3.22-1.27c-0.34-0.67-0.47-1.27-0.47-2.01
		c0.07-0.2,0.07-0.4,0.07-0.6c0-0.07,0-0.07,0-0.13c-0.13-0.13-0.47-0.6-0.47-0.67c-0.07-0.07-0.07-0.07-0.07-0.13
		c-0.07,0-0.13-0.07-0.27-0.13c-0.2,0-0.47,0.07-0.67,0.13c-0.47,0.2-0.94,0.47-1.34,0.81c-0.74,0.6-1.34,1.41-2.01,2.15
		c-1.41,1.68-2.68,3.22-3.89,5.1c-0.74,1.27-1.48,2.55-2.28,3.82c0.07,1.68,0.13,3.42,0.2,5.1c0.07,1.34,0.13,2.68,0.13,4.03
		c0,1.54,0.2,2.95-0.6,4.43c-1.01,1.88-3.82,1.74-4.83,0c-0.87-1.41-0.67-2.89-0.74-4.43c-0.07-1.34-0.07-2.68-0.07-4.03
		c-0.07-2.48-0.07-4.97-0.13-7.45c0-2.55,0.07-5.03,0.2-7.51c0.07-1.34,0.2-2.68,0.27-4.03c0.07-1.34,0.2-2.55,0.74-3.82
		c0.47-1.14,2.35-1.01,2.89,0c0.6,1.27,0.67,2.48,0.87,3.82c0.13,1.34,0.34,2.68,0.47,4.03c0.2,2.01,0.4,4.09,0.47,6.11
		c0.54-1.01,1.14-2.01,1.81-3.09c1.48-2.48,2.68-5.3,5.03-7.18c0.54-0.47,1.14-0.87,1.81-1.14c0.34-0.13,0.67-0.27,1.01-0.34
		c0.34-0.13,0.81-0.2,0.27,0.07c0.81-0.4,1.27-0.67,2.28-0.67c0.67-0.07,1.34-0.07,2.01,0.13C98.58,3.15,99.65,5.03,99.92,6.84z"/>
</g>
<g>
	<line class="st0" x1="32.86" y1="6.97" x2="45.92" y2="11.5"/>
	<path class="st0" d="M45.92,12.64c-0.12,0-0.25-0.02-0.37-0.06L32.49,8.04c-0.59-0.21-0.9-0.85-0.7-1.44
		c0.21-0.59,0.85-0.9,1.44-0.7l13.06,4.53c0.59,0.21,0.9,0.85,0.7,1.44C46.82,12.34,46.38,12.64,45.92,12.64z"/>
</g>
</svg>
