<?xml version="1.0" encoding="utf-8"?>
<!-- Generator: Adobe Illustrator 23.0.1, SVG Export Plug-In . SVG Version: 6.00 Build 0)  -->
<svg version="1.1" id="layer" xmlns="http://www.w3.org/2000/svg" xmlns:xlink="http://www.w3.org/1999/xlink" x="0px" y="0px"
	 viewBox="0 0 100 22.4" style="enable-background:new 0 0 100 22.4;" xml:space="preserve">
<style type="text/css">
	.st0{fill:#002D73;}
</style>
<path class="st0" d="M36.9,5.1h-4.2l0,0c-0.4,0-0.5,0.2-0.6,0.8c-0.1,0.3-0.2,0.8-0.5,1.4c-1.2,3-2,4.9-2.6,6.5
	c0,0.1-0.1,0.1-0.2,0.1c-0.1,0-0.2-0.1-0.2-0.2c0,0,0,0,0,0c-1.7-5.6-2.1-7.3-2.2-7.8l-0.1-0.3c-0.1-0.2-0.3-0.3-0.5-0.3l0,0h-3.8
	l0,0.1c0,0,1.1,0.5,0.8,1.9c0,0,0,1-0.3,2.2l-0.2,1.1L22,11.7c-0.7,4-1.3,5.7-2.5,6.3c-0.1,0-0.2,0-0.3,0H19L19,18.2h5.6L24.5,18
	h-0.2l-0.3,0c-0.6-0.1-0.9-0.3-1.1-0.9c-0.2-0.6,0-2,0.4-4.1l0.2-1.3l0.3-2.1c0-0.1,0.1-0.2,0.2-0.1c0.1,0,0.2,0.1,0.3,0.2
	c0,0,0,0,0,0c0.4,1.4,0.8,3.2,1.3,4.7c0.5,1.8,0.9,3.3,1,3.9c0.1,0.2,1.7,0.9,3.6-4.1c0.4-1.1,1.1-2.7,1.9-4.7c0-0.1,0.2-0.1,0.3,0
	c0.1,0,0.2,0.1,0.2,0.2c0,0,0,0,0,0.1l0.2,4.2c0.1,2.9,0,3.8-1.1,4.2h-0.3l-0.1,0.2H38L37.9,18h-0.2c0,0-0.1,0-0.1,0
	c0,0-0.3,0-0.3,0c-0.5-0.1-0.8-0.3-0.9-0.8c-0.4-1.2-0.6-5.5-0.7-7.9c-0.1-1.9,0.1-3.1,0.7-3.5l0.6-0.3L36.9,5.1z"/>
<path class="st0" d="M36.9,5.1h-4.2l0,0c-0.4,0-0.5,0.2-0.6,0.8c-0.1,0.3-0.2,0.8-0.5,1.4c-1.2,3-2,4.9-2.6,6.5
	c0,0.1-0.1,0.1-0.2,0.1c-0.1,0-0.2-0.1-0.2-0.2c0,0,0,0,0,0c-1.7-5.6-2.1-7.3-2.2-7.8l-0.1-0.3c-0.1-0.2-0.3-0.3-0.5-0.3l0,0h-3.8
	l0,0.1c0,0,1.1,0.5,0.8,1.9c0,0,0,1-0.3,2.2l-0.2,1.1L22,11.7c-0.7,4-1.3,5.7-2.5,6.3c-0.1,0-0.2,0-0.3,0H19L19,18.2h5.6L24.5,18
	h-0.2l-0.3,0c-0.6-0.1-0.9-0.3-1.1-0.9c-0.2-0.6,0-2,0.4-4.1l0.2-1.3l0.3-2.1c0-0.1,0.1-0.2,0.2-0.1c0.1,0,0.2,0.1,0.3,0.2
	c0,0,0,0,0,0c0.4,1.4,0.8,3.2,1.3,4.7c0.5,1.8,0.9,3.3,1,3.9c0.1,0.2,1.7,0.9,3.6-4.1c0.4-1.1,1.1-2.7,1.9-4.7c0-0.1,0.2-0.1,0.3,0
	c0.1,0,0.2,0.1,0.2,0.2c0,0,0,0,0,0.1l0.2,4.2c0.1,2.9,0,3.8-1.1,4.2h-0.3l-0.1,0.2H38L37.9,18h-0.2c0,0-0.1,0-0.1,0
	c0,0-0.3,0-0.3,0c-0.5-0.1-0.8-0.3-0.9-0.8c-0.4-1.2-0.6-5.5-0.7-7.9c-0.1-1.9,0.1-3.1,0.7-3.5l0.6-0.3L36.9,5.1z"/>
<path class="st0" d="M99,18.9c-0.5,0-1-0.3-1-1c0-0.6,0.4-1,1-1c0.5,0,1,0.3,1,1C100,18.6,99.6,18.9,99,18.9 M99,17.2
	c-0.4,0-0.7,0.3-0.7,0.7c0,0.4,0.3,0.7,0.7,0.7h0c0.4,0,0.7-0.3,0.7-0.7C99.7,17.5,99.4,17.2,99,17.2 M98.9,18.5h-0.2v-1H99
	c0.3,0,0.4,0.1,0.4,0.3c0,0.2-0.1,0.3-0.2,0.3l0.3,0.4h-0.3L99,18.1h-0.1L98.9,18.5L98.9,18.5z M99.1,17.9c0.1,0,0.1,0,0.1-0.1
	c0-0.1-0.1-0.1-0.2-0.1h-0.1v0.2H99.1z"/>
<path class="st0" d="M46.6,16.1c-0.7,0.7-1.7,1.2-2.7,1.2c-2,0-2.9-1.7-3.1-3.2c0-0.2,0.1-0.3,0.2-0.3c0,0,5.5-1.1,6.2-1.2
	c-0.5-1.9-2.1-3-4.4-3c-2.5,0-5.1,1.3-5.1,4.3c0,1.4,0.6,2.6,1.7,3.4c0.9,0.6,2.2,1,3.6,1c2,0,2.9-0.3,3.2-0.4l0,0
	C46.2,17.7,46.5,16.8,46.6,16.1L46.6,16.1z M42.6,10.3c0.9,0,1.6,0.8,1.6,1.7v0.3c0,0.1,0,0.2-0.1,0.2l-3,0.6c0,0-0.1,0-0.1,0
	c0,0-0.1-0.1-0.1-0.1v-0.1c0-0.6,0.2-1.5,0.7-2.1C41.9,10.5,42.2,10.3,42.6,10.3"/>
<path class="st0" d="M58,18c-0.4-0.3-0.6-0.8-0.6-1.5v-10c-0.1,0-2.6,0.1-2.6,0.1s-0.3,0-0.6,0l-0.1,0.1c0.6,0.4,0.6,1.2,0.6,1.4v1
	l-0.1,0.2l-0.2,0.1c-0.4,0-0.7-0.1-1.2-0.1c-3.3,0-5.3,1.7-5.3,4.7c0,1.4,0.5,2.6,1.5,3.2c0.9,0.6,2,0.6,3.6,0.6H58L58,18z M54,10.3
	c0.2,0,0.4,0,0.6,0c0.1,0,0.1,0.1,0.1,0.2v5.7c0,0.8-0.4,1.2-1.2,1.2c-1.6,0-2.5-1.7-2.5-3.4c0-0.9,0.2-1.7,0.7-2.4
	C52.2,11,53,10.3,54,10.3"/>
<path class="st0" d="M61.2,8.1c0.7,0,1.5-0.5,1.5-1.2c0-0.8-0.6-1.4-1.4-1.4c-0.8,0-1.6,0.4-1.6,1.3C59.7,7.7,60.5,8.1,61.2,8.1
	 M62.6,16.5V9.7c-0.1,0-1.7,0.1-1.7,0.1s-1.1,0.1-1.6,0.1l0,0.1c0.3,0.2,0.6,0.6,0.6,1.5v5c0,0.8-0.2,1.3-0.5,1.5l0,0.1h3.7l0-0.1
	C62.8,17.7,62.6,17.2,62.6,16.5"/>
<path class="st0" d="M79.9,16.4V16v-3.4c0-0.9,0-1.8-0.7-2.4c-0.6-0.5-1.7-0.6-2.5-0.6c-1.1,0-2,0.2-3.1,0.4l-0.2,0
	c0,0-0.4,0.1-0.4,0.1s-0.6,0.1-0.7,0.2c0,0.1-0.1,1-0.2,1.5l0.1,0c0.7-1,1.8-1.6,3-1.6c0.7,0,1.2,0.2,1.6,0.6c0.4,0.4,0.4,1,0.3,1.4
	c0,0,0,0.1,0,0.1v0.1c0,0.2-0.1,0.3-0.3,0.3c-1.4,0.2-5.8,0.9-5.8,3.6c0,1.3,1.2,1.9,2.4,1.9c1,0,2.5-0.4,3-1.3
	c0.1-0.1,0.2-0.1,0.3-0.1c0.1,0,0.2,0.1,0.2,0.2c0.1,0.4,0.2,0.7,0.5,1h2.8l0-0.1C80,17.6,79.9,17,79.9,16.4 M76.8,13.3
	c0,0,0.1,0,0.2,0c0,0.1,0.1,0.1,0.1,0.1v0.1c0,0.7-0.1,2.2-0.8,3c-0.3,0.3-0.6,0.4-1,0.4c-0.7,0-1.2-0.7-1.2-1.3
	c0-0.8,0.6-1.5,1.2-1.8l0,0C75.7,13.5,76.2,13.4,76.8,13.3"/>
<path class="st0" d="M89.3,13.4c-0.4-0.3-1.1-0.5-1.7-0.7l-1.5-0.4l-0.1,0c-0.5-0.1-1.4-0.3-1.4-1.1c0-0.8,1.1-1,1.8-1
	c1,0,1.9,0.4,2.5,1.2l0.1,0c0-0.4,0-1,0-1.1l0,0c-0.1,0-0.4-0.1-0.4-0.1c-0.6-0.2-1.5-0.4-2.6-0.4c-1.1,0-2,0.2-2.8,0.6l0,0
	c-0.8,0.5-1.4,1.3-1.4,2.1c0,1.4,1.3,1.9,2.4,2.1h0c0,0,0.2,0.1,1.5,0.4c0.6,0.1,1.7,0.4,1.7,1.3c0,1.3-1.4,1.7-2.5,1.7
	c-1.3,0-2.4-0.6-3-1.7l-0.1,0v1.7c0.3,0,0.7,0.1,1.3,0.3l0.6,0.1c0.7,0.1,1.3,0.2,2,0.2c1.2,0,2.3-0.3,3.2-0.8
	c0.9-0.6,1.5-1.6,1.5-2.6C90.1,14.3,89.8,13.7,89.3,13.4"/>
<path class="st0" d="M97.2,16.6c-0.4,0.4-0.8,0.6-1.3,0.6c-1.4,0-1.4-1.6-1.4-2.2v-4.3c0-0.2,0.1-0.3,0.3-0.3h1.8l0.2-0.6H95
	c-0.4,0-0.5-0.4-0.5-0.6V6.5c-0.1,0-0.1,0.1-0.1,0.1c-0.8,0.5-1.5,1-2.4,1.2c0,0,0,0,0,0c0,0,0,1,0,1c0,0.8-0.8,1.1-1.4,1.5l0.1,0.1
	h0.5c0.2,0,0.6,0.1,0.6,0.3v4.7c0,0.7,0,1.6,0.5,2.1c0.4,0.5,1.1,0.7,2,0.7c0.9,0,1.8-0.2,2.6-0.5C96.9,17.8,97.1,17.2,97.2,16.6
	L97.2,16.6z"/>
<path class="st0" d="M71.4,6.3c-0.4,0-2,0-3.2,0.8l0,0c-0.7,0.4-1.1,1-1.5,2.1c-0.2,0.6-1.2,1-1.6,1.1l0.1,0.1h0.1
	c0.1,0,0.8,0,0.9,0.1l0.1,0.2v0c0,0,0,0.1-1.1,5.2c-0.8,3.7-1.1,5.1-2.2,6.4c2.9-1.7,4-3.5,4.3-4.3c0.3-0.7,0.4-0.9,0.8-3.1l0.9-4.4
	c0-0.1,0.2-0.2,0.3-0.2H71c0,0,0.2-0.5,0.2-0.6h-1.7c-0.1,0-0.2,0-0.2-0.1c-0.1-0.1-0.1-0.2-0.1-0.3L69.3,9c0.1-0.5,0.5-2.2,2.1-2.2
	c0.6,0,1.2,0.4,1.2,1.2c0.2-0.4,0.7-1.4,0.7-1.5C72.9,6.4,72.2,6.3,71.4,6.3"/>
<path class="st0" d="M12.2,20.9C12.2,20.8,12.2,20.8,12.2,20.9L12.2,20.9c0.2-6.2,0-12.4,0.3-18.6h-1.2c0.4,6.2,0.1,12.4,0.3,18.6
	l0,0c0,0,0,0,0,0.1c0,0.3,0.1,0.5,0.3,0.5C12,21.5,12.1,21.2,12.2,20.9L12.2,20.9L12.2,20.9"/>
<path class="st0" d="M13.1,1.2c0,0.7-0.5,1.2-1.2,1.2c-0.7,0-1.2-0.5-1.2-1.2S11.2,0,11.9,0C12.5,0,13.1,0.5,13.1,1.2"/>
<path class="st0" d="M16,5.6c-0.4-0.4-1.2-0.3-2-0.2c-0.2,0-0.4,0-0.6,0c-0.5,0.1-0.8,0.5-0.8,0.7c0,0.1,0.4,0.5,0.8,0.4
	c1.4-0.4,1.9-0.3,2-0.2c0,0.4-1.1,0.9-3.4,1c0,0,0,0-0.1,0c0,0,0,0,0,0c0,0-0.1,0-0.1,0c0,0-0.1,0-0.1,0c-2.3-0.1-3.4-0.6-3.4-1
	c0-0.1,0.5-0.2,1.6,0.1h0l0,0c0.1,0,0.2,0.1,0.4,0.1c0.6,0,0.7-0.3,0.7-0.4c0.1-0.3-0.2-0.6-0.8-0.7c-0.2-0.1-0.4-0.1-0.6,0
	C8.8,5.2,8.1,5.2,7.6,5.6C7.4,5.8,7.3,6.1,7.3,6.4C7.4,7.2,8.1,7.7,9.5,8C9.1,8.4,8.9,8.8,8.9,9.2c0,0.7,0.6,1.3,1.4,1.6
	c-0.3,0.3-0.5,0.6-0.5,1c0,0.5,0.3,1,0.9,1.3c-0.3,0.2-0.4,0.5-0.4,0.8c0,0.4,0.2,0.8,0.6,1c-0.2,0.2-0.4,0.4-0.4,0.7
	c0,0.3,0.2,0.6,0.5,0.8c-0.2,0.2-0.4,0.4-0.4,0.7c0,0.3,0.2,0.6,0.5,0.7c-0.2,0.2-0.3,0.5-0.3,0.8c0,0.4,0.2,0.8,0.5,1
	c-0.1,0.1-0.2,0.3-0.2,0.5c0,0.4,0.3,0.8,0.7,0.8c0.4,0,0.7-0.4,0.7-0.8c0-0.2-0.1-0.4-0.2-0.5c0.3-0.2,0.5-0.6,0.5-1
	c0-0.3-0.1-0.6-0.3-0.8c0.3-0.2,0.5-0.4,0.5-0.7c0-0.3-0.1-0.5-0.4-0.7c0.3-0.2,0.5-0.5,0.5-0.8c0-0.3-0.1-0.5-0.4-0.7
	c0.4-0.2,0.6-0.6,0.6-1c0-0.3-0.1-0.6-0.4-0.8c0.5-0.3,0.9-0.7,0.9-1.3c0-0.4-0.2-0.8-0.5-1c0.8-0.3,1.4-0.9,1.4-1.6
	c0-0.5-0.2-0.9-0.7-1.2c1.3-0.3,2.1-0.8,2.1-1.6C16.4,6.1,16.3,5.8,16,5.6 M11.9,20.7c-0.1,0-0.2-0.2-0.2-0.3s0.1-0.3,0.2-0.3
	c0.1,0,0.2,0.2,0.2,0.3C12.1,20.5,12,20.7,11.9,20.7 M11.9,19.6c-0.3,0-0.5-0.3-0.5-0.7c0-0.3,0.1-0.5,0.3-0.7c0.1,0,0.1,0,0.2,0
	s0.1,0,0.2,0c0.2,0.1,0.3,0.4,0.3,0.7C12.4,19.2,12.2,19.6,11.9,19.6 M12,17.7c0,0-0.1,0-0.1,0c0,0-0.1,0-0.1,0
	c-0.3,0-0.5-0.2-0.5-0.4c0-0.2,0.3-0.4,0.7-0.4s0.7,0.2,0.7,0.4C12.6,17.4,12.3,17.6,12,17.7 M11.9,16.2c-0.4,0-0.7-0.2-0.7-0.4
	c0-0.2,0.3-0.4,0.7-0.4s0.7,0.2,0.7,0.4C12.6,16,12.3,16.2,11.9,16.2 M11.9,14.5c-0.5,0-0.9-0.3-0.9-0.5s0.4-0.5,0.9-0.5
	c0.5,0,0.9,0.3,0.9,0.5S12.4,14.5,11.9,14.5 M11.9,12.7c-0.7,0-1.2-0.3-1.2-0.8c0-0.4,0.6-0.7,1.2-0.8h0h0c0.6,0,1.2,0.4,1.2,0.8
	C13.1,12.3,12.5,12.7,11.9,12.7 M11.9,10.2c-1.2,0-2-0.5-2-0.9c0-0.4,0.9-0.9,2-0.9c1.2,0,2,0.5,2,0.9C13.9,9.7,13,10.2,11.9,10.2"
	/>
<path class="st0" d="M11.4,3.8c-1-1.1-1.8-1.4-2-1.5l-0.2,0c-0.4-0.1-0.6-0.1-1.7,0c-1,0.2-4.3,0.2-6.1,0.1l1.1,0.7
	c1.8,0.1,4.1,0.2,4.9,0.1l0.1,0c0.2,0,0.9,0,1.1-0.5l0.1,0.1C8.4,3.6,7.7,3.7,7.5,3.7h0c-0.7,0.1-2.5,0-4.2-0.1l1.3,0.8
	C5.2,4.6,5.7,4.6,6,4.6h0.1c0.2,0,0.9,0,1.2-0.4l0.1,0.1C7,5,6.4,5,6.1,5h0C5.9,5,5.6,5,5.3,5l1.4,0.9c1.2-2.4,4.7-0.5,4.7-0.5
	L11.4,3.8z M7.4,1.9c1.1-0.2,1.4-0.2,1.8,0l0.2,0c0.4,0.1,1.3,0.9,1.9,1.6l0-0.6c0,0-1.3-1.5-1.9-1.6c-0.6-0.1-0.7-0.2-2,0
	C6.2,1.5,1.2,1.4,0,1.4l0,0.3L0.6,2C2.1,2,6.3,2.1,7.4,1.9"/>
<path class="st0" d="M12.2,5.5c0,0,3.5-1.8,4.7,0.5l1.4-0.9c-0.3,0-0.6,0-0.8,0h0c-0.3,0-0.9-0.1-1.3-0.7l0.1-0.1
	c0.2,0.4,0.9,0.4,1.2,0.4h0.1c0.3,0,0.9,0,1.5-0.1l1.3-0.8c-1.7,0.1-3.5,0.1-4.2,0.1h0c-0.3,0-0.9-0.1-1.2-0.8L15,2.9
	c0.2,0.4,0.9,0.5,1.1,0.5h0.1c0.8,0.1,3.1,0,4.9-0.1l1.1-0.7c-1.8,0-5.1,0-6.1-0.1c-1.1-0.2-1.2-0.2-1.7,0l-0.2,0
	c-0.3,0.1-1.1,0.5-2,1.5L12.2,5.5z M23,2.1l0.6-0.4l0-0.3c-1.2,0-6.2,0.1-7.4-0.1c-1.3-0.2-1.3-0.1-2,0C13.6,1.5,12.3,3,12.3,3
	l0,0.6c0.6-0.7,1.5-1.5,1.9-1.6l0.2,0c0.5-0.1,0.7-0.2,1.8,0C17.3,2.2,21.5,2.2,23,2.1"/>
</svg>
