<?xml version="1.0" encoding="utf-8"?>
<!-- Generator: Adobe Illustrator 23.0.1, SVG Export Plug-In . SVG Version: 6.00 Build 0)  -->
<svg version="1.1" id="Layer_1" xmlns="http://www.w3.org/2000/svg" xmlns:xlink="http://www.w3.org/1999/xlink" x="0px" y="0px"
	 viewBox="0 0 100 11.46" style="enable-background:new 0 0 100 11.46;" xml:space="preserve">
<g>
	<g>
		<path d="M0,10.92v0.15h3.78v-0.15l-0.6-0.6C3.04,10.17,2.97,10,2.97,9.82V4.98l7.16,6.47h0.15V2.07c0-0.19,0.07-0.35,0.22-0.5
			l0.6-0.6V0.83H7.31v0.15l0.6,0.6c0.15,0.15,0.22,0.31,0.22,0.5v4.75L0.96,0.37H0.82v9.45c0,0.19-0.07,0.35-0.22,0.5L0,10.92z"/>
		<path d="M12.14,10.92L12.14,10.92l0,0.15h5.98c1.18,0,2.1-0.24,2.75-0.72c0.66-0.48,0.99-1.19,0.99-2.13c0-1.4-0.75-2.24-2.26-2.5
			V5.68c1.23-0.3,1.84-1.05,1.84-2.24c0-0.79-0.28-1.42-0.84-1.9c-0.56-0.48-1.37-0.72-2.42-0.72h-6.03v0.15l0.6,0.6
			c0.15,0.15,0.22,0.31,0.22,0.5v7.74c0,0.19-0.07,0.35-0.22,0.5L12.14,10.92z M17.88,4.88H15.3V2.67h2.59
			c0.41,0,0.72,0.1,0.93,0.31c0.21,0.2,0.31,0.48,0.31,0.82C19.13,4.52,18.71,4.88,17.88,4.88z M17.84,9.19c0,0-2.54,0-2.54,0V6.66
			h2.54c1.1,0,1.65,0.41,1.65,1.23C19.49,8.76,18.94,9.19,17.84,9.19z"/>
		<path d="M24.66,9.83c1.01,0.96,2.3,1.44,3.86,1.44c1.65,0,2.95-0.51,3.9-1.53l-1.37-1.59c-0.59,0.81-1.41,1.21-2.44,1.21
			c-0.89,0-1.6-0.31-2.15-0.93c-0.55-0.62-0.82-1.43-0.82-2.43c0-1.03,0.29-1.86,0.87-2.48c0.58-0.62,1.31-0.93,2.2-0.93
			c0.62,0,1.12,0.14,1.5,0.41c0.38,0.27,0.62,0.59,0.72,0.96L31.09,4l0.88-3.46l-0.15-0.06c-0.31,0.24-0.65,0.37-1.02,0.37
			c-0.13,0-0.44-0.03-0.95-0.09c-0.51-0.06-0.94-0.1-1.29-0.1c-1.57,0-2.86,0.48-3.89,1.45c-1.02,0.96-1.53,2.26-1.53,3.87
			C23.14,7.58,23.65,8.87,24.66,9.83z"/>
		<path d="M35.29,10.18c0.8,0.72,1.87,1.08,3.2,1.08c1.32,0,2.39-0.36,3.19-1.08c0.8-0.72,1.21-1.77,1.21-3.14V2.07
			c0-0.19,0.07-0.35,0.22-0.5l0.6-0.6V0.83h-3.97v0.15l0.6,0.6c0.15,0.15,0.22,0.31,0.22,0.5V7.1c0,0.73-0.18,1.28-0.53,1.66
			s-0.86,0.56-1.53,0.56c-0.67,0-1.19-0.18-1.55-0.56C36.58,8.4,36.4,7.84,36.4,7.1V2.07c0-0.19,0.07-0.35,0.22-0.5l0.6-0.6V0.83
			h-3.95v0.15l0.6,0.6c0.15,0.15,0.22,0.31,0.22,0.5v4.97C34.09,8.42,34.49,9.46,35.29,10.18z"/>
		<path d="M44.77,10.92L44.77,10.92l0,0.15h3.83v-0.15l-0.6-0.6c-0.15-0.15-0.22-0.37-0.22-0.67V7.29c0-0.44,0.11-0.8,0.34-1.07
			c0.22-0.28,0.56-0.42,1.01-0.42c0.38,0,0.67,0.12,0.86,0.37c0.19,0.25,0.29,0.58,0.29,1v3.89h3.01v-0.15l-0.6-0.6
			c-0.15-0.15-0.22-0.37-0.22-0.67V6.69c0-0.88-0.21-1.56-0.63-2.05c-0.42-0.49-1.01-0.73-1.77-0.73c-0.52,0-1,0.13-1.44,0.39
			c-0.44,0.26-0.75,0.59-0.91,0.99V4.05h-2.95v0.15l0.6,0.6c0.15,0.15,0.22,0.37,0.22,0.67v4.18c0,0.3-0.07,0.53-0.22,0.67
			L44.77,10.92z"/>
		<path d="M53.95,10.92v0.15h3.83v-0.15l-0.6-0.6c-0.15-0.15-0.22-0.37-0.22-0.67v-5.6h-3.01v0.15l0.6,0.6
			c0.15,0.15,0.22,0.37,0.22,0.67v4.18c0,0.3-0.07,0.53-0.22,0.67L53.95,10.92z M54.93,2.64c0.26,0.24,0.56,0.37,0.91,0.37
			c0.35,0,0.66-0.12,0.91-0.37c0.26-0.24,0.39-0.55,0.39-0.91s-0.13-0.66-0.39-0.91c-0.26-0.24-0.56-0.37-0.91-0.37
			c-0.35,0-0.66,0.12-0.91,0.37c-0.26,0.24-0.39,0.55-0.39,0.91S54.67,2.4,54.93,2.64z"/>
		<path d="M59.03,5.61l2.91,5.77h0.15l2.89-5.77c0.32-0.64,0.69-1.11,1.11-1.4V4.05h-2.73l-1.27,3.39h-0.03l-1.45-3.39h-2.69v0.16
			C58.33,4.5,58.7,4.97,59.03,5.61z"/>
		<path d="M67.34,10.29c0.69,0.65,1.63,0.97,2.81,0.97c1.28,0,2.25-0.31,2.91-0.92l-1.21-1.43C71.49,9.3,70.99,9.5,70.34,9.5
			c-0.52,0-0.93-0.13-1.24-0.38c-0.31-0.25-0.49-0.56-0.54-0.94h4.91c0.02-0.19,0.03-0.4,0.03-0.63c0-1.11-0.28-1.99-0.85-2.65
			c-0.56-0.66-1.41-0.99-2.54-0.99c-1.17,0-2.09,0.35-2.78,1.04s-1.02,1.6-1.02,2.71C66.31,8.77,66.65,9.65,67.34,10.29z
			 M68.95,5.95c0.25-0.26,0.59-0.39,1.01-0.39c0.41,0,0.73,0.13,0.95,0.38c0.22,0.25,0.35,0.58,0.37,0.98h-2.75
			C68.56,6.53,68.7,6.21,68.95,5.95z"/>
		<path d="M74.5,10.92L74.5,10.92l0,0.15h3.83v-0.15l-0.6-0.6c-0.15-0.15-0.22-0.37-0.22-0.67V7.53c0-0.52,0.12-0.92,0.37-1.2
			c0.24-0.28,0.58-0.42,1.01-0.42c0.39,0,0.74,0.14,1.05,0.41l0.57-2.19c-0.25-0.14-0.56-0.2-0.92-0.2c-0.5,0-0.94,0.15-1.32,0.44
			c-0.38,0.29-0.65,0.66-0.82,1.11V4.05H74.5v0.15l0.6,0.6c0.15,0.15,0.22,0.37,0.22,0.67v4.18c0,0.3-0.07,0.53-0.22,0.67
			L74.5,10.92z"/>
		<path d="M80.74,10.32c0.77,0.63,1.85,0.95,3.23,0.95c1.03,0,1.84-0.21,2.43-0.64s0.88-1.03,0.88-1.81c0-0.61-0.21-1.08-0.64-1.4
			c-0.42-0.32-0.95-0.54-1.59-0.64c-0.32-0.06-0.61-0.1-0.86-0.14c-0.25-0.03-0.46-0.1-0.61-0.2c-0.15-0.1-0.23-0.23-0.23-0.39
			c0-0.36,0.31-0.54,0.92-0.54c1.02,0,1.68,0.31,1.97,0.94l0.15,0.04L87.1,3.8l-0.15-0.06c-0.32,0.24-0.64,0.37-0.96,0.37
			c-0.13,0-0.38-0.03-0.75-0.1c-0.38-0.06-0.73-0.09-1.07-0.09c-0.88,0-1.6,0.18-2.17,0.54s-0.85,0.94-0.85,1.75
			c0,1.13,0.72,1.82,2.15,2.06c0.33,0.06,0.63,0.11,0.89,0.15c0.26,0.04,0.47,0.11,0.64,0.2c0.16,0.1,0.24,0.24,0.24,0.42
			c0,0.39-0.31,0.58-0.94,0.58c-0.92,0-1.7-0.27-2.35-0.8L80.74,10.32z"/>
		<path d="M88.79,10.7c0.43,0.38,0.97,0.56,1.62,0.56c0.52,0,0.97-0.11,1.36-0.32c0.39-0.21,0.67-0.49,0.85-0.83v0.95h2.95v-0.15
			l-0.6-0.6c-0.15-0.15-0.22-0.37-0.22-0.67V6.63c0-0.92-0.26-1.6-0.78-2.05c-0.52-0.45-1.34-0.67-2.45-0.67
			c-1.37,0-2.42,0.36-3.14,1.08l1.14,1.34c0.54-0.49,1.13-0.73,1.78-0.73c0.43,0,0.75,0.07,0.96,0.2c0.21,0.14,0.31,0.31,0.31,0.51
			c0,0.2-0.07,0.35-0.2,0.43c-0.14,0.08-0.39,0.13-0.76,0.14c-1.19,0.02-2.06,0.22-2.62,0.6c-0.56,0.38-0.84,0.95-0.84,1.72
			C88.15,9.83,88.36,10.33,88.79,10.7z M92.2,9.33c-0.25,0.26-0.58,0.39-0.98,0.39c-0.29,0-0.51-0.07-0.66-0.22
			c-0.15-0.15-0.22-0.33-0.22-0.56c0-0.56,0.44-0.86,1.32-0.91c0.49-0.03,0.79-0.07,0.92-0.12V8.4C92.58,8.76,92.45,9.07,92.2,9.33z
			"/>
		<path d="M96.17,10.92v0.15H100v-0.15l-0.6-0.6c-0.15-0.15-0.22-0.37-0.22-0.67V0h-3.01v0.15l0.6,0.6
			c0.15,0.15,0.22,0.37,0.22,0.67v8.23c0,0.3-0.07,0.53-0.22,0.67L96.17,10.92z"/>
	</g>
</g>
</svg>
