<?xml version="1.0" encoding="utf-8"?>
<!-- Generator: Adobe Illustrator 23.0.1, SVG Export Plug-In . SVG Version: 6.00 Build 0)  -->
<svg version="1.1" id="Layer_1" xmlns="http://www.w3.org/2000/svg" xmlns:xlink="http://www.w3.org/1999/xlink" x="0px" y="0px"
	 viewBox="0 0 100 19.1" style="enable-background:new 0 0 100 19.1;" xml:space="preserve">
<style type="text/css">
	.st0{fill:url(#SVGID_1_);}
</style>
<linearGradient id="SVGID_1_" gradientUnits="userSpaceOnUse" x1="89.7365" y1="8.1611" x2="100.7365" y2="19.1611" gradientTransform="matrix(1 0 0 -1 0 20.2476)">
	<stop  offset="0" style="stop-color:#64008F"/>
	<stop  offset="1" style="stop-color:#AD4BAA"/>
</linearGradient>
<polygon class="st0" points="95.91,0.35 100,0.35 94.57,12.82 90.47,12.82 "/>
<polygon points="79.14,0.35 79.14,7.52 74.01,0.35 70.98,0.35 70.98,12.82 74.01,12.82 74.01,5.4 79.14,12.82 82.17,12.82 
	82.17,3.35 85.43,3.35 85.43,12.82 88.43,12.82 88.43,3.35 92.24,3.35 93.56,0.35 "/>
<path d="M63.9,0c-3.65,0-6.61,2.94-6.61,6.55s2.97,6.54,6.61,6.54c3.64,0,6.61-2.94,6.61-6.54S67.54,0,63.9,0z M63.9,10.06
	c-1.94-0.02-3.5-1.61-3.48-3.55c0.02-1.94,1.61-3.5,3.55-3.48c1.93,0.02,3.48,1.59,3.48,3.52C67.43,8.5,65.85,10.07,63.9,10.06z"/>
<path d="M54.4,8.33c1.6-0.59,2.7-1.85,2.7-3.87V4.42c0-1.18-0.38-2.16-1.08-2.85c-0.83-0.82-2.07-1.26-3.67-1.26H21.71v7.16
	c0,1.78-0.92,2.7-2.45,2.7c-1.53,0-2.45-0.95-2.45-2.78V0.31h-3.04v7.13c0,3.67,2.07,5.54,5.45,5.54s5.52-1.85,5.52-5.63V3.31h3.1
	v9.47h3.03V3.31h4.37l1.2-2.83v12.3h3.03V8.79h4.54l1.3-3h-5.84V3.31h7.11v9.47h3.03V8.79h1.61l2.7,3.99h3.55L54.4,8.33z
	 M54.08,4.67c0,0.86-0.6,1.45-1.65,1.45h-2.8V3.18h2.76c1.05,0,1.7,0.5,1.7,1.46L54.08,4.67z"/>
<path d="M6.61,0C2.97,0,0,2.94,0,6.55s2.97,6.55,6.61,6.55s6.61-2.94,6.61-6.55S10.26,0,6.61,0z M6.61,10.06
	c-1.94-0.02-3.5-1.61-3.48-3.55c0.02-1.94,1.61-3.5,3.55-3.48c1.93,0.02,3.48,1.59,3.48,3.52C10.15,8.5,8.56,10.07,6.61,10.06z"/>
<path d="M0.8,15.94h0.73l0.64,2.1l0.69-2.11h0.59l0.69,2.11l0.64-2.1H5.5l-1.06,3.12H3.85l-0.7-2.03l-0.7,2.03H1.86L0.8,15.94z"/>
<path d="M8,15.94h2.34v0.61H8.68v0.63h1.46v0.61H8.68v0.65h1.68v0.61H8V15.94z"/>
<path d="M17.26,17.5L17.26,17.5c-0.01-0.89,0.7-1.6,1.58-1.61c0.01,0,0.03,0,0.04,0c0.56,0,0.89,0.15,1.22,0.42l-0.43,0.52
	c-0.22-0.21-0.51-0.32-0.81-0.31c-0.5,0-0.89,0.44-0.89,0.96v0.01c0,0.57,0.39,0.98,0.94,0.98c0.23,0.01,0.45-0.06,0.64-0.19v-0.44
	h-0.69v-0.59h1.35v1.35c-0.37,0.32-0.84,0.49-1.32,0.49C17.93,19.09,17.26,18.42,17.26,17.5z"/>
<path d="M23.08,15.94h2.34v0.61h-1.66v0.63h1.46v0.61h-1.46v0.65h1.68v0.61h-2.36V15.94z"/>
<path d="M29.22,16.57h-0.94v-0.63h2.57v0.63H29.9v2.47h-0.68V16.57z"/>
<path d="M38.67,17.82l-1.19-1.88h0.8l0.74,1.24l0.75-1.24h0.77l-1.19,1.86v1.23h-0.68L38.67,17.82z"/>
<path d="M43.02,17.5L43.02,17.5c0-0.89,0.7-1.61,1.65-1.61c0.95,0,1.64,0.71,1.64,1.59v0.01c0,0.88-0.7,1.6-1.65,1.6
	C43.71,19.09,43.02,18.38,43.02,17.5z M45.6,17.5L45.6,17.5c0.02-0.53-0.39-0.96-0.91-0.98c-0.01,0-0.02,0-0.03,0
	c-0.55,0-0.93,0.43-0.93,0.96v0.01c-0.02,0.52,0.39,0.96,0.91,0.97c0.01,0,0.02,0,0.03,0C45.22,18.47,45.6,18.03,45.6,17.5
	L45.6,17.5z"/>
<path d="M49.32,17.71v-1.77H50v1.75c0,0.5,0.25,0.77,0.67,0.77s0.67-0.25,0.67-0.74v-1.77h0.68v1.75c0,0.94-0.53,1.4-1.36,1.4
	S49.32,18.62,49.32,17.71z"/>
<path d="M60.21,15.92h0.63l1.33,3.12h-0.71l-0.28-0.69h-1.31l-0.28,0.69h-0.7L60.21,15.92z M60.92,17.75l-0.41-1l-0.41,1H60.92z"/>
<path d="M65.09,15.94h0.74l0.82,1.31l0.81-1.31h0.73v3.1h-0.68v-2.02l-0.87,1.32h-0.02l-0.86-1.31v2.01h-0.67L65.09,15.94z"/>
<path d="M71.38,15.94h2.34v0.61h-1.66v0.63h1.46v0.61h-1.46v0.65h1.68v0.61h-2.36V15.94z"/>
<path d="M76.8,15.94h1.42c0.39,0,0.7,0.11,0.9,0.31c0.18,0.19,0.28,0.45,0.27,0.71v0.01c0.02,0.43-0.25,0.83-0.66,0.96l0.76,1.11
	h-0.8l-0.66-0.99h-0.54v0.99H76.8V15.94z M78.17,17.45c0.33,0,0.52-0.18,0.52-0.44V17c0-0.29-0.2-0.44-0.54-0.44h-0.68v0.89H78.17z"
	/>
<path d="M82.48,15.94h0.68v3.1h-0.68V15.94z"/>
<path d="M86.25,17.5L86.25,17.5c-0.01-0.88,0.68-1.59,1.55-1.61c0.02,0,0.05,0,0.07,0c0.58,0,0.93,0.2,1.22,0.48l-0.43,0.5
	c-0.24-0.22-0.48-0.35-0.79-0.35c-0.52,0-0.9,0.43-0.9,0.96v0.01c0,0.53,0.37,0.97,0.9,0.97c0.35,0,0.57-0.14,0.81-0.36l0.43,0.44
	c-0.32,0.37-0.78,0.57-1.27,0.55c-0.86,0.01-1.58-0.67-1.59-1.54C86.25,17.54,86.25,17.52,86.25,17.5z"/>
<path d="M93.16,15.92h0.63l1.33,3.12h-0.71l-0.28-0.69h-1.31l-0.28,0.69h-0.7L93.16,15.92z M93.88,17.74l-0.41-1l-0.41,1H93.88z"/>
</svg>
