<?xml version="1.0" encoding="utf-8"?>
<!-- Generator: Adobe Illustrator 23.0.1, SVG Export Plug-In . SVG Version: 6.00 Build 0)  -->
<svg version="1.1" id="Layer_1" xmlns="http://www.w3.org/2000/svg" xmlns:xlink="http://www.w3.org/1999/xlink" x="0px" y="0px"
	 viewBox="0 0 100 39.21" style="enable-background:new 0 0 100 39.21;" xml:space="preserve">
<g>
	<path d="M82.71,31.86c0.34-0.06,0.69-0.06,1.04-0.03c0.35,0.04,0.69,0.12,1.02,0.25c0.33,0.13,0.64,0.32,0.89,0.58
		c0.25,0.26,0.43,0.59,0.46,0.94c-0.16-0.31-0.37-0.56-0.63-0.76c-0.25-0.2-0.54-0.35-0.84-0.47c-0.3-0.12-0.62-0.22-0.94-0.3
		C83.38,31.99,83.05,31.92,82.71,31.86z"/>
	<path d="M86.22,33.95l-0.17-0.32c-0.15-0.29-0.36-0.54-0.61-0.74c-0.22-0.18-0.49-0.33-0.83-0.46c-0.27-0.11-0.57-0.2-0.93-0.29
		c-0.31-0.08-0.62-0.14-0.99-0.21l-0.36-0.07l0.36-0.07c0.32-0.06,0.66-0.07,1.06-0.03c0.37,0.04,0.72,0.12,1.04,0.25
		c0.37,0.15,0.68,0.35,0.92,0.6c0.27,0.28,0.44,0.64,0.48,0.98L86.22,33.95z M83.17,31.88c0.19,0.04,0.37,0.08,0.55,0.12
		c0.37,0.09,0.68,0.19,0.95,0.3c0.35,0.14,0.63,0.3,0.86,0.48c0.15,0.12,0.28,0.25,0.4,0.4c-0.08-0.17-0.19-0.33-0.32-0.47
		c-0.22-0.23-0.52-0.42-0.87-0.56c-0.3-0.12-0.64-0.2-1-0.24C83.54,31.88,83.35,31.87,83.17,31.88z"/>
</g>
<g>
	<path d="M74.63,23.31c0,0.4-0.32,0.72-0.72,0.72c-0.4,0-0.72-0.32-0.72-0.72c0-0.4,0.32-0.72,0.72-0.72
		C74.31,22.59,74.63,22.91,74.63,23.31z"/>
	<path d="M73.91,24.25c-0.52,0-0.95-0.42-0.95-0.95c0-0.52,0.42-0.95,0.95-0.95c0.52,0,0.95,0.42,0.95,0.95
		C74.86,23.83,74.43,24.25,73.91,24.25z M73.91,22.82c-0.27,0-0.49,0.22-0.49,0.49c0,0.27,0.22,0.49,0.49,0.49
		c0.27,0,0.49-0.22,0.49-0.49C74.4,23.04,74.18,22.82,73.91,22.82z"/>
</g>
<g>
	<path d="M84.52,23.42c0,0.4-0.32,0.72-0.72,0.72c-0.4,0-0.72-0.32-0.72-0.72c0-0.4,0.32-0.72,0.72-0.72
		C84.2,22.7,84.52,23.02,84.52,23.42z"/>
	<path d="M83.81,24.36c-0.52,0-0.95-0.42-0.95-0.95c0-0.52,0.42-0.95,0.95-0.95c0.52,0,0.95,0.42,0.95,0.95
		C84.75,23.94,84.33,24.36,83.81,24.36z M83.81,22.93c-0.27,0-0.49,0.22-0.49,0.49c0,0.27,0.22,0.49,0.49,0.49
		c0.27,0,0.49-0.22,0.49-0.49C84.3,23.15,84.08,22.93,83.81,22.93z"/>
</g>
<path d="M78.87,25.66c-0.56,1.17-1.17,2.29-1.81,3.41c-0.63,1.12-1.3,2.22-1.98,3.31l-0.04,0.07l-0.03,0.04l-0.06,0.09
	c-0.04,0.06-0.08,0.13-0.11,0.19c-0.07,0.13-0.14,0.26-0.2,0.4c-0.12,0.27-0.21,0.54-0.22,0.79c-0.01,0.25,0.06,0.44,0.23,0.58
	c0.18,0.14,0.46,0.22,0.75,0.26c0.29,0.04,0.6,0.03,0.92,0.03c0.32,0,0.63-0.02,0.95-0.05c0.31-0.03,0.63-0.07,0.92-0.16
	c0.15-0.05,0.29-0.11,0.4-0.2c0.05-0.05,0.1-0.11,0.12-0.18c0.02-0.07,0.01-0.15-0.03-0.22c0.05,0.06,0.09,0.14,0.09,0.23
	c0,0.09-0.04,0.18-0.09,0.25c-0.11,0.14-0.26,0.23-0.4,0.31c-0.3,0.15-0.62,0.24-0.94,0.32c-0.32,0.07-0.64,0.12-0.97,0.17
	c-0.32,0.04-0.65,0.08-1,0.06c-0.34-0.02-0.72-0.07-1.07-0.31c-0.17-0.12-0.33-0.29-0.42-0.49c-0.09-0.2-0.12-0.41-0.12-0.61
	c0-0.4,0.11-0.74,0.24-1.06c0.07-0.16,0.14-0.32,0.23-0.47c0.04-0.08,0.08-0.15,0.13-0.22l0.07-0.11l0.04-0.06
	c0,0-0.02,0.03-0.01,0.01l0,0l0-0.01l0.01-0.01l0.02-0.03c0.68-1.09,1.37-2.17,2.09-3.24c0.72-1.07,1.46-2.12,2.26-3.13L78.87,25.66
	z"/>
<path d="M70.83,18.93c0.45-0.53,1.02-0.98,1.64-1.34c0.31-0.18,0.63-0.34,0.96-0.47c0.33-0.13,0.67-0.25,1.02-0.34
	c0.35-0.1,0.69-0.19,1.05-0.27c0.35-0.07,0.71-0.1,1.07-0.09c0.36,0.02,0.72,0.06,1.07,0.15c0.35,0.09,0.7,0.2,1.02,0.39l-0.02,0.1
	c-0.71,0.18-1.38,0.27-2.04,0.35c-0.33,0.04-0.66,0.06-0.99,0.07c-0.33,0.01-0.67,0.02-1,0.07c-0.33,0.05-0.66,0.11-0.98,0.2
	c-0.32,0.08-0.64,0.18-0.96,0.3c-0.63,0.23-1.23,0.56-1.78,0.97L70.83,18.93z"/>
<path d="M90.77,19.1c-0.56-0.41-1.16-0.72-1.79-0.95c-0.31-0.12-0.64-0.21-0.96-0.29c-0.32-0.08-0.65-0.14-0.98-0.19
	c-0.33-0.05-0.66-0.06-1-0.06c-0.33,0-0.66-0.02-0.99-0.06c-0.66-0.08-1.33-0.16-2.04-0.33l-0.02-0.1c0.33-0.19,0.67-0.31,1.02-0.4
	c0.35-0.09,0.71-0.14,1.07-0.16c0.36-0.02,0.72,0.01,1.07,0.08c0.35,0.07,0.7,0.16,1.05,0.26c0.35,0.09,0.69,0.2,1.02,0.33
	c0.33,0.13,0.66,0.29,0.97,0.46c0.62,0.35,1.19,0.79,1.65,1.32L90.77,19.1z"/>
<path d="M85.29,38.02c0.1-0.45,0.16-0.9,0.17-1.35c0.01-0.5-0.03-1-0.13-1.48c-0.1-0.49-0.25-0.97-0.45-1.42
	c-0.1-0.23-0.21-0.45-0.34-0.66c-0.12-0.21-0.27-0.43-0.41-0.6l0,0l0.43-0.01c-0.29,0.36-0.6,0.67-0.92,0.98
	c-0.32,0.3-0.66,0.59-1.01,0.86c-0.7,0.54-1.45,1.01-2.24,1.41c-1.57,0.79-3.3,1.3-5.06,1.38l0.07-0.06h0c0.01-0.03,0-0.03,0-0.03
	c0,0,0.01,0.01,0.01,0.02c0.01,0.02,0.03,0.03,0.05,0.05c0.04,0.03,0.08,0.06,0.13,0.09c0.09,0.06,0.19,0.11,0.28,0.17
	c0.19,0.1,0.4,0.2,0.6,0.29c0.41,0.18,0.82,0.33,1.25,0.47c0.85,0.27,1.72,0.47,2.59,0.58c0.88,0.11,1.76,0.13,2.63,0.03
	C83.76,38.62,84.56,38.39,85.29,38.02z M85.67,38.47c-0.84,0.41-1.76,0.63-2.68,0.71c-0.92,0.08-1.84,0.02-2.73-0.13
	c-0.9-0.15-1.78-0.38-2.63-0.69c-0.43-0.15-0.84-0.33-1.25-0.52c-0.2-0.1-0.41-0.2-0.6-0.32c-0.1-0.06-0.2-0.12-0.29-0.19
	c-0.05-0.03-0.09-0.07-0.14-0.11c-0.02-0.02-0.05-0.04-0.07-0.07c-0.01-0.01-0.02-0.03-0.03-0.05c-0.01-0.02-0.03-0.06-0.01-0.11
	l0,0l0.01-0.05l0.06-0.01c0.85-0.14,1.69-0.33,2.51-0.6c0.81-0.27,1.6-0.6,2.36-1.01c0.75-0.41,1.46-0.88,2.13-1.42
	c0.33-0.27,0.65-0.55,0.96-0.84c0.3-0.29,0.61-0.61,0.86-0.92l0.21-0.27l0.22,0.26l0,0c0.19,0.23,0.33,0.45,0.47,0.68
	c0.14,0.23,0.26,0.47,0.37,0.72c0.22,0.49,0.38,1.01,0.49,1.54c0.11,0.53,0.16,1.07,0.15,1.61c-0.01,0.54-0.08,1.08-0.2,1.6
	l-0.03,0.13L85.67,38.47z"/>
<path d="M77.6,36.7c0.06,0.13,0.11,0.26,0.17,0.39c0.05,0.13,0.1,0.26,0.14,0.4c0.04,0.13,0.13,0.26,0.12,0.4
	c0,0.07-0.01,0.14-0.04,0.22c-0.02,0.07-0.05,0.15-0.11,0.23l-0.05,0.01c-0.08-0.06-0.14-0.12-0.18-0.18
	c-0.05-0.06-0.08-0.13-0.11-0.19c-0.06-0.13-0.02-0.28-0.02-0.42c0-0.14,0-0.28,0-0.42c0.01-0.14,0.01-0.28,0.03-0.43L77.6,36.7z"/>
<path d="M79.09,36.12c0.08,0.21,0.14,0.42,0.22,0.63c0.07,0.21,0.13,0.42,0.19,0.63c0.06,0.21,0.16,0.41,0.17,0.63
	c0.01,0.11,0,0.22-0.01,0.34c-0.01,0.11-0.04,0.23-0.09,0.35l-0.05,0.01c-0.09-0.09-0.15-0.19-0.21-0.3c-0.06-0.1-0.1-0.2-0.13-0.31
	c-0.08-0.21-0.05-0.43-0.07-0.65c-0.02-0.22-0.03-0.44-0.05-0.66c-0.01-0.22-0.02-0.44-0.02-0.66L79.09,36.12z"/>
<path d="M80.53,35.3c0.09,0.3,0.17,0.6,0.26,0.9c0.08,0.3,0.16,0.6,0.24,0.9c0.07,0.3,0.19,0.6,0.21,0.91
	c0.01,0.16,0.02,0.31,0.01,0.47c-0.01,0.16-0.02,0.32-0.06,0.48l-0.05,0.01c-0.1-0.14-0.17-0.29-0.23-0.43
	c-0.06-0.15-0.11-0.3-0.15-0.45c-0.09-0.3-0.08-0.62-0.11-0.92c-0.03-0.31-0.06-0.62-0.09-0.93c-0.02-0.31-0.05-0.62-0.07-0.93
	L80.53,35.3z"/>
<path d="M82.03,34.36c0.11,0.37,0.2,0.75,0.3,1.12c0.1,0.38,0.19,0.75,0.28,1.13c0.09,0.38,0.22,0.75,0.26,1.13
	c0.02,0.19,0.03,0.39,0.03,0.58c0,0.2-0.01,0.39-0.04,0.6l-0.05,0.01c-0.1-0.18-0.18-0.36-0.25-0.54c-0.07-0.18-0.13-0.37-0.18-0.56
	c-0.1-0.37-0.11-0.77-0.16-1.15c-0.05-0.38-0.09-0.77-0.13-1.16c-0.04-0.39-0.08-0.77-0.11-1.16L82.03,34.36z"/>
<path d="M83.68,33.04c0.13,0.46,0.24,0.92,0.36,1.38c0.12,0.46,0.23,0.92,0.33,1.38c0.11,0.46,0.26,0.92,0.31,1.39
	c0.03,0.24,0.05,0.47,0.06,0.71c0.01,0.24,0.01,0.48-0.02,0.73l-0.05,0.01c-0.11-0.22-0.2-0.45-0.28-0.67
	c-0.08-0.23-0.14-0.46-0.2-0.69c-0.12-0.46-0.15-0.94-0.21-1.41c-0.07-0.47-0.13-0.94-0.19-1.41c-0.05-0.47-0.12-0.94-0.16-1.42
	L83.68,33.04z"/>
<path d="M75.32,37c0.89,0.18,1.8,0.25,2.7,0.26c0.91,0.01,1.81-0.03,2.7-0.15c0.45-0.06,0.89-0.14,1.33-0.24
	c0.44-0.1,0.87-0.21,1.29-0.34c0.42-0.12,0.84-0.28,1.23-0.48c0.39-0.2,0.75-0.46,1.03-0.82l0.04,0.02
	c-0.16,0.44-0.51,0.81-0.89,1.09c-0.39,0.28-0.82,0.49-1.25,0.65c-0.88,0.33-1.82,0.43-2.73,0.5c-0.92,0.07-1.84,0.07-2.76,0
	c-0.91-0.08-1.83-0.2-2.71-0.46L75.32,37z"/>
<path d="M71.59,28c-1.99,0-2.96-0.8-2.96-2.46c0-1.46,1.05-3,3.12-4.59c1.85-1.41,3.42-2.12,4.66-2.12c0.58,0,1.11,0.12,1.56,0.37
	c0.53,0.28,0.79,0.65,0.79,1.15c0,0.64-0.24,1.27-0.71,1.85c-0.48,0.59-1.06,1.03-1.72,1.31l-5.47,2.4l-0.04,0.08l0.03,0.12
	c0.08,0.32,0.22,0.53,0.5,0.87c0.29,0.35,0.6,0.56,0.92,0.61l0.02,0c0.87,0,3.56-0.93,5.72-1.68c0.03-0.01,0.77-0.21,0.8-0.22
	C76.82,26.66,73.02,28,71.59,28z M75.8,19.43c-0.74,0-1.64,0.58-2.75,1.76c-1.23,1.31-1.86,2.65-1.86,4v0.19l0.09,0.07l0.18-0.05
	c1.12-0.32,2.21-0.87,3.24-1.66c1.3-0.97,1.96-1.96,1.96-2.94c0-0.84-0.28-1.3-0.84-1.36L75.8,19.43z"/>
<path d="M92.93,28.04c-1.09,0-2.01-0.42-2.72-1.25l-0.13-0.59l-0.14-1.45l0.03-0.58l0.09-0.54l1.8-1.07l-0.07,0.86l0.04,1.4
	l0.34,1.49l0.01,0.02l0.01,0.02c0.4,0.61,1.06,0.92,1.98,0.92c1.48,0,1.8-0.8,1.8-1.47c0-1.31-0.34-3.05-1.02-5.15
	c0.39-0.51,0.9-1.02,1.52-1.53c0.77-0.61,1.41-0.93,1.88-0.93c0.99,0,1.55,0.22,1.66,0.64c-0.01,0.73-0.35,1.13-1.07,1.27l-1-0.38
	l-1.29-0.27l-0.08,0.09l0.74,2.85l0.35,2.12c-0.3,0.83-0.83,1.55-1.57,2.16l-1.33,1.05C93.99,27.93,93.38,28.04,92.93,28.04z"/>
<g>
	<path d="M21.02,18.62l-0.45-0.21l0.83-1.43c0.21,0.1,0.45,0.19,0.7,0.25l0.82,0.11l0.02,0c1.69,0,3.01-1.05,3.9-3.12
		c0.68-1.53,1.03-3.26,1.03-5.13c0-2.42-0.6-4.35-1.78-5.76c-1.31-1.53-3.17-2.31-5.53-2.31c-1.94,0-3.43,0.54-5.21,1.41l-0.02,0.01
		c-1.54,0.96-2.09,1.47-3.38,2.81c-0.7,0.88-1.21,1.51-1.77,2.52c-0.2,0.36-0.34,0.65-0.45,0.91c-0.1,0.22-0.2,0.43-0.32,0.64
		c0.2-1.12,0.71-2.31,1.53-3.55c0.94-1.51,2.09-2.72,3.4-3.62c1.93-1.36,4.24-2.05,6.87-2.05c2.44,0,4.51,0.7,6.17,2.08
		c1.77,1.46,2.66,3.41,2.66,5.78c0,2.65-1.03,5.19-3.05,7.54c-1.84,2.12-3.62,3.2-5.3,3.2L21.02,18.62z"/>
	<path d="M21.69,18.84l-0.72-0.11l-0.57-0.27l0.95-1.63l0.1,0.05c0.2,0.1,0.43,0.18,0.68,0.24l0.81,0.11l0.01,0
		c1.64,0,2.91-1.02,3.79-3.05c0.67-1.52,1.02-3.23,1.02-5.08c0-2.39-0.59-4.3-1.75-5.68c-1.29-1.5-3.12-2.27-5.44-2.27
		c-1.92,0-3.4,0.53-5.16,1.4L15.4,2.55c-1.53,0.95-2.07,1.46-3.35,2.79c-0.69,0.86-1.19,1.49-1.75,2.5c-0.2,0.36-0.33,0.64-0.45,0.9
		c-0.1,0.22-0.2,0.43-0.33,0.65L9.17,10L9.3,9.31c0.2-1.13,0.72-2.34,1.54-3.59c0.95-1.52,2.1-2.75,3.43-3.65
		C16.22,0.7,18.55,0,21.21,0c2.46,0,4.57,0.71,6.25,2.1c1.79,1.49,2.7,3.46,2.7,5.87c0,2.68-1.03,5.24-3.08,7.61
		C25.22,17.74,23.41,18.83,21.69,18.84L21.69,18.84z M21.06,18.5l0.65,0.1c1.64-0.01,3.39-1.07,5.2-3.16c2-2.33,3.02-4.84,3.02-7.46
		c0-2.34-0.88-4.25-2.62-5.69c-1.64-1.36-3.69-2.05-6.09-2.05c-2.61,0-4.9,0.68-6.8,2.03c-1.3,0.88-2.44,2.09-3.37,3.58
		c-0.52,0.78-0.91,1.55-1.18,2.29C9.93,8.01,10,7.88,10.08,7.73c0.57-1.02,1.08-1.66,1.78-2.54c1.3-1.36,1.85-1.88,3.41-2.84
		l0.02-0.01c1.8-0.88,3.3-1.42,5.27-1.42c2.4,0,4.29,0.79,5.62,2.35c1.2,1.43,1.81,3.39,1.81,5.83c0,1.89-0.35,3.63-1.04,5.18
		c-0.92,2.12-2.27,3.19-4.01,3.19l-0.02,0l-0.83-0.11c-0.23-0.05-0.44-0.12-0.64-0.21l-0.71,1.22L21.06,18.5z"/>
</g>
<g>
	<path d="M2.87,31.8c-0.92,0-1.73-0.14-2.42-0.41c0.7-0.11,1.44-0.27,2.27-0.49c0.47,0.11,0.98,0.17,1.52,0.17
		c2.34,0,4.67-1.33,6.93-3.95c2.24-2.59,4.48-6.53,6.66-11.7c0.9-2.16,2.34-6.07,4.28-11.62h1.8c-0.76,2.48-1.5,4.76-2.22,6.76
		c-0.74,2.06-1.47,3.91-2.16,5.48c-2.31,5.25-4.89,9.23-7.66,11.85C9.12,30.48,6.09,31.8,2.87,31.8z"/>
	<path d="M2.87,31.92c-0.93,0-1.76-0.14-2.47-0.42L0,31.34l0.43-0.07c0.69-0.11,1.43-0.27,2.26-0.48l0.03-0.01l0.03,0.01
		c0.46,0.11,0.96,0.16,1.5,0.16c2.3,0,4.6-1.32,6.84-3.91c2.23-2.58,4.47-6.51,6.64-11.67c0.9-2.16,2.34-6.06,4.28-11.61l0.03-0.08
		h2.05l-0.05,0.15c-0.76,2.48-1.5,4.76-2.22,6.77c-0.74,2.06-1.47,3.91-2.16,5.49c-2.31,5.26-4.9,9.26-7.69,11.89
		C9.18,30.59,6.12,31.92,2.87,31.92z M0.93,31.42c0.58,0.17,1.23,0.25,1.94,0.25c3.19,0,6.19-1.31,8.92-3.88
		c2.76-2.61,5.33-6.58,7.63-11.81c0.69-1.57,1.42-3.41,2.15-5.47c0.7-1.96,1.43-4.18,2.17-6.6H22.2c-1.92,5.51-3.36,9.39-4.25,11.54
		c-2.19,5.18-4.44,9.13-6.68,11.73c-2.29,2.65-4.65,4-7.02,4c-0.54,0-1.06-0.05-1.52-0.16C2.08,31.19,1.49,31.32,0.93,31.42z"/>
</g>
<path d="M81.72,28c-1.99,0-2.96-0.8-2.96-2.46c0-1.46,1.05-3,3.12-4.59c1.85-1.41,3.42-2.12,4.66-2.12c0.58,0,1.11,0.12,1.56,0.37
	c0.53,0.28,0.79,0.65,0.79,1.15c0,0.64-0.24,1.27-0.71,1.85c-0.48,0.59-1.06,1.03-1.72,1.31l-5.47,2.4l-0.04,0.08l0.03,0.12
	c0.08,0.32,0.22,0.53,0.5,0.87c0.29,0.35,0.6,0.56,0.92,0.61l0.02,0c0.87,0,3.56-0.93,5.72-1.68c0.03-0.01,0.77-0.21,0.8-0.22
	C86.94,26.66,83.15,28,81.72,28z M85.93,19.43c-0.74,0-1.64,0.58-2.75,1.76c-1.23,1.31-1.86,2.65-1.86,4v0.19l0.09,0.07l0.18-0.05
	c1.12-0.32,2.21-0.87,3.24-1.66c1.3-0.97,1.96-1.96,1.96-2.94c0-0.84-0.28-1.3-0.84-1.36L85.93,19.43z"/>
<path d="M51.35,28.06c-0.97,0-1.79-0.27-2.43-0.81c-0.64-0.53-0.96-1.29-0.96-2.25c0-1.64,1.13-3.1,3.35-4.34
	c1.94-1.06,3.86-1.6,5.7-1.6c0.64,0,1.32,0.16,2.02,0.49c0.16,0.11,0.39,0.25,0.68,0.4c-0.03,0.5-0.33,0.74-0.95,0.75l-2-0.64
	c-0.72-0.22-1.25-0.33-1.63-0.33c-1.17,0-2.26,0.61-3.24,1.82c-1,1.22-1.51,2.42-1.51,3.55c0,1.71,1.29,2.12,2.41,2.29
	c0.12,0.02,0.26,0.03,0.41,0.03c0,0,0,0,0,0c1.63,0,4.62-1.04,5.58-2.67c0.41-0.7,0.42-1.42,0.03-2.15
	c-0.15-0.27-0.51-0.71-0.85-0.97c0.16-0.04,0.32-0.06,0.48-0.06c0.2,0,0.42,0.13,0.65,0.39c0.24,0.26,0.36,0.5,0.36,0.7
	c0.02,0.61-0.1,1.22-0.35,1.82c0,0-0.17,0.39-0.18,0.39C57.74,27.5,54.15,28.06,51.35,28.06z"/>
<path d="M27.23,27.39c-0.47,0-0.92-0.15-1.34-0.44c-0.41-0.29-0.61-0.64-0.61-1.07c0-2.17,1.3-4.07,3.86-5.64
	c2.08-1.28,4.09-1.92,5.98-1.92c0.7,0,1.87,0.28,2.03,0.7c0.06,0.16-0.03,0.34-0.27,0.56c-0.21,0.19-0.52,0.28-0.95,0.28
	c-0.49,0-1.07-0.12-1.62-0.24c-0.52-0.11-1.02-0.22-1.43-0.22c-0.07,0-0.15,0-0.21,0.01c-1.01,0.11-2.06,0.74-3.13,1.88
	c-1.2,1.27-1.8,2.58-1.8,3.88c0,0.26,0.09,0.56,0.27,0.9c0.19,0.35,0.42,0.55,0.68,0.58l0.02,0c0.86,0,1.75-0.23,2.66-0.68
	c0.9-0.45,1.65-1.03,2.21-1.71c0.19-0.24,0.37-0.49,0.55-0.73c0.34-0.47,0.7-0.96,1.13-1.35c0.45-0.41,1.33-0.98,1.87-0.99
	c-0.35,0.55-0.42,1.27-0.49,1.97c-0.04,0.45-0.09,0.92-0.21,1.32c-0.45,1.48-1.13,2.35-2.05,2.67c-0.26,0.09-0.53,0.13-0.83,0.13
	c-0.06,0-0.13,0-0.2-0.01c0.16-0.74,0.3-1.5,0.43-2.23l0.04-0.2l-0.23-0.13C31.65,26.49,29.51,27.39,27.23,27.39z"/>
<path d="M38.5,27.37c-0.13,0-0.27-0.27-0.3-1.03c-0.07-2.05,0.89-4.68,2.3-6.23c0.42-0.46,1.28-1.24,1.9-1.24
	c0.19,0,0.35,0.08,0.46,0.24c0.32,0.44-0.15,1.47-0.47,2.15c-0.11,0.24-0.2,0.44-0.26,0.61l0.21,0.17l2.49-1.55
	c0.39-0.24,0.8-0.48,1.24-0.72c0.43-0.23,0.9-0.48,1.41-0.73c0.38,0.11,0.42,0.29,0.42,0.43c0.02,0.44-0.13,1.04-0.46,1.78
	C47.09,22.05,46.4,23,45.62,23l0,0c-0.09,0-0.18-0.01-0.27-0.04c-0.24-0.07-0.39-0.17-0.46-0.31c-0.14-0.32,0.12-0.85,0.36-1.32
	c0.1-0.19,0.19-0.38,0.26-0.55l-0.26-0.1c-0.18,0.45-1.05,0.82-1.75,1.11c-0.38,0.16-0.74,0.31-0.97,0.47
	c-1.14,0.77-1.86,1.93-2.47,3.08C39.04,27.22,38.61,27.37,38.5,27.37z"/>
<path d="M62.97,27.85c0,0-0.95-0.1-1.07-0.18c-0.11-0.08-0.29-0.34-0.29-1.22c0-0.31,0.06-0.67,0.17-1.05l2.05-5.03l-0.06-0.1
	l-0.66-0.05l-0.27,0l-0.88,0.04l-0.19,0.03c0.82-0.64,1.79-1.08,2.88-1.31l0.07-0.01l0.05-0.04l2.78-5.91l0.73-0.43
	c0.19-0.08,0.41-0.13,0.67-0.16c0.19,0,0.39,0.06,0.61,0.17l-2.59,6.13l0.06,0.1l2.66,0.28l-0.15,0.42l-3.49,0.39l-0.06,0.05
	l-2.55,6.96c0,0-0.34,0.83,0.54,0.65c0,0,1.39-0.26,2.57-0.8c0,0-0.01,0.02-0.09,0.23C64.59,28.01,62.97,27.85,62.97,27.85z"/>
</svg>
