<?xml version="1.0" encoding="utf-8"?>
<!-- Generator: Adobe Illustrator 23.0.1, SVG Export Plug-In . SVG Version: 6.00 Build 0)  -->
<svg version="1.1" id="Layer_1" xmlns="http://www.w3.org/2000/svg" xmlns:xlink="http://www.w3.org/1999/xlink" x="0px" y="0px"
	 viewBox="0 0 100 37.87" style="enable-background:new 0 0 100 37.87;" xml:space="preserve">
<style type="text/css">
	.st0{clip-path:url(#SVGID_2_);fill-rule:evenodd;clip-rule:evenodd;fill:#A967AA;}
	.st1{clip-path:url(#SVGID_2_);fill:#39B54A;}
	.st2{clip-path:url(#SVGID_2_);fill:#F7941D;}
	.st3{clip-path:url(#SVGID_2_);fill:#0083CA;}
</style>
<g>
	<defs>
		<rect id="SVGID_1_" width="100" height="37.87"/>
	</defs>
	<clipPath id="SVGID_2_">
		<use xlink:href="#SVGID_1_"  style="overflow:visible;"/>
	</clipPath>
	<path class="st0" d="M27.66,15.39c0.07,0.02,0.13,0.04,0.2,0.07c0.79,0.43,0.81,1.48,0.32,2.38c-0.35,0.64-1.09,1.24-1.79,1.14
		c-0.58-0.08-0.82-0.61-0.88-1.01c-0.06-0.39,0.03-0.87,0.26-1.33C26.17,15.84,26.85,15.3,27.66,15.39"/>
	<path class="st0" d="M24.15,14.27c0.33,0.1,0.59,0.39,0.73,0.64c0.24,0.43,0.32,1.01,0.2,1.62c-0.12,0.63-0.44,1.21-0.95,1.43
		c-0.21,0.09-0.51,0.14-0.8,0.02c-0.28-0.12-0.52-0.44-0.67-0.76c-0.27-0.55-0.31-1.42,0.08-2.19c0.22-0.44,0.62-0.76,1.05-0.81
		C23.91,14.22,24.04,14.24,24.15,14.27"/>
	<path class="st0" d="M29.68,20.37c-0.04,0.11-0.07,0.22-0.11,0.33c-0.22,0.52-0.56,0.88-0.94,1.12c-0.32,0.2-0.88,0.44-1.39,0.21
		c-0.52-0.23-0.63-0.84-0.51-1.36c0.14-0.61,0.56-1.09,0.92-1.35c0.38-0.27,0.95-0.49,1.47-0.29
		C29.67,19.24,29.76,19.83,29.68,20.37"/>
	<path class="st0" d="M19.66,17.6c0.03-0.1,0.07-0.2,0.1-0.3c0.1-0.21,0.22-0.4,0.33-0.51c0.29-0.28,0.85-0.39,1.29-0.05
		c0.38,0.29,0.63,0.78,0.71,1.26c0.09,0.48,0.04,1.19-0.33,1.67c-0.15,0.2-0.36,0.32-0.58,0.38c-0.61,0.16-1.14-0.45-1.33-0.83
		C19.62,18.77,19.53,18.26,19.66,17.6"/>
	<path class="st0" d="M24.43,19.79c0.57,0.15,0.95,0.5,1.22,0.87c0.28,0.38,0.44,0.75,0.6,1.17c0.21,0.58,0.43,1.26,0.48,1.98
		c0.02,0.36,0,0.8-0.26,1.11c-0.27,0.33-0.81,0.41-1.31,0.15c-0.21-0.11-0.37-0.28-0.53-0.42c-0.34-0.3-0.68-0.62-1.16-0.79
		c-0.47-0.17-0.98-0.16-1.45-0.14c-0.46,0.02-1.22,0.04-1.61-0.36c-0.25-0.26-0.41-0.66-0.22-1.14c0.16-0.4,0.54-0.85,0.8-1.12
		c0.31-0.33,0.66-0.61,0.95-0.82c0.49-0.35,1.05-0.59,1.75-0.59C23.93,19.69,24.18,19.72,24.43,19.79"/>
	<path class="st0" d="M75.48,27.49c1.93-0.77,2.7,2.45,1.89,3.72c-0.26,0.41-0.89,0.82-1.48,0.64c-1.37-0.4-1.81-3.09-0.87-4.06
		C75.14,27.67,75.31,27.55,75.48,27.49"/>
	<path class="st0" d="M78.79,26.67c0.69-0.25,1.35,0.18,1.69,0.58c0.89,1.02,1.09,3.28-0.2,3.68c-1.48,0.46-2.79-1.88-2.4-3.36
		C77.98,27.17,78.3,26.84,78.79,26.67"/>
	<path class="st0" d="M73.98,31.35c0.7-0.28,1.02,0.46,1.46,0.84c0.41,0.36,0.86,0.38,0.94,1.18c0.09,0.87-0.71,1.93-1.68,1.8
		c-0.31-0.04-0.68-0.26-0.92-0.56C72.96,33.63,72.8,31.82,73.98,31.35"/>
	<path class="st0" d="M81.86,29.45c0.43-0.22,0.95-0.02,1.22,0.18c1.1,0.81,1.18,3.33-0.25,3.67c-0.64,0.15-1.45-0.28-1.79-0.88
		c-0.09-0.15-0.2-0.55-0.18-0.74c0.03-0.43,0.3-0.6,0.39-0.84C81.37,30.55,81.39,29.68,81.86,29.45"/>
	<path class="st0" d="M78.11,31.37c1.15-0.45,2.13,0.36,2.62,1.16c0.13,0.21,0.21,0.47,0.4,0.69c0.24,0.27,0.62,0.32,0.94,0.42
		c0.47,0.14,1,0.44,1.07,1.15c0.09,0.85-0.86,2.17-1.95,2.19c-0.53,0.01-0.88,0.18-1.36,0.29c-0.62,0.14-0.98,0.44-1.86,0.53
		c-0.79,0.08-1.87-0.36-2.22-1.05c-0.24-0.47-0.13-0.98,0.04-1.26c0.29-0.48,0.84-0.68,0.97-1.14c0.08-0.3-0.01-0.61,0.01-0.88
		C76.81,32.7,77.24,31.71,78.11,31.37"/>
	<path class="st1" d="M5.21,16.96c0,0.21-0.19,0.4-0.4,0.4H2.49c-0.21,0-0.4-0.19-0.4-0.4V3.12c0-0.21,0.19-0.4,0.4-0.4h0.98
		c0.21,0,0.36,0.19,0.44,0.42l0.25,0.69c0,0,0.96-1.32,2.8-1.32c2.36,0,4.14,1.99,4.14,4.39c0,2.95-1.92,4.39-4.16,4.39
		c-0.71,0-1.49-0.25-1.74-0.4V16.96z M6.55,8.6c0.96,0,1.69-0.73,1.69-1.67c0-0.96-0.73-1.71-1.69-1.71c-0.96,0-1.67,0.75-1.67,1.71
		C4.87,7.86,5.58,8.6,6.55,8.6"/>
	<path class="st1" d="M24.36,5.37h-0.54c-0.21,0-0.38-0.19-0.38-0.4V3.12c0-0.23,0.17-0.4,0.38-0.4h0.54V0.4
		c0-0.21,0.19-0.4,0.4-0.4H27c0.21,0,0.38,0.19,0.38,0.4v2.32h1.55c0.23,0,0.4,0.17,0.4,0.4v1.86c0,0.21-0.17,0.4-0.4,0.4h-1.55
		v2.61c0,0.46,0.31,0.5,0.56,0.5c0.29,0,0.61-0.1,0.82-0.15c0.21-0.04,0.4,0.04,0.46,0.27l0.46,1.74c0.04,0.19-0.06,0.42-0.27,0.48
		c0,0-1.48,0.46-2.53,0.46c-1.59,0-2.51-1-2.51-2.91V5.37z"/>
	<path class="st2" d="M14.98,15.68c1.32,0,2.34,0.54,3.14,1.51c0.15,0.19,0.08,0.42-0.1,0.59l-1.25,1.19
		c-0.1,0.1-0.36,0.06-0.46-0.04c-0.29-0.31-0.73-0.54-1.21-0.54c-0.92,0-1.67,0.77-1.67,1.69c0,0.94,0.71,1.69,1.63,1.69
		c0.73,0,1.09-0.31,1.42-0.65c0.15-0.15,0.33-0.19,0.46-0.08l1.25,1.09c0.19,0.17,0.29,0.38,0.15,0.59
		c-0.77,1.17-1.86,1.76-3.37,1.76c-2.38,0-4.5-1.88-4.5-4.39C10.46,17.6,12.6,15.68,14.98,15.68"/>
	<path class="st2" d="M31.21,23.33l0.73-1.44c0.06-0.13,0.27-0.25,0.44-0.17c0,0,0.98,0.54,1.88,0.54c0.21,0,0.4-0.13,0.4-0.38
		c0-0.21-0.13-0.5-1.19-0.88c-1.63-0.56-2.34-1.51-2.34-2.8c0-1.4,1-2.53,3.26-2.53c1.32,0,2.32,0.36,2.78,0.65
		c0.19,0.13,0.33,0.31,0.21,0.52l-0.77,1.42c-0.06,0.13-0.27,0.19-0.44,0.13c0,0-0.96-0.48-1.78-0.48c-0.27,0-0.46,0.06-0.46,0.29
		c0,0.21,0.23,0.42,0.94,0.67c1.69,0.59,2.87,1.25,2.87,2.93c0,1.46-1.17,2.66-3.53,2.66c-1.38,0-2.43-0.36-2.84-0.69
		C31.21,23.65,31.1,23.52,31.21,23.33"/>
	<path class="st2" d="M40.78,18.54h-0.54c-0.21,0-0.38-0.19-0.38-0.4v-1.86c0-0.23,0.17-0.4,0.38-0.4h0.54v-2.32
		c0-0.21,0.19-0.4,0.4-0.4h2.24c0.21,0,0.38,0.19,0.38,0.4v2.32h1.55c0.23,0,0.4,0.17,0.4,0.4v1.86c0,0.21-0.17,0.4-0.4,0.4H43.8
		v2.61c0,0.46,0.31,0.5,0.56,0.5c0.29,0,0.61-0.1,0.82-0.15c0.21-0.04,0.4,0.04,0.46,0.27l0.46,1.74c0.04,0.19-0.06,0.42-0.27,0.48
		c0,0-1.48,0.46-2.53,0.46c-1.59,0-2.51-1-2.51-2.91V18.54z"/>
	<path class="st2" d="M48.5,16.28c0-0.23,0.19-0.4,0.4-0.4h2.24c0.21,0,0.4,0.17,0.4,0.4v3.87c0,0.86,0.48,1.61,1.34,1.61
		c0.82,0,1.26-0.77,1.26-1.48v-3.99c0-0.33,0.23-0.4,0.44-0.4h2.13c0.21,0,0.4,0.17,0.4,0.4v7.57c0,0.21-0.19,0.4-0.4,0.4h-0.98
		c-0.19,0-0.33-0.15-0.4-0.29L55,23.19c-0.54,0.52-1.21,1.28-2.82,1.28c-2.49,0-3.68-2.01-3.68-4.39V16.28z"/>
	<path class="st2" d="M60.4,16.28c0-0.23,0.17-0.4,0.4-0.4h0.96c0.15,0,0.29,0.1,0.36,0.23l0.36,0.86c0.52-0.54,1.48-1.3,2.82-1.3
		c1.17,0,1.99,0.44,2.74,1.28c0.48-0.48,1.46-1.28,2.89-1.28c2.59,0,3.87,2.01,3.87,4.39v3.79c0,0.21-0.17,0.4-0.4,0.4h-2.22
		c-0.23,0-0.4-0.19-0.4-0.4v-3.91c0-0.84-0.44-1.57-1.4-1.57c-0.73,0-1.4,0.61-1.4,1.42v4.06c0,0.21-0.17,0.4-0.4,0.4h-2.01
		c-0.23,0-0.4-0.19-0.4-0.4v-3.91c0-0.84-0.38-1.57-1.32-1.57c-0.84,0-1.46,0.61-1.46,1.46v4.02c0,0.21-0.19,0.4-0.4,0.4h-2.2
		c-0.23,0-0.4-0.19-0.4-0.4V16.28z"/>
	<path class="st2" d="M81.58,15.68c2.13,0,3.97,1.63,3.97,3.93c0,0.15-0.02,0.42-0.04,0.56c-0.02,0.21-0.21,0.36-0.4,0.36H80.1
		c0.06,0.56,0.52,1.38,1.61,1.38c0.52,0,1.13-0.25,1.46-0.5c0.19-0.15,0.4-0.15,0.52,0l1.05,1.25c0.13,0.17,0.17,0.42-0.02,0.61
		c-0.73,0.73-1.78,1.19-3.1,1.19c-2.49,0-4.37-1.99-4.37-4.39C77.25,17.71,79.12,15.68,81.58,15.68 M82.61,18.9
		c-0.04-0.54-0.56-0.98-1.11-0.98c-0.56,0-1.05,0.44-1.13,0.98H82.61z"/>
	<path class="st3" d="M4.52,29.02c1.32,0,2.34,0.54,3.14,1.51c0.15,0.19,0.08,0.42-0.1,0.59l-1.26,1.19
		c-0.1,0.1-0.36,0.06-0.46-0.04c-0.29-0.31-0.73-0.54-1.21-0.54c-0.92,0-1.67,0.77-1.67,1.69c0,0.94,0.71,1.69,1.63,1.69
		c0.73,0,1.09-0.31,1.42-0.65c0.15-0.15,0.33-0.19,0.46-0.08l1.25,1.09c0.19,0.17,0.29,0.38,0.15,0.59C7.09,37.22,6,37.81,4.5,37.81
		c-2.38,0-4.5-1.88-4.5-4.39C0,30.95,2.13,29.02,4.52,29.02"/>
	<path class="st3" d="M14.18,29.02c2.13,0,3.97,1.63,3.97,3.93c0,0.15-0.02,0.42-0.04,0.56c-0.02,0.21-0.21,0.36-0.4,0.36h-5.02
		c0.06,0.56,0.52,1.38,1.61,1.38c0.52,0,1.13-0.25,1.46-0.5c0.19-0.15,0.4-0.15,0.52,0l1.05,1.25c0.13,0.17,0.17,0.42-0.02,0.61
		c-0.73,0.73-1.78,1.19-3.1,1.19c-2.49,0-4.37-1.99-4.37-4.39C9.85,31.05,11.71,29.02,14.18,29.02 M15.2,32.24
		c-0.04-0.54-0.56-0.98-1.11-0.98c-0.56,0-1.05,0.44-1.13,0.98H15.2z"/>
	<path class="st3" d="M20.7,29.63c0-0.23,0.19-0.4,0.4-0.4h0.98c0.13,0,0.31,0.1,0.38,0.25l0.33,0.84c0.46-0.5,1.42-1.3,2.95-1.3
		c2.59,0,3.97,1.99,3.97,4.37v3.81c0,0.21-0.19,0.4-0.4,0.4h-2.24c-0.23,0-0.4-0.19-0.4-0.4v-3.91c0-0.84-0.48-1.57-1.42-1.57
		c-0.84,0-1.59,0.61-1.59,1.46v4.02c0,0.19-0.08,0.4-0.38,0.4h-2.2c-0.21,0-0.4-0.19-0.4-0.4V29.63z"/>
	<path class="st3" d="M33.06,31.89h-0.54c-0.21,0-0.38-0.19-0.38-0.4v-1.86c0-0.23,0.17-0.4,0.38-0.4h0.54v-2.32
		c0-0.21,0.19-0.4,0.4-0.4h2.24c0.21,0,0.38,0.19,0.38,0.4v2.32h1.55c0.23,0,0.4,0.17,0.4,0.4v1.86c0,0.21-0.17,0.4-0.4,0.4h-1.55
		v2.61c0,0.46,0.31,0.5,0.56,0.5c0.29,0,0.61-0.1,0.82-0.15c0.21-0.04,0.4,0.04,0.46,0.27l0.46,1.74c0.04,0.19-0.06,0.42-0.27,0.48
		c0,0-1.49,0.46-2.53,0.46c-1.59,0-2.51-1-2.51-2.91V31.89z"/>
	<path class="st3" d="M44.67,29.02c2.13,0,3.97,1.63,3.97,3.93c0,0.15-0.02,0.42-0.04,0.56c-0.02,0.21-0.21,0.36-0.4,0.36h-5.02
		c0.06,0.56,0.52,1.38,1.61,1.38c0.52,0,1.13-0.25,1.46-0.5c0.19-0.15,0.4-0.15,0.52,0l1.05,1.25c0.13,0.17,0.17,0.42-0.02,0.61
		c-0.73,0.73-1.78,1.19-3.1,1.19c-2.49,0-4.37-1.99-4.37-4.39C40.34,31.05,42.2,29.02,44.67,29.02 M45.69,32.24
		c-0.04-0.54-0.56-0.98-1.11-0.98c-0.56,0-1.05,0.44-1.13,0.98H45.69z"/>
	<path class="st3" d="M51.19,29.63c0-0.23,0.19-0.4,0.4-0.4h0.98c0.23,0,0.31,0.13,0.38,0.25l0.38,0.92
		c0.42-0.61,1.19-1.38,2.28-1.38c1.15,0,1.97,0.42,1.67,0.9l-1.02,1.67c-0.08,0.15-0.23,0.27-0.46,0.19c-0.1-0.04-0.31-0.1-0.5-0.1
		c-0.63,0-1.11,0.48-1.11,1.19v4.33c0,0.25-0.13,0.4-0.46,0.4h-2.13c-0.21,0-0.4-0.19-0.4-0.4V29.63z"/>
	<path class="st3" d="M60.33,33.83c1.09,0,2.01,0.92,2.01,2.01c0,1.07-0.92,1.97-2.01,1.97c-1.07,0-1.97-0.9-1.97-1.97
		C58.36,34.75,59.26,33.83,60.33,33.83"/>
	<path class="st3" d="M68.95,29.02c1.32,0,2.34,0.54,3.14,1.51c0.15,0.19,0.08,0.42-0.1,0.59l-1.25,1.19
		c-0.1,0.1-0.36,0.06-0.46-0.04c-0.29-0.31-0.73-0.54-1.21-0.54c-0.92,0-1.67,0.77-1.67,1.69c0,0.94,0.71,1.69,1.63,1.69
		c0.73,0,1.09-0.31,1.42-0.65c0.15-0.15,0.33-0.19,0.46-0.08l1.25,1.09c0.19,0.17,0.29,0.38,0.15,0.59
		c-0.77,1.17-1.86,1.76-3.37,1.76c-2.38,0-4.5-1.88-4.5-4.39C64.43,30.95,66.56,29.02,68.95,29.02"/>
	<path class="st3" d="M85.61,29.63c0-0.23,0.17-0.4,0.4-0.4h0.96c0.15,0,0.29,0.1,0.36,0.23l0.36,0.86c0.52-0.54,1.48-1.3,2.82-1.3
		c1.17,0,1.99,0.44,2.74,1.28c0.48-0.48,1.46-1.28,2.89-1.28c2.59,0,3.87,2.01,3.87,4.39v3.79c0,0.21-0.17,0.4-0.4,0.4h-2.22
		c-0.23,0-0.4-0.19-0.4-0.4v-3.91c0-0.84-0.44-1.57-1.4-1.57c-0.73,0-1.4,0.61-1.4,1.42v4.06c0,0.21-0.17,0.4-0.4,0.4h-2.01
		c-0.23,0-0.4-0.19-0.4-0.4v-3.91c0-0.84-0.38-1.57-1.32-1.57c-0.84,0-1.46,0.61-1.46,1.46v4.02c0,0.21-0.19,0.4-0.4,0.4h-2.2
		c-0.23,0-0.4-0.19-0.4-0.4V29.63z"/>
	<path class="st1" d="M17.52,2.48c2.13,0,3.97,1.63,3.97,3.93c0,0.15-0.02,0.42-0.04,0.56c-0.02,0.21-0.21,0.36-0.4,0.36h-5.02
		c0.06,0.56,0.52,1.38,1.61,1.38c0.52,0,1.13-0.25,1.46-0.5c0.19-0.15,0.4-0.15,0.52,0l1.05,1.25c0.13,0.17,0.17,0.42-0.02,0.61
		c-0.73,0.73-1.78,1.19-3.1,1.19c-2.49,0-4.37-1.99-4.37-4.39C13.19,4.51,15.05,2.48,17.52,2.48 M18.55,5.7
		c-0.04-0.54-0.56-0.98-1.11-0.98c-0.56,0-1.05,0.44-1.13,0.98H18.55z"/>
</g>
</svg>
