<?xml version="1.0" encoding="utf-8"?>
<!-- Generator: Adobe Illustrator 23.0.1, SVG Export Plug-In . SVG Version: 6.00 Build 0)  -->
<svg version="1.1" id="Layer_1" xmlns="http://www.w3.org/2000/svg" xmlns:xlink="http://www.w3.org/1999/xlink" x="0px" y="0px"
	 viewBox="0 0 100 24.73" style="enable-background:new 0 0 100 24.73;" xml:space="preserve">
<path d="M65.21,12.31c0.86,1.02,2.22,1.04,3.13,0.27c0.55-0.46,0.83-1.12,0.65-1.84l3.29-2.76c1.21,2.65-0.38,5.19-2.39,6.88
	c-2.78,2.33-6.26,2.55-8.7-0.36c-2.39-2.84-1.78-6.45,1-8.78c3.21-2.69,7-2.1,9.59,1.08L65.21,12.31z M66.87,7.93
	c-0.67-0.79-1.97-0.91-2.78-0.23c-1.02,0.86-1.12,1.92-0.34,2.85L66.87,7.93z"/>
<path d="M9.09,4.92C9,4.38,8.72,4.06,8.35,3.86C7.99,3.67,7.53,3.58,7.04,3.58c-1.12,0-1.62,0.32-1.62,0.89
	c0,2.33,8.93,0.88,8.93,6.54c0,3.6-3,5.35-7.27,5.35c-4.1,0-6.78-2.4-6.89-5.2h4.88c0.11,0.56,0.41,0.97,0.84,1.23
	c0.41,0.26,0.95,0.39,1.45,0.39c1.27,0,2.11-0.41,2.11-1.14c0-2.35-8.93-0.73-8.93-6.67C0.54,1.66,3.39,0,7.27,0
	c4.32,0,6.28,2.2,6.65,4.92H9.09z"/>
<path d="M21.51,4.32c3.99,0,6.45,2.35,6.45,5.87c0,4.14-2.81,6.09-6.43,6.09c-3.63,0-6.43-1.99-6.43-5.85
	C15.1,6.5,17.69,4.32,21.51,4.32 M19.59,10.19c0,2.14,0.8,3.06,1.94,3.06c1.21,0,1.94-0.93,1.94-3.06c0-1.66-0.73-2.91-1.9-2.85
	C20.04,7.34,19.59,8.91,19.59,10.19"/>
<path d="M36.07,4.64v2.59h-1.88v8.72H29.7V7.23h-1.49V4.64h1.51c0-3.99,1.55-4.64,4.42-4.64h1.92v2.83c-1.47,0-1.99,0-1.88,1.81
	H36.07z"/>
<path d="M44.92,15.95c-5.89,0.32-6.6-0.09-6.6-3.99V7.23h-1.6V4.64h1.66V1.12h4.42v3.52h2.16v2.59H42.8v4.1c0,1.04,0.15,1.4,1.4,1.4
	h0.71V15.95z"/>
<path d="M46.31,0.41h4.49v5.65c0.91-1.14,1.92-1.75,3.43-1.75c2.98,0,4.38,1.75,4.38,4.86v6.78h-4.49V9.97
	c0-1.12-0.3-2.12-1.58-2.12c-1.38,0-1.75,0.88-1.75,2.33v5.76h-4.49V0.41z"/>
<path d="M80.15,4.32c3.99,0,6.45,2.35,6.45,5.87c0,4.14-2.81,6.09-6.43,6.09c-3.63,0-6.43-1.99-6.43-5.85
	C73.74,6.5,76.33,4.32,80.15,4.32 M78.23,10.19c0,2.14,0.8,3.06,1.94,3.06c1.21,0,1.94-0.93,1.94-3.06c0-1.66-0.73-2.91-1.9-2.85
	C78.68,7.34,78.23,8.91,78.23,10.19"/>
<path d="M87.7,4.64h4.1v1.77c1.01-1.36,2.12-2.09,3.82-2.09c2.98,0,4.38,1.75,4.38,4.86v6.78h-4.49V9.97c0-1.12-0.3-2.11-1.58-2.11
	c-1.38,0-1.75,0.88-1.75,2.33v5.76H87.7V4.64z"/>
<g>
	<path d="M3.08,24.66H2.71l-0.63-2.18c-0.02-0.07-0.03-0.16-0.05-0.26H2.02c0,0.03-0.01,0.06-0.02,0.11s-0.02,0.09-0.04,0.15
		l-0.69,2.19H0.9L0,21.69h0.4l0.65,2.31c0.02,0.07,0.03,0.15,0.04,0.26h0.02c0-0.03,0.01-0.07,0.02-0.12
		c0.01-0.04,0.02-0.09,0.04-0.14l0.72-2.3H2.2L2.84,24c0.02,0.07,0.03,0.15,0.04,0.26h0.02c0-0.03,0-0.07,0.01-0.11
		C2.93,24.1,2.94,24.05,2.96,24l0.65-2.31h0.37L3.08,24.66z"/>
	<path d="M8.25,24.73c-0.22,0-0.42-0.04-0.59-0.11c-0.18-0.07-0.32-0.18-0.45-0.31c-0.12-0.13-0.22-0.3-0.28-0.48
		c-0.07-0.19-0.1-0.4-0.1-0.62c0-0.25,0.03-0.47,0.1-0.67c0.07-0.2,0.17-0.36,0.3-0.5c0.13-0.14,0.28-0.24,0.47-0.31
		c0.18-0.07,0.39-0.11,0.61-0.11c0.21,0,0.41,0.04,0.58,0.11c0.17,0.07,0.32,0.17,0.44,0.31c0.12,0.13,0.21,0.3,0.28,0.49
		c0.06,0.19,0.1,0.41,0.1,0.65c0,0.23-0.03,0.44-0.1,0.63C9.53,24,9.43,24.16,9.31,24.3c-0.12,0.14-0.28,0.24-0.45,0.32
		C8.68,24.69,8.48,24.73,8.25,24.73z M8.28,21.94c-0.16,0-0.31,0.03-0.44,0.08c-0.13,0.06-0.24,0.14-0.34,0.25
		c-0.09,0.11-0.17,0.24-0.22,0.4C7.23,22.82,7.21,23,7.21,23.19c0,0.19,0.03,0.35,0.08,0.5c0.05,0.15,0.12,0.28,0.21,0.38
		c0.09,0.11,0.2,0.19,0.34,0.25c0.13,0.06,0.28,0.09,0.44,0.09c0.17,0,0.31-0.03,0.44-0.08s0.24-0.14,0.33-0.24
		c0.09-0.11,0.16-0.23,0.2-0.39c0.05-0.15,0.07-0.33,0.07-0.52c0-0.4-0.09-0.71-0.27-0.92C8.87,22.05,8.61,21.94,8.28,21.94z"/>
	<path d="M14.4,22.07c-0.09-0.06-0.2-0.1-0.34-0.1c-0.1,0-0.19,0.02-0.26,0.06s-0.14,0.09-0.2,0.15c-0.06,0.06-0.11,0.14-0.15,0.22
		c-0.04,0.08-0.07,0.17-0.1,0.26c-0.02,0.09-0.04,0.18-0.05,0.28c-0.01,0.09-0.02,0.18-0.02,0.26v1.46h-0.37v-2.97h0.37v0.64h0.01
		c0.03-0.11,0.08-0.21,0.13-0.29c0.05-0.09,0.11-0.16,0.18-0.22s0.15-0.1,0.23-0.14c0.08-0.03,0.17-0.05,0.26-0.05
		c0.06,0,0.11,0,0.16,0.01c0.05,0.01,0.09,0.02,0.13,0.03V22.07z"/>
	<path d="M19.17,24.66l-1.37-1.45h-0.01v1.45h-0.37v-4.4h0.37v2.81h0.01l1.3-1.39h0.49l-1.39,1.44l1.5,1.54H19.17z"/>
	<path d="M29.5,24.66h-0.37l-0.63-2.18c-0.02-0.07-0.03-0.16-0.05-0.26h-0.01c0,0.03-0.01,0.06-0.02,0.11
		c-0.01,0.04-0.02,0.09-0.04,0.15l-0.69,2.19h-0.36l-0.9-2.97h0.4l0.65,2.31c0.02,0.07,0.03,0.15,0.04,0.26h0.02
		c0-0.03,0.01-0.07,0.02-0.12c0.01-0.04,0.02-0.09,0.04-0.14l0.72-2.3h0.31L29.26,24c0.02,0.07,0.03,0.15,0.04,0.26h0.02
		c0-0.03,0-0.07,0.01-0.11c0.01-0.04,0.02-0.09,0.04-0.14l0.65-2.31h0.37L29.5,24.66z"/>
	<path d="M33.64,20.93c-0.07,0-0.13-0.03-0.19-0.08c-0.05-0.05-0.08-0.11-0.08-0.19c0-0.08,0.03-0.14,0.08-0.19
		c0.05-0.05,0.11-0.07,0.19-0.07c0.04,0,0.07,0.01,0.1,0.02c0.03,0.01,0.06,0.03,0.09,0.05c0.02,0.02,0.04,0.05,0.06,0.08
		c0.01,0.03,0.02,0.07,0.02,0.11c0,0.04-0.01,0.07-0.02,0.1c-0.01,0.03-0.03,0.06-0.06,0.09c-0.03,0.02-0.05,0.04-0.09,0.06
		S33.68,20.93,33.64,20.93z M33.45,24.66v-2.97h0.37v2.97H33.45z"/>
	<path d="M38.54,24.63c-0.13,0.06-0.27,0.1-0.42,0.1c-0.48,0-0.72-0.28-0.72-0.83v-1.88h-0.52v-0.33h0.52v-0.75l0.37-0.12v0.87h0.77
		v0.33h-0.77v1.82c0,0.2,0.03,0.35,0.1,0.44c0.07,0.09,0.18,0.13,0.33,0.13c0.12,0,0.23-0.03,0.33-0.1V24.63z"/>
	<path d="M43.64,24.66v-1.75c0-0.33-0.06-0.58-0.18-0.74c-0.12-0.16-0.31-0.24-0.56-0.24c-0.12,0-0.23,0.02-0.34,0.07
		c-0.11,0.05-0.2,0.12-0.28,0.21c-0.08,0.09-0.15,0.2-0.19,0.33c-0.05,0.13-0.07,0.28-0.07,0.44v1.66h-0.37v-4.4h0.37v1.94h0.01
		c0.23-0.39,0.57-0.58,1-0.58c0.33,0,0.58,0.1,0.75,0.31c0.17,0.2,0.25,0.5,0.25,0.9v1.84H43.64z"/>
	<path d="M51.69,20.93c-0.07,0-0.13-0.03-0.19-0.08c-0.05-0.05-0.08-0.11-0.08-0.19c0-0.08,0.03-0.14,0.08-0.19
		c0.05-0.05,0.11-0.07,0.19-0.07c0.04,0,0.07,0.01,0.1,0.02c0.03,0.01,0.06,0.03,0.09,0.05c0.02,0.02,0.04,0.05,0.06,0.08
		s0.02,0.07,0.02,0.11c0,0.04-0.01,0.07-0.02,0.1c-0.01,0.03-0.03,0.06-0.06,0.09c-0.03,0.02-0.05,0.04-0.09,0.06
		S51.72,20.93,51.69,20.93z M51.5,24.66v-2.97h0.37v2.97H51.5z"/>
	<path d="M57.32,24.66v-1.71c0-0.67-0.24-1.01-0.73-1.01c-0.13,0-0.25,0.03-0.36,0.08c-0.11,0.05-0.21,0.12-0.29,0.21
		c-0.08,0.09-0.14,0.2-0.19,0.32c-0.05,0.12-0.07,0.26-0.07,0.41v1.7h-0.37v-2.97h0.37v0.52h0.01c0.22-0.39,0.55-0.59,1-0.59
		c0.33,0,0.57,0.11,0.74,0.32c0.17,0.21,0.26,0.52,0.26,0.92v1.81H57.32z"/>
	<path d="M63.07,24.66v-1.71c0-0.67-0.24-1.01-0.73-1.01c-0.13,0-0.25,0.03-0.36,0.08c-0.11,0.05-0.21,0.12-0.29,0.21
		c-0.08,0.09-0.14,0.2-0.19,0.32c-0.05,0.12-0.07,0.26-0.07,0.41v1.7h-0.37v-2.97h0.37v0.52h0.01c0.22-0.39,0.55-0.59,1-0.59
		c0.33,0,0.57,0.11,0.74,0.32c0.17,0.21,0.26,0.52,0.26,0.92v1.81H63.07z"/>
	<path d="M68.04,24.73c-0.22,0-0.42-0.04-0.59-0.11c-0.18-0.07-0.32-0.18-0.45-0.31s-0.22-0.3-0.28-0.48
		c-0.07-0.19-0.1-0.4-0.1-0.62c0-0.25,0.03-0.47,0.1-0.67c0.07-0.2,0.17-0.36,0.3-0.5s0.28-0.24,0.47-0.31
		c0.18-0.07,0.39-0.11,0.61-0.11c0.21,0,0.41,0.04,0.58,0.11c0.17,0.07,0.32,0.17,0.44,0.31c0.12,0.13,0.21,0.3,0.28,0.49
		c0.06,0.19,0.1,0.41,0.1,0.65c0,0.23-0.03,0.44-0.1,0.63c-0.07,0.19-0.16,0.35-0.29,0.49s-0.27,0.24-0.45,0.32
		C68.47,24.69,68.26,24.73,68.04,24.73z M68.07,21.94c-0.16,0-0.31,0.03-0.44,0.08c-0.13,0.06-0.24,0.14-0.34,0.25
		s-0.17,0.24-0.22,0.4C67.02,22.82,67,23,67,23.19c0,0.19,0.03,0.35,0.08,0.5c0.05,0.15,0.12,0.28,0.21,0.38
		c0.09,0.11,0.2,0.19,0.34,0.25s0.28,0.09,0.44,0.09c0.17,0,0.31-0.03,0.44-0.08s0.24-0.14,0.33-0.24s0.16-0.23,0.2-0.39
		c0.05-0.15,0.07-0.33,0.07-0.52c0-0.4-0.09-0.71-0.27-0.92C68.65,22.05,68.4,21.94,68.07,21.94z"/>
	<path d="M73.77,24.66h-0.35l-1.14-2.97h0.41l0.82,2.27c0.05,0.14,0.08,0.26,0.1,0.36h0.01c0.02-0.14,0.05-0.26,0.09-0.35l0.85-2.28
		h0.4L73.77,24.66z"/>
	<path d="M79.68,24.66v-0.53h-0.01c-0.1,0.19-0.23,0.34-0.4,0.44s-0.36,0.16-0.57,0.16c-0.14,0-0.27-0.02-0.39-0.06
		c-0.12-0.04-0.21-0.1-0.29-0.17c-0.08-0.07-0.14-0.16-0.19-0.27c-0.04-0.1-0.07-0.22-0.07-0.35c0-0.27,0.08-0.48,0.25-0.64
		c0.17-0.16,0.42-0.26,0.76-0.31l0.9-0.13c0-0.57-0.22-0.86-0.67-0.86c-0.35,0-0.67,0.13-0.96,0.38v-0.41
		c0.06-0.04,0.13-0.08,0.21-0.12c0.08-0.04,0.16-0.07,0.25-0.09c0.09-0.03,0.18-0.05,0.27-0.06c0.09-0.01,0.18-0.02,0.27-0.02
		c0.33,0,0.58,0.09,0.75,0.28c0.17,0.19,0.25,0.46,0.25,0.83v1.93H79.68z M78.91,23.22c-0.13,0.02-0.25,0.04-0.34,0.07
		c-0.09,0.03-0.17,0.07-0.24,0.12c-0.06,0.05-0.11,0.11-0.14,0.18s-0.04,0.16-0.04,0.27c0,0.08,0.01,0.15,0.04,0.22
		c0.03,0.07,0.07,0.13,0.12,0.18c0.05,0.05,0.12,0.09,0.19,0.11c0.08,0.03,0.16,0.04,0.26,0.04c0.13,0,0.25-0.03,0.36-0.08
		s0.21-0.12,0.29-0.21c0.08-0.09,0.14-0.2,0.19-0.32s0.07-0.26,0.07-0.4v-0.29L78.91,23.22z"/>
	<path d="M84.7,24.63c-0.13,0.06-0.27,0.1-0.42,0.1c-0.48,0-0.72-0.28-0.72-0.83v-1.88h-0.52v-0.33h0.52v-0.75l0.37-0.12v0.87h0.77
		v0.33h-0.77v1.82c0,0.2,0.03,0.35,0.1,0.44c0.07,0.09,0.18,0.13,0.33,0.13c0.12,0,0.23-0.03,0.33-0.1V24.63z"/>
	<path d="M89.01,24.73c-0.22,0-0.42-0.04-0.59-0.11c-0.18-0.07-0.32-0.18-0.45-0.31c-0.12-0.13-0.22-0.3-0.28-0.48
		c-0.07-0.19-0.1-0.4-0.1-0.62c0-0.25,0.03-0.47,0.1-0.67c0.07-0.2,0.17-0.36,0.3-0.5s0.28-0.24,0.47-0.31
		c0.18-0.07,0.39-0.11,0.61-0.11c0.21,0,0.41,0.04,0.58,0.11c0.17,0.07,0.32,0.17,0.44,0.31s0.21,0.3,0.28,0.49
		c0.06,0.19,0.1,0.41,0.1,0.65c0,0.23-0.03,0.44-0.1,0.63c-0.07,0.19-0.16,0.35-0.29,0.49s-0.27,0.24-0.45,0.32
		C89.44,24.69,89.24,24.73,89.01,24.73z M89.04,21.94c-0.16,0-0.31,0.03-0.44,0.08c-0.13,0.06-0.24,0.14-0.34,0.25
		s-0.17,0.24-0.22,0.4C88,22.82,87.97,23,87.97,23.19c0,0.19,0.03,0.35,0.08,0.5c0.05,0.15,0.12,0.28,0.21,0.38
		c0.09,0.11,0.2,0.19,0.34,0.25s0.28,0.09,0.44,0.09c0.17,0,0.31-0.03,0.44-0.08c0.13-0.06,0.24-0.14,0.33-0.24s0.16-0.23,0.2-0.39
		c0.05-0.15,0.07-0.33,0.07-0.52c0-0.4-0.09-0.71-0.27-0.92C89.63,22.05,89.37,21.94,89.04,21.94z"/>
	<path d="M95.16,22.07c-0.09-0.06-0.2-0.1-0.34-0.1c-0.1,0-0.19,0.02-0.26,0.06s-0.14,0.09-0.2,0.15c-0.06,0.06-0.11,0.14-0.15,0.22
		c-0.04,0.08-0.07,0.17-0.1,0.26c-0.02,0.09-0.04,0.18-0.05,0.28c-0.01,0.09-0.02,0.18-0.02,0.26v1.46h-0.37v-2.97h0.37v0.64h0.01
		c0.03-0.11,0.08-0.21,0.13-0.29s0.11-0.16,0.18-0.22c0.07-0.06,0.15-0.1,0.23-0.14s0.17-0.05,0.26-0.05c0.06,0,0.11,0,0.16,0.01
		c0.05,0.01,0.09,0.02,0.13,0.03V22.07z"/>
	<path d="M98.02,24.13c0.06,0.04,0.12,0.08,0.18,0.12s0.13,0.06,0.2,0.09c0.07,0.03,0.14,0.04,0.21,0.06
		c0.07,0.01,0.14,0.02,0.2,0.02c0.44,0,0.66-0.17,0.66-0.5c0-0.08-0.02-0.14-0.05-0.2c-0.03-0.06-0.08-0.11-0.13-0.15
		c-0.06-0.05-0.13-0.09-0.21-0.13c-0.08-0.04-0.17-0.08-0.28-0.12c-0.14-0.06-0.26-0.11-0.35-0.17c-0.1-0.06-0.18-0.12-0.24-0.19
		c-0.06-0.07-0.11-0.14-0.14-0.23c-0.03-0.08-0.05-0.18-0.05-0.28c0-0.13,0.03-0.25,0.09-0.35s0.13-0.19,0.23-0.26
		c0.1-0.07,0.21-0.13,0.34-0.16c0.13-0.04,0.26-0.06,0.4-0.06c0.26,0,0.48,0.05,0.67,0.15v0.39c-0.22-0.14-0.46-0.21-0.72-0.21
		c-0.09,0-0.18,0.01-0.25,0.03c-0.08,0.02-0.14,0.06-0.2,0.1c-0.05,0.04-0.1,0.09-0.13,0.15c-0.03,0.06-0.05,0.12-0.05,0.2
		c0,0.07,0.01,0.14,0.03,0.19c0.02,0.06,0.06,0.1,0.11,0.15c0.05,0.04,0.11,0.09,0.19,0.13s0.17,0.08,0.29,0.13
		c0.14,0.06,0.27,0.12,0.37,0.17c0.1,0.06,0.19,0.12,0.26,0.19c0.07,0.07,0.12,0.14,0.15,0.22c0.03,0.08,0.05,0.18,0.05,0.29
		c0,0.13-0.03,0.25-0.08,0.36s-0.13,0.19-0.23,0.26c-0.1,0.07-0.21,0.13-0.34,0.16s-0.27,0.06-0.43,0.06c-0.3,0-0.55-0.06-0.76-0.19
		V24.13z"/>
</g>
</svg>
