<?xml version="1.0" encoding="utf-8"?>
<!-- Generator: Adobe Illustrator 23.0.1, SVG Export Plug-In . SVG Version: 6.00 Build 0)  -->
<svg version="1.1" id="Layer_1" xmlns="http://www.w3.org/2000/svg" xmlns:xlink="http://www.w3.org/1999/xlink" x="0px" y="0px"
	 viewBox="0 0 100 27.76" style="enable-background:new 0 0 100 27.76;" xml:space="preserve">
<style type="text/css">
	.st0{fill:#00A1AF;}
	.st1{fill:#82BC00;}
	.st2{fill:#002D73;}
</style>
<path class="st0" d="M5.43,23.18c0.28,0.34,0.59,0.65,0.9,0.96c2.98,2.88,7.59,4.34,12.07,3.27c4.44-1.01,8.38-4.63,9.82-9.23
	l-7.76-1.94c-0.2,2.23-1.59,4.39-3.89,5.48c-2.25,1.09-5.28,0.92-7.73-0.65c-0.3-0.2-0.6-0.4-0.89-0.64L5.43,23.18z"/>
<path class="st1" d="M16.07,14.37c0,1.04-0.84,1.88-1.88,1.88s-1.88-0.84-1.88-1.88s0.84-1.88,1.88-1.88S16.07,13.33,16.07,14.37"/>
<path class="st2" d="M19.24,0.96C11.9-1.52,6.87,1.6,6.87,1.6l3.97,6.65c0,0,4.54-3.54,8.66-0.05c4.12,3.49,4.41,11.6-3.18,16.46
	c0,0,8.41,0.13,11.11-7.12C29.38,12.29,28.07,4.34,19.24,0.96"/>
<path class="st1" d="M7.69,3.05c-3.7,1.66-6.23,4.86-7.26,8.78c-1.21,4.39,0.12,9.57,3.5,13.02l1.58-1.73l2.23-2.45l1.58-1.73
	c-1.88-1.24-3.12-3.5-3-6.03c0.1-2.18,1.12-8.63,12.32-9.12C18.65,3.81,13.26,0.56,7.69,3.05"/>
<path class="st0" d="M8.11,20.5c-1.98-1.63-3.5-4.31-3.62-7.11c-0.18-3.2,1.34-6.62,4.27-8.63C5.52,6.17,3.02,9.47,2.5,13.29
	c-0.5,3.4,0.65,7.22,3.05,10.04L8.11,20.5z"/>
<path class="st0" d="M5.43,23.18c0.28,0.34,0.59,0.65,0.9,0.96c2.98,2.88,7.59,4.34,12.07,3.27c4.44-1.01,8.38-4.63,9.82-9.23
	l-7.76-1.94c-0.2,2.23-1.59,4.39-3.89,5.48c-2.25,1.09-5.28,0.92-7.73-0.65c-0.3-0.2-0.6-0.4-0.89-0.64L5.43,23.18z"/>
<path class="st1" d="M16.07,14.37c0,1.04-0.84,1.88-1.88,1.88s-1.88-0.84-1.88-1.88s0.84-1.88,1.88-1.88S16.07,13.33,16.07,14.37"/>
<path class="st2" d="M19.24,0.96C11.9-1.52,6.87,1.6,6.87,1.6l3.97,6.65c0,0,4.54-3.54,8.66-0.05c4.12,3.49,4.41,11.6-3.18,16.46
	c0,0,8.41,0.13,11.11-7.12C29.38,12.29,28.07,4.34,19.24,0.96"/>
<path class="st1" d="M7.69,3.05c-3.7,1.66-6.23,4.86-7.26,8.78c-1.21,4.39,0.12,9.57,3.5,13.02l1.58-1.73l2.23-2.45l1.58-1.73
	c-1.88-1.24-3.12-3.5-3-6.03c0.1-2.18,1.12-8.63,12.32-9.12C18.65,3.81,13.26,0.56,7.69,3.05"/>
<path class="st0" d="M8.11,20.5c-1.98-1.63-3.5-4.31-3.62-7.11c-0.18-3.2,1.34-6.62,4.27-8.63C5.52,6.17,3.02,9.47,2.5,13.29
	c-0.5,3.4,0.65,7.22,3.05,10.04L8.11,20.5z"/>
<polygon class="st0" points="46.72,14.83 51.05,14.83 51.05,16.44 48.37,16.44 48.37,18 51.05,18 51.05,19.61 48.37,19.61 
	48.37,23.52 46.72,23.52 "/>
<path class="st0" d="M55.36,16.91c0.6,0,1.17,0.15,1.71,0.45c0.54,0.3,0.96,0.72,1.26,1.24c0.3,0.52,0.45,1.09,0.45,1.69
	c0,0.6-0.15,1.17-0.45,1.71c-0.3,0.52-0.72,0.94-1.24,1.24c-0.52,0.3-1.09,0.45-1.73,0.45c-0.92,0-1.71-0.34-2.36-0.99
	s-0.97-1.46-0.97-2.4c0-1.01,0.37-1.84,1.11-2.51C53.78,17.21,54.52,16.91,55.36,16.91 M55.39,18.42c-0.5,0-0.92,0.18-1.26,0.54
	c-0.34,0.35-0.5,0.8-0.5,1.36c0,0.57,0.17,1.02,0.49,1.37c0.34,0.35,0.75,0.52,1.26,0.52c0.5,0,0.92-0.18,1.26-0.54
	c0.34-0.35,0.5-0.8,0.5-1.37c0-0.55-0.17-1.01-0.49-1.36C56.33,18.61,55.91,18.42,55.39,18.42"/>
<path class="st0" d="M59.71,17.08h1.41v0.82c0.15-0.32,0.34-0.57,0.59-0.74c0.25-0.17,0.5-0.25,0.8-0.25c0.2,0,0.42,0.05,0.64,0.17
	l-0.49,1.39c-0.18-0.1-0.34-0.13-0.47-0.13c-0.25,0-0.45,0.15-0.62,0.47c-0.17,0.3-0.25,0.9-0.25,1.81v0.32v2.6h-1.61L59.71,17.08
	L59.71,17.08z"/>
<polygon class="st0" points="67.49,14.83 69.13,14.83 69.13,21.91 71.59,21.91 71.59,23.52 67.49,23.52 "/>
<path class="st0" d="M73.29,14.45c0.28,0,0.52,0.1,0.7,0.3c0.2,0.2,0.3,0.45,0.3,0.74c0,0.28-0.1,0.54-0.3,0.74
	c-0.2,0.2-0.44,0.3-0.7,0.3c-0.28,0-0.52-0.1-0.72-0.3c-0.2-0.2-0.3-0.45-0.3-0.75c0-0.28,0.1-0.52,0.3-0.72S73,14.45,73.29,14.45
	 M72.48,17.08h1.61v6.44h-1.61V17.08z"/>
<path class="st0" d="M74.8,17.08h0.59c0-0.84,0.02-1.34,0.03-1.49c0.05-0.35,0.18-0.64,0.44-0.84c0.25-0.2,0.62-0.32,1.07-0.32
	c0.34,0,0.7,0.08,1.12,0.23v1.26c-0.23-0.07-0.42-0.1-0.57-0.1c-0.18,0-0.34,0.03-0.42,0.12c-0.07,0.05-0.1,0.18-0.1,0.35v0.79h1.02
	v1.36h-1.01v5.08h-1.61v-5.06h-0.59v-1.37H74.8z"/>
<path class="st0" d="M85.37,20.75h-5.18c0.07,0.47,0.27,0.84,0.6,1.11c0.32,0.27,0.74,0.4,1.24,0.4c0.6,0,1.12-0.22,1.54-0.64
	l1.36,0.64c-0.34,0.49-0.74,0.84-1.21,1.07c-0.47,0.23-1.04,0.35-1.68,0.35c-1.01,0-1.83-0.32-2.46-0.96
	c-0.64-0.64-0.96-1.44-0.96-2.4c0-0.99,0.32-1.79,0.96-2.45c0.64-0.65,1.42-0.97,2.38-0.97c1.01,0,1.84,0.32,2.46,0.97
	c0.64,0.65,0.96,1.49,0.96,2.56L85.37,20.75z M83.76,19.49c-0.1-0.35-0.32-0.64-0.64-0.87c-0.32-0.22-0.67-0.34-1.09-0.34
	c-0.45,0-0.84,0.12-1.19,0.37c-0.22,0.15-0.42,0.44-0.59,0.82h3.5V19.49z"/>
<path class="st0" d="M86.86,22.36c0.12,0,0.18-0.02,0.18-0.15c0-0.12-0.13-0.13-0.23-0.13h-0.18v0.28L86.86,22.36L86.86,22.36z
	 M86.63,23.06h-0.27v-1.19h0.45c0.32,0,0.5,0.08,0.5,0.35c0,0.22-0.13,0.3-0.3,0.3l0.32,0.52h-0.32l-0.28-0.5h-0.12v0.52H86.63z
	 M86.81,21.62c-0.45,0-0.82,0.34-0.82,0.84c0,0.5,0.37,0.84,0.82,0.84l0,0l0,0c0.44,0,0.82-0.34,0.82-0.85
	C87.63,21.96,87.26,21.62,86.81,21.62 M86.81,23.58c-0.6,0-1.16-0.4-1.16-1.11c0-0.7,0.54-1.11,1.16-1.11c0.6,0,1.16,0.4,1.16,1.11
	C87.97,23.16,87.41,23.58,86.81,23.58"/>
<polygon class="st2" points="32.11,3.91 37.27,3.91 37.27,5.67 35.56,5.67 35.56,13.24 33.77,13.24 33.77,5.67 32.11,5.67 "/>
<path class="st2" d="M42.84,6.34h1.73v6.9h-1.73V12.5c-0.34,0.32-0.69,0.55-1.02,0.69c-0.34,0.13-0.72,0.22-1.11,0.22
	c-0.89,0-1.68-0.35-2.33-1.04c-0.65-0.69-0.97-1.54-0.97-2.56c0-1.06,0.32-1.93,0.96-2.61s1.41-1.02,2.31-1.02
	c0.42,0,0.8,0.08,1.17,0.23c0.37,0.15,0.7,0.39,1.01,0.69V6.34H42.84z M41.01,7.76c-0.54,0-0.99,0.18-1.34,0.57
	c-0.35,0.37-0.54,0.85-0.54,1.46c0,0.59,0.18,1.09,0.54,1.46c0.37,0.39,0.8,0.57,1.34,0.57c0.55,0,1.01-0.18,1.36-0.57
	c0.35-0.37,0.54-0.87,0.54-1.47c0-0.6-0.18-1.09-0.54-1.46C42.02,7.95,41.55,7.76,41.01,7.76"/>
<polygon class="st2" points="45.77,3.69 47.5,3.69 47.5,9.19 50.04,6.34 52.19,6.34 49.27,9.62 52.61,13.24 50.43,13.24 47.5,10.06 
	47.5,13.24 45.77,13.24 "/>
<path class="st2" d="M59.65,10.28h-5.56c0.08,0.49,0.3,0.89,0.64,1.17c0.35,0.28,0.79,0.44,1.32,0.44c0.64,0,1.21-0.23,1.66-0.69
	l1.46,0.69c-0.37,0.52-0.8,0.9-1.31,1.16c-0.5,0.25-1.11,0.37-1.81,0.37c-1.07,0-1.96-0.34-2.65-1.02
	c-0.69-0.67-1.02-1.53-1.02-2.55c0-1.06,0.34-1.93,1.02-2.61c0.69-0.69,1.53-1.04,2.55-1.04c1.09,0,1.98,0.35,2.65,1.04
	c0.69,0.69,1.02,1.59,1.02,2.73L59.65,10.28z M57.92,8.92C57.8,8.55,57.58,8.23,57.25,8c-0.34-0.23-0.74-0.35-1.17-0.35
	c-0.49,0-0.9,0.13-1.27,0.4c-0.23,0.17-0.44,0.45-0.64,0.87H57.92z"/>
<path class="st2" d="M68.68,5.2l-1.31,1.16c-0.45-0.64-0.92-0.96-1.41-0.96c-0.23,0-0.42,0.07-0.57,0.18
	C65.24,5.7,65.18,5.85,65.18,6c0,0.15,0.05,0.3,0.15,0.44c0.15,0.18,0.57,0.59,1.29,1.19c0.67,0.57,1.09,0.92,1.22,1.07
	c0.35,0.37,0.62,0.7,0.75,1.04c0.15,0.34,0.22,0.69,0.22,1.09c0,0.75-0.27,1.39-0.79,1.89c-0.54,0.5-1.22,0.74-2.06,0.74
	c-0.67,0-1.24-0.17-1.74-0.49c-0.49-0.32-0.92-0.84-1.27-1.53l1.49-0.9c0.45,0.82,0.96,1.24,1.54,1.24c0.3,0,0.55-0.08,0.77-0.27
	c0.2-0.18,0.32-0.39,0.32-0.62c0-0.22-0.08-0.42-0.23-0.64c-0.15-0.22-0.5-0.54-1.02-0.97c-1.02-0.82-1.66-1.46-1.96-1.91
	c-0.3-0.45-0.44-0.9-0.44-1.34c0-0.64,0.25-1.19,0.74-1.66c0.49-0.47,1.11-0.69,1.83-0.69c0.47,0,0.9,0.1,1.32,0.32
	C67.72,4.23,68.19,4.63,68.68,5.2"/>
<path class="st2" d="M69.82,3.69h1.73v3.37c0.34-0.28,0.67-0.5,1.02-0.65c0.34-0.15,0.69-0.22,1.04-0.22c0.69,0,1.26,0.23,1.73,0.7
	c0.4,0.4,0.6,1.01,0.6,1.81v4.54h-1.69v-3.02c0-0.8-0.03-1.34-0.12-1.63c-0.08-0.28-0.2-0.49-0.39-0.64
	c-0.18-0.13-0.4-0.22-0.67-0.22c-0.35,0-0.65,0.12-0.9,0.35s-0.42,0.55-0.52,0.96c-0.05,0.2-0.08,0.69-0.08,1.42v2.77h-1.73V3.69
	H69.82z"/>
<path class="st2" d="M82.15,6.34h1.73v6.9h-1.73V12.5c-0.34,0.32-0.69,0.55-1.02,0.69c-0.34,0.13-0.72,0.22-1.11,0.22
	c-0.89,0-1.68-0.35-2.33-1.04s-0.97-1.54-0.97-2.56c0-1.06,0.32-1.93,0.96-2.61c0.64-0.69,1.41-1.02,2.3-1.02
	c0.42,0,0.8,0.08,1.17,0.23c0.37,0.15,0.7,0.39,1.01,0.69V6.34L82.15,6.34z M80.31,7.76c-0.54,0-0.99,0.18-1.34,0.57
	c-0.35,0.37-0.54,0.85-0.54,1.46c0,0.59,0.18,1.09,0.54,1.46c0.37,0.39,0.8,0.57,1.34,0.57c0.55,0,1.01-0.18,1.36-0.57
	c0.37-0.37,0.54-0.87,0.54-1.47c0-0.6-0.18-1.09-0.54-1.46C81.31,7.95,80.86,7.76,80.31,7.76"/>
<path class="st2" d="M86.79,6.34v0.75c0.32-0.3,0.65-0.54,1.02-0.69s0.75-0.23,1.17-0.23c0.9,0,1.68,0.34,2.3,1.02
	c0.64,0.67,0.96,1.54,0.96,2.61c0,1.02-0.34,1.88-0.99,2.56c-0.65,0.69-1.42,1.04-2.33,1.04c-0.4,0-0.77-0.07-1.11-0.22
	c-0.35-0.13-0.69-0.37-1.02-0.69v3.27h-1.73V6.35h1.73V6.34z M88.62,7.76c-0.55,0-1.01,0.18-1.36,0.55
	c-0.35,0.37-0.54,0.85-0.54,1.46s0.18,1.11,0.54,1.47c0.37,0.37,0.82,0.57,1.36,0.57c0.54,0,0.97-0.18,1.34-0.57
	c0.37-0.39,0.54-0.87,0.54-1.46c0-0.59-0.18-1.07-0.54-1.46C89.61,7.95,89.16,7.76,88.62,7.76"/>
<path class="st2" d="M100,10.28h-5.56c0.08,0.49,0.3,0.89,0.64,1.17c0.35,0.28,0.79,0.44,1.32,0.44c0.65,0,1.19-0.23,1.66-0.69
	l1.46,0.69c-0.37,0.52-0.8,0.9-1.31,1.16c-0.5,0.25-1.11,0.37-1.81,0.37c-1.09,0-1.96-0.34-2.63-1.02
	c-0.69-0.67-1.02-1.53-1.02-2.55c0-1.06,0.34-1.93,1.02-2.61c0.67-0.69,1.53-1.04,2.55-1.04c1.09,0,1.98,0.35,2.65,1.04
	c0.69,0.69,1.02,1.59,1.02,2.73L100,10.28z M98.26,8.92C98.14,8.55,97.92,8.23,97.59,8c-0.34-0.23-0.72-0.35-1.17-0.35
	c-0.49,0-0.9,0.13-1.27,0.4C94.91,8.21,94.7,8.5,94.5,8.92H98.26z"/>
<polygon class="st2" points="32.11,3.91 37.27,3.91 37.27,5.67 35.56,5.67 35.56,13.24 33.77,13.24 33.77,5.67 32.11,5.67 "/>
<path class="st2" d="M42.84,6.34h1.73v6.9h-1.73V12.5c-0.34,0.32-0.69,0.55-1.02,0.69c-0.34,0.13-0.72,0.22-1.11,0.22
	c-0.89,0-1.68-0.35-2.33-1.04c-0.65-0.69-0.97-1.54-0.97-2.56c0-1.06,0.32-1.93,0.96-2.61s1.41-1.02,2.31-1.02
	c0.42,0,0.8,0.08,1.17,0.23c0.37,0.15,0.7,0.39,1.01,0.69V6.34H42.84z M41.01,7.76c-0.54,0-0.99,0.18-1.34,0.57
	c-0.35,0.37-0.54,0.85-0.54,1.46c0,0.59,0.18,1.09,0.54,1.46c0.37,0.39,0.8,0.57,1.34,0.57c0.55,0,1.01-0.18,1.36-0.57
	c0.35-0.37,0.54-0.87,0.54-1.47c0-0.6-0.18-1.09-0.54-1.46C42.02,7.95,41.55,7.76,41.01,7.76"/>
<polygon class="st2" points="45.77,3.69 47.5,3.69 47.5,9.19 50.04,6.34 52.19,6.34 49.27,9.62 52.61,13.24 50.43,13.24 47.5,10.06 
	47.5,13.24 45.77,13.24 "/>
<path class="st2" d="M59.65,10.28h-5.56c0.08,0.49,0.3,0.89,0.64,1.17c0.35,0.28,0.79,0.44,1.32,0.44c0.64,0,1.21-0.23,1.66-0.69
	l1.46,0.69c-0.37,0.52-0.8,0.9-1.31,1.16c-0.5,0.25-1.11,0.37-1.81,0.37c-1.07,0-1.96-0.34-2.65-1.02
	c-0.69-0.67-1.02-1.53-1.02-2.55c0-1.06,0.34-1.93,1.02-2.61c0.69-0.69,1.53-1.04,2.55-1.04c1.09,0,1.98,0.35,2.65,1.04
	c0.69,0.69,1.02,1.59,1.02,2.73L59.65,10.28z M57.92,8.92C57.8,8.55,57.58,8.23,57.25,8c-0.34-0.23-0.74-0.35-1.17-0.35
	c-0.49,0-0.9,0.13-1.27,0.4c-0.23,0.17-0.44,0.45-0.64,0.87H57.92z"/>
<path class="st2" d="M68.68,5.2l-1.31,1.16c-0.45-0.64-0.92-0.96-1.41-0.96c-0.23,0-0.42,0.07-0.57,0.18
	C65.24,5.7,65.18,5.85,65.18,6c0,0.15,0.05,0.3,0.15,0.44c0.15,0.18,0.57,0.59,1.29,1.19c0.67,0.57,1.09,0.92,1.22,1.07
	c0.35,0.37,0.62,0.7,0.75,1.04c0.15,0.34,0.22,0.69,0.22,1.09c0,0.75-0.27,1.39-0.79,1.89c-0.54,0.5-1.22,0.74-2.06,0.74
	c-0.67,0-1.24-0.17-1.74-0.49c-0.49-0.32-0.92-0.84-1.27-1.53l1.49-0.9c0.45,0.82,0.96,1.24,1.54,1.24c0.3,0,0.55-0.08,0.77-0.27
	c0.2-0.18,0.32-0.39,0.32-0.62c0-0.22-0.08-0.42-0.23-0.64c-0.15-0.22-0.5-0.54-1.02-0.97c-1.02-0.82-1.66-1.46-1.96-1.91
	c-0.3-0.45-0.44-0.9-0.44-1.34c0-0.64,0.25-1.19,0.74-1.66c0.49-0.47,1.11-0.69,1.83-0.69c0.47,0,0.9,0.1,1.32,0.32
	C67.72,4.23,68.19,4.63,68.68,5.2"/>
<path class="st2" d="M69.82,3.69h1.73v3.37c0.34-0.28,0.67-0.5,1.02-0.65c0.34-0.15,0.69-0.22,1.04-0.22c0.69,0,1.26,0.23,1.73,0.7
	c0.4,0.4,0.6,1.01,0.6,1.81v4.54h-1.69v-3.02c0-0.8-0.03-1.34-0.12-1.63c-0.08-0.28-0.2-0.49-0.39-0.64
	c-0.18-0.13-0.4-0.22-0.67-0.22c-0.35,0-0.65,0.12-0.9,0.35s-0.42,0.55-0.52,0.96c-0.05,0.2-0.08,0.69-0.08,1.42v2.77h-1.73V3.69
	H69.82z"/>
<path class="st2" d="M82.15,6.34h1.73v6.9h-1.73V12.5c-0.34,0.32-0.69,0.55-1.02,0.69c-0.34,0.13-0.72,0.22-1.11,0.22
	c-0.89,0-1.68-0.35-2.33-1.04s-0.97-1.54-0.97-2.56c0-1.06,0.32-1.93,0.96-2.61c0.64-0.69,1.41-1.02,2.3-1.02
	c0.42,0,0.8,0.08,1.17,0.23c0.37,0.15,0.7,0.39,1.01,0.69V6.34L82.15,6.34z M80.31,7.76c-0.54,0-0.99,0.18-1.34,0.57
	c-0.35,0.37-0.54,0.85-0.54,1.46c0,0.59,0.18,1.09,0.54,1.46c0.37,0.39,0.8,0.57,1.34,0.57c0.55,0,1.01-0.18,1.36-0.57
	c0.37-0.37,0.54-0.87,0.54-1.47c0-0.6-0.18-1.09-0.54-1.46C81.31,7.95,80.86,7.76,80.31,7.76"/>
<path class="st2" d="M86.79,6.34v0.75c0.32-0.3,0.65-0.54,1.02-0.69s0.75-0.23,1.17-0.23c0.9,0,1.68,0.34,2.3,1.02
	c0.64,0.67,0.96,1.54,0.96,2.61c0,1.02-0.34,1.88-0.99,2.56c-0.65,0.69-1.42,1.04-2.33,1.04c-0.4,0-0.77-0.07-1.11-0.22
	c-0.35-0.13-0.69-0.37-1.02-0.69v3.27h-1.73V6.35h1.73V6.34z M88.62,7.76c-0.55,0-1.01,0.18-1.36,0.55
	c-0.35,0.37-0.54,0.85-0.54,1.46s0.18,1.11,0.54,1.47c0.37,0.37,0.82,0.57,1.36,0.57c0.54,0,0.97-0.18,1.34-0.57
	c0.37-0.39,0.54-0.87,0.54-1.46c0-0.59-0.18-1.07-0.54-1.46C89.61,7.95,89.16,7.76,88.62,7.76"/>
<path class="st2" d="M100,10.28h-5.56c0.08,0.49,0.3,0.89,0.64,1.17c0.35,0.28,0.79,0.44,1.32,0.44c0.65,0,1.19-0.23,1.66-0.69
	l1.46,0.69c-0.37,0.52-0.8,0.9-1.31,1.16c-0.5,0.25-1.11,0.37-1.81,0.37c-1.09,0-1.96-0.34-2.63-1.02
	c-0.69-0.67-1.02-1.53-1.02-2.55c0-1.06,0.34-1.93,1.02-2.61c0.67-0.69,1.53-1.04,2.55-1.04c1.09,0,1.98,0.35,2.65,1.04
	c0.69,0.69,1.02,1.59,1.02,2.73L100,10.28z M98.26,8.92C98.14,8.55,97.92,8.23,97.59,8c-0.34-0.23-0.72-0.35-1.17-0.35
	c-0.49,0-0.9,0.13-1.27,0.4C94.91,8.21,94.7,8.5,94.5,8.92H98.26z"/>
<polygon class="st0" points="46.72,14.83 51.05,14.83 51.05,16.44 48.37,16.44 48.37,18 51.05,18 51.05,19.61 48.37,19.61 
	48.37,23.52 46.72,23.52 "/>
<path class="st0" d="M55.36,16.91c0.6,0,1.17,0.15,1.71,0.45c0.54,0.3,0.96,0.72,1.26,1.24c0.3,0.52,0.45,1.09,0.45,1.69
	c0,0.6-0.15,1.17-0.45,1.71c-0.3,0.52-0.72,0.94-1.24,1.24c-0.52,0.3-1.09,0.45-1.73,0.45c-0.92,0-1.71-0.34-2.36-0.99
	s-0.97-1.46-0.97-2.4c0-1.01,0.37-1.84,1.11-2.51C53.78,17.21,54.52,16.91,55.36,16.91 M55.39,18.42c-0.5,0-0.92,0.18-1.26,0.54
	c-0.34,0.35-0.5,0.8-0.5,1.36c0,0.57,0.17,1.02,0.49,1.37c0.34,0.35,0.75,0.52,1.26,0.52c0.5,0,0.92-0.18,1.26-0.54
	c0.34-0.35,0.5-0.8,0.5-1.37c0-0.55-0.17-1.01-0.49-1.36C56.33,18.61,55.91,18.42,55.39,18.42"/>
<path class="st0" d="M59.71,17.08h1.41v0.82c0.15-0.32,0.34-0.57,0.59-0.74c0.25-0.17,0.5-0.25,0.8-0.25c0.2,0,0.42,0.05,0.64,0.17
	l-0.49,1.39c-0.18-0.1-0.34-0.13-0.47-0.13c-0.25,0-0.45,0.15-0.62,0.47c-0.17,0.3-0.25,0.9-0.25,1.81v0.32v2.6h-1.61L59.71,17.08
	L59.71,17.08z"/>
<polygon class="st0" points="67.49,14.83 69.13,14.83 69.13,21.91 71.59,21.91 71.59,23.52 67.49,23.52 "/>
<path class="st0" d="M73.29,14.45c0.28,0,0.52,0.1,0.7,0.3c0.2,0.2,0.3,0.45,0.3,0.74c0,0.28-0.1,0.54-0.3,0.74
	c-0.2,0.2-0.44,0.3-0.7,0.3c-0.28,0-0.52-0.1-0.72-0.3c-0.2-0.2-0.3-0.45-0.3-0.75c0-0.28,0.1-0.52,0.3-0.72S73,14.45,73.29,14.45
	 M72.48,17.08h1.61v6.44h-1.61V17.08z"/>
<path class="st0" d="M74.8,17.08h0.59c0-0.84,0.02-1.34,0.03-1.49c0.05-0.35,0.18-0.64,0.44-0.84c0.25-0.2,0.62-0.32,1.07-0.32
	c0.34,0,0.7,0.08,1.12,0.23v1.26c-0.23-0.07-0.42-0.1-0.57-0.1c-0.18,0-0.34,0.03-0.42,0.12c-0.07,0.05-0.1,0.18-0.1,0.35v0.79h1.02
	v1.36h-1.01v5.08h-1.61v-5.06h-0.59v-1.37H74.8z"/>
<path class="st0" d="M85.37,20.75h-5.18c0.07,0.47,0.27,0.84,0.6,1.11c0.32,0.27,0.74,0.4,1.24,0.4c0.6,0,1.12-0.22,1.54-0.64
	l1.36,0.64c-0.34,0.49-0.74,0.84-1.21,1.07c-0.47,0.23-1.04,0.35-1.68,0.35c-1.01,0-1.83-0.32-2.46-0.96
	c-0.64-0.64-0.96-1.44-0.96-2.4c0-0.99,0.32-1.79,0.96-2.45c0.64-0.65,1.42-0.97,2.38-0.97c1.01,0,1.84,0.32,2.46,0.97
	c0.64,0.65,0.96,1.49,0.96,2.56L85.37,20.75z M83.76,19.49c-0.1-0.35-0.32-0.64-0.64-0.87c-0.32-0.22-0.67-0.34-1.09-0.34
	c-0.45,0-0.84,0.12-1.19,0.37c-0.22,0.15-0.42,0.44-0.59,0.82h3.5V19.49z"/>
<path class="st0" d="M86.86,22.36c0.12,0,0.18-0.02,0.18-0.15c0-0.12-0.13-0.13-0.23-0.13h-0.18v0.28L86.86,22.36L86.86,22.36z
	 M86.63,23.06h-0.27v-1.19h0.45c0.32,0,0.5,0.08,0.5,0.35c0,0.22-0.13,0.3-0.3,0.3l0.32,0.52h-0.32l-0.28-0.5h-0.12v0.52H86.63z
	 M86.81,21.62c-0.45,0-0.82,0.34-0.82,0.84c0,0.5,0.37,0.84,0.82,0.84l0,0l0,0c0.44,0,0.82-0.34,0.82-0.85
	C87.63,21.96,87.26,21.62,86.81,21.62 M86.81,23.58c-0.6,0-1.16-0.4-1.16-1.11c0-0.7,0.54-1.11,1.16-1.11c0.6,0,1.16,0.4,1.16,1.11
	C87.97,23.16,87.41,23.58,86.81,23.58"/>
</svg>
