<!-- Generated by IcoMoon.io -->
<svg version="1.1" xmlns="http://www.w3.org/2000/svg" width="53" height="32" viewBox="0 0 53 32">
<title>logo</title>
<path d="M9.891 13.343c-0.637 1.026-1.305 2.010-1.978 3.036-0.989 1.552-2.010 3.32-4.025 3.567-2.504 0.284-4.025-2.331-3.883-4.52 0.179-2.189 1.094-4.341 1.799-6.424 0.71-2.084 1.273-4.341 2.404-6.251 0.637-1.026 2.331-0.637 2.331 0.637-0.037 2.368-0.884 4.767-1.447 7.061-0.284 1.131-0.563 2.226-0.884 3.32-0.142 0.531-0.353 1.131-0.426 1.694 0-0.037 0 0.352 0 0.458 0-0.105 0.068 0.21 0.105 0.284 0.037 0.142 0.179 0.352 0.21 0.426 0 0 0 0.037 0.037 0.068 0 0 0.037 0.037 0.068 0.037 0.037-0.037 0.105-0.105 0.105-0.105 0.637-0.531 1.058-1.2 1.552-1.905 0.668-0.884 1.305-1.836 1.978-2.72 0.705-0.952 1.342-2.12 2.257-2.857 0.637-0.495 1.731-0.105 1.626 0.742 0.068 0.105 0.105 0.21 0.142 0.352 0.389 1.626 0.81 4.377 2.615 5.083 0.742 0.247 1.41 0.247 2.084-0.037 0.458-0.21 0.81-0.637 1.026-1.131 0.316-0.847 0.389-1.763 0.563-2.578 0.142-0.847 0.068-1.763-0.068-2.615-0.179-1.026-0.316-2.084-0.705-3.073-0.179-0.495-0.426-0.915-0.563-1.447-0.105-0.426-0.389-0.779-0.284-1.236 0.037-0.142 0.21-0.284 0.352-0.284 0.531 0.037 0.81 0.495 1.2 0.779 0.458 0.353 0.668 0.847 0.952 1.342 0.6 1.026 1.2 1.978 1.521 3.104 0.284 0.989 0.352 1.978 0.531 2.967 0.142 1.026 0.247 1.978-0.037 2.999-0.458 1.763-1.657 3.709-3.567 4.13-2.084 0.495-3.741-0.81-5.014-2.294-0.952-1.094-1.447-2.436-1.799-3.815-0.284 0.395-0.531 0.784-0.779 1.205zM31.321 30.89c-1.731 1.236-4.093 1.447-6.035 0.6-2.047-0.884-3.352-2.825-3.567-5.046-0.179-2.189 1.026-4.093 2.504-5.614 1.552-1.626 3.352-3.073 5.119-4.483 0.916-0.742 1.873-1.447 2.825-2.152 0-0.284 0-0.563 0.037-0.847-0.637 0.952-1.484 1.763-2.504 2.257-2.894 1.447-6.14 0.037-7.234-2.931-0.952-2.541-0.495-5.788 0.952-8.050 0.81-1.273 1.905-2.152 3.32-2.578 1.131-0.389 2.683-0.353 3.778 0.068 0.952 0.389 1.731 1.131 2.189 2.047 0.142-1.094 0.316-2.12 0.563-3.178 0.247-0.952 1.799-1.026 2.010 0 0.563 2.894 0.458 5.788 0.426 8.718-0.037 0.668-0.037 1.379-0.037 2.047 0.742-0.495 1.484-0.989 2.257-1.447 0.989-0.6 1.941-1.273 3.104-1.305 0.495 0 0.81 0.563 0.563 0.989-0.637 1.026-1.731 1.552-2.72 2.189s-1.941 1.273-2.894 1.941c-0.142 0.068-0.284 0.179-0.389 0.284-0.037 1.273-0.068 2.578-0.105 3.846-0.068 2.473-0.037 4.977-0.6 7.377-0.489 2.162-1.726 3.993-3.562 5.267zM30.932 26.76c0.705-1.521 0.952-3.494 1.026-5.293 0.037-1.484 0.068-2.967 0.142-4.446-0.563 0.426-1.094 0.884-1.626 1.305-1.552 1.305-3.104 2.646-4.52 4.093-1.131 1.2-2.12 2.683-1.694 4.378 0.389 1.552 1.799 2.683 3.425 2.615 1.589-0.074 2.646-1.31 3.246-2.652zM31.884 8.471c0.179-0.284 0.352-0.531 0.563-0.705 0-0.068 0-0.142 0-0.21-0.352 0.21-0.742 0.068-0.779-0.353-0.037-0.458 0.068-0.915-0.037-1.378-0.063-0.421-0.274-0.81-0.558-1.163-0.531-0.668-1.41-1.094-2.294-0.952-0.847 0.105-1.521 0.779-2.010 1.379-0.637 0.7-0.989 1.478-1.168 2.399-0.179 0.884-0.21 1.731-0.142 2.683 0 0.037 0 0.037 0 0.068 0 0 0 0 0 0.037 0.037 0.105 0.037 0.247 0.068 0.352 0.068 0.247 0.105 0.458 0.179 0.668 0.068 0.247 0 0 0.105 0.247 0.105 0.21 0.21 0.389 0.316 0.563 0.247 0.352 0.705 0.6 1.305 0.563 0.068 0 0.247-0.037 0.284-0.037 0.068 0 0.142-0.037 0.179-0.037 0.247-0.037 0.458-0.105 0.668-0.179 0.389-0.105 0.6-0.247 0.989-0.531 0.742-0.495 1.305-1.2 1.694-2.010 0.216-0.447 0.426-0.942 0.637-1.405zM52.572 3.599c0.179 0.952-0.21 2.257-1.342 2.436-0.668 0.105-1.342-0.068-1.694-0.668-0.179-0.353-0.247-0.668-0.247-1.058 0.037-0.105 0.037-0.21 0.037-0.316 0-0.037 0-0.037 0-0.068-0.068-0.068-0.247-0.316-0.247-0.353-0.037-0.037-0.037-0.037-0.037-0.068-0.037 0-0.068-0.037-0.142-0.068-0.105 0-0.247 0.037-0.352 0.068-0.247 0.105-0.495 0.247-0.705 0.426-0.389 0.316-0.705 0.742-1.058 1.131-0.742 0.884-1.41 1.694-2.047 2.683-0.389 0.668-0.779 1.342-1.2 2.010 0.037 0.884 0.068 1.799 0.105 2.683 0.037 0.705 0.068 1.41 0.068 2.12 0 0.81 0.105 1.552-0.316 2.331-0.531 0.989-2.010 0.916-2.541 0-0.458-0.742-0.352-1.521-0.389-2.331-0.037-0.705-0.037-1.41-0.037-2.12-0.037-1.305-0.037-2.615-0.068-3.92 0-1.342 0.037-2.646 0.105-3.951 0.037-0.705 0.105-1.41 0.142-2.12 0.037-0.705 0.105-1.342 0.389-2.010 0.247-0.6 1.236-0.531 1.521 0 0.316 0.668 0.352 1.305 0.458 2.010 0.068 0.705 0.179 1.41 0.247 2.12 0.105 1.058 0.21 2.152 0.247 3.215 0.284-0.531 0.6-1.058 0.952-1.626 0.779-1.305 1.41-2.789 2.647-3.778 0.284-0.247 0.6-0.458 0.952-0.6 0.179-0.068 0.352-0.142 0.531-0.179 0.179-0.068 0.426-0.105 0.142 0.037 0.426-0.21 0.668-0.353 1.2-0.353 0.352-0.037 0.705-0.037 1.058 0.068 0.916 0.305 1.478 1.294 1.621 2.247zM17.289 3.667l0.526 0.526 6.871 2.383-0.526-0.526zM24.16 6.65c-0.063 0-0.132-0.011-0.195-0.032l-6.871-2.389c-0.31-0.111-0.474-0.447-0.368-0.758 0.11-0.31 0.447-0.474 0.758-0.368l6.871 2.383c0.31 0.111 0.474 0.447 0.368 0.758-0.089 0.247-0.321 0.405-0.563 0.405z"></path>
</svg>
