<?xml version="1.0" encoding="utf-8"?>
<!-- Generator: Adobe Illustrator 17.0.2, SVG Export Plug-In . SVG Version: 6.00 Build 0)  -->
<!DOCTYPE svg PUBLIC "-//W3C//DTD SVG 1.1//EN" "http://www.w3.org/Graphics/SVG/1.1/DTD/svg11.dtd">
<svg version="1.1" id="Layer_1" xmlns="http://www.w3.org/2000/svg" xmlns:xlink="http://www.w3.org/1999/xlink" x="0px" y="0px"
	 width="150px" height="150px" viewBox="0 0 150 150" enable-background="new 0 0 150 150" xml:space="preserve">
<g>
	<path fill-rule="evenodd" clip-rule="evenodd" d="M75,48.061c-14.819,0-26.831,12.062-26.831,26.94S60.182,101.939,75,101.939
		c14.819,0,26.831-12.061,26.831-26.939S89.819,48.061,75,48.061L75,48.061L75,48.061L75,48.061z M61.822,82.805v-2.23l0,0
		c-1.129,1.284-2.416,2.14-4.31,2.13c-4.484-0.025-8.119-3.65-8.119-8.152c0-4.502,3.635-8.151,8.119-8.151
		c4.484,0,8.384,3.621,8.384,8.123l0,0l0.005,8.251L61.822,82.805L61.822,82.805L61.822,82.805z M75.202,82.933
		c-4.484,0-8.384-3.621-8.384-8.123l0,0l-0.005-13.716h4.072l0.006,7.666l0,0c1.13-1.284,2.416-2.14,4.311-2.13
		c4.483,0.025,8.118,3.65,8.118,8.152C83.321,79.284,79.686,82.933,75.202,82.933L75.202,82.933L75.202,82.933L75.202,82.933z
		 M92.66,82.742c-4.484,0-8.119-3.649-8.119-8.151s3.635-8.151,8.119-8.151c3.914,0,7.192,2.869,7.96,6.569l0,0l-4.082-0.013l0,0
		c-0.626-1.485-2.096-2.488-3.803-2.488c-2.275,0-4.121,1.852-4.121,4.137c0,2.285,1.845,4.138,4.121,4.138
		c1.707,0,3.196-0.992,3.821-2.478l0,0l4.082-0.019l0,0C99.88,79.999,96.583,82.742,92.66,82.742L92.66,82.742L92.66,82.742
		L92.66,82.742z"/>
	<path fill-rule="evenodd" clip-rule="evenodd" d="M75.098,70.427c-2.276,0-4.121,1.852-4.121,4.137
		c0,2.285,1.845,4.138,4.121,4.138c2.276,0,4.121-1.853,4.121-4.138C79.219,72.279,77.373,70.427,75.098,70.427L75.098,70.427
		L75.098,70.427L75.098,70.427z"/>
	<path fill-rule="evenodd" clip-rule="evenodd" d="M57.562,70.427c-2.276,0-4.121,1.852-4.121,4.137
		c0,2.285,1.845,4.138,4.121,4.138c2.276,0,4.121-1.853,4.121-4.138C61.683,72.279,59.838,70.427,57.562,70.427L57.562,70.427
		L57.562,70.427L57.562,70.427z"/>
</g>
</svg>
