<?xml version="1.0" encoding="utf-8"?>
<!-- Generator: Adobe Illustrator 17.0.2, SVG Export Plug-In . SVG Version: 6.00 Build 0)  -->
<!DOCTYPE svg PUBLIC "-//W3C//DTD SVG 1.1//EN" "http://www.w3.org/Graphics/SVG/1.1/DTD/svg11.dtd">
<svg version="1.1" id="Layer_1" xmlns="http://www.w3.org/2000/svg" xmlns:xlink="http://www.w3.org/1999/xlink" x="0px" y="0px"
	 width="150px" height="150px" viewBox="0 0 150 150" enable-background="new 0 0 150 150" xml:space="preserve">
<g>
	<path fill="#B2BB1E" d="M31.118,98.652h84.703V51.348H31.118V98.652z M111.67,94.502H35.269V55.498h76.402V94.502z"/>
	<path fill="#231F20" d="M76.915,65.241c0,0-3.293,12.422-3.565,13.747l-3.591-13.747h-6.803v19.067h4.453V70.291l3.888,14.017
		h4.107c0,0,3.793-13.578,3.886-13.988v13.988h4.471V65.241H76.915z"/>
	<path fill="#231F20" d="M60.577,81.27v-9.94c0-2.024-0.037-3.787-2.251-5.136c-1.65-0.978-3.825-1.201-5.626-1.201
		c-1.2,0-5.663,0-7.463,3.263c-0.588,1.061-0.673,1.837-0.747,2.747h-0.001h0.001v0.004l4.611-0.004H49.1
		c0.008-0.421,0.063-0.85,0.449-1.322c0.45-0.6,1.462-1.202,3.338-1.202c3.701,0,3.155,3.73,3.155,3.73s-1.848,0.026-5.781,0.509
		c-1.817,0.224-4.688,0.936-6.039,3.638c-0.374,0.751-0.6,1.615-0.6,2.552c0,3.225,2.551,5.851,6.789,5.851
		c2.588,0,4.576-1.086,5.551-1.915c0,0.263,0.076,1.014,0.114,1.464h4.575C60.577,81.27,60.577,82.696,60.577,81.27 M56.077,77.031
		c0,0.565,0,1.126-0.263,1.687c-0.488,1.126-2.101,2.177-4.391,2.177c-1.799,0-3.038-0.75-3.038-2.213
		c0-1.987,1.864-2.432,3.481-2.635c2.023-0.252,4.211-0.329,4.211-0.329V77.031z"/>
	<path fill="#231F20" d="M103.517,76.902l-4.365,0.011c-0.128,0.527-1.038,3.964-4.44,3.964c-0.05,0-0.597,0-0.646-0.003
		c-2.499-0.078-4.551-2.156-4.551-6.26c0-3.149,1.585-5.981,4.589-6.05c0.038,0,0.571,0,0.609,0c3.111,0,4.201,3.255,4.262,3.454
		l4.362,0.014c-0.845-4.066-4.023-7.383-8.841-7.383c-5.401,0-9.236,4.454-9.236,10.099c0,6.456,4.079,10.127,9.129,10.127
		C100.012,84.875,102.929,80.574,103.517,76.902"/>
	<g>
		<path fill="#B2BB1E" d="M117.132,53.18c0-1.146,0.904-1.807,1.875-1.807c0.972,0,1.875,0.661,1.875,1.807
			c0,1.146-0.903,1.807-1.875,1.807C118.036,54.987,117.132,54.327,117.132,53.18z M120.279,53.18c0-0.787-0.582-1.341-1.272-1.341
			c-0.699,0-1.263,0.554-1.263,1.341c0,0.796,0.564,1.35,1.263,1.35C119.697,54.531,120.279,53.977,120.279,53.18z M118.745,54.162
			h-0.477v-1.962h0.738c0.515,0,0.826,0.136,0.826,0.602c0,0.36-0.214,0.496-0.554,0.515l0.495,0.845h-0.457l-0.446-0.816h-0.126
			V54.162z M119.094,52.996c0.166,0,0.262-0.039,0.262-0.243c0-0.194-0.214-0.204-0.359-0.204h-0.252v0.447H119.094z"/>
	</g>
</g>
</svg>
