<?xml version="1.0" encoding="utf-8"?>
<!-- Generator: Adobe Illustrator 17.0.2, SVG Export Plug-In . SVG Version: 6.00 Build 0)  -->
<!DOCTYPE svg PUBLIC "-//W3C//DTD SVG 1.1//EN" "http://www.w3.org/Graphics/SVG/1.1/DTD/svg11.dtd">
<svg version="1.1" id="Layer_1" xmlns="http://www.w3.org/2000/svg" xmlns:xlink="http://www.w3.org/1999/xlink" x="0px" y="0px"
	 width="150px" height="150px" viewBox="0 0 150 150" enable-background="new 0 0 150 150" xml:space="preserve">
<path d="M52.572,95.187c1.084,0,1.885,0.337,2.622,1.007c0.095,0.088,0.095,0.215,0.009,0.303l-0.845,0.879
	c-0.074,0.076-0.196,0.076-0.27,0c-0.4-0.359-0.932-0.551-1.462-0.551c-1.226,0-2.125,1.015-2.125,2.23
	c0,1.201,0.909,2.198,2.136,2.198c0.507,0,1.06-0.182,1.451-0.52c0.074-0.063,0.216-0.063,0.28,0.011l0.844,0.898
	c0.076,0.081,0.064,0.219-0.01,0.292c-0.738,0.717-1.667,1.056-2.631,1.056c-2.168,0-3.912-1.726-3.912-3.891
	C48.66,96.93,50.404,95.187,52.572,95.187 M61.217,95.187c-2.163,0-3.888,1.743-3.888,3.911c0,2.168,1.725,3.891,3.888,3.891
	c2.162,0,3.898-1.724,3.898-3.891C65.115,96.93,63.379,95.187,61.217,95.187 M61.217,101.252c-1.182,0-2.156-0.974-2.156-2.154
	c0-1.191,0.973-2.176,2.156-2.176c1.191,0,2.162,0.986,2.162,2.176C63.379,100.278,62.408,101.252,61.217,101.252 M67.361,102.639
	c-0.02,0.142,0.076,0.239,0.203,0.239h1.279c0.111,0,0.197-0.088,0.207-0.171l0.477-3.349h0.02l1.835,3.511
	c0.031,0.063,0.116,0.121,0.183,0.121h0.191c0.055,0,0.155-0.058,0.185-0.121l1.821-3.511h0.021l0.489,3.349
	c0.009,0.083,0.105,0.171,0.203,0.171h1.278c0.128,0,0.229-0.097,0.205-0.239l-1.223-7.279c-0.01-0.1-0.107-0.173-0.195-0.173H74.37
	c-0.057,0-0.152,0.041-0.184,0.108l-2.515,4.683h-0.02l-2.515-4.683c-0.032-0.067-0.128-0.108-0.183-0.108h-0.174
	c-0.086,0-0.185,0.074-0.193,0.173L67.361,102.639z M78.759,102.671c0,0.11,0.085,0.206,0.207,0.206h4.482
	c0.116,0,0.207-0.096,0.207-0.206v-1.18c0-0.107-0.091-0.205-0.207-0.205h-2.999v-1.463h2.471c0.105,0,0.201-0.084,0.201-0.204
	v-1.185c0-0.104-0.095-0.202-0.201-0.202h-2.471v-1.345h2.999c0.116,0,0.207-0.095,0.207-0.203V95.5
	c0-0.108-0.091-0.204-0.207-0.204h-4.482c-0.122,0-0.207,0.097-0.207,0.204V102.671z M86.517,102.671
	c0,0.11,0.087,0.206,0.194,0.206h2.643c2.088,0,3.8-1.701,3.8-3.801c0-2.079-1.712-3.781-3.8-3.781H86.71
	c-0.107,0-0.194,0.097-0.194,0.205V102.671z M88.205,101.275v-4.388h1.039c1.223,0,2.113,0.966,2.113,2.189
	c0,1.233-0.889,2.199-2.113,2.199H88.205z M97.132,102.669c0,0.112,0.085,0.208,0.206,0.208h1.287c0.11,0,0.207-0.096,0.207-0.208
	v-3.453l2.427-3.604c0.088-0.143,0-0.317-0.173-0.317h-1.409c-0.098,0-0.139,0.055-0.174,0.097l-1.502,2.221l-1.51-2.221
	c-0.031-0.044-0.085-0.097-0.172-0.097h-1.405c-0.175,0-0.262,0.174-0.175,0.317l2.394,3.613V102.669z M97.595,112.928
	c2.073,0,3.745-1.669,3.745-3.745c0-2.076-1.672-3.725-3.745-3.725c-0.923,0-1.812,0.323-2.52,1.007
	c-0.07,0.07-0.082,0.205-0.009,0.281l0.807,0.863c0.065,0.07,0.199,0.07,0.27,0.01c0.375-0.322,0.905-0.499,1.396-0.499
	c1.169,0,2.04,0.954,2.04,2.106c0,1.163-0.861,2.136-2.036,2.136c-0.507,0-1.016-0.187-1.4-0.527c-0.071-0.073-0.187-0.073-0.258,0
	l-0.809,0.839c-0.082,0.083-0.082,0.207,0.009,0.288C95.792,112.605,96.555,112.928,97.595,112.928 M92.479,105.76
	c0-0.105-0.082-0.197-0.198-0.197h-4.29c-0.115,0-0.198,0.092-0.198,0.197v1.129c0,0.102,0.083,0.198,0.198,0.198h2.87v1.399h-2.364
	c-0.104,0-0.198,0.082-0.198,0.198v1.132c0,0.102,0.094,0.194,0.198,0.194h2.364v1.289h-2.87c-0.115,0-0.198,0.092-0.198,0.194
	v1.135c0,0.101,0.083,0.193,0.198,0.193h4.29c0.116,0,0.198-0.091,0.198-0.193V105.76z M85.052,105.76
	c0-0.105-0.096-0.197-0.197-0.197h-1.234c-0.115,0-0.197,0.092-0.197,0.197v3.871h-0.012l-4.098-4.122
	c-0.023-0.019-0.1-0.051-0.134-0.051h-0.165c-0.102,0-0.195,0.082-0.195,0.189v6.982c0,0.101,0.093,0.193,0.195,0.193h1.245
	c0.117,0,0.198-0.091,0.198-0.193v-3.682h0.009l4.14,3.981h0.26c0.102,0,0.194-0.084,0.194-0.186L85.052,105.76z M74.754,105.759
	c0-0.104-0.093-0.197-0.197-0.197h-1.244c-0.103,0-0.198,0.093-0.198,0.197v5.541h-1.483c-0.114,0-0.195,0.09-0.195,0.194v1.134
	c0,0.101,0.081,0.193,0.195,0.193h4.606c0.112,0,0.197-0.091,0.197-0.193v-1.134c0-0.103-0.084-0.194-0.197-0.194h-1.484V105.759z
	 M69.188,105.76c0-0.105-0.081-0.197-0.195-0.197h-1.236c-0.102,0-0.198,0.092-0.198,0.197v2.646h-0.715l-1.378-2.751
	c-0.023-0.041-0.084-0.092-0.165-0.092h-1.383c-0.176,0-0.246,0.162-0.176,0.301l1.421,2.631c-0.902,0.364-1.529,1.134-1.529,2.083
	c0,1.237,1.012,2.242,2.257,2.242h3.102c0.114,0,0.195-0.091,0.195-0.193V105.76z M67.549,109.721v1.615h-1.532
	c-0.428,0-0.789-0.346-0.789-0.785c0-0.435,0.361-0.83,0.789-0.83H67.549z M61.978,105.832c0.059-0.136-0.021-0.269-0.178-0.269
	h-1.141c-0.208,0-0.321,0.119-0.374,0.247l-0.374,0.829h-2.817l-0.375-0.818c-0.095-0.199-0.177-0.257-0.364-0.257h-1.151
	c-0.155,0-0.237,0.133-0.178,0.269l3.249,6.981c0.031,0.06,0.103,0.115,0.173,0.115h0.104c0.07,0,0.147-0.055,0.179-0.115
	L61.978,105.832 M59.294,108.05l-0.781,1.713h-0.009l-0.789-1.713H59.294z M53.081,105.76c0-0.105-0.085-0.197-0.2-0.197h-3.9
	c-0.113,0-0.192,0.092-0.192,0.197v1.129c0,0.102,0.079,0.197,0.192,0.197h2.47v5.541c0,0.103,0.094,0.194,0.196,0.194h1.233
	c0.115,0,0.2-0.091,0.2-0.194V105.76z M74.084,88.689c14.229,0,25.809-11.576,25.809-25.807c0-14.232-11.58-25.81-25.809-25.81
	c-9.365,0-18.015,5.09-22.569,13.283l4.634,2.575c3.621-6.51,10.492-10.558,17.935-10.558c11.306,0,20.508,9.201,20.508,20.51
	c0,11.306-9.202,20.504-20.508,20.504c-7.534,0-14.451-4.119-18.045-10.756l-4.661,2.527C55.9,83.504,64.6,88.689,74.084,88.689
	 M74.044,75.645c4.71,0,9.023-2.581,11.251-6.733l-4.668-2.508c-1.309,2.429-3.83,3.94-6.583,3.94c-4.116,0-7.464-3.349-7.464-7.463
	c0-4.115,3.348-7.464,7.464-7.464c2.698,0,5.201,1.466,6.52,3.827l4.627-2.586c-2.255-4.037-6.528-6.541-11.147-6.541
	c-7.04,0-12.768,5.724-12.768,12.764C61.276,69.92,67.004,75.645,74.044,75.645 M95.568,80.725c0,0.014,0.013,0.029,0.028,0.029
	h0.057c0.016,0,0.029-0.015,0.029-0.029V79.8h0.263c0.016,0,0.029-0.014,0.029-0.03v-0.044c0-0.015-0.013-0.028-0.029-0.028h-0.64
	c-0.016,0-0.028,0.013-0.028,0.028v0.044c0,0.015,0.012,0.03,0.028,0.03h0.263V80.725z M96.042,80.717
	c-0.004,0.021,0.005,0.037,0.027,0.037h0.06c0.012,0,0.026-0.012,0.028-0.022l0.131-0.776c0.002,0,0.004,0,0.006,0l0.28,0.797
	c0.003,0.009,0.016,0.016,0.025,0.016h0.028c0.009,0,0.022-0.007,0.025-0.016l0.278-0.797c0.001,0,0.005,0,0.006,0l0.134,0.776
	c0.003,0.01,0.015,0.022,0.028,0.022h0.059c0.023,0,0.033-0.015,0.028-0.037l-0.194-1.012c-0.003-0.012-0.015-0.022-0.028-0.022
	H96.94c-0.011,0-0.023,0.008-0.027,0.017l-0.293,0.831c-0.003,0-0.005,0-0.007,0l-0.299-0.831c-0.002-0.008-0.014-0.017-0.025-0.017
	h-0.024c-0.013,0-0.024,0.01-0.027,0.022L96.042,80.717z"/>
</svg>
