<?xml version="1.0" encoding="utf-8"?>
<!-- Generator: Adobe Illustrator 17.0.2, SVG Export Plug-In . SVG Version: 6.00 Build 0)  -->
<!DOCTYPE svg PUBLIC "-//W3C//DTD SVG 1.1//EN" "http://www.w3.org/Graphics/SVG/1.1/DTD/svg11.dtd">
<svg version="1.1" id="Layer_1" xmlns="http://www.w3.org/2000/svg" xmlns:xlink="http://www.w3.org/1999/xlink" x="0px" y="0px"
	 width="150px" height="150px" viewBox="0 0 150 150" enable-background="new 0 0 150 150" xml:space="preserve">
<path fill="#231F20" d="M31.483,72.763c-4.749,0.354-10.823,1.236-10.774,2.899c0.051,1.74,4.528,5.082,10.406,7.26
	C31.389,79.361,31.457,75.587,31.483,72.763z M14.099,54.832c-1.564,0.046-2.744-0.636-2.772-1.591
	c-0.021-0.698,1.507-2.878,2.439-3.231c0.637-0.241,3.74-1.419,8.912-1.573c1.917-0.057,5.172,0.178,7.92,0.585
	c15.998,2.371,32.793,14.571,33.114,25.39c0.219,7.361-6.141,14.267-18.556,14.637c-3.27,0.097-6.313-0.306-9.081-1.033
	c-0.06,1.807,0.075,2.764-2.488,2.84c-1.567,0.046-2.178-2.493-2.409-4.558c-7.495-3.325-12.01-8.728-12.074-10.859
	c-0.094-3.175,5.679-5.823,12.43-6.871c0.095-2.628,0.54-9.321,1.928-9.362c0.558-0.017,1.712,1.277,2.149,3.255
	c0.396,1.798,0.437,5.076,0.441,5.66l0.51-0.019c9.473-0.281,15.151,2.681,15.255,6.189c0.081,2.719-2.326,4.112-3.59,4.149
	c-1.263,0.037-2.743-0.681-2.755-1.072c-0.022-0.748,2.695-0.924,2.659-2.134c-0.054-1.826-7.586-2.626-12.227-2.655
	c-0.007,1.573-0.027,3.472,0.011,4.748c0.036,1.226,0.113,4.393,0.15,7.036c2.105,0.446,4.274,0.686,6.401,0.623
	c5.003-0.148,16.432-1.973,16.176-10.558c-0.356-11.994-24.072-23.013-36.775-22.636c-5.004,0.148-8.006,0.685-7.991,1.177
	c0.01,0.327,2.436,0.454,2.456,1.101C16.352,54.718,14.954,54.807,14.099,54.832z"/>
<path fill-rule="evenodd" clip-rule="evenodd" fill="#231F20" d="M67.335,67.94c0.817-0.024,1.989,1.937,2.025,3.163
	c0.037,1.226,0.33,7.633,0.416,9.479c0.086,1.846,0.025,3.614-0.095,4.432c-0.12,0.818-0.418,1.222-1.822,1.264
	c-1.404,0.041-2.058-0.795-2.178-2.031c-0.119-1.237-0.223-4.746-0.162-6.504c0.061-1.758,0.144-5.121,0.373-7.228
	C66.122,68.409,66.686,67.959,67.335,67.94z"/>
<path fill-rule="evenodd" clip-rule="evenodd" fill="#231F20" d="M75.465,53.546c-0.233-0.582-1.015-1.758-3.806-1.676
	c-6.079,0.181-10.756,4.684-10.651,8.233c0.034,1.153,0.591,2.163,1.408,2.991c-0.213,0.58-0.235,0.967-0.228,1.189
	c0.019,0.616,0.946,2.243,1.659,2.222c0.602-0.018,1.014-0.582,1.594-1.496c0.991,0.383,1.979,0.578,2.762,0.554
	c5.717-0.17,10.903-5.527,10.801-8.954C78.958,55.032,77.936,53.507,75.465,53.546z M66.836,62.06
	c0.703-0.994,4.352-5.88,8.113-5.991c1.104-0.033,1.395,0.65,1.417,1.404c0.035,1.175-2.094,4.609-6.886,4.751
	C68.43,62.256,67.544,62.177,66.836,62.06z M63.862,60.438c-0.087-0.144-0.169-0.372-0.179-0.728
	c-0.024-0.785,1.332-3.793,4.742-4.04c-0.869,0.596-1.748,1.359-2.617,2.336C64.99,58.924,64.34,59.733,63.862,60.438z"/>
<path fill-rule="evenodd" clip-rule="evenodd" fill="#231F20" d="M82.164,67.611c3.347-0.1,7.54,0.334,7.572,1.404
	c0.018,0.626-0.309,1.933-2.095,2.114c-2.107,0.214-12.731,0.665-12.692,1.977c0.02,0.694,3.213,0.847,6.142,1.025
	c3.009,0.182,7.841,0.295,7.985,5.164c0.114,3.844-1.341,4.656-1.995,4.962c-0.832,0.389-3.624,1.451-5.765,1.514
	c-6.453,0.192-9.114-3.516-9.17-5.401c-0.049-1.673,1.672-3.157,4.567-3.243c2.895-0.086,7.377,0.958,7.413,2.148
	c0.028,0.965-1.948,1.462-2.823,1.487c-3.95,0.118-3.757-1.487-6.033-1.42c-1.296,0.039-3.116,2.794,3.383,2.601
	c5.789-0.172,7.543-2.08,7.512-3.105c-0.04-1.357-4.194-2.018-6.597-2.143c-2.403-0.124-6.009-0.108-7.24-0.886
	c-1.23-0.778-1.057-2.539-0.632-3.995C72.586,68.771,78.817,67.711,82.164,67.611z"/>
<path fill-rule="evenodd" clip-rule="evenodd" fill="#231F20" d="M93.594,68.871c2.261-0.067,7.002,10.187,7.802,10.163
	c0.799-0.023,0.205-2.395-0.3-5.015c-1.142-5.926-2.923-8.981-1.249-9.031c1.236-0.037,5.292,3.886,5.517,11.484
	c0.105,3.528-0.391,8.144-3.587,8.239c-3.03,0.089-6.483-9.479-7.267-9.456c-0.423,0.013-0.458,5.928-0.571,7.712
	c-0.113,1.783-0.734,2.737-1.729,2.767c-1.507,0.045-2.169-1.399-2.253-4.248C89.871,78.638,90.805,68.954,93.594,68.871z"/>
<path fill="#231F20" d="M116.59,74.419c1.07-0.032,2.016-0.211,1.921,1.18c-0.095,1.39-0.153,1.951-1.269,1.984l-5.723,0.17
	c-0.189,0.637-0.679,2.277-0.899,2.969c-0.276,0.868,0.594,0.677,1.715,0.357c1.123-0.32,4.168-0.894,5.42-0.931
	c1.251-0.037,2.186,1.957,1.467,2.642c-0.72,0.686-4.591,3.954-8.631,4.074c-1.734,0.051-4.088-1.463-4.169-4.177
	c-0.043-1.436,0.535-3.364,1.087-4.861c-0.135-0.085-0.238-0.283-0.317-0.714c-0.18-0.976-0.619-2.049,1.005-2.233
	c0.13-0.015,0.294-0.03,0.484-0.046l1.341-2.763c-0.544-0.08-1.015-0.2-1.377-0.373c-0.986-0.471-1.755-1.683-1.771-2.226
	c-0.036-1.191,8.695-1.903,10.716-1.963c2.171-0.065,2.787,0.354,3.481,1.345c0.692,0.99,0.955,1.692,0.963,1.963
	c0.007,0.271-0.244,0.943-2.867,1.021c-1.342,0.04-3.511,0.266-5.593,0.342l-0.907,2.416
	C114.695,74.497,116.59,74.419,116.59,74.419z"/>
<path fill-rule="evenodd" clip-rule="evenodd" fill="#231F20" d="M122.506,82.674c-2.345,4.625-3.922,9.524-3.813,13.213
	c0.124,4.156,2.675,5.707,3.452,5.684c0.775-0.023,0.814-1.254,0.953-2.171c0.789-5.19,2.15-9.789,3.702-13.653
	c0.614,0.154,1.224,0.226,1.787,0.209c4.753-0.141,10.262-5.82,10.082-11.867c-0.094-3.193-1.315-5.457-3.361-5.396
	c-2.993,0.089-7.296,4.613-10.751,10.292c-0.308-2.304,1.509-5.852,3.058-8.333c1.088-1.742,0.897-3.814,0.445-3.8
	c-0.633,0.019-6.766,5.21-6.554,12.33C121.547,80.566,121.908,81.726,122.506,82.674z M128.848,81.235
	c2.863-5.596,5.814-8.787,6.852-8.817C137.499,72.364,135.976,80.503,128.848,81.235z"/>
</svg>
