<?xml version="1.0" encoding="utf-8"?>
<!-- Generator: Adobe Illustrator 17.0.2, SVG Export Plug-In . SVG Version: 6.00 Build 0)  -->
<!DOCTYPE svg PUBLIC "-//W3C//DTD SVG 1.1//EN" "http://www.w3.org/Graphics/SVG/1.1/DTD/svg11.dtd">
<svg version="1.1" id="Layer_1" xmlns="http://www.w3.org/2000/svg" xmlns:xlink="http://www.w3.org/1999/xlink" x="0px" y="0px"
	 width="150px" height="150px" viewBox="0 0 150 150" enable-background="new 0 0 150 150" xml:space="preserve">
<g>
	<g>
		<polygon fill="#0060A8" points="25.294,95.498 25.294,54.502 49.982,54.502 50.74,65.712 36.922,65.712 36.922,71.061 
			48.18,71.061 48.18,82.244 36.829,82.244 36.857,95.498 		"/>
		<polygon fill="#0060A8" points="120.748,95.437 108.406,74.167 119.622,54.563 107.266,54.563 102.137,63.393 97.1,54.563 
			84.308,54.563 95.749,74.305 83.633,95.437 96.056,95.461 101.982,85.099 107.977,95.437 		"/>
		<path fill="#0060A8" d="M69.961,55.121c-10.789,0-19.535,8.924-19.535,19.933c0,11.008,8.745,19.933,19.535,19.933
			c10.788,0,19.534-8.925,19.534-19.933C89.495,64.044,80.75,55.121,69.961,55.121z M70.015,86.571
			c-1.831,0-3.315-1.515-3.315-3.384l0.004-16.329c0-1.868,1.48-3.54,3.312-3.54c1.831,0,3.43,1.672,3.43,3.54l0.049,16.378
			C73.495,85.104,71.846,86.571,70.015,86.571z"/>
	</g>
	<path fill="#0060A8" d="M126.706,95.425h-0.394v-2.37H126.3l-0.945,2.37h-0.256l-0.919-2.37h-0.013v2.37h-0.394V92.66h0.664
		l0.794,1.99l0.821-1.99h0.656V95.425z M123.24,93.055h-0.919v2.37h-0.395v-2.37h-0.925V92.66h2.239V93.055z"/>
</g>
</svg>
