<?xml version="1.0" encoding="utf-8"?>
<!-- Generator: Adobe Illustrator 17.0.2, SVG Export Plug-In . SVG Version: 6.00 Build 0)  -->
<!DOCTYPE svg PUBLIC "-//W3C//DTD SVG 1.1//EN" "http://www.w3.org/Graphics/SVG/1.1/DTD/svg11.dtd">
<svg version="1.1" id="Layer_1" xmlns="http://www.w3.org/2000/svg" xmlns:xlink="http://www.w3.org/1999/xlink" x="0px" y="0px"
	 width="150px" height="150px" viewBox="0 0 150 150" enable-background="new 0 0 150 150" xml:space="preserve">
<g>
	<path fill-rule="evenodd" clip-rule="evenodd" fill="#231F20" d="M103.437,82.473c4.151,0,7.517-3.369,7.517-7.528
		c0-4.157-3.365-7.528-7.517-7.528c-4.151,0-7.517,3.37-7.517,7.528C95.92,79.104,99.286,82.473,103.437,82.473L103.437,82.473z"/>
	<path fill-rule="evenodd" clip-rule="evenodd" fill="#231F20" d="M103.528,55.212c-8.617,0-15.941,5.539-18.619,13.254
		c0.102-0.757,0.149-1.583,0.149-2.49c0-2.856-1.638-5.958-3.981-7.641c-2.191-1.582-4.405-2.548-7.055-2.548H56.953v38.872h15.998
		c3.16,0,5.868-1.161,8.568-3.101c2.497-1.786,4.092-4.964,4.092-7.973c0-0.141-0.001-0.28-0.004-0.419
		c3.114,6.795,9.967,11.514,17.921,11.514c10.884,0,19.707-8.836,19.707-19.734C123.235,64.047,114.411,55.212,103.528,55.212
		L103.528,55.212z M66.921,64.212h4.172c2.035,0,4.173,0.357,4.173,2.955c0.148,2.345-1.254,3.736-4.065,3.736l-4.28,0.015V64.212
		L66.921,64.212z M74.663,85.117c-0.868,0.715-2.041,0.665-3.113,0.665h-4.644v-7.137h4.236c2.564,0,4.759,0.666,4.871,3.661
		C76.012,83.278,75.429,84.554,74.663,85.117L74.663,85.117z M84.055,77.624c-0.764-1.011-1.875-1.968-3.484-2.894
		c1.818-0.94,2.983-2.091,3.679-3.628c-0.245,1.246-0.374,2.533-0.374,3.85C83.876,75.859,83.938,76.75,84.055,77.624L84.055,77.624
		z M103.437,85.213c-5.661,0-10.25-4.597-10.25-10.267c0-5.67,4.589-10.267,10.25-10.267c5.661,0,10.25,4.597,10.25,10.267
		C113.686,80.616,109.097,85.213,103.437,85.213L103.437,85.213z"/>
	<polygon fill-rule="evenodd" clip-rule="evenodd" fill="#231F20" points="44.754,70.052 36.7,70.052 36.7,55.716 26.765,55.716 
		26.765,94.725 36.651,94.725 36.651,79.499 44.705,79.499 44.705,94.725 54.769,94.725 54.769,55.716 44.754,55.716 44.754,70.052 
			"/>
	<path fill-rule="evenodd" clip-rule="evenodd" fill="#231F20" d="M119.235,92.487c-0.668,0-1.192,0.469-1.192,1.152
		c0,0.684,0.526,1.149,1.192,1.149c0.666,0,1.193-0.469,1.193-1.149C120.427,92.955,119.904,92.487,119.235,92.487L119.235,92.487z
		 M119.235,94.46c-0.477,0-0.831-0.348-0.831-0.821c0-0.472,0.351-0.823,0.831-0.823c0.475,0,0.832,0.357,0.832,0.823
		C120.066,94.102,119.706,94.46,119.235,94.46L119.235,94.46z"/>
	<path fill-rule="evenodd" clip-rule="evenodd" fill="#231F20" d="M119.438,93.72c0.168-0.008,0.298-0.095,0.298-0.327
		c0-0.298-0.195-0.372-0.521-0.372h-0.467v1.237h0.312v-0.527h0.053l0.284,0.527h0.359L119.438,93.72L119.438,93.72z
		 M119.238,93.521h-0.178v-0.288h0.15c0.092,0,0.198,0.012,0.198,0.132C119.407,93.493,119.346,93.521,119.238,93.521
		L119.238,93.521z"/>
</g>
</svg>
