<?xml version="1.0" encoding="utf-8"?>
<!-- Generator: Adobe Illustrator 17.0.2, SVG Export Plug-In . SVG Version: 6.00 Build 0)  -->
<!DOCTYPE svg PUBLIC "-//W3C//DTD SVG 1.1//EN" "http://www.w3.org/Graphics/SVG/1.1/DTD/svg11.dtd">
<svg version="1.1" id="Layer_1" xmlns="http://www.w3.org/2000/svg" xmlns:xlink="http://www.w3.org/1999/xlink" x="0px" y="0px"
	 width="150px" height="150px" viewBox="0 0 150 150" enable-background="new 0 0 150 150" xml:space="preserve">
<g>
	<path fill-rule="evenodd" clip-rule="evenodd" fill="#545454" d="M41.159,99.128V51.726h25.884l4.691,4.691l4.503-4.691h22.447
		l4.208,4.207v4.75l1.955-1.718c0.948-0.721,1.778-1.077,2.489-1.077c0.948,0,1.708,0.395,2.291,1.175
		c0.582,0.78,0.869,1.886,0.869,3.328c-0.088,0.672-0.326,1.244-0.701,1.708c-0.385,0.474-0.938,1.017-1.678,1.649
		c-0.741,0.632-1.254,1.136-1.54,1.501c-0.504,0.652-1.146,1.432-1.927,2.331c-0.77,0.889-1.382,1.62-1.817,2.183v23.633
		l-3.96,3.732H76.237V82.656l-4.691,4.266l-4.326-3.08v11.376l-4.138,3.911H41.159L41.159,99.128z M63.082,80.947v16.345
		l2.666-2.607v-11.84L63.082,80.947L63.082,80.947z M98.871,77.976v19.622l2.667-2.676V73.886L98.871,77.976L98.871,77.976z
		 M98.871,53.622v12.443l2.726-3.911v-5.797L98.871,53.622L98.871,53.622z M85.787,70.627l-0.484,0.889
		c-0.277,0.484-0.415,1.027-0.415,1.6c0,0.652,0.148,1.323,0.454,2.015c0.306,0.692,0.819,1.639,1.551,2.845
		c0.74,1.194,1.294,2.152,1.669,2.873c0.375,0.721,0.632,1.442,0.771,2.163c0.483,3.832,1.51,5.748,3.081,5.748
		c0.118,0,0.335-0.04,0.651-0.118c0.326,0,0.583-0.109,0.771-0.317c0.188-0.207,0.335-0.483,0.434-0.829
		c0.099-0.345,0.168-0.721,0.218-1.136c0.039-0.414,0.079-0.839,0.118-1.273c0.128-0.731,0.375-1.423,0.75-2.084
		c0.386-0.671,0.622-1.214,0.731-1.649c0.948-1.906,1.688-3.298,2.212-4.187c0.524-0.899,1.343-2.183,2.479-3.871
		c0.345-0.691,0.641-1.215,0.888-1.56c0.256-0.346,0.652-0.859,1.195-1.531c0.543-0.681,1.017-1.303,1.402-1.886
		c0.404-0.612,1.116-1.392,2.143-2.33c1.027-0.929,1.778-1.758,2.252-2.459c0.474-0.711,0.711-1.639,0.711-2.785
		c0-0.425-0.187-0.859-0.553-1.294c-0.365-0.444-0.859-0.662-1.471-0.662c-0.919,0.187-2.045,1.027-3.368,2.528
		c-1.323,1.511-2.538,3.081-3.644,4.74c-1.096,1.649-2.212,3.397-3.348,5.224c-0.257,0.434-0.534,1.165-0.84,2.193
		c-0.316,1.027-0.592,1.777-0.829,2.252c-0.217,0.217-0.503,0.701-0.859,1.451c-0.356,0.751-0.711,1.314-1.077,1.699
		c-0.365,0.385-0.909,0.583-1.619,0.583c-0.524-0.534-0.919-1.294-1.185-2.282c-0.277-0.988-0.592-2.34-0.948-4.069
		c-0.366-1.718-0.642-2.597-0.84-2.647c-0.494-0.395-1.027-0.592-1.59-0.592C86.645,69.867,86.172,70.124,85.787,70.627
		L85.787,70.627z M73.63,70.627c-0.435,0.484-0.839,0.879-1.215,1.195c-0.375,0.306-0.948,0.691-1.728,1.155
		c-0.78,0.474-1.234,0.75-1.382,0.849c-0.553,0.553-0.83,1.225-0.83,2.014c0,0.573,0.217,0.968,0.652,1.186
		c0.158,0.079,0.395,0.108,0.711,0.108c0.75,0,1.619-0.484,2.607-1.472c0.741-0.78,1.442-1.511,2.113-2.182
		c0.662-0.681,1.353-1.244,2.064-1.698c0.72-0.464,1.52-0.77,2.4-0.918c0,0.029,0.138,0.543,0.414,1.54
		c0.277,1.007,0.415,1.797,0.415,2.38c0,1.313,0.03,2.636,0.089,3.951c0.06,1.304,0.088,2.123,0.088,2.439
		c0,0.977-0.138,2.459-0.404,4.444c-0.168,0.899-0.247,1.511-0.247,1.837c0,0.682,0.198,1.63,0.593,2.844
		c0.069,0.246,0.138,0.651,0.197,1.214c0.059,0.563,0.149,0.978,0.267,1.234c0.108,0.257,0.336,0.395,0.662,0.395
		c0.246,0.118,0.464,0.187,0.652,0.187c0.602,0,1.086-0.454,1.432-1.352c0.346-0.889,0.524-2.005,0.524-3.338
		c-0.356-1.413-0.544-2.825-0.544-4.207v-2.183c0.168-2.479,0.246-4.078,0.246-4.809c0-0.592-0.019-0.988-0.059-1.185
		c-0.05-0.434-0.208-1.145-0.455-2.133c-0.257-0.997-0.375-1.748-0.375-2.242c0-0.75,0.228-1.501,0.701-2.262
		c1.195-2.43,4.059-4.148,8.602-5.145c0.859-0.435,1.294-0.968,1.294-1.61c0-0.79-0.76-1.185-2.301-1.185
		c-0.75,0-1.422,0.128-2.004,0.385c-0.592,0.257-1.314,0.652-2.153,1.195c-0.85,0.553-1.57,0.958-2.163,1.244
		c-0.583,0.286-1.225,0.454-1.926,0.504c-0.583,0.03-1.105,0.049-1.55,0.079c-0.455,0.02-0.85,0.118-1.195,0.277
		c-0.346,0.158-0.701,0.464-1.067,0.918c-0.375,0.454-0.761,1.086-1.166,1.916c-0.049,0.217-0.632,0.563-1.718,1.027
		C74.785,69.699,74.035,70.173,73.63,70.627L73.63,70.627z"/>
</g>
</svg>
