<?xml version="1.0" encoding="utf-8"?>
<!-- Generator: Adobe Illustrator 17.0.2, SVG Export Plug-In . SVG Version: 6.00 Build 0)  -->
<!DOCTYPE svg PUBLIC "-//W3C//DTD SVG 1.1//EN" "http://www.w3.org/Graphics/SVG/1.1/DTD/svg11.dtd">
<svg version="1.1" id="Layer_1" xmlns="http://www.w3.org/2000/svg" xmlns:xlink="http://www.w3.org/1999/xlink" x="0px" y="0px"
	 width="150px" height="150px" viewBox="0 0 150 150" enable-background="new 0 0 150 150" xml:space="preserve">
<g>
	<path fill-rule="evenodd" clip-rule="evenodd" fill="#F1C218" d="M46.881,63.177c-0.893-0.331-1.919-0.496-3.143-0.496
		c-1.522,0-2.944,0.43-4.301,1.356c-0.496,0.331-0.959,0.695-1.422,1.158c-1.521,1.588-2.283,3.507-2.283,5.789
		c0,2.216,0.761,4.135,2.283,5.723c0.695,0.694,1.422,1.224,2.216,1.588c1.092,0.595,2.283,0.893,3.507,0.893h27.325L49.891,64.931
		c-0.529-0.331-0.992-0.662-1.422-0.893C47.84,63.641,47.311,63.343,46.881,63.177L46.881,63.177z"/>
	<path fill-rule="evenodd" clip-rule="evenodd" fill="#E87224" d="M55.912,47.1c-0.232-0.132-0.43-0.265-0.629-0.43
		c-1.72-1.158-3.771-1.522-6.153-1.092c-1.29,0.265-2.415,0.761-3.374,1.522c-0.397,0.331-0.761,0.662-1.092,1.059
		c-0.232,0.265-0.43,0.562-0.629,0.827c-0.496,0.728-0.893,1.456-1.125,2.25c-0.397,1.191-0.463,2.481-0.199,3.837
		c0.232,1.158,0.629,2.216,1.158,3.077c0.562,0.893,1.29,1.621,2.15,2.183l23.852,16.309L59.121,51.996
		c-0.132-0.264-0.232-0.529-0.331-0.761c-0.43-1.059-0.827-1.853-1.191-2.415c-0.165-0.199-0.331-0.43-0.53-0.662
		C56.739,47.794,56.342,47.431,55.912,47.1L55.912,47.1z"/>
	<path fill-rule="evenodd" clip-rule="evenodd" fill="#BF1F46" d="M68.814,35.256c-0.232-0.099-0.463-0.165-0.728-0.232
		c-1.356-0.364-2.713-0.364-4.069,0c-0.463,0.133-0.927,0.298-1.39,0.497c-2.084,0.926-3.507,2.415-4.268,4.433
		c-0.033,0.099-0.099,0.232-0.132,0.331c-0.695,2.084-0.662,4.069,0.165,5.955l11.678,26.829l3.871-27.094
		c0.232-1.521,0.331-2.679,0.298-3.44c-0.033-0.728-0.198-1.456-0.463-2.25c-0.066-0.265-0.198-0.529-0.298-0.827
		C72.618,37.506,71.063,36.117,68.814,35.256L68.814,35.256z"/>
	<path fill-rule="evenodd" clip-rule="evenodd" fill="#06AB4B" d="M101.499,64.038c-0.43,0.232-0.893,0.562-1.422,0.893
		L78.904,79.189h27.325c1.621,0,3.143-0.496,4.598-1.522c0.364-0.265,0.728-0.596,1.125-0.959c0.066-0.066,0.132-0.132,0.232-0.232
		c0.893-0.959,1.489-2.051,1.819-3.308c0.099-0.364,0.199-0.761,0.232-1.158c0.033-0.331,0.033-0.695,0.033-1.026
		c0-1.853-0.496-3.474-1.522-4.83c-0.232-0.331-0.496-0.662-0.794-0.959c-0.463-0.463-0.959-0.827-1.456-1.158
		c-0.562-0.43-1.191-0.728-1.82-0.959c-0.794-0.265-1.621-0.397-2.448-0.397c-1.224,0-2.25,0.165-3.11,0.496
		C102.69,63.343,102.127,63.641,101.499,64.038L101.499,64.038z"/>
	<path fill-rule="evenodd" clip-rule="evenodd" fill="#70569D" d="M91.739,40.285c-0.033-0.099-0.099-0.232-0.132-0.331
		c-0.794-2.051-2.216-3.507-4.268-4.433c-0.463-0.198-0.926-0.364-1.389-0.497c-1.356-0.364-2.713-0.364-4.069,0
		c-0.265,0.066-0.496,0.133-0.728,0.232c-2.25,0.86-3.804,2.283-4.665,4.202c-0.099,0.298-0.232,0.562-0.331,0.827
		c-0.397,1.191-0.529,2.349-0.397,3.54v0.165h2.216c0.662,0.066,1.092,0.165,1.191,0.331c0.165,0.165-0.165,0.43-0.893,0.728
		l-0.562,0.364l-0.695,0.562c-0.298,0.265-0.463,0.662-0.562,1.125c-0.066,0.331-0.099,0.662-0.066,1.059
		c0,0.165,0,0.298,0.033,0.496l3.474,24.414L91.607,46.24C92.401,44.42,92.467,42.402,91.739,40.285L91.739,40.285z"/>
	<path fill-rule="evenodd" clip-rule="evenodd" fill="#0389CA" d="M107.42,53.22c-0.066-1.456-0.529-2.845-1.456-4.234
		c-0.199-0.265-0.397-0.562-0.629-0.827c-0.331-0.397-0.695-0.728-1.092-1.059c-0.992-0.761-2.117-1.29-3.407-1.522
		c-2.382-0.43-4.433-0.066-6.153,1.092c-0.199,0.165-0.43,0.298-0.629,0.43c-0.43,0.364-0.794,0.694-1.125,1.059
		c-0.232,0.232-0.397,0.463-0.529,0.662c-0.43,0.662-0.959,1.72-1.555,3.176L80.095,76.642l23.852-16.309
		c0.893-0.596,1.588-1.29,2.15-2.183c0.066-0.066,0.099-0.132,0.132-0.232c0.298-0.496,0.529-1.059,0.728-1.654
		c0.099-0.364,0.232-0.794,0.298-1.191C107.387,54.444,107.453,53.815,107.42,53.22L107.42,53.22z"/>
	<path fill-rule="evenodd" clip-rule="evenodd" fill="#231F20" d="M73.346,90.867v6.286h3.077c0.86,0,1.588-0.331,2.15-1.026
		c0.562-0.695,0.827-1.456,0.827-2.415c-0.033-0.761-0.364-1.423-0.992-1.985c-0.595-0.595-1.29-0.86-2.084-0.86H73.346
		L73.346,90.867z M73.346,101.817v6.848h3.54c1.092,0,2.084-0.232,2.977-0.761c0.86-0.496,1.323-1.29,1.323-2.382
		c0-2.283-1.456-3.54-4.301-3.705H73.346L73.346,101.817z M109.504,85.838v6.286c-1.786-0.959-3.341-1.456-4.665-1.456
		c-0.298,0-0.959,0.066-1.952,0.198c-2.349,0.331-4.301,1.356-5.855,3.01c-1.522,1.654-2.316,3.639-2.316,5.988
		c0,2.216,0.728,4.102,2.15,5.69c1.389,1.588,3.209,2.647,5.458,3.11c0.562,0.132,1.29,0.198,2.25,0.198
		c1.82-0.099,3.441-0.595,4.929-1.489v6.881c-1.786,0.662-3.54,0.992-5.326,0.992c-0.794,0-1.422,0-1.853-0.066
		c-2.812-0.265-5.359-1.092-7.675-2.481c-2.316-1.389-4.168-3.242-5.492-5.591c-1.356-2.349-2.051-4.929-2.051-7.84
		c0.099-2.68,0.86-5.128,2.25-7.311c1.389-2.183,3.242-3.937,5.558-5.194c2.316-1.29,4.863-2.018,7.609-2.15
		C105.171,84.614,107.486,85.011,109.504,85.838L109.504,85.838z M47.278,114.256h-6.12V84.614l16.905,15.251V85.838h6.286v29.343
		L47.278,99.27V114.256L47.278,114.256z M67.16,114.256V85.838H79.4c1.687,0.198,3.11,0.86,4.234,2.018
		c1.125,1.158,1.753,2.58,1.886,4.301c0,2.944-1.092,5.095-3.308,6.484c3.077,1.29,4.731,3.639,4.896,6.98
		c0,2.283-0.728,4.268-2.183,5.922c-1.456,1.654-3.308,2.547-5.525,2.713H67.16L67.16,114.256z"/>
</g>
</svg>
