<?xml version="1.0" encoding="utf-8"?>
<!-- Generator: Adobe Illustrator 17.0.2, SVG Export Plug-In . SVG Version: 6.00 Build 0)  -->
<!DOCTYPE svg PUBLIC "-//W3C//DTD SVG 1.1//EN" "http://www.w3.org/Graphics/SVG/1.1/DTD/svg11.dtd">
<svg version="1.1" xmlns="http://www.w3.org/2000/svg" xmlns:xlink="http://www.w3.org/1999/xlink" x="0px" y="0px" width="390px"
	 height="137px" viewBox="0 0 390 137" enable-background="new 0 0 390 137" xml:space="preserve">
<g id="Layer_1">
	<path id="XMLID_11_" fill="#FFFFFF" d="M253.74,116.568c-1.16,0.513-2.493,0.774-3.962,0.774l23.943,0.003l-33.737-48.574
		L271.35,18.3h-30.553L223.59,48.921L205.705,18.3h-29.673l30.892,48.37l-32.857,50.674l20.643-0.047
		c-3.291-0.257-6.444-2.889-7.36-6.126c-0.921-3.057-0.144-6.347,2.079-8.795c1.763-1.817,3.984-2.738,6.493-2.727
		c-2.054-1.829-3.013-4.538-2.649-7.596c0.365-2.887,2.471-5.698,5.121-6.837c2.718-1.226,6.075-0.794,8.499,1.011
		c-0.308-1.534-0.38-3.385,0.188-4.819c0.798-2.674,3.456-5.142,6.173-5.713c3.632-0.781,7.031,0.59,9.096,3.671
		c0.247,0.365,0.43,0.754,0.603,1.135c1.242-2.657,3.978-4.709,6.775-4.998c3.125-0.401,6.063,0.901,8.057,3.576
		c1.414,2.026,1.912,4.8,1.349,7.182c2.289-1.642,5.38-2.089,7.958-1.093c2.773,0.916,5.167,3.865,5.553,6.854
		c0.382,2.946-0.48,5.554-2.5,7.593c3.482,0.107,6.53,2.099,7.916,5.248c1.405,3.171,0.844,7.185-1.336,9.544
		C255.694,115.449,254.719,116.152,253.74,116.568z"/>
	<g id="XMLID_16_">
		<path id="XMLID_17_" fill="#FFFFFF" d="M203.675,66.76l-32.857,50.795c-3.831,0.763-8.01,1.145-12.536,1.145
			c-13.504,0-23.88-3.455-31.129-10.365c-7.249-6.91-10.873-16.845-10.873-29.809V18.3h26.895v58.126
			c0,7.001,1.31,12.082,3.929,15.243c2.619,3.162,6.48,4.743,11.584,4.743c5.464,0,9.427-1.569,11.89-4.708
			c2.461-3.139,3.692-8.276,3.692-15.413V21.42L203.675,66.76z"/>
	</g>
	<path id="XMLID_9_" fill="#0089CF" d="M247.719,100.045l-20.367,13.62l6.859-16.304l3.254-7.592c1.318-2.454,3.8-4.018,6.508-4.062
		c2.594,0,4.895,1.249,6.353,3.488c1.502,2.239,1.586,5.899,0.084,8.166C249.739,98.423,248.743,99.37,247.719,100.045"/>
	<path id="XMLID_7_" fill="#635FAA" d="M233.594,77.183c-2.062-0.976-4.881-0.661-6.733,0.546c-2.384,1.536-3.618,4.089-3.436,6.903
		l2.833,0.029c0.197,0.101,0.618,0.201,0.533,0.502l-1.445,0.861c-0.953,0.66-1.444,1.665-1.317,2.856l3.029,19.519l0.449,2.597
		l10.071-23.81c0.406-0.962,0.589-2.067,0.602-3.143C238.139,81.129,236.274,78.273,233.594,77.183z"/>
	<path id="XMLID_5_" fill="#CE1041" d="M222.289,82.22c-0.59-2.454-2.834-4.75-5.232-5.339c-2.834-0.732-5.582,0.186-7.532,2.353
		c-1.824,2.067-2.272,5.425-1.206,7.98l9.917,23.867l4.235-25.834C222.527,84.243,222.57,83.139,222.289,82.22z"/>
	<path id="XMLID_4_" fill="#F36F21" d="M197.042,99.184c-2.034-1.765-2.945-4.119-2.651-6.846c0.294-2.755,2.469-5.454,5.063-6.286
		c2.665-0.832,5.568-0.172,7.504,1.823c0.813,0.775,1.318,1.693,1.739,2.641l9.581,23.193L197.042,99.184"/>
	<path id="XMLID_3_" fill="#FDB813" d="M194.866,116.127c-2.65-0.301-4.693-1.729-5.939-4.159c-1.262-2.453-0.934-5.933,0.762-8.109
		c1.848-2.215,4.523-3.329,7.217-2.782c1.098,0.177,2.019,0.65,2.885,1.194l20.618,13.862L194.866,116.127"/>
	<path id="XMLID_2_" fill="#0CB14B" d="M250.84,116.127c2.651-0.301,4.693-1.729,5.939-4.159c1.262-2.453,0.934-5.933-0.762-8.109
		c-1.849-2.215-4.523-3.329-7.218-2.782c-1.098,0.177-2.018,0.65-2.885,1.194l-20.617,13.862L250.84,116.127"/>
</g>
<g id="Layer_2">
	<path fill="#FFFFFF" d="M223,115.149c-1.358,0-2.361-0.387-2.981-1.151c-1.069-1.318-0.66-3.337-0.656-3.357l3.349-22.512
		c0.093-1.146,0.261-2.479,0.373-2.655c0.113-0.081,0.961-0.191,1.972-0.191c0.089,0,0.17,0.001,0.243,0.003
		c-0.658,0.438-1.487,1.145-1.849,1.801c-0.419,0.761,2.294,19.779,2.842,23.584c0.012,0.047,0.567,2.061-0.413,3.358
		C225.316,114.772,224.348,115.149,223,115.149z"/>
</g>
</svg>
