<?xml version="1.0" encoding="utf-8"?>
<!-- Generator: Adobe Illustrator 17.0.2, SVG Export Plug-In . SVG Version: 6.00 Build 0)  -->
<!DOCTYPE svg PUBLIC "-//W3C//DTD SVG 1.1//EN" "http://www.w3.org/Graphics/SVG/1.1/DTD/svg11.dtd">
<svg version="1.1" id="Layer_1" xmlns="http://www.w3.org/2000/svg" xmlns:xlink="http://www.w3.org/1999/xlink" x="0px" y="0px"
	 width="150px" height="150px" viewBox="0 0 150 150" enable-background="new 0 0 150 150" xml:space="preserve">
<g>
	<path fill="#EA2925" d="M20.567,54.873c-2.057,0-4.258,0-6.315,0c-0.012,8.586-0.024,14.148-0.037,22.734
		c-2.713-8.379-5.43-13.926-8.152-22.734c-2.309,0-3.754,0-6.063,0c0,13.418,0,26.836,0,40.254c2.047-0.291,4.239-0.57,6.288-0.838
		c0.006-8.413,0.012-13.585,0.018-21.999c2.82,8.281,4.553,13.166,7.365,21.036c2.204-0.251,4.626-0.562,6.832-0.785
		C20.523,79.985,20.545,67.429,20.567,54.873"/>
	<path fill="#EA2925" d="M44.154,54.873c-5.855,0-11.638,0-17.493,0c-0.024,12.379-0.047,24.759-0.071,37.138
		c5.852-0.532,11.71-0.968,17.572-1.305c0.003-1.811,0.006-4.412,0.01-6.222c-3.812,0.234-7.459,0.479-11.258,0.733
		c0.007-3.328,0.013-6.08,0.02-9.409c2.776-0.048,5.708-0.006,8.545-0.054c0.003-1.819,0.006-4.431,0.01-6.249
		c-2.81,0.05-5.778,0.055-8.543,0.108c0.006-3.329,0.013-5.154,0.02-8.482c1.74-0.021,3.445-0.024,5.146-0.024
		c0.299,0,0.598,0,0.896,0c0.297,0,0.595,0,0.892,0c1.419,0,2.845-0.002,4.294-0.014C44.197,59.283,44.15,56.683,44.154,54.873"/>
	<path fill="#EA2925" d="M67.733,54.901c-6.421,0-13.058,0-19.479,0c-0.003,1.798-0.006,4.389-0.009,6.186
		c0.279-0.002,0.559-0.002,0.838-0.002c0.846,0,1.692,0.008,2.539,0.017c0.846,0.008,1.691,0.017,2.537,0.017
		c0.217,0,0.434-0.001,0.65-0.002c-0.013,9.98-0.026,19.096-0.039,29.076c2.061-0.077,4.267-0.142,6.328-0.193
		c0.009-9.926,0.019-18.987,0.027-28.912c2.178-0.008,4.427-0.015,6.604-0.019C67.731,59.3,67.732,56.668,67.733,54.901"/>
	<path fill="#EA2925" d="M89.396,54.873c-5.855,0-11.71,0-17.565,0c-0.002,11.652-0.004,23.304-0.005,34.956
		c0.679-0.003,1.366-0.004,2.055-0.004c1.404,0,2.82,0.005,4.203,0.017c-0.001-4.945-0.003-9.458-0.004-14.403
		c0.345,0.001,0.693,0.002,1.044,0.002c0.816,0,1.646-0.003,2.479-0.007c0.833-0.003,1.67-0.007,2.5-0.007
		c0.854,0,1.701,0.003,2.529,0.015c-0.001-1.773-0.003-4.41-0.005-6.183c-0.781-0.008-1.581-0.01-2.388-0.01
		c-0.864,0-1.737,0.003-2.607,0.006c-0.869,0.003-1.734,0.006-2.585,0.006c-0.325,0-0.648-0.001-0.97-0.001
		c-0.001-3.179-0.002-4.973-0.003-8.152c0.687,0.001,1.372,0.001,2.055,0.001c0.692,0,1.384,0,2.074-0.001c0.697,0,1.393,0,2.09,0
		c1.697,0,3.395,0.001,5.108,0.009C89.4,59.34,89.398,56.65,89.396,54.873"/>
	<path fill="#EA2925" d="M93.496,54.901c0.016,11.764-0.041,23.528-0.025,35.294c5.616,0.209,11.518,0.436,17.126,0.823
		c-0.003-1.81-0.007-4.412-0.01-6.222c-3.551-0.209-7.246-0.459-10.799-0.607c-0.017-10.075,0.039-19.213,0.023-29.288
		C97.754,54.901,95.554,54.901,93.496,54.901"/>
	<path fill="#EA2925" d="M115.779,54.902c0.024,12.166,0.048,24.332,0.072,36.499c2.058,0.159,4.185,0.33,6.242,0.513
		c0.007-12.329,0.024-24.674,0-37.012C120.037,54.902,117.836,54.902,115.779,54.902"/>
	<path fill="#EA2925" d="M127.508,54.903c2.525,6.152,4.835,12.321,7.399,18.854c-2.665,6.275-5.378,12.509-8.04,18.529
		c2.205,0.218,4.487,0.536,6.69,0.781c1.581-3.877,3.02-6.861,4.602-10.843c1.58,4.241,3.016,7.518,4.592,11.896
		c2.2,0.285,5.052,0.695,7.249,1.008c-2.663-7.12-5.576-14.534-8.255-21.263c2.667-6.32,5.389-12.353,8.159-18.96
		c-2.274,0-4.621,0-6.896,0c-1.71,4.083-2.887,6.708-4.525,10.595c-1.526-4.044-2.551-6.662-4.08-10.596
		C132.129,54.903,129.782,54.903,127.508,54.903"/>
</g>
</svg>
