<?xml version="1.0" encoding="utf-8"?>
<!-- Generator: Adobe Illustrator 17.0.2, SVG Export Plug-In . SVG Version: 6.00 Build 0)  -->
<!DOCTYPE svg PUBLIC "-//W3C//DTD SVG 1.1//EN" "http://www.w3.org/Graphics/SVG/1.1/DTD/svg11.dtd">
<svg version="1.1" id="Layer_1" xmlns="http://www.w3.org/2000/svg" xmlns:xlink="http://www.w3.org/1999/xlink" x="0px" y="0px"
	 width="150px" height="150px" viewBox="0 0 150 150" enable-background="new 0 0 150 150" xml:space="preserve">
<g>
	<path fill="#28B359" d="M125.285,41.143c-8.287-0.475-15.39,5.857-15.865,14.145c-0.475,8.287,5.856,15.391,14.144,15.865
		c8.286,0.475,15.389-5.858,15.865-14.145C139.904,48.721,133.57,41.618,125.285,41.143z M131.435,64.944l-3.841-0.22l-3.238-10.183
		l-3.895-0.223l-0.571,9.964l-4.18-0.24l0.572-9.964l-4.433-0.254l0.218-3.811l15.498,0.888l2.312,7.609l3.166-7.295l4.432,0.254
		L131.435,64.944z"/>
	<g>
		<g transform="matrix(1.0 0.0 0.0 1.0 0.0 0.0)">
			<path fill="#28B359" d="M44.892,72.116h-6.447v26.07h-11.96v-26.07h-5.939v-9.161h5.939v-9.897h11.96v9.897h6.447V72.116z"/>
		</g>
	</g>
	<g>
		<g transform="matrix(1.0 0.0 0.0 1.0 0.0 0.0)">
			<path fill="#28B359" d="M106.716,62.351v35.231H95.321v-4.298h-0.169c-1.074,2.281-2.743,3.856-5.006,4.723
				c-1.47,0.584-3.289,0.875-5.456,0.875c-1.904,0-3.743-0.282-5.514-0.848c-2.677-0.848-4.788-2.261-6.333-4.241
				c-1.529-1.885-2.536-3.762-3.027-5.627c-0.415-1.565-0.621-3.835-0.621-6.814V62.351h12.072v17.192
				c0,2.281,0.273,3.967,0.821,5.061c0.961,1.998,2.846,2.997,5.654,2.997c1.924,0,3.516-0.725,4.778-2.177
				c1.415-1.659,2.122-3.986,2.122-6.984V62.351H106.716z"/>
		</g>
	</g>
	<g>
		<g transform="matrix(1.0 0.0 0.0 1.0 0.0 0.0)">
			<path fill="#28B359" d="M57.674,68.553h0.171c0.773-1.508,1.677-2.668,2.714-3.478c1.753-1.376,4.072-2.092,6.957-2.149V75
				c-3.017,0.112-5.204,0.612-6.561,1.498c-1.696,1.131-2.544,3.074-2.544,5.826v15.862H46.45V62.955h11.224V68.553z"/>
		</g>
	</g>
</g>
</svg>
