<?xml version="1.0" encoding="utf-8"?>
<!-- Generator: Adobe Illustrator 17.0.2, SVG Export Plug-In . SVG Version: 6.00 Build 0)  -->
<!DOCTYPE svg PUBLIC "-//W3C//DTD SVG 1.1//EN" "http://www.w3.org/Graphics/SVG/1.1/DTD/svg11.dtd">
<svg version="1.1" id="Layer_1" xmlns="http://www.w3.org/2000/svg" xmlns:xlink="http://www.w3.org/1999/xlink" x="0px" y="0px"
	 width="390px" height="137px" viewBox="0 0 390 137" enable-background="new 0 0 390 137" xml:space="preserve">
<g>
	<path fill="#FFFFFF" d="M160.852,121.023c-0.3-0.174-0.589-0.371-0.903-0.517c-3.132-1.459-5.863-3.459-8.118-6.081
		c-1.874-2.178-3.205-4.645-3.701-7.497c-0.181-1.045-0.265-2.119-0.266-3.18c-0.017-13.382-0.009-26.764-0.017-40.146
		c0-0.833-0.039-1.676-0.163-2.498c-0.383-2.53-1.874-4.066-4.338-4.695c-1.36-0.348-2.74-0.294-4.116-0.214
		c-0.998,0.058-1.996,0.198-2.985,0.348c-1.584,0.24-3.04,0.861-4.501,1.575c0,0.235,0,0.463,0,0.691
		c-0.004,12.838-0.006,25.677-0.01,38.515c0,0.083,0,0.168,0,0.251c-0.001,0.717-0.353,1.096-1.072,1.152
		c-0.125,0.01-0.251,0.004-0.376,0.004c-3.931,0-7.862,0.001-11.793,0.001c-0.227,0-0.452,0-0.74,0
		c-0.013-0.268-0.032-0.47-0.031-0.673c0.007-8.761,0.017-17.523,0.026-26.283c0.013-12.379,0.026-24.756,0.04-37.135
		c0.004-2.907,0.015-5.813,0.006-8.72c-0.001-0.382,0.098-0.658,0.383-0.931c4.054-3.87,8.095-7.752,12.14-11.629
		c0.1-0.098,0.222-0.176,0.358-0.283c0.168,0.118,0.314,0.233,0.472,0.327c0.323,0.194,0.415,0.47,0.416,0.84
		c0.006,3.053,0.031,6.105,0.048,9.158c0.044,8.113,0.088,16.225,0.132,24.338c0.001,0.164,0,0.33,0,0.566
		c0.232-0.055,0.408-0.088,0.578-0.14c1.996-0.613,3.995-1.209,6.047-1.608c4.245-0.824,8.471-0.843,12.662,0.322
		c2.855,0.794,5.302,2.23,7.122,4.624c1.325,1.742,2.168,3.706,2.686,5.819c0.431,1.755,0.593,3.543,0.593,5.346
		c0,17.919,0,35.839,0,53.758c0,0.816-0.036,1.633,0.004,2.446c0.038,0.766-0.026,1.491-0.459,2.147
		C160.937,121.023,160.894,121.023,160.852,121.023z"/>
	<path fill="#FFFFFF" d="M273.874,77.218c-11.029,0-22.038,0-33.092,0c0,0.279-0.023,0.506,0.004,0.725
		c0.154,1.227,0.393,2.438,0.909,3.57c1.191,2.613,3.229,4.205,5.996,4.876c1.878,0.454,3.798,0.582,5.721,0.611
		c5.122,0.077,10.244,0.135,15.365,0.195c0.571,0.007,1.115,0.091,1.661,0.408c-0.114,0.148-0.2,0.285-0.309,0.399
		c-3.328,3.47-6.66,6.937-9.985,10.411c-0.205,0.214-0.417,0.309-0.711,0.307c-3.323-0.021-6.651,0.05-9.972-0.069
		c-3.639-0.131-7.171-0.864-10.455-2.527c-5.456-2.762-8.933-7.153-10.65-12.985c-0.706-2.397-1.045-4.857-1.248-7.339
		c-0.197-2.401-0.183-4.804,0.004-7.205c0.267-3.431,0.849-6.798,2.132-10.013c2.285-5.726,6.403-9.466,12.264-11.329
		c2.624-0.834,5.308-1.272,8.056-1.419c2.809-0.149,5.598-0.029,8.372,0.417c4.072,0.655,7.666,2.299,10.595,5.25
		c2.172,2.189,3.51,4.861,4.351,7.8c0.549,1.916,0.796,3.887,1,5.862c0.312,3.02,0.379,6.049,0.261,9.082
		c-0.032,0.835-0.098,1.67-0.157,2.503C273.974,76.893,273.92,77.029,273.874,77.218z M240.751,68.079
		c0.832,0.148,18.783,0.108,19.213-0.031c0-0.686,0.031-1.376-0.006-2.06c-0.072-1.334-0.13-2.673-0.495-3.971
		c-0.744-2.641-2.411-4.356-5.108-4.963c-1.829-0.412-3.692-0.457-5.543-0.151c-3.08,0.51-5.331,2.161-6.679,5.004
		c-0.697,1.472-1.029,3.04-1.234,4.642C240.833,67.059,240.799,67.574,240.751,68.079z"/>
	<path fill="#FFFFFF" d="M115.73,46.684c-0.232,0.518-0.435,1.017-0.673,1.499c-1.328,2.689-3.156,4.971-5.597,6.729
		c-2.287,1.646-4.84,2.515-7.672,2.503c-1.653-0.007-3.301,0.012-4.943,0.238c-1.607,0.221-3.146,0.654-4.579,1.426
		c-2.668,1.437-4.117,3.715-4.557,6.669c-0.508,3.404-0.624,6.827-0.361,10.257c0.108,1.417,0.295,2.825,0.709,4.194
		c0.682,2.252,2.056,3.935,4.11,5.076c1.58,0.877,3.289,1.338,5.07,1.49c1.622,0.138,3.252,0.211,4.88,0.247
		c3.575,0.08,7.149,0.116,10.724,0.174c0.306,0.005,0.613,0.039,1.039,0.067c-0.214,0.243-0.342,0.401-0.481,0.545
		c-3.227,3.365-6.457,6.728-9.681,10.095c-0.522,0.545-1.171,0.823-1.895,0.826c-2.403,0.01-4.812,0.055-7.212-0.062
		c-3.747-0.185-7.366-0.963-10.711-2.755c-4.405-2.358-7.335-5.985-9.117-10.6c-0.884-2.293-1.438-4.673-1.741-7.105
		c-0.243-1.948-0.418-3.908-0.527-5.868c-0.056-1.016,0.053-2.047,0.158-3.064c0.326-3.127,0.937-6.199,2.025-9.154
		c1.112-3.023,2.755-5.718,5.119-7.937c2.689-2.522,5.895-4.061,9.452-4.915c2.47-0.592,4.986-0.848,7.518-0.86
		c5.833-0.029,11.667-0.012,17.5-0.013C114.767,46.387,115.235,46.455,115.73,46.684z"/>
	<path fill="#FFFFFF" d="M292.868,98.731c-0.312,0-0.537,0-0.762,0c-3.993-0.004-7.987-0.007-11.981-0.011
		c-0.104,0-0.219,0.028-0.312-0.006c-0.39-0.142-0.835-0.229-1.132-0.485c-0.17-0.147-0.125-0.579-0.125-0.883
		c-0.004-11.166-0.002-22.331-0.001-33.497c0-2.098,0.218-4.169,0.724-6.211c1.055-4.262,3.609-7.269,7.56-9.128
		c1.964-0.924,4.043-1.421,6.176-1.768c2.535-0.412,5.081-0.363,7.629-0.37c3.931-0.012,7.862-0.04,11.793-0.021
		c1.461,0.007,2.923,0.125,4.384,0.198c0.198,0.01,0.394,0.06,0.679,0.107c-0.153,0.189-0.241,0.322-0.353,0.431
		c-3.239,3.118-6.482,6.23-9.716,9.353c-0.266,0.256-0.551,0.337-0.902,0.337c-2.864,0.004-5.729,0.031-8.593,0.017
		c-1.523-0.006-2.697,0.632-3.613,1.801c-0.81,1.034-1.183,2.249-1.346,3.53c-0.077,0.599-0.105,1.209-0.105,1.814
		c-0.006,11.145-0.005,22.289-0.005,33.434C292.868,97.788,292.868,98.203,292.868,98.731z"/>
	<path fill="#FFFFFF" d="M221.167,99.564c-0.567-0.249-1.008-0.425-1.434-0.631c-3.982-1.929-7.274-4.638-9.591-8.462
		c-1.578-2.604-2.358-5.416-2.356-8.461c0.007-10.181,0.001-20.362,0.001-30.543c0-4.787,0.006-9.575-0.01-14.362
		c-0.001-0.502,0.148-0.867,0.505-1.214c4.047-3.934,8.085-7.879,12.126-11.819c0.127-0.125,0.272-0.232,0.527-0.447
		C221.012,48.981,221.089,74.194,221.167,99.564z"/>
	<path fill="#FFFFFF" d="M200.992,99.564c-0.568-0.247-1.011-0.423-1.436-0.63c-4.158-2.026-7.591-4.86-9.856-8.961
		c-1.234-2.234-1.88-4.639-1.883-7.199c-0.007-8.404-0.007-16.808-0.009-25.212c-0.001-6.899,0.004-13.797-0.009-20.697
		c-0.001-0.47,0.122-0.811,0.47-1.148c3.963-3.84,7.91-7.698,11.862-11.551c0.158-0.154,0.321-0.303,0.483-0.453
		c0.048,0.018,0.094,0.038,0.142,0.056C200.835,48.983,200.912,74.199,200.992,99.564z"/>
	<path fill="#FFFFFF" d="M180.678,99.582c-0.594-0.261-1.035-0.442-1.465-0.647c-3.338-1.591-6.194-3.794-8.433-6.751
		c-2.231-2.945-3.346-6.267-3.319-9.979c0.028-3.7,0.005-7.399,0.005-11.099c-0.001-8.026-0.001-16.053-0.001-24.08
		c0-0.203,0.02-0.407,0.032-0.663c0.262-0.012,0.485-0.032,0.708-0.032c3.951,0,7.901,0.001,11.852,0.002
		c0.125,0,0.251-0.005,0.376,0.005c0.216,0.017,0.349,0.132,0.364,0.354c0.011,0.167,0.01,0.334,0.01,0.501
		c-0.001,17.099-0.002,34.196-0.01,51.295C180.796,98.812,180.728,99.133,180.678,99.582z"/>
	<path fill="#BE203A" d="M179.52,37.69c-4.234,0-8.424,0-12.616,0c-0.04-0.049-0.081-0.098-0.122-0.146
		c4.226-4.17,8.453-8.341,12.685-12.516C179.606,25.462,179.656,36.672,179.52,37.69z"/>
</g>
<g>
	<path fill="#BE203A" d="M184.909,118.599c0,3.996-2.525,5.321-6.353,5.321c-2.062,0-3.996-0.379-5.174-1.094l0.042-3.849
		c0.926,0.526,2.755,1.199,4.775,1.199c1.915,0,2.587-0.505,2.587-1.367c0-0.968-0.652-1.262-1.893-1.431
		c-3.892-0.463-5.511-1.431-5.511-4.88c0-3.092,1.893-5.027,6.205-5.027c2.209,0,3.849,0.42,4.649,0.821l-0.064,3.766
		c-1.009-0.484-2.798-0.842-4.27-0.842c-1.599,0-2.419,0.442-2.419,1.262c0,0.926,0.695,1.178,1.977,1.325
		C183.101,114.244,184.909,115.044,184.909,118.599z"/>
	<path fill="#BE203A" d="M192.986,107.471c1.915,0,2.924,0.358,3.66,0.652l-0.042,3.681c-0.968-0.337-1.851-0.568-3.156-0.568
		c-2.124,0-3.323,0.968-3.323,4.459c0,3.512,1.199,4.459,3.323,4.459c1.305,0,2.188-0.232,3.156-0.568l0.042,3.681
		c-0.736,0.316-1.746,0.652-3.66,0.652c-4.732,0-6.984-2.482-7.005-8.225C186.003,109.975,188.253,107.471,192.986,107.471z"/>
	<path fill="#BE203A" d="M202.072,120.723l-0.589,2.86h-4.333l3.87-15.86h5.427l3.87,15.86h-4.333l-0.589-2.86H202.072z
		 M203.735,111.574l-1.03,6.016h2.062L203.735,111.574z"/>
	<path fill="#BE203A" d="M215.366,123.584h-4.122v-15.776h5.826c4.417,0,5.805,1.956,5.805,5.048c0,1.936-0.526,3.365-2.062,4.207
		l2.84,6.521h-4.775l-2.062-5.743h-1.452v5.743H215.366z M215.366,114.54h1.766c1.136,0,1.346-0.926,1.346-1.661
		c0-0.757-0.273-1.64-1.346-1.64h-1.766V114.54z"/>
	<path fill="#BE203A" d="M229.818,113.74l2.399-5.931h4.606l-4.986,9.633l0.042,6.142h-4.122l0.042-6.142l-4.985-9.633h4.606
		L229.818,113.74z"/>
	<path fill="#BE203A" d="M240.882,115.696c0-5.511,2.167-8.225,6.984-8.225c2.356,0,3.975,0.399,4.964,0.842l-0.042,3.744
		c-1.283-0.463-2.546-0.821-4.312-0.821c-2.524,0-3.45,1.325-3.45,4.48c0,3.576,1.073,4.649,3.66,4.649
		c0.126,0,0.273-0.021,0.273-0.021v-2.819h-1.977v-3.386h6.099v8.624c-1.052,0.652-2.945,1.156-5.259,1.156
		C243.049,123.921,240.882,121.207,240.882,115.696z"/>
	<path fill="#BE203A" d="M260.843,107.471c5.216,0,6.395,3.239,6.395,8.225c0,4.985-1.178,8.225-6.395,8.225
		c-5.216,0-6.395-3.239-6.395-8.225C254.449,110.711,255.627,107.471,260.843,107.471z M260.843,111.132
		c-1.661,0-2.209,1.052-2.209,4.564c0,3.512,0.546,4.564,2.209,4.564s2.209-1.052,2.209-4.564
		C263.052,112.184,262.504,111.132,260.843,111.132z"/>
	<path fill="#BE203A" d="M274.853,107.471c5.216,0,6.395,3.239,6.395,8.225c0,4.985-1.178,8.225-6.395,8.225
		c-5.216,0-6.395-3.239-6.395-8.225C268.458,110.711,269.635,107.471,274.853,107.471z M274.853,111.132
		c-1.661,0-2.209,1.052-2.209,4.564c0,3.512,0.546,4.564,2.209,4.564c1.662,0,2.209-1.052,2.209-4.564
		C277.061,112.184,276.514,111.132,274.853,111.132z"/>
	<path fill="#BE203A" d="M282.635,123.584v-15.776h5.385c5.532,0,6.858,3.429,6.858,7.888c0,4.48-1.325,7.888-6.858,7.888
		C288.02,123.584,282.635,123.584,282.635,123.584z M286.757,119.987h1.283c2.062,0,2.608-1.452,2.608-4.291
		c0-2.819-0.546-4.291-2.608-4.291h-1.283V119.987z"/>
</g>
</svg>
